<?xml version="1.0" encoding="UTF-8" standalone="no"?>
<!DOCTYPE svg PUBLIC "-//W3C//DTD SVG 1.1//EN"
 "http://www.w3.org/Graphics/SVG/1.1/DTD/svg11.dtd">
<!-- Generated by graphviz version 2.26.3 (20100126.1600)
 -->
<!-- Title: controllers_diagram Pages: 1 -->
<svg width="1239pt" height="1214pt"
 viewBox="0.00 0.00 1239.00 1214.00" xmlns="http://www.w3.org/2000/svg" xmlns:xlink="http://www.w3.org/1999/xlink">
<g id="graph1" class="graph" transform="scale(1 1) rotate(0) translate(4 1210)">
<title>controllers_diagram</title>
<polygon fill="white" stroke="white" points="-4,5 -4,-1210 1236,-1210 1236,5 -4,5"/>
<!-- _diagram_info -->
<g id="node1" class="node"><title>_diagram_info</title>
<text text-anchor="start" x="809" y="-103.3" font-family="Times Roman,serif" font-size="13.00">Controllers diagram</text>
<text text-anchor="start" x="809" y="-86.3" font-family="Times Roman,serif" font-size="13.00">Date: Jun 28 2012 &#45; 01:48</text>
<text text-anchor="start" x="809" y="-69.3" font-family="Times Roman,serif" font-size="13.00">Migration version: 20120627130539</text>
<text text-anchor="start" x="809" y="-52.3" font-family="Times Roman,serif" font-size="13.00">Generated by RailRoady 1.0.7</text>
<text text-anchor="start" x="809" y="-35.3" font-family="Times Roman,serif" font-size="13.00">http://railroady.prestonlee.com</text>
</g>
<!-- VolosController -->
<g id="node2" class="node"><title>VolosController</title>
<polyline fill="none" stroke="black" points="13,-501.5 141,-501.5 "/>
<path fill="none" stroke="black" d="M141,-501.5C147,-501.5 153,-507.5 153,-513.5"/>
<polyline fill="none" stroke="black" points="153,-513.5 153,-719.5 "/>
<path fill="none" stroke="black" d="M153,-719.5C153,-725.5 147,-731.5 141,-731.5"/>
<polyline fill="none" stroke="black" points="141,-731.5 13,-731.5 "/>
<path fill="none" stroke="black" d="M13,-731.5C7,-731.5 1,-725.5 1,-719.5"/>
<polyline fill="none" stroke="black" points="1,-719.5 1,-513.5 "/>
<path fill="none" stroke="black" d="M1,-513.5C1,-507.5 7,-501.5 13,-501.5"/>
<text text-anchor="middle" x="77" y="-714.9" font-family="Times Roman,serif" font-size="14.00">VolosController</text>
<polyline fill="none" stroke="black" points="1,-705.5 153,-705.5 "/>
<text text-anchor="start" x="9" y="-688.9" font-family="Times Roman,serif" font-size="14.00">index</text>
<polyline fill="none" stroke="black" points="1,-679.5 153,-679.5 "/>
<text text-anchor="start" x="9" y="-662.9" font-family="Times Roman,serif" font-size="14.00">collection_path</text>
<text text-anchor="start" x="9" y="-644.9" font-family="Times Roman,serif" font-size="14.00">collection_url</text>
<text text-anchor="start" x="9" y="-626.9" font-family="Times Roman,serif" font-size="14.00">edit_resource_path</text>
<text text-anchor="start" x="9" y="-608.9" font-family="Times Roman,serif" font-size="14.00">edit_resource_url</text>
<text text-anchor="start" x="9" y="-590.9" font-family="Times Roman,serif" font-size="14.00">new_resource_path</text>
<text text-anchor="start" x="9" y="-572.9" font-family="Times Roman,serif" font-size="14.00">new_resource_url</text>
<text text-anchor="start" x="9" y="-554.9" font-family="Times Roman,serif" font-size="14.00">resource_path</text>
<text text-anchor="start" x="9" y="-536.9" font-family="Times Roman,serif" font-size="14.00">resource_url</text>
<polyline fill="none" stroke="black" points="1,-527.5 153,-527.5 "/>
<text text-anchor="start" x="9" y="-510.9" font-family="Times Roman,serif" font-size="14.00">_layout</text>
</g>
<!-- CrentitesController -->
<g id="node3" class="node"><title>CrentitesController</title>
<polyline fill="none" stroke="black" points="13,-976.5 141,-976.5 "/>
<path fill="none" stroke="black" d="M141,-976.5C147,-976.5 153,-982.5 153,-988.5"/>
<polyline fill="none" stroke="black" points="153,-988.5 153,-1192.5 "/>
<path fill="none" stroke="black" d="M153,-1192.5C153,-1198.5 147,-1204.5 141,-1204.5"/>
<polyline fill="none" stroke="black" points="141,-1204.5 13,-1204.5 "/>
<path fill="none" stroke="black" d="M13,-1204.5C7,-1204.5 1,-1198.5 1,-1192.5"/>
<polyline fill="none" stroke="black" points="1,-1192.5 1,-988.5 "/>
<path fill="none" stroke="black" d="M1,-988.5C1,-982.5 7,-976.5 13,-976.5"/>
<text text-anchor="middle" x="77" y="-1187.9" font-family="Times Roman,serif" font-size="14.00">CrentitesController</text>
<polyline fill="none" stroke="black" points="1,-1178.5 153,-1178.5 "/>
<polyline fill="none" stroke="black" points="1,-1154.5 153,-1154.5 "/>
<text text-anchor="start" x="9" y="-1137.9" font-family="Times Roman,serif" font-size="14.00">collection_path</text>
<text text-anchor="start" x="9" y="-1119.9" font-family="Times Roman,serif" font-size="14.00">collection_url</text>
<text text-anchor="start" x="9" y="-1101.9" font-family="Times Roman,serif" font-size="14.00">edit_resource_path</text>
<text text-anchor="start" x="9" y="-1083.9" font-family="Times Roman,serif" font-size="14.00">edit_resource_url</text>
<text text-anchor="start" x="9" y="-1065.9" font-family="Times Roman,serif" font-size="14.00">new_resource_path</text>
<text text-anchor="start" x="9" y="-1047.9" font-family="Times Roman,serif" font-size="14.00">new_resource_url</text>
<text text-anchor="start" x="9" y="-1029.9" font-family="Times Roman,serif" font-size="14.00">resource_path</text>
<text text-anchor="start" x="9" y="-1011.9" font-family="Times Roman,serif" font-size="14.00">resource_url</text>
<polyline fill="none" stroke="black" points="1,-1002.5 153,-1002.5 "/>
<text text-anchor="start" x="9" y="-985.9" font-family="Times Roman,serif" font-size="14.00">_layout</text>
</g>
<!-- SeritemsController -->
<g id="node4" class="node"><title>SeritemsController</title>
<polyline fill="none" stroke="black" points="413,-276.5 541,-276.5 "/>
<path fill="none" stroke="black" d="M541,-276.5C547,-276.5 553,-282.5 553,-288.5"/>
<polyline fill="none" stroke="black" points="553,-288.5 553,-674.5 "/>
<path fill="none" stroke="black" d="M553,-674.5C553,-680.5 547,-686.5 541,-686.5"/>
<polyline fill="none" stroke="black" points="541,-686.5 413,-686.5 "/>
<path fill="none" stroke="black" d="M413,-686.5C407,-686.5 401,-680.5 401,-674.5"/>
<polyline fill="none" stroke="black" points="401,-674.5 401,-288.5 "/>
<path fill="none" stroke="black" d="M401,-288.5C401,-282.5 407,-276.5 413,-276.5"/>
<text text-anchor="middle" x="477" y="-669.9" font-family="Times Roman,serif" font-size="14.00">SeritemsController</text>
<polyline fill="none" stroke="black" points="401,-660.5 553,-660.5 "/>
<text text-anchor="start" x="409" y="-643.9" font-family="Times Roman,serif" font-size="14.00">create</text>
<text text-anchor="start" x="409" y="-625.9" font-family="Times Roman,serif" font-size="14.00">destroy</text>
<text text-anchor="start" x="409" y="-607.9" font-family="Times Roman,serif" font-size="14.00">edit</text>
<text text-anchor="start" x="409" y="-589.9" font-family="Times Roman,serif" font-size="14.00">index</text>
<text text-anchor="start" x="409" y="-571.9" font-family="Times Roman,serif" font-size="14.00">move_down</text>
<text text-anchor="start" x="409" y="-553.9" font-family="Times Roman,serif" font-size="14.00">move_up</text>
<text text-anchor="start" x="409" y="-535.9" font-family="Times Roman,serif" font-size="14.00">update</text>
<polyline fill="none" stroke="black" points="401,-526.5 553,-526.5 "/>
<text text-anchor="start" x="409" y="-509.9" font-family="Times Roman,serif" font-size="14.00">collection_path</text>
<text text-anchor="start" x="409" y="-491.9" font-family="Times Roman,serif" font-size="14.00">collection_url</text>
<text text-anchor="start" x="409" y="-473.9" font-family="Times Roman,serif" font-size="14.00">edit_parent_path</text>
<text text-anchor="start" x="409" y="-455.9" font-family="Times Roman,serif" font-size="14.00">edit_parent_url</text>
<text text-anchor="start" x="409" y="-437.9" font-family="Times Roman,serif" font-size="14.00">edit_resource_path</text>
<text text-anchor="start" x="409" y="-419.9" font-family="Times Roman,serif" font-size="14.00">edit_resource_url</text>
<text text-anchor="start" x="409" y="-401.9" font-family="Times Roman,serif" font-size="14.00">new_resource_path</text>
<text text-anchor="start" x="409" y="-383.9" font-family="Times Roman,serif" font-size="14.00">new_resource_url</text>
<text text-anchor="start" x="409" y="-365.9" font-family="Times Roman,serif" font-size="14.00">parent_path</text>
<text text-anchor="start" x="409" y="-347.9" font-family="Times Roman,serif" font-size="14.00">parent_url</text>
<text text-anchor="start" x="409" y="-329.9" font-family="Times Roman,serif" font-size="14.00">resource_path</text>
<text text-anchor="start" x="409" y="-311.9" font-family="Times Roman,serif" font-size="14.00">resource_url</text>
<polyline fill="none" stroke="black" points="401,-302.5 553,-302.5 "/>
<text text-anchor="start" x="409" y="-285.9" font-family="Times Roman,serif" font-size="14.00">_layout</text>
</g>
<!-- NositemsController -->
<g id="node5" class="node"><title>NositemsController</title>
<polyline fill="none" stroke="black" points="613,-376.5 741,-376.5 "/>
<path fill="none" stroke="black" d="M741,-376.5C747,-376.5 753,-382.5 753,-388.5"/>
<polyline fill="none" stroke="black" points="753,-388.5 753,-774.5 "/>
<path fill="none" stroke="black" d="M753,-774.5C753,-780.5 747,-786.5 741,-786.5"/>
<polyline fill="none" stroke="black" points="741,-786.5 613,-786.5 "/>
<path fill="none" stroke="black" d="M613,-786.5C607,-786.5 601,-780.5 601,-774.5"/>
<polyline fill="none" stroke="black" points="601,-774.5 601,-388.5 "/>
<path fill="none" stroke="black" d="M601,-388.5C601,-382.5 607,-376.5 613,-376.5"/>
<text text-anchor="middle" x="677" y="-769.9" font-family="Times Roman,serif" font-size="14.00">NositemsController</text>
<polyline fill="none" stroke="black" points="601,-760.5 753,-760.5 "/>
<text text-anchor="start" x="609" y="-743.9" font-family="Times Roman,serif" font-size="14.00">create</text>
<text text-anchor="start" x="609" y="-725.9" font-family="Times Roman,serif" font-size="14.00">destroy</text>
<text text-anchor="start" x="609" y="-707.9" font-family="Times Roman,serif" font-size="14.00">edit</text>
<text text-anchor="start" x="609" y="-689.9" font-family="Times Roman,serif" font-size="14.00">index</text>
<text text-anchor="start" x="609" y="-671.9" font-family="Times Roman,serif" font-size="14.00">move_down</text>
<text text-anchor="start" x="609" y="-653.9" font-family="Times Roman,serif" font-size="14.00">move_up</text>
<text text-anchor="start" x="609" y="-635.9" font-family="Times Roman,serif" font-size="14.00">update</text>
<polyline fill="none" stroke="black" points="601,-626.5 753,-626.5 "/>
<text text-anchor="start" x="609" y="-609.9" font-family="Times Roman,serif" font-size="14.00">collection_path</text>
<text text-anchor="start" x="609" y="-591.9" font-family="Times Roman,serif" font-size="14.00">collection_url</text>
<text text-anchor="start" x="609" y="-573.9" font-family="Times Roman,serif" font-size="14.00">edit_parent_path</text>
<text text-anchor="start" x="609" y="-555.9" font-family="Times Roman,serif" font-size="14.00">edit_parent_url</text>
<text text-anchor="start" x="609" y="-537.9" font-family="Times Roman,serif" font-size="14.00">edit_resource_path</text>
<text text-anchor="start" x="609" y="-519.9" font-family="Times Roman,serif" font-size="14.00">edit_resource_url</text>
<text text-anchor="start" x="609" y="-501.9" font-family="Times Roman,serif" font-size="14.00">new_resource_path</text>
<text text-anchor="start" x="609" y="-483.9" font-family="Times Roman,serif" font-size="14.00">new_resource_url</text>
<text text-anchor="start" x="609" y="-465.9" font-family="Times Roman,serif" font-size="14.00">parent_path</text>
<text text-anchor="start" x="609" y="-447.9" font-family="Times Roman,serif" font-size="14.00">parent_url</text>
<text text-anchor="start" x="609" y="-429.9" font-family="Times Roman,serif" font-size="14.00">resource_path</text>
<text text-anchor="start" x="609" y="-411.9" font-family="Times Roman,serif" font-size="14.00">resource_url</text>
<polyline fill="none" stroke="black" points="601,-402.5 753,-402.5 "/>
<text text-anchor="start" x="609" y="-385.9" font-family="Times Roman,serif" font-size="14.00">_layout</text>
</g>
<!-- ServolosController -->
<g id="node6" class="node"><title>ServolosController</title>
<polyline fill="none" stroke="black" points="813,-551.5 941,-551.5 "/>
<path fill="none" stroke="black" d="M941,-551.5C947,-551.5 953,-557.5 953,-563.5"/>
<polyline fill="none" stroke="black" points="953,-563.5 953,-895.5 "/>
<path fill="none" stroke="black" d="M953,-895.5C953,-901.5 947,-907.5 941,-907.5"/>
<polyline fill="none" stroke="black" points="941,-907.5 813,-907.5 "/>
<path fill="none" stroke="black" d="M813,-907.5C807,-907.5 801,-901.5 801,-895.5"/>
<polyline fill="none" stroke="black" points="801,-895.5 801,-563.5 "/>
<path fill="none" stroke="black" d="M801,-563.5C801,-557.5 807,-551.5 813,-551.5"/>
<text text-anchor="middle" x="877" y="-890.9" font-family="Times Roman,serif" font-size="14.00">ServolosController</text>
<polyline fill="none" stroke="black" points="801,-881.5 953,-881.5 "/>
<text text-anchor="start" x="809" y="-864.9" font-family="Times Roman,serif" font-size="14.00">create</text>
<text text-anchor="start" x="809" y="-846.9" font-family="Times Roman,serif" font-size="14.00">destroy</text>
<text text-anchor="start" x="809" y="-828.9" font-family="Times Roman,serif" font-size="14.00">index</text>
<text text-anchor="start" x="809" y="-810.9" font-family="Times Roman,serif" font-size="14.00">update</text>
<polyline fill="none" stroke="black" points="801,-801.5 953,-801.5 "/>
<text text-anchor="start" x="809" y="-784.9" font-family="Times Roman,serif" font-size="14.00">collection_path</text>
<text text-anchor="start" x="809" y="-766.9" font-family="Times Roman,serif" font-size="14.00">collection_url</text>
<text text-anchor="start" x="809" y="-748.9" font-family="Times Roman,serif" font-size="14.00">edit_parent_path</text>
<text text-anchor="start" x="809" y="-730.9" font-family="Times Roman,serif" font-size="14.00">edit_parent_url</text>
<text text-anchor="start" x="809" y="-712.9" font-family="Times Roman,serif" font-size="14.00">edit_resource_path</text>
<text text-anchor="start" x="809" y="-694.9" font-family="Times Roman,serif" font-size="14.00">edit_resource_url</text>
<text text-anchor="start" x="809" y="-676.9" font-family="Times Roman,serif" font-size="14.00">new_resource_path</text>
<text text-anchor="start" x="809" y="-658.9" font-family="Times Roman,serif" font-size="14.00">new_resource_url</text>
<text text-anchor="start" x="809" y="-640.9" font-family="Times Roman,serif" font-size="14.00">parent_path</text>
<text text-anchor="start" x="809" y="-622.9" font-family="Times Roman,serif" font-size="14.00">parent_url</text>
<text text-anchor="start" x="809" y="-604.9" font-family="Times Roman,serif" font-size="14.00">resource_path</text>
<text text-anchor="start" x="809" y="-586.9" font-family="Times Roman,serif" font-size="14.00">resource_url</text>
<polyline fill="none" stroke="black" points="801,-577.5 953,-577.5 "/>
<text text-anchor="start" x="809" y="-560.9" font-family="Times Roman,serif" font-size="14.00">_layout</text>
</g>
<!-- DisposersController -->
<g id="node7" class="node"><title>DisposersController</title>
<polyline fill="none" stroke="black" points="613,-826.5 741,-826.5 "/>
<path fill="none" stroke="black" d="M741,-826.5C747,-826.5 753,-832.5 753,-838.5"/>
<polyline fill="none" stroke="black" points="753,-838.5 753,-1170.5 "/>
<path fill="none" stroke="black" d="M753,-1170.5C753,-1176.5 747,-1182.5 741,-1182.5"/>
<polyline fill="none" stroke="black" points="741,-1182.5 613,-1182.5 "/>
<path fill="none" stroke="black" d="M613,-1182.5C607,-1182.5 601,-1176.5 601,-1170.5"/>
<polyline fill="none" stroke="black" points="601,-1170.5 601,-838.5 "/>
<path fill="none" stroke="black" d="M601,-838.5C601,-832.5 607,-826.5 613,-826.5"/>
<text text-anchor="middle" x="677" y="-1165.9" font-family="Times Roman,serif" font-size="14.00">DisposersController</text>
<polyline fill="none" stroke="black" points="601,-1156.5 753,-1156.5 "/>
<text text-anchor="start" x="609" y="-1139.9" font-family="Times Roman,serif" font-size="14.00">create</text>
<text text-anchor="start" x="609" y="-1121.9" font-family="Times Roman,serif" font-size="14.00">destroy</text>
<text text-anchor="start" x="609" y="-1103.9" font-family="Times Roman,serif" font-size="14.00">index</text>
<text text-anchor="start" x="609" y="-1085.9" font-family="Times Roman,serif" font-size="14.00">update</text>
<polyline fill="none" stroke="black" points="601,-1076.5 753,-1076.5 "/>
<text text-anchor="start" x="609" y="-1059.9" font-family="Times Roman,serif" font-size="14.00">collection_path</text>
<text text-anchor="start" x="609" y="-1041.9" font-family="Times Roman,serif" font-size="14.00">collection_url</text>
<text text-anchor="start" x="609" y="-1023.9" font-family="Times Roman,serif" font-size="14.00">edit_parent_path</text>
<text text-anchor="start" x="609" y="-1005.9" font-family="Times Roman,serif" font-size="14.00">edit_parent_url</text>
<text text-anchor="start" x="609" y="-987.9" font-family="Times Roman,serif" font-size="14.00">edit_resource_path</text>
<text text-anchor="start" x="609" y="-969.9" font-family="Times Roman,serif" font-size="14.00">edit_resource_url</text>
<text text-anchor="start" x="609" y="-951.9" font-family="Times Roman,serif" font-size="14.00">new_resource_path</text>
<text text-anchor="start" x="609" y="-933.9" font-family="Times Roman,serif" font-size="14.00">new_resource_url</text>
<text text-anchor="start" x="609" y="-915.9" font-family="Times Roman,serif" font-size="14.00">parent_path</text>
<text text-anchor="start" x="609" y="-897.9" font-family="Times Roman,serif" font-size="14.00">parent_url</text>
<text text-anchor="start" x="609" y="-879.9" font-family="Times Roman,serif" font-size="14.00">resource_path</text>
<text text-anchor="start" x="609" y="-861.9" font-family="Times Roman,serif" font-size="14.00">resource_url</text>
<polyline fill="none" stroke="black" points="601,-852.5 753,-852.5 "/>
<text text-anchor="start" x="609" y="-835.9" font-family="Times Roman,serif" font-size="14.00">_layout</text>
</g>
<!-- ApplicationController -->
<g id="node8" class="node"><title>ApplicationController</title>
<polyline fill="none" stroke="black" points="1013,-176.5 1218,-176.5 "/>
<path fill="none" stroke="black" d="M1218,-176.5C1224,-176.5 1230,-182.5 1230,-188.5"/>
<polyline fill="none" stroke="black" points="1230,-188.5 1230,-266.5 "/>
<path fill="none" stroke="black" d="M1230,-266.5C1230,-272.5 1224,-278.5 1218,-278.5"/>
<polyline fill="none" stroke="black" points="1218,-278.5 1013,-278.5 "/>
<path fill="none" stroke="black" d="M1013,-278.5C1007,-278.5 1001,-272.5 1001,-266.5"/>
<polyline fill="none" stroke="black" points="1001,-266.5 1001,-188.5 "/>
<path fill="none" stroke="black" d="M1001,-188.5C1001,-182.5 1007,-176.5 1013,-176.5"/>
<text text-anchor="middle" x="1115.5" y="-261.9" font-family="Times Roman,serif" font-size="14.00">ApplicationController</text>
<polyline fill="none" stroke="black" points="1001,-252.5 1230,-252.5 "/>
<text text-anchor="start" x="1009" y="-235.9" font-family="Times Roman,serif" font-size="14.00">_one_time_conditions_valid_8?</text>
<polyline fill="none" stroke="black" points="1001,-226.5 1230,-226.5 "/>
<polyline fill="none" stroke="black" points="1001,-202.5 1230,-202.5 "/>
<text text-anchor="start" x="1009" y="-185.9" font-family="Times Roman,serif" font-size="14.00">_layout</text>
</g>
<!-- RefacsController -->
<g id="node9" class="node"><title>RefacsController</title>
<polyline fill="none" stroke="black" points="88,-101.5 216,-101.5 "/>
<path fill="none" stroke="black" d="M216,-101.5C222,-101.5 228,-107.5 228,-113.5"/>
<polyline fill="none" stroke="black" points="228,-113.5 228,-445.5 "/>
<path fill="none" stroke="black" d="M228,-445.5C228,-451.5 222,-457.5 216,-457.5"/>
<polyline fill="none" stroke="black" points="216,-457.5 88,-457.5 "/>
<path fill="none" stroke="black" d="M88,-457.5C82,-457.5 76,-451.5 76,-445.5"/>
<polyline fill="none" stroke="black" points="76,-445.5 76,-113.5 "/>
<path fill="none" stroke="black" d="M76,-113.5C76,-107.5 82,-101.5 88,-101.5"/>
<text text-anchor="middle" x="152" y="-440.9" font-family="Times Roman,serif" font-size="14.00">RefacsController</text>
<polyline fill="none" stroke="black" points="76,-431.5 228,-431.5 "/>
<text text-anchor="start" x="84" y="-414.9" font-family="Times Roman,serif" font-size="14.00">create</text>
<text text-anchor="start" x="84" y="-396.9" font-family="Times Roman,serif" font-size="14.00">destroy</text>
<text text-anchor="start" x="84" y="-378.9" font-family="Times Roman,serif" font-size="14.00">index</text>
<text text-anchor="start" x="84" y="-360.9" font-family="Times Roman,serif" font-size="14.00">update</text>
<polyline fill="none" stroke="black" points="76,-351.5 228,-351.5 "/>
<text text-anchor="start" x="84" y="-334.9" font-family="Times Roman,serif" font-size="14.00">collection_path</text>
<text text-anchor="start" x="84" y="-316.9" font-family="Times Roman,serif" font-size="14.00">collection_url</text>
<text text-anchor="start" x="84" y="-298.9" font-family="Times Roman,serif" font-size="14.00">edit_parent_path</text>
<text text-anchor="start" x="84" y="-280.9" font-family="Times Roman,serif" font-size="14.00">edit_parent_url</text>
<text text-anchor="start" x="84" y="-262.9" font-family="Times Roman,serif" font-size="14.00">edit_resource_path</text>
<text text-anchor="start" x="84" y="-244.9" font-family="Times Roman,serif" font-size="14.00">edit_resource_url</text>
<text text-anchor="start" x="84" y="-226.9" font-family="Times Roman,serif" font-size="14.00">new_resource_path</text>
<text text-anchor="start" x="84" y="-208.9" font-family="Times Roman,serif" font-size="14.00">new_resource_url</text>
<text text-anchor="start" x="84" y="-190.9" font-family="Times Roman,serif" font-size="14.00">parent_path</text>
<text text-anchor="start" x="84" y="-172.9" font-family="Times Roman,serif" font-size="14.00">parent_url</text>
<text text-anchor="start" x="84" y="-154.9" font-family="Times Roman,serif" font-size="14.00">resource_path</text>
<text text-anchor="start" x="84" y="-136.9" font-family="Times Roman,serif" font-size="14.00">resource_url</text>
<polyline fill="none" stroke="black" points="76,-127.5 228,-127.5 "/>
<text text-anchor="start" x="84" y="-110.9" font-family="Times Roman,serif" font-size="14.00">_layout</text>
</g>
<!-- ServicesController -->
<g id="node10" class="node"><title>ServicesController</title>
<polyline fill="none" stroke="black" points="213,-501.5 341,-501.5 "/>
<path fill="none" stroke="black" d="M341,-501.5C347,-501.5 353,-507.5 353,-513.5"/>
<polyline fill="none" stroke="black" points="353,-513.5 353,-881.5 "/>
<path fill="none" stroke="black" d="M353,-881.5C353,-887.5 347,-893.5 341,-893.5"/>
<polyline fill="none" stroke="black" points="341,-893.5 213,-893.5 "/>
<path fill="none" stroke="black" d="M213,-893.5C207,-893.5 201,-887.5 201,-881.5"/>
<polyline fill="none" stroke="black" points="201,-881.5 201,-513.5 "/>
<path fill="none" stroke="black" d="M201,-513.5C201,-507.5 207,-501.5 213,-501.5"/>
<text text-anchor="middle" x="277" y="-876.9" font-family="Times Roman,serif" font-size="14.00">ServicesController</text>
<polyline fill="none" stroke="black" points="201,-867.5 353,-867.5 "/>
<text text-anchor="start" x="209" y="-850.9" font-family="Times Roman,serif" font-size="14.00">create</text>
<text text-anchor="start" x="209" y="-832.9" font-family="Times Roman,serif" font-size="14.00">destroy</text>
<text text-anchor="start" x="209" y="-814.9" font-family="Times Roman,serif" font-size="14.00">overview</text>
<text text-anchor="start" x="209" y="-796.9" font-family="Times Roman,serif" font-size="14.00">update</text>
<polyline fill="none" stroke="black" points="201,-787.5 353,-787.5 "/>
<text text-anchor="start" x="209" y="-770.9" font-family="Times Roman,serif" font-size="14.00">collection_path</text>
<text text-anchor="start" x="209" y="-752.9" font-family="Times Roman,serif" font-size="14.00">collection_url</text>
<text text-anchor="start" x="209" y="-734.9" font-family="Times Roman,serif" font-size="14.00">edit_parent_path</text>
<text text-anchor="start" x="209" y="-716.9" font-family="Times Roman,serif" font-size="14.00">edit_parent_url</text>
<text text-anchor="start" x="209" y="-698.9" font-family="Times Roman,serif" font-size="14.00">edit_resource_path</text>
<text text-anchor="start" x="209" y="-680.9" font-family="Times Roman,serif" font-size="14.00">edit_resource_url</text>
<text text-anchor="start" x="209" y="-662.9" font-family="Times Roman,serif" font-size="14.00">new_resource_path</text>
<text text-anchor="start" x="209" y="-644.9" font-family="Times Roman,serif" font-size="14.00">new_resource_url</text>
<text text-anchor="start" x="209" y="-626.9" font-family="Times Roman,serif" font-size="14.00">parent_path</text>
<text text-anchor="start" x="209" y="-608.9" font-family="Times Roman,serif" font-size="14.00">parent_url</text>
<text text-anchor="start" x="209" y="-590.9" font-family="Times Roman,serif" font-size="14.00">resource_path</text>
<text text-anchor="start" x="209" y="-572.9" font-family="Times Roman,serif" font-size="14.00">resource_url</text>
<polyline fill="none" stroke="black" points="201,-563.5 353,-563.5 "/>
<text text-anchor="start" x="209" y="-546.9" font-family="Times Roman,serif" font-size="14.00">_layout</text>
<text text-anchor="start" x="209" y="-528.9" font-family="Times Roman,serif" font-size="14.00">datizer</text>
<text text-anchor="start" x="209" y="-510.9" font-family="Times Roman,serif" font-size="14.00">datizer_2</text>
</g>
<!-- CustomersController -->
<g id="node11" class="node"><title>CustomersController</title>
<polyline fill="none" stroke="black" points="213,-951.5 348,-951.5 "/>
<path fill="none" stroke="black" d="M348,-951.5C354,-951.5 360,-957.5 360,-963.5"/>
<polyline fill="none" stroke="black" points="360,-963.5 360,-1167.5 "/>
<path fill="none" stroke="black" d="M360,-1167.5C360,-1173.5 354,-1179.5 348,-1179.5"/>
<polyline fill="none" stroke="black" points="348,-1179.5 213,-1179.5 "/>
<path fill="none" stroke="black" d="M213,-1179.5C207,-1179.5 201,-1173.5 201,-1167.5"/>
<polyline fill="none" stroke="black" points="201,-1167.5 201,-963.5 "/>
<path fill="none" stroke="black" d="M201,-963.5C201,-957.5 207,-951.5 213,-951.5"/>
<text text-anchor="middle" x="280.5" y="-1162.9" font-family="Times Roman,serif" font-size="14.00">CustomersController</text>
<polyline fill="none" stroke="black" points="201,-1153.5 360,-1153.5 "/>
<polyline fill="none" stroke="black" points="201,-1129.5 360,-1129.5 "/>
<text text-anchor="start" x="209" y="-1112.9" font-family="Times Roman,serif" font-size="14.00">collection_path</text>
<text text-anchor="start" x="209" y="-1094.9" font-family="Times Roman,serif" font-size="14.00">collection_url</text>
<text text-anchor="start" x="209" y="-1076.9" font-family="Times Roman,serif" font-size="14.00">edit_resource_path</text>
<text text-anchor="start" x="209" y="-1058.9" font-family="Times Roman,serif" font-size="14.00">edit_resource_url</text>
<text text-anchor="start" x="209" y="-1040.9" font-family="Times Roman,serif" font-size="14.00">new_resource_path</text>
<text text-anchor="start" x="209" y="-1022.9" font-family="Times Roman,serif" font-size="14.00">new_resource_url</text>
<text text-anchor="start" x="209" y="-1004.9" font-family="Times Roman,serif" font-size="14.00">resource_path</text>
<text text-anchor="start" x="209" y="-986.9" font-family="Times Roman,serif" font-size="14.00">resource_url</text>
<polyline fill="none" stroke="black" points="201,-977.5 360,-977.5 "/>
<text text-anchor="start" x="209" y="-960.9" font-family="Times Roman,serif" font-size="14.00">_layout</text>
</g>
<!-- EventsController -->
<g id="node12" class="node"><title>EventsController</title>
<polyline fill="none" stroke="black" points="813,-176.5 952,-176.5 "/>
<path fill="none" stroke="black" d="M952,-176.5C958,-176.5 964,-182.5 964,-188.5"/>
<polyline fill="none" stroke="black" points="964,-188.5 964,-502.5 "/>
<path fill="none" stroke="black" d="M964,-502.5C964,-508.5 958,-514.5 952,-514.5"/>
<polyline fill="none" stroke="black" points="952,-514.5 813,-514.5 "/>
<path fill="none" stroke="black" d="M813,-514.5C807,-514.5 801,-508.5 801,-502.5"/>
<polyline fill="none" stroke="black" points="801,-502.5 801,-188.5 "/>
<path fill="none" stroke="black" d="M801,-188.5C801,-182.5 807,-176.5 813,-176.5"/>
<text text-anchor="middle" x="882.5" y="-497.9" font-family="Times Roman,serif" font-size="14.00">EventsController</text>
<polyline fill="none" stroke="black" points="801,-488.5 964,-488.5 "/>
<text text-anchor="start" x="809" y="-471.9" font-family="Times Roman,serif" font-size="14.00">add_to_invoice</text>
<text text-anchor="start" x="809" y="-453.9" font-family="Times Roman,serif" font-size="14.00">create</text>
<text text-anchor="start" x="809" y="-435.9" font-family="Times Roman,serif" font-size="14.00">destroy</text>
<text text-anchor="start" x="809" y="-417.9" font-family="Times Roman,serif" font-size="14.00">fullitem</text>
<text text-anchor="start" x="809" y="-399.9" font-family="Times Roman,serif" font-size="14.00">overview</text>
<text text-anchor="start" x="809" y="-381.9" font-family="Times Roman,serif" font-size="14.00">remove_from_invoice</text>
<text text-anchor="start" x="809" y="-363.9" font-family="Times Roman,serif" font-size="14.00">show</text>
<polyline fill="none" stroke="black" points="801,-354.5 964,-354.5 "/>
<text text-anchor="start" x="809" y="-337.9" font-family="Times Roman,serif" font-size="14.00">collection_path</text>
<text text-anchor="start" x="809" y="-319.9" font-family="Times Roman,serif" font-size="14.00">collection_url</text>
<text text-anchor="start" x="809" y="-301.9" font-family="Times Roman,serif" font-size="14.00">edit_resource_path</text>
<text text-anchor="start" x="809" y="-283.9" font-family="Times Roman,serif" font-size="14.00">edit_resource_url</text>
<text text-anchor="start" x="809" y="-265.9" font-family="Times Roman,serif" font-size="14.00">new_resource_path</text>
<text text-anchor="start" x="809" y="-247.9" font-family="Times Roman,serif" font-size="14.00">new_resource_url</text>
<text text-anchor="start" x="809" y="-229.9" font-family="Times Roman,serif" font-size="14.00">resource_path</text>
<text text-anchor="start" x="809" y="-211.9" font-family="Times Roman,serif" font-size="14.00">resource_url</text>
<polyline fill="none" stroke="black" points="801,-202.5 964,-202.5 "/>
<text text-anchor="start" x="809" y="-185.9" font-family="Times Roman,serif" font-size="14.00">_layout</text>
</g>
<!-- ToolsController -->
<g id="node13" class="node"><title>ToolsController</title>
<polyline fill="none" stroke="black" points="38,-826.5 133,-826.5 "/>
<path fill="none" stroke="black" d="M133,-826.5C139,-826.5 145,-832.5 145,-838.5"/>
<polyline fill="none" stroke="black" points="145,-838.5 145,-916.5 "/>
<path fill="none" stroke="black" d="M145,-916.5C145,-922.5 139,-928.5 133,-928.5"/>
<polyline fill="none" stroke="black" points="133,-928.5 38,-928.5 "/>
<path fill="none" stroke="black" d="M38,-928.5C32,-928.5 26,-922.5 26,-916.5"/>
<polyline fill="none" stroke="black" points="26,-916.5 26,-838.5 "/>
<path fill="none" stroke="black" d="M26,-838.5C26,-832.5 32,-826.5 38,-826.5"/>
<text text-anchor="middle" x="85.5" y="-911.9" font-family="Times Roman,serif" font-size="14.00">ToolsController</text>
<polyline fill="none" stroke="black" points="26,-902.5 145,-902.5 "/>
<text text-anchor="start" x="34" y="-885.9" font-family="Times Roman,serif" font-size="14.00">index</text>
<polyline fill="none" stroke="black" points="26,-876.5 145,-876.5 "/>
<polyline fill="none" stroke="black" points="26,-852.5 145,-852.5 "/>
<text text-anchor="start" x="34" y="-835.9" font-family="Times Roman,serif" font-size="14.00">_layout</text>
</g>
<!-- EvitemsController -->
<g id="node14" class="node"><title>EvitemsController</title>
<polyline fill="none" stroke="black" points="413,-726.5 541,-726.5 "/>
<path fill="none" stroke="black" d="M541,-726.5C547,-726.5 553,-732.5 553,-738.5"/>
<polyline fill="none" stroke="black" points="553,-738.5 553,-1124.5 "/>
<path fill="none" stroke="black" d="M553,-1124.5C553,-1130.5 547,-1136.5 541,-1136.5"/>
<polyline fill="none" stroke="black" points="541,-1136.5 413,-1136.5 "/>
<path fill="none" stroke="black" d="M413,-1136.5C407,-1136.5 401,-1130.5 401,-1124.5"/>
<polyline fill="none" stroke="black" points="401,-1124.5 401,-738.5 "/>
<path fill="none" stroke="black" d="M401,-738.5C401,-732.5 407,-726.5 413,-726.5"/>
<text text-anchor="middle" x="477" y="-1119.9" font-family="Times Roman,serif" font-size="14.00">EvitemsController</text>
<polyline fill="none" stroke="black" points="401,-1110.5 553,-1110.5 "/>
<text text-anchor="start" x="409" y="-1093.9" font-family="Times Roman,serif" font-size="14.00">create</text>
<text text-anchor="start" x="409" y="-1075.9" font-family="Times Roman,serif" font-size="14.00">destroy</text>
<text text-anchor="start" x="409" y="-1057.9" font-family="Times Roman,serif" font-size="14.00">edit</text>
<text text-anchor="start" x="409" y="-1039.9" font-family="Times Roman,serif" font-size="14.00">index</text>
<text text-anchor="start" x="409" y="-1021.9" font-family="Times Roman,serif" font-size="14.00">move_down</text>
<text text-anchor="start" x="409" y="-1003.9" font-family="Times Roman,serif" font-size="14.00">move_up</text>
<text text-anchor="start" x="409" y="-985.9" font-family="Times Roman,serif" font-size="14.00">update</text>
<polyline fill="none" stroke="black" points="401,-976.5 553,-976.5 "/>
<text text-anchor="start" x="409" y="-959.9" font-family="Times Roman,serif" font-size="14.00">collection_path</text>
<text text-anchor="start" x="409" y="-941.9" font-family="Times Roman,serif" font-size="14.00">collection_url</text>
<text text-anchor="start" x="409" y="-923.9" font-family="Times Roman,serif" font-size="14.00">edit_parent_path</text>
<text text-anchor="start" x="409" y="-905.9" font-family="Times Roman,serif" font-size="14.00">edit_parent_url</text>
<text text-anchor="start" x="409" y="-887.9" font-family="Times Roman,serif" font-size="14.00">edit_resource_path</text>
<text text-anchor="start" x="409" y="-869.9" font-family="Times Roman,serif" font-size="14.00">edit_resource_url</text>
<text text-anchor="start" x="409" y="-851.9" font-family="Times Roman,serif" font-size="14.00">new_resource_path</text>
<text text-anchor="start" x="409" y="-833.9" font-family="Times Roman,serif" font-size="14.00">new_resource_url</text>
<text text-anchor="start" x="409" y="-815.9" font-family="Times Roman,serif" font-size="14.00">parent_path</text>
<text text-anchor="start" x="409" y="-797.9" font-family="Times Roman,serif" font-size="14.00">parent_url</text>
<text text-anchor="start" x="409" y="-779.9" font-family="Times Roman,serif" font-size="14.00">resource_path</text>
<text text-anchor="start" x="409" y="-761.9" font-family="Times Roman,serif" font-size="14.00">resource_url</text>
<polyline fill="none" stroke="black" points="401,-752.5 553,-752.5 "/>
<text text-anchor="start" x="409" y="-735.9" font-family="Times Roman,serif" font-size="14.00">_layout</text>
</g>
<!-- InvoicesController -->
<g id="node15" class="node"><title>InvoicesController</title>
<polyline fill="none" stroke="black" points="613,-51.5 741,-51.5 "/>
<path fill="none" stroke="black" d="M741,-51.5C747,-51.5 753,-57.5 753,-63.5"/>
<polyline fill="none" stroke="black" points="753,-63.5 753,-323.5 "/>
<path fill="none" stroke="black" d="M753,-323.5C753,-329.5 747,-335.5 741,-335.5"/>
<polyline fill="none" stroke="black" points="741,-335.5 613,-335.5 "/>
<path fill="none" stroke="black" d="M613,-335.5C607,-335.5 601,-329.5 601,-323.5"/>
<polyline fill="none" stroke="black" points="601,-323.5 601,-63.5 "/>
<path fill="none" stroke="black" d="M601,-63.5C601,-57.5 607,-51.5 613,-51.5"/>
<text text-anchor="middle" x="677" y="-318.9" font-family="Times Roman,serif" font-size="14.00">InvoicesController</text>
<polyline fill="none" stroke="black" points="601,-309.5 753,-309.5 "/>
<text text-anchor="start" x="609" y="-292.9" font-family="Times Roman,serif" font-size="14.00">events</text>
<text text-anchor="start" x="609" y="-274.9" font-family="Times Roman,serif" font-size="14.00">generate_pdf</text>
<text text-anchor="start" x="609" y="-256.9" font-family="Times Roman,serif" font-size="14.00">new</text>
<text text-anchor="start" x="609" y="-238.9" font-family="Times Roman,serif" font-size="14.00">overview</text>
<polyline fill="none" stroke="black" points="601,-229.5 753,-229.5 "/>
<text text-anchor="start" x="609" y="-212.9" font-family="Times Roman,serif" font-size="14.00">collection_path</text>
<text text-anchor="start" x="609" y="-194.9" font-family="Times Roman,serif" font-size="14.00">collection_url</text>
<text text-anchor="start" x="609" y="-176.9" font-family="Times Roman,serif" font-size="14.00">edit_resource_path</text>
<text text-anchor="start" x="609" y="-158.9" font-family="Times Roman,serif" font-size="14.00">edit_resource_url</text>
<text text-anchor="start" x="609" y="-140.9" font-family="Times Roman,serif" font-size="14.00">new_resource_path</text>
<text text-anchor="start" x="609" y="-122.9" font-family="Times Roman,serif" font-size="14.00">new_resource_url</text>
<text text-anchor="start" x="609" y="-104.9" font-family="Times Roman,serif" font-size="14.00">resource_path</text>
<text text-anchor="start" x="609" y="-86.9" font-family="Times Roman,serif" font-size="14.00">resource_url</text>
<polyline fill="none" stroke="black" points="601,-77.5 753,-77.5 "/>
<text text-anchor="start" x="609" y="-60.9" font-family="Times Roman,serif" font-size="14.00">_layout</text>
</g>
<!-- TemplateInvoicedItemsController -->
<g id="node16" class="node"><title>TemplateInvoicedItemsController</title>
<polyline fill="none" stroke="black" points="938,-951.5 1157,-951.5 "/>
<path fill="none" stroke="black" d="M1157,-951.5C1163,-951.5 1169,-957.5 1169,-963.5"/>
<polyline fill="none" stroke="black" points="1169,-963.5 1169,-1167.5 "/>
<path fill="none" stroke="black" d="M1169,-1167.5C1169,-1173.5 1163,-1179.5 1157,-1179.5"/>
<polyline fill="none" stroke="black" points="1157,-1179.5 938,-1179.5 "/>
<path fill="none" stroke="black" d="M938,-1179.5C932,-1179.5 926,-1173.5 926,-1167.5"/>
<polyline fill="none" stroke="black" points="926,-1167.5 926,-963.5 "/>
<path fill="none" stroke="black" d="M926,-963.5C926,-957.5 932,-951.5 938,-951.5"/>
<text text-anchor="middle" x="1047.5" y="-1162.9" font-family="Times Roman,serif" font-size="14.00">TemplateInvoicedItemsController</text>
<polyline fill="none" stroke="black" points="926,-1153.5 1169,-1153.5 "/>
<polyline fill="none" stroke="black" points="926,-1129.5 1169,-1129.5 "/>
<text text-anchor="start" x="934" y="-1112.9" font-family="Times Roman,serif" font-size="14.00">collection_path</text>
<text text-anchor="start" x="934" y="-1094.9" font-family="Times Roman,serif" font-size="14.00">collection_url</text>
<text text-anchor="start" x="934" y="-1076.9" font-family="Times Roman,serif" font-size="14.00">edit_resource_path</text>
<text text-anchor="start" x="934" y="-1058.9" font-family="Times Roman,serif" font-size="14.00">edit_resource_url</text>
<text text-anchor="start" x="934" y="-1040.9" font-family="Times Roman,serif" font-size="14.00">new_resource_path</text>
<text text-anchor="start" x="934" y="-1022.9" font-family="Times Roman,serif" font-size="14.00">new_resource_url</text>
<text text-anchor="start" x="934" y="-1004.9" font-family="Times Roman,serif" font-size="14.00">resource_path</text>
<text text-anchor="start" x="934" y="-986.9" font-family="Times Roman,serif" font-size="14.00">resource_url</text>
<polyline fill="none" stroke="black" points="926,-977.5 1169,-977.5 "/>
<text text-anchor="start" x="934" y="-960.9" font-family="Times Roman,serif" font-size="14.00">_layout</text>
</g>
<!-- DispositifsController -->
<g id="node17" class="node"><title>DispositifsController</title>
<polyline fill="none" stroke="black" points="288,-1.5 419,-1.5 "/>
<path fill="none" stroke="black" d="M419,-1.5C425,-1.5 431,-7.5 431,-13.5"/>
<polyline fill="none" stroke="black" points="431,-13.5 431,-219.5 "/>
<path fill="none" stroke="black" d="M431,-219.5C431,-225.5 425,-231.5 419,-231.5"/>
<polyline fill="none" stroke="black" points="419,-231.5 288,-231.5 "/>
<path fill="none" stroke="black" d="M288,-231.5C282,-231.5 276,-225.5 276,-219.5"/>
<polyline fill="none" stroke="black" points="276,-219.5 276,-13.5 "/>
<path fill="none" stroke="black" d="M276,-13.5C276,-7.5 282,-1.5 288,-1.5"/>
<text text-anchor="middle" x="353.5" y="-214.9" font-family="Times Roman,serif" font-size="14.00">DispositifsController</text>
<polyline fill="none" stroke="black" points="276,-205.5 431,-205.5 "/>
<text text-anchor="start" x="284" y="-188.9" font-family="Times Roman,serif" font-size="14.00">index</text>
<polyline fill="none" stroke="black" points="276,-179.5 431,-179.5 "/>
<text text-anchor="start" x="284" y="-162.9" font-family="Times Roman,serif" font-size="14.00">collection_path</text>
<text text-anchor="start" x="284" y="-144.9" font-family="Times Roman,serif" font-size="14.00">collection_url</text>
<text text-anchor="start" x="284" y="-126.9" font-family="Times Roman,serif" font-size="14.00">edit_resource_path</text>
<text text-anchor="start" x="284" y="-108.9" font-family="Times Roman,serif" font-size="14.00">edit_resource_url</text>
<text text-anchor="start" x="284" y="-90.9" font-family="Times Roman,serif" font-size="14.00">new_resource_path</text>
<text text-anchor="start" x="284" y="-72.9" font-family="Times Roman,serif" font-size="14.00">new_resource_url</text>
<text text-anchor="start" x="284" y="-54.9" font-family="Times Roman,serif" font-size="14.00">resource_path</text>
<text text-anchor="start" x="284" y="-36.9" font-family="Times Roman,serif" font-size="14.00">resource_url</text>
<polyline fill="none" stroke="black" points="276,-27.5 431,-27.5 "/>
<text text-anchor="start" x="284" y="-10.9" font-family="Times Roman,serif" font-size="14.00">_layout</text>
</g>
</g>
</svg>
