<?xml version="1.0" encoding="UTF-8" standalone="no"?>
<!DOCTYPE svg PUBLIC "-//W3C//DTD SVG 1.1//EN"
 "http://www.w3.org/Graphics/SVG/1.1/DTD/svg11.dtd">
<!-- Generated by graphviz version 2.26.3 (20100126.1600)
 -->
<!-- Title: controllers_diagram Pages: 1 -->
<svg width="1248pt" height="1317pt"
 viewBox="0.00 0.00 1248.00 1317.00" xmlns="http://www.w3.org/2000/svg" xmlns:xlink="http://www.w3.org/1999/xlink">
<g id="graph1" class="graph" transform="scale(1 1) rotate(0) translate(4 1313)">
<title>controllers_diagram</title>
<polygon fill="white" stroke="white" points="-4,5 -4,-1313 1245,-1313 1245,5 -4,5"/>
<!-- _diagram_info -->
<g id="node1" class="node"><title>_diagram_info</title>
<text text-anchor="start" x="859" y="-78.3" font-family="Times Roman,serif" font-size="13.00">Controllers diagram</text>
<text text-anchor="start" x="859" y="-61.3" font-family="Times Roman,serif" font-size="13.00">Date: Sep 23 2012 &#45; 02:02</text>
<text text-anchor="start" x="859" y="-44.3" font-family="Times Roman,serif" font-size="13.00">Migration version: 20120922153246</text>
<text text-anchor="start" x="859" y="-27.3" font-family="Times Roman,serif" font-size="13.00">Generated by RailRoady 1.0.7</text>
<text text-anchor="start" x="859" y="-10.3" font-family="Times Roman,serif" font-size="13.00">http://railroady.prestonlee.com</text>
</g>
<!-- VolosController -->
<g id="node2" class="node"><title>VolosController</title>
<polyline fill="none" stroke="black" points="438,-1.5 566,-1.5 "/>
<path fill="none" stroke="black" d="M566,-1.5C572,-1.5 578,-7.5 578,-13.5"/>
<polyline fill="none" stroke="black" points="578,-13.5 578,-219.5 "/>
<path fill="none" stroke="black" d="M578,-219.5C578,-225.5 572,-231.5 566,-231.5"/>
<polyline fill="none" stroke="black" points="566,-231.5 438,-231.5 "/>
<path fill="none" stroke="black" d="M438,-231.5C432,-231.5 426,-225.5 426,-219.5"/>
<polyline fill="none" stroke="black" points="426,-219.5 426,-13.5 "/>
<path fill="none" stroke="black" d="M426,-13.5C426,-7.5 432,-1.5 438,-1.5"/>
<text text-anchor="middle" x="502" y="-214.9" font-family="Times Roman,serif" font-size="14.00">VolosController</text>
<polyline fill="none" stroke="black" points="426,-205.5 578,-205.5 "/>
<text text-anchor="start" x="434" y="-188.9" font-family="Times Roman,serif" font-size="14.00">overview</text>
<polyline fill="none" stroke="black" points="426,-179.5 578,-179.5 "/>
<text text-anchor="start" x="434" y="-162.9" font-family="Times Roman,serif" font-size="14.00">collection_path</text>
<text text-anchor="start" x="434" y="-144.9" font-family="Times Roman,serif" font-size="14.00">collection_url</text>
<text text-anchor="start" x="434" y="-126.9" font-family="Times Roman,serif" font-size="14.00">edit_resource_path</text>
<text text-anchor="start" x="434" y="-108.9" font-family="Times Roman,serif" font-size="14.00">edit_resource_url</text>
<text text-anchor="start" x="434" y="-90.9" font-family="Times Roman,serif" font-size="14.00">new_resource_path</text>
<text text-anchor="start" x="434" y="-72.9" font-family="Times Roman,serif" font-size="14.00">new_resource_url</text>
<text text-anchor="start" x="434" y="-54.9" font-family="Times Roman,serif" font-size="14.00">resource_path</text>
<text text-anchor="start" x="434" y="-36.9" font-family="Times Roman,serif" font-size="14.00">resource_url</text>
<polyline fill="none" stroke="black" points="426,-27.5 578,-27.5 "/>
<text text-anchor="start" x="434" y="-10.9" font-family="Times Roman,serif" font-size="14.00">_layout</text>
</g>
<!-- CrentitesController -->
<g id="node3" class="node"><title>CrentitesController</title>
<polyline fill="none" stroke="black" points="1013,-551.5 1141,-551.5 "/>
<path fill="none" stroke="black" d="M1141,-551.5C1147,-551.5 1153,-557.5 1153,-563.5"/>
<polyline fill="none" stroke="black" points="1153,-563.5 1153,-767.5 "/>
<path fill="none" stroke="black" d="M1153,-767.5C1153,-773.5 1147,-779.5 1141,-779.5"/>
<polyline fill="none" stroke="black" points="1141,-779.5 1013,-779.5 "/>
<path fill="none" stroke="black" d="M1013,-779.5C1007,-779.5 1001,-773.5 1001,-767.5"/>
<polyline fill="none" stroke="black" points="1001,-767.5 1001,-563.5 "/>
<path fill="none" stroke="black" d="M1001,-563.5C1001,-557.5 1007,-551.5 1013,-551.5"/>
<text text-anchor="middle" x="1077" y="-762.9" font-family="Times Roman,serif" font-size="14.00">CrentitesController</text>
<polyline fill="none" stroke="black" points="1001,-753.5 1153,-753.5 "/>
<polyline fill="none" stroke="black" points="1001,-729.5 1153,-729.5 "/>
<text text-anchor="start" x="1009" y="-712.9" font-family="Times Roman,serif" font-size="14.00">collection_path</text>
<text text-anchor="start" x="1009" y="-694.9" font-family="Times Roman,serif" font-size="14.00">collection_url</text>
<text text-anchor="start" x="1009" y="-676.9" font-family="Times Roman,serif" font-size="14.00">edit_resource_path</text>
<text text-anchor="start" x="1009" y="-658.9" font-family="Times Roman,serif" font-size="14.00">edit_resource_url</text>
<text text-anchor="start" x="1009" y="-640.9" font-family="Times Roman,serif" font-size="14.00">new_resource_path</text>
<text text-anchor="start" x="1009" y="-622.9" font-family="Times Roman,serif" font-size="14.00">new_resource_url</text>
<text text-anchor="start" x="1009" y="-604.9" font-family="Times Roman,serif" font-size="14.00">resource_path</text>
<text text-anchor="start" x="1009" y="-586.9" font-family="Times Roman,serif" font-size="14.00">resource_url</text>
<polyline fill="none" stroke="black" points="1001,-577.5 1153,-577.5 "/>
<text text-anchor="start" x="1009" y="-560.9" font-family="Times Roman,serif" font-size="14.00">_layout</text>
</g>
<!-- SeritemsController -->
<g id="node4" class="node"><title>SeritemsController</title>
<polyline fill="none" stroke="black" points="263,-776.5 391,-776.5 "/>
<path fill="none" stroke="black" d="M391,-776.5C397,-776.5 403,-782.5 403,-788.5"/>
<polyline fill="none" stroke="black" points="403,-788.5 403,-1156.5 "/>
<path fill="none" stroke="black" d="M403,-1156.5C403,-1162.5 397,-1168.5 391,-1168.5"/>
<polyline fill="none" stroke="black" points="391,-1168.5 263,-1168.5 "/>
<path fill="none" stroke="black" d="M263,-1168.5C257,-1168.5 251,-1162.5 251,-1156.5"/>
<polyline fill="none" stroke="black" points="251,-1156.5 251,-788.5 "/>
<path fill="none" stroke="black" d="M251,-788.5C251,-782.5 257,-776.5 263,-776.5"/>
<text text-anchor="middle" x="327" y="-1151.9" font-family="Times Roman,serif" font-size="14.00">SeritemsController</text>
<polyline fill="none" stroke="black" points="251,-1142.5 403,-1142.5 "/>
<text text-anchor="start" x="259" y="-1125.9" font-family="Times Roman,serif" font-size="14.00">create</text>
<text text-anchor="start" x="259" y="-1107.9" font-family="Times Roman,serif" font-size="14.00">destroy</text>
<text text-anchor="start" x="259" y="-1089.9" font-family="Times Roman,serif" font-size="14.00">index</text>
<text text-anchor="start" x="259" y="-1071.9" font-family="Times Roman,serif" font-size="14.00">move_down</text>
<text text-anchor="start" x="259" y="-1053.9" font-family="Times Roman,serif" font-size="14.00">move_up</text>
<text text-anchor="start" x="259" y="-1035.9" font-family="Times Roman,serif" font-size="14.00">update</text>
<polyline fill="none" stroke="black" points="251,-1026.5 403,-1026.5 "/>
<text text-anchor="start" x="259" y="-1009.9" font-family="Times Roman,serif" font-size="14.00">collection_path</text>
<text text-anchor="start" x="259" y="-991.9" font-family="Times Roman,serif" font-size="14.00">collection_url</text>
<text text-anchor="start" x="259" y="-973.9" font-family="Times Roman,serif" font-size="14.00">edit_parent_path</text>
<text text-anchor="start" x="259" y="-955.9" font-family="Times Roman,serif" font-size="14.00">edit_parent_url</text>
<text text-anchor="start" x="259" y="-937.9" font-family="Times Roman,serif" font-size="14.00">edit_resource_path</text>
<text text-anchor="start" x="259" y="-919.9" font-family="Times Roman,serif" font-size="14.00">edit_resource_url</text>
<text text-anchor="start" x="259" y="-901.9" font-family="Times Roman,serif" font-size="14.00">new_resource_path</text>
<text text-anchor="start" x="259" y="-883.9" font-family="Times Roman,serif" font-size="14.00">new_resource_url</text>
<text text-anchor="start" x="259" y="-865.9" font-family="Times Roman,serif" font-size="14.00">parent_path</text>
<text text-anchor="start" x="259" y="-847.9" font-family="Times Roman,serif" font-size="14.00">parent_url</text>
<text text-anchor="start" x="259" y="-829.9" font-family="Times Roman,serif" font-size="14.00">resource_path</text>
<text text-anchor="start" x="259" y="-811.9" font-family="Times Roman,serif" font-size="14.00">resource_url</text>
<polyline fill="none" stroke="black" points="251,-802.5 403,-802.5 "/>
<text text-anchor="start" x="259" y="-785.9" font-family="Times Roman,serif" font-size="14.00">_layout</text>
</g>
<!-- HomeController -->
<g id="node5" class="node"><title>HomeController</title>
<polyline fill="none" stroke="black" points="38,-351.5 139,-351.5 "/>
<path fill="none" stroke="black" d="M139,-351.5C145,-351.5 151,-357.5 151,-363.5"/>
<polyline fill="none" stroke="black" points="151,-363.5 151,-441.5 "/>
<path fill="none" stroke="black" d="M151,-441.5C151,-447.5 145,-453.5 139,-453.5"/>
<polyline fill="none" stroke="black" points="139,-453.5 38,-453.5 "/>
<path fill="none" stroke="black" d="M38,-453.5C32,-453.5 26,-447.5 26,-441.5"/>
<polyline fill="none" stroke="black" points="26,-441.5 26,-363.5 "/>
<path fill="none" stroke="black" d="M26,-363.5C26,-357.5 32,-351.5 38,-351.5"/>
<text text-anchor="middle" x="88.5" y="-436.9" font-family="Times Roman,serif" font-size="14.00">HomeController</text>
<polyline fill="none" stroke="black" points="26,-427.5 151,-427.5 "/>
<text text-anchor="start" x="34" y="-410.9" font-family="Times Roman,serif" font-size="14.00">index</text>
<polyline fill="none" stroke="black" points="26,-401.5 151,-401.5 "/>
<polyline fill="none" stroke="black" points="26,-377.5 151,-377.5 "/>
<text text-anchor="start" x="34" y="-360.9" font-family="Times Roman,serif" font-size="14.00">_layout</text>
</g>
<!-- NositemsController -->
<g id="node6" class="node"><title>NositemsController</title>
<polyline fill="none" stroke="black" points="663,-351.5 791,-351.5 "/>
<path fill="none" stroke="black" d="M791,-351.5C797,-351.5 803,-357.5 803,-363.5"/>
<polyline fill="none" stroke="black" points="803,-363.5 803,-749.5 "/>
<path fill="none" stroke="black" d="M803,-749.5C803,-755.5 797,-761.5 791,-761.5"/>
<polyline fill="none" stroke="black" points="791,-761.5 663,-761.5 "/>
<path fill="none" stroke="black" d="M663,-761.5C657,-761.5 651,-755.5 651,-749.5"/>
<polyline fill="none" stroke="black" points="651,-749.5 651,-363.5 "/>
<path fill="none" stroke="black" d="M651,-363.5C651,-357.5 657,-351.5 663,-351.5"/>
<text text-anchor="middle" x="727" y="-744.9" font-family="Times Roman,serif" font-size="14.00">NositemsController</text>
<polyline fill="none" stroke="black" points="651,-735.5 803,-735.5 "/>
<text text-anchor="start" x="659" y="-718.9" font-family="Times Roman,serif" font-size="14.00">create</text>
<text text-anchor="start" x="659" y="-700.9" font-family="Times Roman,serif" font-size="14.00">destroy</text>
<text text-anchor="start" x="659" y="-682.9" font-family="Times Roman,serif" font-size="14.00">edit</text>
<text text-anchor="start" x="659" y="-664.9" font-family="Times Roman,serif" font-size="14.00">index</text>
<text text-anchor="start" x="659" y="-646.9" font-family="Times Roman,serif" font-size="14.00">move_down</text>
<text text-anchor="start" x="659" y="-628.9" font-family="Times Roman,serif" font-size="14.00">move_up</text>
<text text-anchor="start" x="659" y="-610.9" font-family="Times Roman,serif" font-size="14.00">update</text>
<polyline fill="none" stroke="black" points="651,-601.5 803,-601.5 "/>
<text text-anchor="start" x="659" y="-584.9" font-family="Times Roman,serif" font-size="14.00">collection_path</text>
<text text-anchor="start" x="659" y="-566.9" font-family="Times Roman,serif" font-size="14.00">collection_url</text>
<text text-anchor="start" x="659" y="-548.9" font-family="Times Roman,serif" font-size="14.00">edit_parent_path</text>
<text text-anchor="start" x="659" y="-530.9" font-family="Times Roman,serif" font-size="14.00">edit_parent_url</text>
<text text-anchor="start" x="659" y="-512.9" font-family="Times Roman,serif" font-size="14.00">edit_resource_path</text>
<text text-anchor="start" x="659" y="-494.9" font-family="Times Roman,serif" font-size="14.00">edit_resource_url</text>
<text text-anchor="start" x="659" y="-476.9" font-family="Times Roman,serif" font-size="14.00">new_resource_path</text>
<text text-anchor="start" x="659" y="-458.9" font-family="Times Roman,serif" font-size="14.00">new_resource_url</text>
<text text-anchor="start" x="659" y="-440.9" font-family="Times Roman,serif" font-size="14.00">parent_path</text>
<text text-anchor="start" x="659" y="-422.9" font-family="Times Roman,serif" font-size="14.00">parent_url</text>
<text text-anchor="start" x="659" y="-404.9" font-family="Times Roman,serif" font-size="14.00">resource_path</text>
<text text-anchor="start" x="659" y="-386.9" font-family="Times Roman,serif" font-size="14.00">resource_url</text>
<polyline fill="none" stroke="black" points="651,-377.5 803,-377.5 "/>
<text text-anchor="start" x="659" y="-360.9" font-family="Times Roman,serif" font-size="14.00">_layout</text>
</g>
<!-- ServolosController -->
<g id="node7" class="node"><title>ServolosController</title>
<polyline fill="none" stroke="black" points="213,-351.5 341,-351.5 "/>
<path fill="none" stroke="black" d="M341,-351.5C347,-351.5 353,-357.5 353,-363.5"/>
<polyline fill="none" stroke="black" points="353,-363.5 353,-713.5 "/>
<path fill="none" stroke="black" d="M353,-713.5C353,-719.5 347,-725.5 341,-725.5"/>
<polyline fill="none" stroke="black" points="341,-725.5 213,-725.5 "/>
<path fill="none" stroke="black" d="M213,-725.5C207,-725.5 201,-719.5 201,-713.5"/>
<polyline fill="none" stroke="black" points="201,-713.5 201,-363.5 "/>
<path fill="none" stroke="black" d="M201,-363.5C201,-357.5 207,-351.5 213,-351.5"/>
<text text-anchor="middle" x="277" y="-708.9" font-family="Times Roman,serif" font-size="14.00">ServolosController</text>
<polyline fill="none" stroke="black" points="201,-699.5 353,-699.5 "/>
<text text-anchor="start" x="209" y="-682.9" font-family="Times Roman,serif" font-size="14.00">create</text>
<text text-anchor="start" x="209" y="-664.9" font-family="Times Roman,serif" font-size="14.00">destroy</text>
<text text-anchor="start" x="209" y="-646.9" font-family="Times Roman,serif" font-size="14.00">heures_auto</text>
<text text-anchor="start" x="209" y="-628.9" font-family="Times Roman,serif" font-size="14.00">index</text>
<text text-anchor="start" x="209" y="-610.9" font-family="Times Roman,serif" font-size="14.00">update</text>
<polyline fill="none" stroke="black" points="201,-601.5 353,-601.5 "/>
<text text-anchor="start" x="209" y="-584.9" font-family="Times Roman,serif" font-size="14.00">collection_path</text>
<text text-anchor="start" x="209" y="-566.9" font-family="Times Roman,serif" font-size="14.00">collection_url</text>
<text text-anchor="start" x="209" y="-548.9" font-family="Times Roman,serif" font-size="14.00">edit_parent_path</text>
<text text-anchor="start" x="209" y="-530.9" font-family="Times Roman,serif" font-size="14.00">edit_parent_url</text>
<text text-anchor="start" x="209" y="-512.9" font-family="Times Roman,serif" font-size="14.00">edit_resource_path</text>
<text text-anchor="start" x="209" y="-494.9" font-family="Times Roman,serif" font-size="14.00">edit_resource_url</text>
<text text-anchor="start" x="209" y="-476.9" font-family="Times Roman,serif" font-size="14.00">new_resource_path</text>
<text text-anchor="start" x="209" y="-458.9" font-family="Times Roman,serif" font-size="14.00">new_resource_url</text>
<text text-anchor="start" x="209" y="-440.9" font-family="Times Roman,serif" font-size="14.00">parent_path</text>
<text text-anchor="start" x="209" y="-422.9" font-family="Times Roman,serif" font-size="14.00">parent_url</text>
<text text-anchor="start" x="209" y="-404.9" font-family="Times Roman,serif" font-size="14.00">resource_path</text>
<text text-anchor="start" x="209" y="-386.9" font-family="Times Roman,serif" font-size="14.00">resource_url</text>
<polyline fill="none" stroke="black" points="201,-377.5 353,-377.5 "/>
<text text-anchor="start" x="209" y="-360.9" font-family="Times Roman,serif" font-size="14.00">_layout</text>
</g>
<!-- TemplitemsController -->
<g id="node8" class="node"><title>TemplitemsController</title>
<polyline fill="none" stroke="black" points="663,-76.5 802,-76.5 "/>
<path fill="none" stroke="black" d="M802,-76.5C808,-76.5 814,-82.5 814,-88.5"/>
<polyline fill="none" stroke="black" points="814,-88.5 814,-292.5 "/>
<path fill="none" stroke="black" d="M814,-292.5C814,-298.5 808,-304.5 802,-304.5"/>
<polyline fill="none" stroke="black" points="802,-304.5 663,-304.5 "/>
<path fill="none" stroke="black" d="M663,-304.5C657,-304.5 651,-298.5 651,-292.5"/>
<polyline fill="none" stroke="black" points="651,-292.5 651,-88.5 "/>
<path fill="none" stroke="black" d="M651,-88.5C651,-82.5 657,-76.5 663,-76.5"/>
<text text-anchor="middle" x="732.5" y="-287.9" font-family="Times Roman,serif" font-size="14.00">TemplitemsController</text>
<polyline fill="none" stroke="black" points="651,-278.5 814,-278.5 "/>
<polyline fill="none" stroke="black" points="651,-254.5 814,-254.5 "/>
<text text-anchor="start" x="659" y="-237.9" font-family="Times Roman,serif" font-size="14.00">collection_path</text>
<text text-anchor="start" x="659" y="-219.9" font-family="Times Roman,serif" font-size="14.00">collection_url</text>
<text text-anchor="start" x="659" y="-201.9" font-family="Times Roman,serif" font-size="14.00">edit_resource_path</text>
<text text-anchor="start" x="659" y="-183.9" font-family="Times Roman,serif" font-size="14.00">edit_resource_url</text>
<text text-anchor="start" x="659" y="-165.9" font-family="Times Roman,serif" font-size="14.00">new_resource_path</text>
<text text-anchor="start" x="659" y="-147.9" font-family="Times Roman,serif" font-size="14.00">new_resource_url</text>
<text text-anchor="start" x="659" y="-129.9" font-family="Times Roman,serif" font-size="14.00">resource_path</text>
<text text-anchor="start" x="659" y="-111.9" font-family="Times Roman,serif" font-size="14.00">resource_url</text>
<polyline fill="none" stroke="black" points="651,-102.5 814,-102.5 "/>
<text text-anchor="start" x="659" y="-85.9" font-family="Times Roman,serif" font-size="14.00">_layout</text>
</g>
<!-- DisposersController -->
<g id="node9" class="node"><title>DisposersController</title>
<polyline fill="none" stroke="black" points="863,-151.5 991,-151.5 "/>
<path fill="none" stroke="black" d="M991,-151.5C997,-151.5 1003,-157.5 1003,-163.5"/>
<polyline fill="none" stroke="black" points="1003,-163.5 1003,-495.5 "/>
<path fill="none" stroke="black" d="M1003,-495.5C1003,-501.5 997,-507.5 991,-507.5"/>
<polyline fill="none" stroke="black" points="991,-507.5 863,-507.5 "/>
<path fill="none" stroke="black" d="M863,-507.5C857,-507.5 851,-501.5 851,-495.5"/>
<polyline fill="none" stroke="black" points="851,-495.5 851,-163.5 "/>
<path fill="none" stroke="black" d="M851,-163.5C851,-157.5 857,-151.5 863,-151.5"/>
<text text-anchor="middle" x="927" y="-490.9" font-family="Times Roman,serif" font-size="14.00">DisposersController</text>
<polyline fill="none" stroke="black" points="851,-481.5 1003,-481.5 "/>
<text text-anchor="start" x="859" y="-464.9" font-family="Times Roman,serif" font-size="14.00">create</text>
<text text-anchor="start" x="859" y="-446.9" font-family="Times Roman,serif" font-size="14.00">destroy</text>
<text text-anchor="start" x="859" y="-428.9" font-family="Times Roman,serif" font-size="14.00">index</text>
<text text-anchor="start" x="859" y="-410.9" font-family="Times Roman,serif" font-size="14.00">update</text>
<polyline fill="none" stroke="black" points="851,-401.5 1003,-401.5 "/>
<text text-anchor="start" x="859" y="-384.9" font-family="Times Roman,serif" font-size="14.00">collection_path</text>
<text text-anchor="start" x="859" y="-366.9" font-family="Times Roman,serif" font-size="14.00">collection_url</text>
<text text-anchor="start" x="859" y="-348.9" font-family="Times Roman,serif" font-size="14.00">edit_parent_path</text>
<text text-anchor="start" x="859" y="-330.9" font-family="Times Roman,serif" font-size="14.00">edit_parent_url</text>
<text text-anchor="start" x="859" y="-312.9" font-family="Times Roman,serif" font-size="14.00">edit_resource_path</text>
<text text-anchor="start" x="859" y="-294.9" font-family="Times Roman,serif" font-size="14.00">edit_resource_url</text>
<text text-anchor="start" x="859" y="-276.9" font-family="Times Roman,serif" font-size="14.00">new_resource_path</text>
<text text-anchor="start" x="859" y="-258.9" font-family="Times Roman,serif" font-size="14.00">new_resource_url</text>
<text text-anchor="start" x="859" y="-240.9" font-family="Times Roman,serif" font-size="14.00">parent_path</text>
<text text-anchor="start" x="859" y="-222.9" font-family="Times Roman,serif" font-size="14.00">parent_url</text>
<text text-anchor="start" x="859" y="-204.9" font-family="Times Roman,serif" font-size="14.00">resource_path</text>
<text text-anchor="start" x="859" y="-186.9" font-family="Times Roman,serif" font-size="14.00">resource_url</text>
<polyline fill="none" stroke="black" points="851,-177.5 1003,-177.5 "/>
<text text-anchor="start" x="859" y="-160.9" font-family="Times Roman,serif" font-size="14.00">_layout</text>
</g>
<!-- ApplicationController -->
<g id="node10" class="node"><title>ApplicationController</title>
<polyline fill="none" stroke="black" points="1013,-826.5 1227,-826.5 "/>
<path fill="none" stroke="black" d="M1227,-826.5C1233,-826.5 1239,-832.5 1239,-838.5"/>
<polyline fill="none" stroke="black" points="1239,-838.5 1239,-916.5 "/>
<path fill="none" stroke="black" d="M1239,-916.5C1239,-922.5 1233,-928.5 1227,-928.5"/>
<polyline fill="none" stroke="black" points="1227,-928.5 1013,-928.5 "/>
<path fill="none" stroke="black" d="M1013,-928.5C1007,-928.5 1001,-922.5 1001,-916.5"/>
<polyline fill="none" stroke="black" points="1001,-916.5 1001,-838.5 "/>
<path fill="none" stroke="black" d="M1001,-838.5C1001,-832.5 1007,-826.5 1013,-826.5"/>
<text text-anchor="middle" x="1120" y="-911.9" font-family="Times Roman,serif" font-size="14.00">ApplicationController</text>
<polyline fill="none" stroke="black" points="1001,-902.5 1239,-902.5 "/>
<text text-anchor="start" x="1009" y="-885.9" font-family="Times Roman,serif" font-size="14.00">_one_time_conditions_valid_74?</text>
<polyline fill="none" stroke="black" points="1001,-876.5 1239,-876.5 "/>
<polyline fill="none" stroke="black" points="1001,-852.5 1239,-852.5 "/>
<text text-anchor="start" x="1009" y="-835.9" font-family="Times Roman,serif" font-size="14.00">_layout</text>
</g>
<!-- RefacsController -->
<g id="node11" class="node"><title>RefacsController</title>
<polyline fill="none" stroke="black" points="63,-951.5 191,-951.5 "/>
<path fill="none" stroke="black" d="M191,-951.5C197,-951.5 203,-957.5 203,-963.5"/>
<polyline fill="none" stroke="black" points="203,-963.5 203,-1295.5 "/>
<path fill="none" stroke="black" d="M203,-1295.5C203,-1301.5 197,-1307.5 191,-1307.5"/>
<polyline fill="none" stroke="black" points="191,-1307.5 63,-1307.5 "/>
<path fill="none" stroke="black" d="M63,-1307.5C57,-1307.5 51,-1301.5 51,-1295.5"/>
<polyline fill="none" stroke="black" points="51,-1295.5 51,-963.5 "/>
<path fill="none" stroke="black" d="M51,-963.5C51,-957.5 57,-951.5 63,-951.5"/>
<text text-anchor="middle" x="127" y="-1290.9" font-family="Times Roman,serif" font-size="14.00">RefacsController</text>
<polyline fill="none" stroke="black" points="51,-1281.5 203,-1281.5 "/>
<text text-anchor="start" x="59" y="-1264.9" font-family="Times Roman,serif" font-size="14.00">create</text>
<text text-anchor="start" x="59" y="-1246.9" font-family="Times Roman,serif" font-size="14.00">destroy</text>
<text text-anchor="start" x="59" y="-1228.9" font-family="Times Roman,serif" font-size="14.00">index</text>
<text text-anchor="start" x="59" y="-1210.9" font-family="Times Roman,serif" font-size="14.00">update</text>
<polyline fill="none" stroke="black" points="51,-1201.5 203,-1201.5 "/>
<text text-anchor="start" x="59" y="-1184.9" font-family="Times Roman,serif" font-size="14.00">collection_path</text>
<text text-anchor="start" x="59" y="-1166.9" font-family="Times Roman,serif" font-size="14.00">collection_url</text>
<text text-anchor="start" x="59" y="-1148.9" font-family="Times Roman,serif" font-size="14.00">edit_parent_path</text>
<text text-anchor="start" x="59" y="-1130.9" font-family="Times Roman,serif" font-size="14.00">edit_parent_url</text>
<text text-anchor="start" x="59" y="-1112.9" font-family="Times Roman,serif" font-size="14.00">edit_resource_path</text>
<text text-anchor="start" x="59" y="-1094.9" font-family="Times Roman,serif" font-size="14.00">edit_resource_url</text>
<text text-anchor="start" x="59" y="-1076.9" font-family="Times Roman,serif" font-size="14.00">new_resource_path</text>
<text text-anchor="start" x="59" y="-1058.9" font-family="Times Roman,serif" font-size="14.00">new_resource_url</text>
<text text-anchor="start" x="59" y="-1040.9" font-family="Times Roman,serif" font-size="14.00">parent_path</text>
<text text-anchor="start" x="59" y="-1022.9" font-family="Times Roman,serif" font-size="14.00">parent_url</text>
<text text-anchor="start" x="59" y="-1004.9" font-family="Times Roman,serif" font-size="14.00">resource_path</text>
<text text-anchor="start" x="59" y="-986.9" font-family="Times Roman,serif" font-size="14.00">resource_url</text>
<polyline fill="none" stroke="black" points="51,-977.5 203,-977.5 "/>
<text text-anchor="start" x="59" y="-960.9" font-family="Times Roman,serif" font-size="14.00">_layout</text>
</g>
<!-- ServicesController -->
<g id="node12" class="node"><title>ServicesController</title>
<polyline fill="none" stroke="black" points="413,-276.5 584,-276.5 "/>
<path fill="none" stroke="black" d="M584,-276.5C590,-276.5 596,-282.5 596,-288.5"/>
<polyline fill="none" stroke="black" points="596,-288.5 596,-710.5 "/>
<path fill="none" stroke="black" d="M596,-710.5C596,-716.5 590,-722.5 584,-722.5"/>
<polyline fill="none" stroke="black" points="584,-722.5 413,-722.5 "/>
<path fill="none" stroke="black" d="M413,-722.5C407,-722.5 401,-716.5 401,-710.5"/>
<polyline fill="none" stroke="black" points="401,-710.5 401,-288.5 "/>
<path fill="none" stroke="black" d="M401,-288.5C401,-282.5 407,-276.5 413,-276.5"/>
<text text-anchor="middle" x="498.5" y="-705.9" font-family="Times Roman,serif" font-size="14.00">ServicesController</text>
<polyline fill="none" stroke="black" points="401,-696.5 596,-696.5 "/>
<text text-anchor="start" x="409" y="-679.9" font-family="Times Roman,serif" font-size="14.00">create</text>
<text text-anchor="start" x="409" y="-661.9" font-family="Times Roman,serif" font-size="14.00">destroy</text>
<text text-anchor="start" x="409" y="-643.9" font-family="Times Roman,serif" font-size="14.00">overview</text>
<text text-anchor="start" x="409" y="-625.9" font-family="Times Roman,serif" font-size="14.00">stats</text>
<text text-anchor="start" x="409" y="-607.9" font-family="Times Roman,serif" font-size="14.00">update</text>
<text text-anchor="start" x="409" y="-589.9" font-family="Times Roman,serif" font-size="14.00">update_stats</text>
<polyline fill="none" stroke="black" points="401,-580.5 596,-580.5 "/>
<text text-anchor="start" x="409" y="-563.9" font-family="Times Roman,serif" font-size="14.00">collection_path</text>
<text text-anchor="start" x="409" y="-545.9" font-family="Times Roman,serif" font-size="14.00">collection_url</text>
<text text-anchor="start" x="409" y="-527.9" font-family="Times Roman,serif" font-size="14.00">edit_parent_path</text>
<text text-anchor="start" x="409" y="-509.9" font-family="Times Roman,serif" font-size="14.00">edit_parent_url</text>
<text text-anchor="start" x="409" y="-491.9" font-family="Times Roman,serif" font-size="14.00">edit_resource_path</text>
<text text-anchor="start" x="409" y="-473.9" font-family="Times Roman,serif" font-size="14.00">edit_resource_url</text>
<text text-anchor="start" x="409" y="-455.9" font-family="Times Roman,serif" font-size="14.00">new_resource_path</text>
<text text-anchor="start" x="409" y="-437.9" font-family="Times Roman,serif" font-size="14.00">new_resource_url</text>
<text text-anchor="start" x="409" y="-419.9" font-family="Times Roman,serif" font-size="14.00">parent_path</text>
<text text-anchor="start" x="409" y="-401.9" font-family="Times Roman,serif" font-size="14.00">parent_url</text>
<text text-anchor="start" x="409" y="-383.9" font-family="Times Roman,serif" font-size="14.00">resource_path</text>
<text text-anchor="start" x="409" y="-365.9" font-family="Times Roman,serif" font-size="14.00">resource_url</text>
<polyline fill="none" stroke="black" points="401,-356.5 596,-356.5 "/>
<text text-anchor="start" x="409" y="-339.9" font-family="Times Roman,serif" font-size="14.00">_layout</text>
<text text-anchor="start" x="409" y="-321.9" font-family="Times Roman,serif" font-size="14.00">create_date_from_params</text>
<text text-anchor="start" x="409" y="-303.9" font-family="Times Roman,serif" font-size="14.00">datizer</text>
<text text-anchor="start" x="409" y="-285.9" font-family="Times Roman,serif" font-size="14.00">datizer_2</text>
</g>
<!-- CustomersController -->
<g id="node13" class="node"><title>CustomersController</title>
<polyline fill="none" stroke="black" points="238,-1.5 373,-1.5 "/>
<path fill="none" stroke="black" d="M373,-1.5C379,-1.5 385,-7.5 385,-13.5"/>
<polyline fill="none" stroke="black" points="385,-13.5 385,-217.5 "/>
<path fill="none" stroke="black" d="M385,-217.5C385,-223.5 379,-229.5 373,-229.5"/>
<polyline fill="none" stroke="black" points="373,-229.5 238,-229.5 "/>
<path fill="none" stroke="black" d="M238,-229.5C232,-229.5 226,-223.5 226,-217.5"/>
<polyline fill="none" stroke="black" points="226,-217.5 226,-13.5 "/>
<path fill="none" stroke="black" d="M226,-13.5C226,-7.5 232,-1.5 238,-1.5"/>
<text text-anchor="middle" x="305.5" y="-212.9" font-family="Times Roman,serif" font-size="14.00">CustomersController</text>
<polyline fill="none" stroke="black" points="226,-203.5 385,-203.5 "/>
<polyline fill="none" stroke="black" points="226,-179.5 385,-179.5 "/>
<text text-anchor="start" x="234" y="-162.9" font-family="Times Roman,serif" font-size="14.00">collection_path</text>
<text text-anchor="start" x="234" y="-144.9" font-family="Times Roman,serif" font-size="14.00">collection_url</text>
<text text-anchor="start" x="234" y="-126.9" font-family="Times Roman,serif" font-size="14.00">edit_resource_path</text>
<text text-anchor="start" x="234" y="-108.9" font-family="Times Roman,serif" font-size="14.00">edit_resource_url</text>
<text text-anchor="start" x="234" y="-90.9" font-family="Times Roman,serif" font-size="14.00">new_resource_path</text>
<text text-anchor="start" x="234" y="-72.9" font-family="Times Roman,serif" font-size="14.00">new_resource_url</text>
<text text-anchor="start" x="234" y="-54.9" font-family="Times Roman,serif" font-size="14.00">resource_path</text>
<text text-anchor="start" x="234" y="-36.9" font-family="Times Roman,serif" font-size="14.00">resource_url</text>
<polyline fill="none" stroke="black" points="226,-27.5 385,-27.5 "/>
<text text-anchor="start" x="234" y="-10.9" font-family="Times Roman,serif" font-size="14.00">_layout</text>
</g>
<!-- EventsController -->
<g id="node14" class="node"><title>EventsController</title>
<polyline fill="none" stroke="black" points="813,-801.5 952,-801.5 "/>
<path fill="none" stroke="black" d="M952,-801.5C958,-801.5 964,-807.5 964,-813.5"/>
<polyline fill="none" stroke="black" points="964,-813.5 964,-1145.5 "/>
<path fill="none" stroke="black" d="M964,-1145.5C964,-1151.5 958,-1157.5 952,-1157.5"/>
<polyline fill="none" stroke="black" points="952,-1157.5 813,-1157.5 "/>
<path fill="none" stroke="black" d="M813,-1157.5C807,-1157.5 801,-1151.5 801,-1145.5"/>
<polyline fill="none" stroke="black" points="801,-1145.5 801,-813.5 "/>
<path fill="none" stroke="black" d="M801,-813.5C801,-807.5 807,-801.5 813,-801.5"/>
<text text-anchor="middle" x="882.5" y="-1140.9" font-family="Times Roman,serif" font-size="14.00">EventsController</text>
<polyline fill="none" stroke="black" points="801,-1131.5 964,-1131.5 "/>
<text text-anchor="start" x="809" y="-1114.9" font-family="Times Roman,serif" font-size="14.00">add_to_invoice</text>
<text text-anchor="start" x="809" y="-1096.9" font-family="Times Roman,serif" font-size="14.00">create</text>
<text text-anchor="start" x="809" y="-1078.9" font-family="Times Roman,serif" font-size="14.00">destroy</text>
<text text-anchor="start" x="809" y="-1060.9" font-family="Times Roman,serif" font-size="14.00">fullitem</text>
<text text-anchor="start" x="809" y="-1042.9" font-family="Times Roman,serif" font-size="14.00">overview</text>
<text text-anchor="start" x="809" y="-1024.9" font-family="Times Roman,serif" font-size="14.00">remove_from_invoice</text>
<text text-anchor="start" x="809" y="-1006.9" font-family="Times Roman,serif" font-size="14.00">show</text>
<text text-anchor="start" x="809" y="-988.9" font-family="Times Roman,serif" font-size="14.00">update</text>
<polyline fill="none" stroke="black" points="801,-979.5 964,-979.5 "/>
<text text-anchor="start" x="809" y="-962.9" font-family="Times Roman,serif" font-size="14.00">collection_path</text>
<text text-anchor="start" x="809" y="-944.9" font-family="Times Roman,serif" font-size="14.00">collection_url</text>
<text text-anchor="start" x="809" y="-926.9" font-family="Times Roman,serif" font-size="14.00">edit_resource_path</text>
<text text-anchor="start" x="809" y="-908.9" font-family="Times Roman,serif" font-size="14.00">edit_resource_url</text>
<text text-anchor="start" x="809" y="-890.9" font-family="Times Roman,serif" font-size="14.00">new_resource_path</text>
<text text-anchor="start" x="809" y="-872.9" font-family="Times Roman,serif" font-size="14.00">new_resource_url</text>
<text text-anchor="start" x="809" y="-854.9" font-family="Times Roman,serif" font-size="14.00">resource_path</text>
<text text-anchor="start" x="809" y="-836.9" font-family="Times Roman,serif" font-size="14.00">resource_url</text>
<polyline fill="none" stroke="black" points="801,-827.5 964,-827.5 "/>
<text text-anchor="start" x="809" y="-810.9" font-family="Times Roman,serif" font-size="14.00">_layout</text>
</g>
<!-- ToolsController -->
<g id="node15" class="node"><title>ToolsController</title>
<polyline fill="none" stroke="black" points="1013,-976.5 1108,-976.5 "/>
<path fill="none" stroke="black" d="M1108,-976.5C1114,-976.5 1120,-982.5 1120,-988.5"/>
<polyline fill="none" stroke="black" points="1120,-988.5 1120,-1066.5 "/>
<path fill="none" stroke="black" d="M1120,-1066.5C1120,-1072.5 1114,-1078.5 1108,-1078.5"/>
<polyline fill="none" stroke="black" points="1108,-1078.5 1013,-1078.5 "/>
<path fill="none" stroke="black" d="M1013,-1078.5C1007,-1078.5 1001,-1072.5 1001,-1066.5"/>
<polyline fill="none" stroke="black" points="1001,-1066.5 1001,-988.5 "/>
<path fill="none" stroke="black" d="M1001,-988.5C1001,-982.5 1007,-976.5 1013,-976.5"/>
<text text-anchor="middle" x="1060.5" y="-1061.9" font-family="Times Roman,serif" font-size="14.00">ToolsController</text>
<polyline fill="none" stroke="black" points="1001,-1052.5 1120,-1052.5 "/>
<text text-anchor="start" x="1009" y="-1035.9" font-family="Times Roman,serif" font-size="14.00">index</text>
<polyline fill="none" stroke="black" points="1001,-1026.5 1120,-1026.5 "/>
<polyline fill="none" stroke="black" points="1001,-1002.5 1120,-1002.5 "/>
<text text-anchor="start" x="1009" y="-985.9" font-family="Times Roman,serif" font-size="14.00">_layout</text>
</g>
<!-- EvitemsController -->
<g id="node16" class="node"><title>EvitemsController</title>
<polyline fill="none" stroke="black" points="463,-776.5 591,-776.5 "/>
<path fill="none" stroke="black" d="M591,-776.5C597,-776.5 603,-782.5 603,-788.5"/>
<polyline fill="none" stroke="black" points="603,-788.5 603,-1174.5 "/>
<path fill="none" stroke="black" d="M603,-1174.5C603,-1180.5 597,-1186.5 591,-1186.5"/>
<polyline fill="none" stroke="black" points="591,-1186.5 463,-1186.5 "/>
<path fill="none" stroke="black" d="M463,-1186.5C457,-1186.5 451,-1180.5 451,-1174.5"/>
<polyline fill="none" stroke="black" points="451,-1174.5 451,-788.5 "/>
<path fill="none" stroke="black" d="M451,-788.5C451,-782.5 457,-776.5 463,-776.5"/>
<text text-anchor="middle" x="527" y="-1169.9" font-family="Times Roman,serif" font-size="14.00">EvitemsController</text>
<polyline fill="none" stroke="black" points="451,-1160.5 603,-1160.5 "/>
<text text-anchor="start" x="459" y="-1143.9" font-family="Times Roman,serif" font-size="14.00">create</text>
<text text-anchor="start" x="459" y="-1125.9" font-family="Times Roman,serif" font-size="14.00">destroy</text>
<text text-anchor="start" x="459" y="-1107.9" font-family="Times Roman,serif" font-size="14.00">edit</text>
<text text-anchor="start" x="459" y="-1089.9" font-family="Times Roman,serif" font-size="14.00">index</text>
<text text-anchor="start" x="459" y="-1071.9" font-family="Times Roman,serif" font-size="14.00">move_down</text>
<text text-anchor="start" x="459" y="-1053.9" font-family="Times Roman,serif" font-size="14.00">move_up</text>
<text text-anchor="start" x="459" y="-1035.9" font-family="Times Roman,serif" font-size="14.00">update</text>
<polyline fill="none" stroke="black" points="451,-1026.5 603,-1026.5 "/>
<text text-anchor="start" x="459" y="-1009.9" font-family="Times Roman,serif" font-size="14.00">collection_path</text>
<text text-anchor="start" x="459" y="-991.9" font-family="Times Roman,serif" font-size="14.00">collection_url</text>
<text text-anchor="start" x="459" y="-973.9" font-family="Times Roman,serif" font-size="14.00">edit_parent_path</text>
<text text-anchor="start" x="459" y="-955.9" font-family="Times Roman,serif" font-size="14.00">edit_parent_url</text>
<text text-anchor="start" x="459" y="-937.9" font-family="Times Roman,serif" font-size="14.00">edit_resource_path</text>
<text text-anchor="start" x="459" y="-919.9" font-family="Times Roman,serif" font-size="14.00">edit_resource_url</text>
<text text-anchor="start" x="459" y="-901.9" font-family="Times Roman,serif" font-size="14.00">new_resource_path</text>
<text text-anchor="start" x="459" y="-883.9" font-family="Times Roman,serif" font-size="14.00">new_resource_url</text>
<text text-anchor="start" x="459" y="-865.9" font-family="Times Roman,serif" font-size="14.00">parent_path</text>
<text text-anchor="start" x="459" y="-847.9" font-family="Times Roman,serif" font-size="14.00">parent_url</text>
<text text-anchor="start" x="459" y="-829.9" font-family="Times Roman,serif" font-size="14.00">resource_path</text>
<text text-anchor="start" x="459" y="-811.9" font-family="Times Roman,serif" font-size="14.00">resource_url</text>
<polyline fill="none" stroke="black" points="451,-802.5 603,-802.5 "/>
<text text-anchor="start" x="459" y="-785.9" font-family="Times Roman,serif" font-size="14.00">_layout</text>
</g>
<!-- InvoicesController -->
<g id="node17" class="node"><title>InvoicesController</title>
<polyline fill="none" stroke="black" points="38,-26.5 166,-26.5 "/>
<path fill="none" stroke="black" d="M166,-26.5C172,-26.5 178,-32.5 178,-38.5"/>
<polyline fill="none" stroke="black" points="178,-38.5 178,-298.5 "/>
<path fill="none" stroke="black" d="M178,-298.5C178,-304.5 172,-310.5 166,-310.5"/>
<polyline fill="none" stroke="black" points="166,-310.5 38,-310.5 "/>
<path fill="none" stroke="black" d="M38,-310.5C32,-310.5 26,-304.5 26,-298.5"/>
<polyline fill="none" stroke="black" points="26,-298.5 26,-38.5 "/>
<path fill="none" stroke="black" d="M26,-38.5C26,-32.5 32,-26.5 38,-26.5"/>
<text text-anchor="middle" x="102" y="-293.9" font-family="Times Roman,serif" font-size="14.00">InvoicesController</text>
<polyline fill="none" stroke="black" points="26,-284.5 178,-284.5 "/>
<text text-anchor="start" x="34" y="-267.9" font-family="Times Roman,serif" font-size="14.00">events</text>
<text text-anchor="start" x="34" y="-249.9" font-family="Times Roman,serif" font-size="14.00">new</text>
<text text-anchor="start" x="34" y="-231.9" font-family="Times Roman,serif" font-size="14.00">overview</text>
<text text-anchor="start" x="34" y="-213.9" font-family="Times Roman,serif" font-size="14.00">show</text>
<polyline fill="none" stroke="black" points="26,-204.5 178,-204.5 "/>
<text text-anchor="start" x="34" y="-187.9" font-family="Times Roman,serif" font-size="14.00">collection_path</text>
<text text-anchor="start" x="34" y="-169.9" font-family="Times Roman,serif" font-size="14.00">collection_url</text>
<text text-anchor="start" x="34" y="-151.9" font-family="Times Roman,serif" font-size="14.00">edit_resource_path</text>
<text text-anchor="start" x="34" y="-133.9" font-family="Times Roman,serif" font-size="14.00">edit_resource_url</text>
<text text-anchor="start" x="34" y="-115.9" font-family="Times Roman,serif" font-size="14.00">new_resource_path</text>
<text text-anchor="start" x="34" y="-97.9" font-family="Times Roman,serif" font-size="14.00">new_resource_url</text>
<text text-anchor="start" x="34" y="-79.9" font-family="Times Roman,serif" font-size="14.00">resource_path</text>
<text text-anchor="start" x="34" y="-61.9" font-family="Times Roman,serif" font-size="14.00">resource_url</text>
<polyline fill="none" stroke="black" points="26,-52.5 178,-52.5 "/>
<text text-anchor="start" x="34" y="-35.9" font-family="Times Roman,serif" font-size="14.00">_layout</text>
</g>
<!-- DispositifsController -->
<g id="node18" class="node"><title>DispositifsController</title>
<polyline fill="none" stroke="black" points="13,-501.5 144,-501.5 "/>
<path fill="none" stroke="black" d="M144,-501.5C150,-501.5 156,-507.5 156,-513.5"/>
<polyline fill="none" stroke="black" points="156,-513.5 156,-791.5 "/>
<path fill="none" stroke="black" d="M156,-791.5C156,-797.5 150,-803.5 144,-803.5"/>
<polyline fill="none" stroke="black" points="144,-803.5 13,-803.5 "/>
<path fill="none" stroke="black" d="M13,-803.5C7,-803.5 1,-797.5 1,-791.5"/>
<polyline fill="none" stroke="black" points="1,-791.5 1,-513.5 "/>
<path fill="none" stroke="black" d="M1,-513.5C1,-507.5 7,-501.5 13,-501.5"/>
<text text-anchor="middle" x="78.5" y="-786.9" font-family="Times Roman,serif" font-size="14.00">DispositifsController</text>
<polyline fill="none" stroke="black" points="1,-777.5 156,-777.5 "/>
<text text-anchor="start" x="9" y="-760.9" font-family="Times Roman,serif" font-size="14.00">code_image</text>
<text text-anchor="start" x="9" y="-742.9" font-family="Times Roman,serif" font-size="14.00">code_image_s1</text>
<text text-anchor="start" x="9" y="-724.9" font-family="Times Roman,serif" font-size="14.00">code_image_s2</text>
<text text-anchor="start" x="9" y="-706.9" font-family="Times Roman,serif" font-size="14.00">code_image_s4</text>
<text text-anchor="start" x="9" y="-688.9" font-family="Times Roman,serif" font-size="14.00">update</text>
<polyline fill="none" stroke="black" points="1,-679.5 156,-679.5 "/>
<text text-anchor="start" x="9" y="-662.9" font-family="Times Roman,serif" font-size="14.00">collection_path</text>
<text text-anchor="start" x="9" y="-644.9" font-family="Times Roman,serif" font-size="14.00">collection_url</text>
<text text-anchor="start" x="9" y="-626.9" font-family="Times Roman,serif" font-size="14.00">edit_resource_path</text>
<text text-anchor="start" x="9" y="-608.9" font-family="Times Roman,serif" font-size="14.00">edit_resource_url</text>
<text text-anchor="start" x="9" y="-590.9" font-family="Times Roman,serif" font-size="14.00">new_resource_path</text>
<text text-anchor="start" x="9" y="-572.9" font-family="Times Roman,serif" font-size="14.00">new_resource_url</text>
<text text-anchor="start" x="9" y="-554.9" font-family="Times Roman,serif" font-size="14.00">resource_path</text>
<text text-anchor="start" x="9" y="-536.9" font-family="Times Roman,serif" font-size="14.00">resource_url</text>
<polyline fill="none" stroke="black" points="1,-527.5 156,-527.5 "/>
<text text-anchor="start" x="9" y="-510.9" font-family="Times Roman,serif" font-size="14.00">_layout</text>
</g>
</g>
</svg>
