<?xml version="1.0" encoding="UTF-8" standalone="no"?>
<!DOCTYPE svg PUBLIC "-//W3C//DTD SVG 1.1//EN"
 "http://www.w3.org/Graphics/SVG/1.1/DTD/svg11.dtd">
<!-- Generated by graphviz version 2.26.3 (20100126.1600)
 -->
<!-- Title: controllers_diagram Pages: 1 -->
<svg width="1112pt" height="1191pt"
 viewBox="0.00 0.00 1112.00 1191.00" xmlns="http://www.w3.org/2000/svg" xmlns:xlink="http://www.w3.org/1999/xlink">
<g id="graph1" class="graph" transform="scale(1 1) rotate(0) translate(4 1187)">
<title>controllers_diagram</title>
<polygon fill="white" stroke="white" points="-4,5 -4,-1187 1109,-1187 1109,5 -4,5"/>
<!-- _diagram_info -->
<g id="node1" class="node"><title>_diagram_info</title>
<text text-anchor="start" x="59" y="-128.3" font-family="Times Roman,serif" font-size="13.00">Controllers diagram</text>
<text text-anchor="start" x="59" y="-111.3" font-family="Times Roman,serif" font-size="13.00">Date: Jun 17 2012 &#45; 03:27</text>
<text text-anchor="start" x="59" y="-94.3" font-family="Times Roman,serif" font-size="13.00">Migration version: 20120617002314</text>
<text text-anchor="start" x="59" y="-77.3" font-family="Times Roman,serif" font-size="13.00">Generated by RailRoady 1.0.7</text>
<text text-anchor="start" x="59" y="-60.3" font-family="Times Roman,serif" font-size="13.00">http://railroady.prestonlee.com</text>
</g>
<!-- VolosController -->
<g id="node2" class="node"><title>VolosController</title>
<polyline fill="none" stroke="black" points="13,-476.5 141,-476.5 "/>
<path fill="none" stroke="black" d="M141,-476.5C147,-476.5 153,-482.5 153,-488.5"/>
<polyline fill="none" stroke="black" points="153,-488.5 153,-694.5 "/>
<path fill="none" stroke="black" d="M153,-694.5C153,-700.5 147,-706.5 141,-706.5"/>
<polyline fill="none" stroke="black" points="141,-706.5 13,-706.5 "/>
<path fill="none" stroke="black" d="M13,-706.5C7,-706.5 1,-700.5 1,-694.5"/>
<polyline fill="none" stroke="black" points="1,-694.5 1,-488.5 "/>
<path fill="none" stroke="black" d="M1,-488.5C1,-482.5 7,-476.5 13,-476.5"/>
<text text-anchor="middle" x="77" y="-689.9" font-family="Times Roman,serif" font-size="14.00">VolosController</text>
<polyline fill="none" stroke="black" points="1,-680.5 153,-680.5 "/>
<text text-anchor="start" x="9" y="-663.9" font-family="Times Roman,serif" font-size="14.00">index</text>
<polyline fill="none" stroke="black" points="1,-654.5 153,-654.5 "/>
<text text-anchor="start" x="9" y="-637.9" font-family="Times Roman,serif" font-size="14.00">collection_path</text>
<text text-anchor="start" x="9" y="-619.9" font-family="Times Roman,serif" font-size="14.00">collection_url</text>
<text text-anchor="start" x="9" y="-601.9" font-family="Times Roman,serif" font-size="14.00">edit_resource_path</text>
<text text-anchor="start" x="9" y="-583.9" font-family="Times Roman,serif" font-size="14.00">edit_resource_url</text>
<text text-anchor="start" x="9" y="-565.9" font-family="Times Roman,serif" font-size="14.00">new_resource_path</text>
<text text-anchor="start" x="9" y="-547.9" font-family="Times Roman,serif" font-size="14.00">new_resource_url</text>
<text text-anchor="start" x="9" y="-529.9" font-family="Times Roman,serif" font-size="14.00">resource_path</text>
<text text-anchor="start" x="9" y="-511.9" font-family="Times Roman,serif" font-size="14.00">resource_url</text>
<polyline fill="none" stroke="black" points="1,-502.5 153,-502.5 "/>
<text text-anchor="start" x="9" y="-485.9" font-family="Times Roman,serif" font-size="14.00">_layout</text>
</g>
<!-- CrentitesController -->
<g id="node3" class="node"><title>CrentitesController</title>
<polyline fill="none" stroke="black" points="963,-951.5 1091,-951.5 "/>
<path fill="none" stroke="black" d="M1091,-951.5C1097,-951.5 1103,-957.5 1103,-963.5"/>
<polyline fill="none" stroke="black" points="1103,-963.5 1103,-1167.5 "/>
<path fill="none" stroke="black" d="M1103,-1167.5C1103,-1173.5 1097,-1179.5 1091,-1179.5"/>
<polyline fill="none" stroke="black" points="1091,-1179.5 963,-1179.5 "/>
<path fill="none" stroke="black" d="M963,-1179.5C957,-1179.5 951,-1173.5 951,-1167.5"/>
<polyline fill="none" stroke="black" points="951,-1167.5 951,-963.5 "/>
<path fill="none" stroke="black" d="M951,-963.5C951,-957.5 957,-951.5 963,-951.5"/>
<text text-anchor="middle" x="1027" y="-1162.9" font-family="Times Roman,serif" font-size="14.00">CrentitesController</text>
<polyline fill="none" stroke="black" points="951,-1153.5 1103,-1153.5 "/>
<polyline fill="none" stroke="black" points="951,-1129.5 1103,-1129.5 "/>
<text text-anchor="start" x="959" y="-1112.9" font-family="Times Roman,serif" font-size="14.00">collection_path</text>
<text text-anchor="start" x="959" y="-1094.9" font-family="Times Roman,serif" font-size="14.00">collection_url</text>
<text text-anchor="start" x="959" y="-1076.9" font-family="Times Roman,serif" font-size="14.00">edit_resource_path</text>
<text text-anchor="start" x="959" y="-1058.9" font-family="Times Roman,serif" font-size="14.00">edit_resource_url</text>
<text text-anchor="start" x="959" y="-1040.9" font-family="Times Roman,serif" font-size="14.00">new_resource_path</text>
<text text-anchor="start" x="959" y="-1022.9" font-family="Times Roman,serif" font-size="14.00">new_resource_url</text>
<text text-anchor="start" x="959" y="-1004.9" font-family="Times Roman,serif" font-size="14.00">resource_path</text>
<text text-anchor="start" x="959" y="-986.9" font-family="Times Roman,serif" font-size="14.00">resource_url</text>
<polyline fill="none" stroke="black" points="951,-977.5 1103,-977.5 "/>
<text text-anchor="start" x="959" y="-960.9" font-family="Times Roman,serif" font-size="14.00">_layout</text>
</g>
<!-- SeritemsController -->
<g id="node4" class="node"><title>SeritemsController</title>
<polyline fill="none" stroke="black" points="413,-251.5 541,-251.5 "/>
<path fill="none" stroke="black" d="M541,-251.5C547,-251.5 553,-257.5 553,-263.5"/>
<polyline fill="none" stroke="black" points="553,-263.5 553,-649.5 "/>
<path fill="none" stroke="black" d="M553,-649.5C553,-655.5 547,-661.5 541,-661.5"/>
<polyline fill="none" stroke="black" points="541,-661.5 413,-661.5 "/>
<path fill="none" stroke="black" d="M413,-661.5C407,-661.5 401,-655.5 401,-649.5"/>
<polyline fill="none" stroke="black" points="401,-649.5 401,-263.5 "/>
<path fill="none" stroke="black" d="M401,-263.5C401,-257.5 407,-251.5 413,-251.5"/>
<text text-anchor="middle" x="477" y="-644.9" font-family="Times Roman,serif" font-size="14.00">SeritemsController</text>
<polyline fill="none" stroke="black" points="401,-635.5 553,-635.5 "/>
<text text-anchor="start" x="409" y="-618.9" font-family="Times Roman,serif" font-size="14.00">create</text>
<text text-anchor="start" x="409" y="-600.9" font-family="Times Roman,serif" font-size="14.00">destroy</text>
<text text-anchor="start" x="409" y="-582.9" font-family="Times Roman,serif" font-size="14.00">edit</text>
<text text-anchor="start" x="409" y="-564.9" font-family="Times Roman,serif" font-size="14.00">index</text>
<text text-anchor="start" x="409" y="-546.9" font-family="Times Roman,serif" font-size="14.00">move_down</text>
<text text-anchor="start" x="409" y="-528.9" font-family="Times Roman,serif" font-size="14.00">move_up</text>
<text text-anchor="start" x="409" y="-510.9" font-family="Times Roman,serif" font-size="14.00">update</text>
<polyline fill="none" stroke="black" points="401,-501.5 553,-501.5 "/>
<text text-anchor="start" x="409" y="-484.9" font-family="Times Roman,serif" font-size="14.00">collection_path</text>
<text text-anchor="start" x="409" y="-466.9" font-family="Times Roman,serif" font-size="14.00">collection_url</text>
<text text-anchor="start" x="409" y="-448.9" font-family="Times Roman,serif" font-size="14.00">edit_parent_path</text>
<text text-anchor="start" x="409" y="-430.9" font-family="Times Roman,serif" font-size="14.00">edit_parent_url</text>
<text text-anchor="start" x="409" y="-412.9" font-family="Times Roman,serif" font-size="14.00">edit_resource_path</text>
<text text-anchor="start" x="409" y="-394.9" font-family="Times Roman,serif" font-size="14.00">edit_resource_url</text>
<text text-anchor="start" x="409" y="-376.9" font-family="Times Roman,serif" font-size="14.00">new_resource_path</text>
<text text-anchor="start" x="409" y="-358.9" font-family="Times Roman,serif" font-size="14.00">new_resource_url</text>
<text text-anchor="start" x="409" y="-340.9" font-family="Times Roman,serif" font-size="14.00">parent_path</text>
<text text-anchor="start" x="409" y="-322.9" font-family="Times Roman,serif" font-size="14.00">parent_url</text>
<text text-anchor="start" x="409" y="-304.9" font-family="Times Roman,serif" font-size="14.00">resource_path</text>
<text text-anchor="start" x="409" y="-286.9" font-family="Times Roman,serif" font-size="14.00">resource_url</text>
<polyline fill="none" stroke="black" points="401,-277.5 553,-277.5 "/>
<text text-anchor="start" x="409" y="-260.9" font-family="Times Roman,serif" font-size="14.00">_layout</text>
</g>
<!-- ServolosController -->
<g id="node5" class="node"><title>ServolosController</title>
<polyline fill="none" stroke="black" points="213,-476.5 341,-476.5 "/>
<path fill="none" stroke="black" d="M341,-476.5C347,-476.5 353,-482.5 353,-488.5"/>
<polyline fill="none" stroke="black" points="353,-488.5 353,-820.5 "/>
<path fill="none" stroke="black" d="M353,-820.5C353,-826.5 347,-832.5 341,-832.5"/>
<polyline fill="none" stroke="black" points="341,-832.5 213,-832.5 "/>
<path fill="none" stroke="black" d="M213,-832.5C207,-832.5 201,-826.5 201,-820.5"/>
<polyline fill="none" stroke="black" points="201,-820.5 201,-488.5 "/>
<path fill="none" stroke="black" d="M201,-488.5C201,-482.5 207,-476.5 213,-476.5"/>
<text text-anchor="middle" x="277" y="-815.9" font-family="Times Roman,serif" font-size="14.00">ServolosController</text>
<polyline fill="none" stroke="black" points="201,-806.5 353,-806.5 "/>
<text text-anchor="start" x="209" y="-789.9" font-family="Times Roman,serif" font-size="14.00">create</text>
<text text-anchor="start" x="209" y="-771.9" font-family="Times Roman,serif" font-size="14.00">destroy</text>
<text text-anchor="start" x="209" y="-753.9" font-family="Times Roman,serif" font-size="14.00">index</text>
<text text-anchor="start" x="209" y="-735.9" font-family="Times Roman,serif" font-size="14.00">update</text>
<polyline fill="none" stroke="black" points="201,-726.5 353,-726.5 "/>
<text text-anchor="start" x="209" y="-709.9" font-family="Times Roman,serif" font-size="14.00">collection_path</text>
<text text-anchor="start" x="209" y="-691.9" font-family="Times Roman,serif" font-size="14.00">collection_url</text>
<text text-anchor="start" x="209" y="-673.9" font-family="Times Roman,serif" font-size="14.00">edit_parent_path</text>
<text text-anchor="start" x="209" y="-655.9" font-family="Times Roman,serif" font-size="14.00">edit_parent_url</text>
<text text-anchor="start" x="209" y="-637.9" font-family="Times Roman,serif" font-size="14.00">edit_resource_path</text>
<text text-anchor="start" x="209" y="-619.9" font-family="Times Roman,serif" font-size="14.00">edit_resource_url</text>
<text text-anchor="start" x="209" y="-601.9" font-family="Times Roman,serif" font-size="14.00">new_resource_path</text>
<text text-anchor="start" x="209" y="-583.9" font-family="Times Roman,serif" font-size="14.00">new_resource_url</text>
<text text-anchor="start" x="209" y="-565.9" font-family="Times Roman,serif" font-size="14.00">parent_path</text>
<text text-anchor="start" x="209" y="-547.9" font-family="Times Roman,serif" font-size="14.00">parent_url</text>
<text text-anchor="start" x="209" y="-529.9" font-family="Times Roman,serif" font-size="14.00">resource_path</text>
<text text-anchor="start" x="209" y="-511.9" font-family="Times Roman,serif" font-size="14.00">resource_url</text>
<polyline fill="none" stroke="black" points="201,-502.5 353,-502.5 "/>
<text text-anchor="start" x="209" y="-485.9" font-family="Times Roman,serif" font-size="14.00">_layout</text>
</g>
<!-- DisposersController -->
<g id="node6" class="node"><title>DisposersController</title>
<polyline fill="none" stroke="black" points="813,-151.5 941,-151.5 "/>
<path fill="none" stroke="black" d="M941,-151.5C947,-151.5 953,-157.5 953,-163.5"/>
<polyline fill="none" stroke="black" points="953,-163.5 953,-495.5 "/>
<path fill="none" stroke="black" d="M953,-495.5C953,-501.5 947,-507.5 941,-507.5"/>
<polyline fill="none" stroke="black" points="941,-507.5 813,-507.5 "/>
<path fill="none" stroke="black" d="M813,-507.5C807,-507.5 801,-501.5 801,-495.5"/>
<polyline fill="none" stroke="black" points="801,-495.5 801,-163.5 "/>
<path fill="none" stroke="black" d="M801,-163.5C801,-157.5 807,-151.5 813,-151.5"/>
<text text-anchor="middle" x="877" y="-490.9" font-family="Times Roman,serif" font-size="14.00">DisposersController</text>
<polyline fill="none" stroke="black" points="801,-481.5 953,-481.5 "/>
<text text-anchor="start" x="809" y="-464.9" font-family="Times Roman,serif" font-size="14.00">create</text>
<text text-anchor="start" x="809" y="-446.9" font-family="Times Roman,serif" font-size="14.00">destroy</text>
<text text-anchor="start" x="809" y="-428.9" font-family="Times Roman,serif" font-size="14.00">index</text>
<text text-anchor="start" x="809" y="-410.9" font-family="Times Roman,serif" font-size="14.00">update</text>
<polyline fill="none" stroke="black" points="801,-401.5 953,-401.5 "/>
<text text-anchor="start" x="809" y="-384.9" font-family="Times Roman,serif" font-size="14.00">collection_path</text>
<text text-anchor="start" x="809" y="-366.9" font-family="Times Roman,serif" font-size="14.00">collection_url</text>
<text text-anchor="start" x="809" y="-348.9" font-family="Times Roman,serif" font-size="14.00">edit_parent_path</text>
<text text-anchor="start" x="809" y="-330.9" font-family="Times Roman,serif" font-size="14.00">edit_parent_url</text>
<text text-anchor="start" x="809" y="-312.9" font-family="Times Roman,serif" font-size="14.00">edit_resource_path</text>
<text text-anchor="start" x="809" y="-294.9" font-family="Times Roman,serif" font-size="14.00">edit_resource_url</text>
<text text-anchor="start" x="809" y="-276.9" font-family="Times Roman,serif" font-size="14.00">new_resource_path</text>
<text text-anchor="start" x="809" y="-258.9" font-family="Times Roman,serif" font-size="14.00">new_resource_url</text>
<text text-anchor="start" x="809" y="-240.9" font-family="Times Roman,serif" font-size="14.00">parent_path</text>
<text text-anchor="start" x="809" y="-222.9" font-family="Times Roman,serif" font-size="14.00">parent_url</text>
<text text-anchor="start" x="809" y="-204.9" font-family="Times Roman,serif" font-size="14.00">resource_path</text>
<text text-anchor="start" x="809" y="-186.9" font-family="Times Roman,serif" font-size="14.00">resource_url</text>
<polyline fill="none" stroke="black" points="801,-177.5 953,-177.5 "/>
<text text-anchor="start" x="809" y="-160.9" font-family="Times Roman,serif" font-size="14.00">_layout</text>
</g>
<!-- ApplicationController -->
<g id="node7" class="node"><title>ApplicationController</title>
<polyline fill="none" stroke="black" points="813,-1.5 1018,-1.5 "/>
<path fill="none" stroke="black" d="M1018,-1.5C1024,-1.5 1030,-7.5 1030,-13.5"/>
<polyline fill="none" stroke="black" points="1030,-13.5 1030,-91.5 "/>
<path fill="none" stroke="black" d="M1030,-91.5C1030,-97.5 1024,-103.5 1018,-103.5"/>
<polyline fill="none" stroke="black" points="1018,-103.5 813,-103.5 "/>
<path fill="none" stroke="black" d="M813,-103.5C807,-103.5 801,-97.5 801,-91.5"/>
<polyline fill="none" stroke="black" points="801,-91.5 801,-13.5 "/>
<path fill="none" stroke="black" d="M801,-13.5C801,-7.5 807,-1.5 813,-1.5"/>
<text text-anchor="middle" x="915.5" y="-86.9" font-family="Times Roman,serif" font-size="14.00">ApplicationController</text>
<polyline fill="none" stroke="black" points="801,-77.5 1030,-77.5 "/>
<text text-anchor="start" x="809" y="-60.9" font-family="Times Roman,serif" font-size="14.00">_one_time_conditions_valid_8?</text>
<polyline fill="none" stroke="black" points="801,-51.5 1030,-51.5 "/>
<polyline fill="none" stroke="black" points="801,-27.5 1030,-27.5 "/>
<text text-anchor="start" x="809" y="-10.9" font-family="Times Roman,serif" font-size="14.00">_layout</text>
</g>
<!-- RefacsController -->
<g id="node8" class="node"><title>RefacsController</title>
<polyline fill="none" stroke="black" points="813,-551.5 941,-551.5 "/>
<path fill="none" stroke="black" d="M941,-551.5C947,-551.5 953,-557.5 953,-563.5"/>
<polyline fill="none" stroke="black" points="953,-563.5 953,-895.5 "/>
<path fill="none" stroke="black" d="M953,-895.5C953,-901.5 947,-907.5 941,-907.5"/>
<polyline fill="none" stroke="black" points="941,-907.5 813,-907.5 "/>
<path fill="none" stroke="black" d="M813,-907.5C807,-907.5 801,-901.5 801,-895.5"/>
<polyline fill="none" stroke="black" points="801,-895.5 801,-563.5 "/>
<path fill="none" stroke="black" d="M801,-563.5C801,-557.5 807,-551.5 813,-551.5"/>
<text text-anchor="middle" x="877" y="-890.9" font-family="Times Roman,serif" font-size="14.00">RefacsController</text>
<polyline fill="none" stroke="black" points="801,-881.5 953,-881.5 "/>
<text text-anchor="start" x="809" y="-864.9" font-family="Times Roman,serif" font-size="14.00">create</text>
<text text-anchor="start" x="809" y="-846.9" font-family="Times Roman,serif" font-size="14.00">destroy</text>
<text text-anchor="start" x="809" y="-828.9" font-family="Times Roman,serif" font-size="14.00">index</text>
<text text-anchor="start" x="809" y="-810.9" font-family="Times Roman,serif" font-size="14.00">update</text>
<polyline fill="none" stroke="black" points="801,-801.5 953,-801.5 "/>
<text text-anchor="start" x="809" y="-784.9" font-family="Times Roman,serif" font-size="14.00">collection_path</text>
<text text-anchor="start" x="809" y="-766.9" font-family="Times Roman,serif" font-size="14.00">collection_url</text>
<text text-anchor="start" x="809" y="-748.9" font-family="Times Roman,serif" font-size="14.00">edit_parent_path</text>
<text text-anchor="start" x="809" y="-730.9" font-family="Times Roman,serif" font-size="14.00">edit_parent_url</text>
<text text-anchor="start" x="809" y="-712.9" font-family="Times Roman,serif" font-size="14.00">edit_resource_path</text>
<text text-anchor="start" x="809" y="-694.9" font-family="Times Roman,serif" font-size="14.00">edit_resource_url</text>
<text text-anchor="start" x="809" y="-676.9" font-family="Times Roman,serif" font-size="14.00">new_resource_path</text>
<text text-anchor="start" x="809" y="-658.9" font-family="Times Roman,serif" font-size="14.00">new_resource_url</text>
<text text-anchor="start" x="809" y="-640.9" font-family="Times Roman,serif" font-size="14.00">parent_path</text>
<text text-anchor="start" x="809" y="-622.9" font-family="Times Roman,serif" font-size="14.00">parent_url</text>
<text text-anchor="start" x="809" y="-604.9" font-family="Times Roman,serif" font-size="14.00">resource_path</text>
<text text-anchor="start" x="809" y="-586.9" font-family="Times Roman,serif" font-size="14.00">resource_url</text>
<polyline fill="none" stroke="black" points="801,-577.5 953,-577.5 "/>
<text text-anchor="start" x="809" y="-560.9" font-family="Times Roman,serif" font-size="14.00">_layout</text>
</g>
<!-- ServicesController -->
<g id="node9" class="node"><title>ServicesController</title>
<polyline fill="none" stroke="black" points="613,-801.5 741,-801.5 "/>
<path fill="none" stroke="black" d="M741,-801.5C747,-801.5 753,-807.5 753,-813.5"/>
<polyline fill="none" stroke="black" points="753,-813.5 753,-1127.5 "/>
<path fill="none" stroke="black" d="M753,-1127.5C753,-1133.5 747,-1139.5 741,-1139.5"/>
<polyline fill="none" stroke="black" points="741,-1139.5 613,-1139.5 "/>
<path fill="none" stroke="black" d="M613,-1139.5C607,-1139.5 601,-1133.5 601,-1127.5"/>
<polyline fill="none" stroke="black" points="601,-1127.5 601,-813.5 "/>
<path fill="none" stroke="black" d="M601,-813.5C601,-807.5 607,-801.5 613,-801.5"/>
<text text-anchor="middle" x="677" y="-1122.9" font-family="Times Roman,serif" font-size="14.00">ServicesController</text>
<polyline fill="none" stroke="black" points="601,-1113.5 753,-1113.5 "/>
<text text-anchor="start" x="609" y="-1096.9" font-family="Times Roman,serif" font-size="14.00">create</text>
<text text-anchor="start" x="609" y="-1078.9" font-family="Times Roman,serif" font-size="14.00">destroy</text>
<text text-anchor="start" x="609" y="-1060.9" font-family="Times Roman,serif" font-size="14.00">overview</text>
<polyline fill="none" stroke="black" points="601,-1051.5 753,-1051.5 "/>
<text text-anchor="start" x="609" y="-1034.9" font-family="Times Roman,serif" font-size="14.00">collection_path</text>
<text text-anchor="start" x="609" y="-1016.9" font-family="Times Roman,serif" font-size="14.00">collection_url</text>
<text text-anchor="start" x="609" y="-998.9" font-family="Times Roman,serif" font-size="14.00">edit_parent_path</text>
<text text-anchor="start" x="609" y="-980.9" font-family="Times Roman,serif" font-size="14.00">edit_parent_url</text>
<text text-anchor="start" x="609" y="-962.9" font-family="Times Roman,serif" font-size="14.00">edit_resource_path</text>
<text text-anchor="start" x="609" y="-944.9" font-family="Times Roman,serif" font-size="14.00">edit_resource_url</text>
<text text-anchor="start" x="609" y="-926.9" font-family="Times Roman,serif" font-size="14.00">new_resource_path</text>
<text text-anchor="start" x="609" y="-908.9" font-family="Times Roman,serif" font-size="14.00">new_resource_url</text>
<text text-anchor="start" x="609" y="-890.9" font-family="Times Roman,serif" font-size="14.00">parent_path</text>
<text text-anchor="start" x="609" y="-872.9" font-family="Times Roman,serif" font-size="14.00">parent_url</text>
<text text-anchor="start" x="609" y="-854.9" font-family="Times Roman,serif" font-size="14.00">resource_path</text>
<text text-anchor="start" x="609" y="-836.9" font-family="Times Roman,serif" font-size="14.00">resource_url</text>
<polyline fill="none" stroke="black" points="601,-827.5 753,-827.5 "/>
<text text-anchor="start" x="609" y="-810.9" font-family="Times Roman,serif" font-size="14.00">_layout</text>
</g>
<!-- CustomersController -->
<g id="node10" class="node"><title>CustomersController</title>
<polyline fill="none" stroke="black" points="613,-76.5 748,-76.5 "/>
<path fill="none" stroke="black" d="M748,-76.5C754,-76.5 760,-82.5 760,-88.5"/>
<polyline fill="none" stroke="black" points="760,-88.5 760,-292.5 "/>
<path fill="none" stroke="black" d="M760,-292.5C760,-298.5 754,-304.5 748,-304.5"/>
<polyline fill="none" stroke="black" points="748,-304.5 613,-304.5 "/>
<path fill="none" stroke="black" d="M613,-304.5C607,-304.5 601,-298.5 601,-292.5"/>
<polyline fill="none" stroke="black" points="601,-292.5 601,-88.5 "/>
<path fill="none" stroke="black" d="M601,-88.5C601,-82.5 607,-76.5 613,-76.5"/>
<text text-anchor="middle" x="680.5" y="-287.9" font-family="Times Roman,serif" font-size="14.00">CustomersController</text>
<polyline fill="none" stroke="black" points="601,-278.5 760,-278.5 "/>
<polyline fill="none" stroke="black" points="601,-254.5 760,-254.5 "/>
<text text-anchor="start" x="609" y="-237.9" font-family="Times Roman,serif" font-size="14.00">collection_path</text>
<text text-anchor="start" x="609" y="-219.9" font-family="Times Roman,serif" font-size="14.00">collection_url</text>
<text text-anchor="start" x="609" y="-201.9" font-family="Times Roman,serif" font-size="14.00">edit_resource_path</text>
<text text-anchor="start" x="609" y="-183.9" font-family="Times Roman,serif" font-size="14.00">edit_resource_url</text>
<text text-anchor="start" x="609" y="-165.9" font-family="Times Roman,serif" font-size="14.00">new_resource_path</text>
<text text-anchor="start" x="609" y="-147.9" font-family="Times Roman,serif" font-size="14.00">new_resource_url</text>
<text text-anchor="start" x="609" y="-129.9" font-family="Times Roman,serif" font-size="14.00">resource_path</text>
<text text-anchor="start" x="609" y="-111.9" font-family="Times Roman,serif" font-size="14.00">resource_url</text>
<polyline fill="none" stroke="black" points="601,-102.5 760,-102.5 "/>
<text text-anchor="start" x="609" y="-85.9" font-family="Times Roman,serif" font-size="14.00">_layout</text>
</g>
<!-- EventsController -->
<g id="node11" class="node"><title>EventsController</title>
<polyline fill="none" stroke="black" points="413,-701.5 552,-701.5 "/>
<path fill="none" stroke="black" d="M552,-701.5C558,-701.5 564,-707.5 564,-713.5"/>
<polyline fill="none" stroke="black" points="564,-713.5 564,-1027.5 "/>
<path fill="none" stroke="black" d="M564,-1027.5C564,-1033.5 558,-1039.5 552,-1039.5"/>
<polyline fill="none" stroke="black" points="552,-1039.5 413,-1039.5 "/>
<path fill="none" stroke="black" d="M413,-1039.5C407,-1039.5 401,-1033.5 401,-1027.5"/>
<polyline fill="none" stroke="black" points="401,-1027.5 401,-713.5 "/>
<path fill="none" stroke="black" d="M401,-713.5C401,-707.5 407,-701.5 413,-701.5"/>
<text text-anchor="middle" x="482.5" y="-1022.9" font-family="Times Roman,serif" font-size="14.00">EventsController</text>
<polyline fill="none" stroke="black" points="401,-1013.5 564,-1013.5 "/>
<text text-anchor="start" x="409" y="-996.9" font-family="Times Roman,serif" font-size="14.00">add_to_invoice</text>
<text text-anchor="start" x="409" y="-978.9" font-family="Times Roman,serif" font-size="14.00">create</text>
<text text-anchor="start" x="409" y="-960.9" font-family="Times Roman,serif" font-size="14.00">destroy</text>
<text text-anchor="start" x="409" y="-942.9" font-family="Times Roman,serif" font-size="14.00">fullitem</text>
<text text-anchor="start" x="409" y="-924.9" font-family="Times Roman,serif" font-size="14.00">overview</text>
<text text-anchor="start" x="409" y="-906.9" font-family="Times Roman,serif" font-size="14.00">remove_from_invoice</text>
<text text-anchor="start" x="409" y="-888.9" font-family="Times Roman,serif" font-size="14.00">show</text>
<polyline fill="none" stroke="black" points="401,-879.5 564,-879.5 "/>
<text text-anchor="start" x="409" y="-862.9" font-family="Times Roman,serif" font-size="14.00">collection_path</text>
<text text-anchor="start" x="409" y="-844.9" font-family="Times Roman,serif" font-size="14.00">collection_url</text>
<text text-anchor="start" x="409" y="-826.9" font-family="Times Roman,serif" font-size="14.00">edit_resource_path</text>
<text text-anchor="start" x="409" y="-808.9" font-family="Times Roman,serif" font-size="14.00">edit_resource_url</text>
<text text-anchor="start" x="409" y="-790.9" font-family="Times Roman,serif" font-size="14.00">new_resource_path</text>
<text text-anchor="start" x="409" y="-772.9" font-family="Times Roman,serif" font-size="14.00">new_resource_url</text>
<text text-anchor="start" x="409" y="-754.9" font-family="Times Roman,serif" font-size="14.00">resource_path</text>
<text text-anchor="start" x="409" y="-736.9" font-family="Times Roman,serif" font-size="14.00">resource_url</text>
<polyline fill="none" stroke="black" points="401,-727.5 564,-727.5 "/>
<text text-anchor="start" x="409" y="-710.9" font-family="Times Roman,serif" font-size="14.00">_layout</text>
</g>
<!-- EvitemsController -->
<g id="node12" class="node"><title>EvitemsController</title>
<polyline fill="none" stroke="black" points="613,-351.5 741,-351.5 "/>
<path fill="none" stroke="black" d="M741,-351.5C747,-351.5 753,-357.5 753,-363.5"/>
<polyline fill="none" stroke="black" points="753,-363.5 753,-749.5 "/>
<path fill="none" stroke="black" d="M753,-749.5C753,-755.5 747,-761.5 741,-761.5"/>
<polyline fill="none" stroke="black" points="741,-761.5 613,-761.5 "/>
<path fill="none" stroke="black" d="M613,-761.5C607,-761.5 601,-755.5 601,-749.5"/>
<polyline fill="none" stroke="black" points="601,-749.5 601,-363.5 "/>
<path fill="none" stroke="black" d="M601,-363.5C601,-357.5 607,-351.5 613,-351.5"/>
<text text-anchor="middle" x="677" y="-744.9" font-family="Times Roman,serif" font-size="14.00">EvitemsController</text>
<polyline fill="none" stroke="black" points="601,-735.5 753,-735.5 "/>
<text text-anchor="start" x="609" y="-718.9" font-family="Times Roman,serif" font-size="14.00">create</text>
<text text-anchor="start" x="609" y="-700.9" font-family="Times Roman,serif" font-size="14.00">destroy</text>
<text text-anchor="start" x="609" y="-682.9" font-family="Times Roman,serif" font-size="14.00">edit</text>
<text text-anchor="start" x="609" y="-664.9" font-family="Times Roman,serif" font-size="14.00">index</text>
<text text-anchor="start" x="609" y="-646.9" font-family="Times Roman,serif" font-size="14.00">move_down</text>
<text text-anchor="start" x="609" y="-628.9" font-family="Times Roman,serif" font-size="14.00">move_up</text>
<text text-anchor="start" x="609" y="-610.9" font-family="Times Roman,serif" font-size="14.00">update</text>
<polyline fill="none" stroke="black" points="601,-601.5 753,-601.5 "/>
<text text-anchor="start" x="609" y="-584.9" font-family="Times Roman,serif" font-size="14.00">collection_path</text>
<text text-anchor="start" x="609" y="-566.9" font-family="Times Roman,serif" font-size="14.00">collection_url</text>
<text text-anchor="start" x="609" y="-548.9" font-family="Times Roman,serif" font-size="14.00">edit_parent_path</text>
<text text-anchor="start" x="609" y="-530.9" font-family="Times Roman,serif" font-size="14.00">edit_parent_url</text>
<text text-anchor="start" x="609" y="-512.9" font-family="Times Roman,serif" font-size="14.00">edit_resource_path</text>
<text text-anchor="start" x="609" y="-494.9" font-family="Times Roman,serif" font-size="14.00">edit_resource_url</text>
<text text-anchor="start" x="609" y="-476.9" font-family="Times Roman,serif" font-size="14.00">new_resource_path</text>
<text text-anchor="start" x="609" y="-458.9" font-family="Times Roman,serif" font-size="14.00">new_resource_url</text>
<text text-anchor="start" x="609" y="-440.9" font-family="Times Roman,serif" font-size="14.00">parent_path</text>
<text text-anchor="start" x="609" y="-422.9" font-family="Times Roman,serif" font-size="14.00">parent_url</text>
<text text-anchor="start" x="609" y="-404.9" font-family="Times Roman,serif" font-size="14.00">resource_path</text>
<text text-anchor="start" x="609" y="-386.9" font-family="Times Roman,serif" font-size="14.00">resource_url</text>
<polyline fill="none" stroke="black" points="601,-377.5 753,-377.5 "/>
<text text-anchor="start" x="609" y="-360.9" font-family="Times Roman,serif" font-size="14.00">_layout</text>
</g>
<!-- InvoicesController -->
<g id="node13" class="node"><title>InvoicesController</title>
<polyline fill="none" stroke="black" points="213,-876.5 341,-876.5 "/>
<path fill="none" stroke="black" d="M341,-876.5C347,-876.5 353,-882.5 353,-888.5"/>
<polyline fill="none" stroke="black" points="353,-888.5 353,-1112.5 "/>
<path fill="none" stroke="black" d="M353,-1112.5C353,-1118.5 347,-1124.5 341,-1124.5"/>
<polyline fill="none" stroke="black" points="341,-1124.5 213,-1124.5 "/>
<path fill="none" stroke="black" d="M213,-1124.5C207,-1124.5 201,-1118.5 201,-1112.5"/>
<polyline fill="none" stroke="black" points="201,-1112.5 201,-888.5 "/>
<path fill="none" stroke="black" d="M201,-888.5C201,-882.5 207,-876.5 213,-876.5"/>
<text text-anchor="middle" x="277" y="-1107.9" font-family="Times Roman,serif" font-size="14.00">InvoicesController</text>
<polyline fill="none" stroke="black" points="201,-1098.5 353,-1098.5 "/>
<text text-anchor="start" x="209" y="-1081.9" font-family="Times Roman,serif" font-size="14.00">events</text>
<text text-anchor="start" x="209" y="-1063.9" font-family="Times Roman,serif" font-size="14.00">overview</text>
<polyline fill="none" stroke="black" points="201,-1054.5 353,-1054.5 "/>
<text text-anchor="start" x="209" y="-1037.9" font-family="Times Roman,serif" font-size="14.00">collection_path</text>
<text text-anchor="start" x="209" y="-1019.9" font-family="Times Roman,serif" font-size="14.00">collection_url</text>
<text text-anchor="start" x="209" y="-1001.9" font-family="Times Roman,serif" font-size="14.00">edit_resource_path</text>
<text text-anchor="start" x="209" y="-983.9" font-family="Times Roman,serif" font-size="14.00">edit_resource_url</text>
<text text-anchor="start" x="209" y="-965.9" font-family="Times Roman,serif" font-size="14.00">new_resource_path</text>
<text text-anchor="start" x="209" y="-947.9" font-family="Times Roman,serif" font-size="14.00">new_resource_url</text>
<text text-anchor="start" x="209" y="-929.9" font-family="Times Roman,serif" font-size="14.00">resource_path</text>
<text text-anchor="start" x="209" y="-911.9" font-family="Times Roman,serif" font-size="14.00">resource_url</text>
<polyline fill="none" stroke="black" points="201,-902.5 353,-902.5 "/>
<text text-anchor="start" x="209" y="-885.9" font-family="Times Roman,serif" font-size="14.00">_layout</text>
</g>
<!-- TemplateInvoicedItemsController -->
<g id="node14" class="node"><title>TemplateInvoicedItemsController</title>
<polyline fill="none" stroke="black" points="113,-201.5 332,-201.5 "/>
<path fill="none" stroke="black" d="M332,-201.5C338,-201.5 344,-207.5 344,-213.5"/>
<polyline fill="none" stroke="black" points="344,-213.5 344,-417.5 "/>
<path fill="none" stroke="black" d="M344,-417.5C344,-423.5 338,-429.5 332,-429.5"/>
<polyline fill="none" stroke="black" points="332,-429.5 113,-429.5 "/>
<path fill="none" stroke="black" d="M113,-429.5C107,-429.5 101,-423.5 101,-417.5"/>
<polyline fill="none" stroke="black" points="101,-417.5 101,-213.5 "/>
<path fill="none" stroke="black" d="M101,-213.5C101,-207.5 107,-201.5 113,-201.5"/>
<text text-anchor="middle" x="222.5" y="-412.9" font-family="Times Roman,serif" font-size="14.00">TemplateInvoicedItemsController</text>
<polyline fill="none" stroke="black" points="101,-403.5 344,-403.5 "/>
<polyline fill="none" stroke="black" points="101,-379.5 344,-379.5 "/>
<text text-anchor="start" x="109" y="-362.9" font-family="Times Roman,serif" font-size="14.00">collection_path</text>
<text text-anchor="start" x="109" y="-344.9" font-family="Times Roman,serif" font-size="14.00">collection_url</text>
<text text-anchor="start" x="109" y="-326.9" font-family="Times Roman,serif" font-size="14.00">edit_resource_path</text>
<text text-anchor="start" x="109" y="-308.9" font-family="Times Roman,serif" font-size="14.00">edit_resource_url</text>
<text text-anchor="start" x="109" y="-290.9" font-family="Times Roman,serif" font-size="14.00">new_resource_path</text>
<text text-anchor="start" x="109" y="-272.9" font-family="Times Roman,serif" font-size="14.00">new_resource_url</text>
<text text-anchor="start" x="109" y="-254.9" font-family="Times Roman,serif" font-size="14.00">resource_path</text>
<text text-anchor="start" x="109" y="-236.9" font-family="Times Roman,serif" font-size="14.00">resource_url</text>
<polyline fill="none" stroke="black" points="101,-227.5 344,-227.5 "/>
<text text-anchor="start" x="109" y="-210.9" font-family="Times Roman,serif" font-size="14.00">_layout</text>
</g>
<!-- DispositifsController -->
<g id="node15" class="node"><title>DispositifsController</title>
<polyline fill="none" stroke="black" points="13,-951.5 144,-951.5 "/>
<path fill="none" stroke="black" d="M144,-951.5C150,-951.5 156,-957.5 156,-963.5"/>
<polyline fill="none" stroke="black" points="156,-963.5 156,-1169.5 "/>
<path fill="none" stroke="black" d="M156,-1169.5C156,-1175.5 150,-1181.5 144,-1181.5"/>
<polyline fill="none" stroke="black" points="144,-1181.5 13,-1181.5 "/>
<path fill="none" stroke="black" d="M13,-1181.5C7,-1181.5 1,-1175.5 1,-1169.5"/>
<polyline fill="none" stroke="black" points="1,-1169.5 1,-963.5 "/>
<path fill="none" stroke="black" d="M1,-963.5C1,-957.5 7,-951.5 13,-951.5"/>
<text text-anchor="middle" x="78.5" y="-1164.9" font-family="Times Roman,serif" font-size="14.00">DispositifsController</text>
<polyline fill="none" stroke="black" points="1,-1155.5 156,-1155.5 "/>
<text text-anchor="start" x="9" y="-1138.9" font-family="Times Roman,serif" font-size="14.00">index</text>
<polyline fill="none" stroke="black" points="1,-1129.5 156,-1129.5 "/>
<text text-anchor="start" x="9" y="-1112.9" font-family="Times Roman,serif" font-size="14.00">collection_path</text>
<text text-anchor="start" x="9" y="-1094.9" font-family="Times Roman,serif" font-size="14.00">collection_url</text>
<text text-anchor="start" x="9" y="-1076.9" font-family="Times Roman,serif" font-size="14.00">edit_resource_path</text>
<text text-anchor="start" x="9" y="-1058.9" font-family="Times Roman,serif" font-size="14.00">edit_resource_url</text>
<text text-anchor="start" x="9" y="-1040.9" font-family="Times Roman,serif" font-size="14.00">new_resource_path</text>
<text text-anchor="start" x="9" y="-1022.9" font-family="Times Roman,serif" font-size="14.00">new_resource_url</text>
<text text-anchor="start" x="9" y="-1004.9" font-family="Times Roman,serif" font-size="14.00">resource_path</text>
<text text-anchor="start" x="9" y="-986.9" font-family="Times Roman,serif" font-size="14.00">resource_url</text>
<polyline fill="none" stroke="black" points="1,-977.5 156,-977.5 "/>
<text text-anchor="start" x="9" y="-960.9" font-family="Times Roman,serif" font-size="14.00">_layout</text>
</g>
</g>
</svg>
