<?xml version="1.0" encoding="UTF-8" standalone="no"?>
<!DOCTYPE svg PUBLIC "-//W3C//DTD SVG 1.1//EN"
 "http://www.w3.org/Graphics/SVG/1.1/DTD/svg11.dtd">
<!-- Generated by graphviz version 2.26.3 (20100126.1600)
 -->
<!-- Title: controllers_diagram Pages: 1 -->
<svg width="953pt" height="1049pt"
 viewBox="0.00 0.00 953.00 1049.00" xmlns="http://www.w3.org/2000/svg" xmlns:xlink="http://www.w3.org/1999/xlink">
<g id="graph1" class="graph" transform="scale(1 1) rotate(0) translate(4 1045)">
<title>controllers_diagram</title>
<polygon fill="white" stroke="white" points="-4,5 -4,-1045 950,-1045 950,5 -4,5"/>
<!-- _diagram_info -->
<g id="node1" class="node"><title>_diagram_info</title>
<text text-anchor="start" x="9" y="-953.3" font-family="Times Roman,serif" font-size="13.00">Controllers diagram</text>
<text text-anchor="start" x="9" y="-936.3" font-family="Times Roman,serif" font-size="13.00">Date: Jun 16 2012 &#45; 14:35</text>
<text text-anchor="start" x="9" y="-919.3" font-family="Times Roman,serif" font-size="13.00">Migration version: 20120616100848</text>
<text text-anchor="start" x="9" y="-902.3" font-family="Times Roman,serif" font-size="13.00">Generated by RailRoady 1.0.7</text>
<text text-anchor="start" x="9" y="-885.3" font-family="Times Roman,serif" font-size="13.00">http://railroady.prestonlee.com</text>
</g>
<!-- VolosController -->
<g id="node2" class="node"><title>VolosController</title>
<polyline fill="none" stroke="black" points="513,-801.5 641,-801.5 "/>
<path fill="none" stroke="black" d="M641,-801.5C647,-801.5 653,-807.5 653,-813.5"/>
<polyline fill="none" stroke="black" points="653,-813.5 653,-1019.5 "/>
<path fill="none" stroke="black" d="M653,-1019.5C653,-1025.5 647,-1031.5 641,-1031.5"/>
<polyline fill="none" stroke="black" points="641,-1031.5 513,-1031.5 "/>
<path fill="none" stroke="black" d="M513,-1031.5C507,-1031.5 501,-1025.5 501,-1019.5"/>
<polyline fill="none" stroke="black" points="501,-1019.5 501,-813.5 "/>
<path fill="none" stroke="black" d="M501,-813.5C501,-807.5 507,-801.5 513,-801.5"/>
<text text-anchor="middle" x="577" y="-1014.9" font-family="Times Roman,serif" font-size="14.00">VolosController</text>
<polyline fill="none" stroke="black" points="501,-1005.5 653,-1005.5 "/>
<text text-anchor="start" x="509" y="-988.9" font-family="Times Roman,serif" font-size="14.00">index</text>
<polyline fill="none" stroke="black" points="501,-979.5 653,-979.5 "/>
<text text-anchor="start" x="509" y="-962.9" font-family="Times Roman,serif" font-size="14.00">collection_path</text>
<text text-anchor="start" x="509" y="-944.9" font-family="Times Roman,serif" font-size="14.00">collection_url</text>
<text text-anchor="start" x="509" y="-926.9" font-family="Times Roman,serif" font-size="14.00">edit_resource_path</text>
<text text-anchor="start" x="509" y="-908.9" font-family="Times Roman,serif" font-size="14.00">edit_resource_url</text>
<text text-anchor="start" x="509" y="-890.9" font-family="Times Roman,serif" font-size="14.00">new_resource_path</text>
<text text-anchor="start" x="509" y="-872.9" font-family="Times Roman,serif" font-size="14.00">new_resource_url</text>
<text text-anchor="start" x="509" y="-854.9" font-family="Times Roman,serif" font-size="14.00">resource_path</text>
<text text-anchor="start" x="509" y="-836.9" font-family="Times Roman,serif" font-size="14.00">resource_url</text>
<polyline fill="none" stroke="black" points="501,-827.5 653,-827.5 "/>
<text text-anchor="start" x="509" y="-810.9" font-family="Times Roman,serif" font-size="14.00">_layout</text>
</g>
<!-- SeritemsController -->
<g id="node3" class="node"><title>SeritemsController</title>
<polyline fill="none" stroke="black" points="313,-251.5 441,-251.5 "/>
<path fill="none" stroke="black" d="M441,-251.5C447,-251.5 453,-257.5 453,-263.5"/>
<polyline fill="none" stroke="black" points="453,-263.5 453,-649.5 "/>
<path fill="none" stroke="black" d="M453,-649.5C453,-655.5 447,-661.5 441,-661.5"/>
<polyline fill="none" stroke="black" points="441,-661.5 313,-661.5 "/>
<path fill="none" stroke="black" d="M313,-661.5C307,-661.5 301,-655.5 301,-649.5"/>
<polyline fill="none" stroke="black" points="301,-649.5 301,-263.5 "/>
<path fill="none" stroke="black" d="M301,-263.5C301,-257.5 307,-251.5 313,-251.5"/>
<text text-anchor="middle" x="377" y="-644.9" font-family="Times Roman,serif" font-size="14.00">SeritemsController</text>
<polyline fill="none" stroke="black" points="301,-635.5 453,-635.5 "/>
<text text-anchor="start" x="309" y="-618.9" font-family="Times Roman,serif" font-size="14.00">create</text>
<text text-anchor="start" x="309" y="-600.9" font-family="Times Roman,serif" font-size="14.00">destroy</text>
<text text-anchor="start" x="309" y="-582.9" font-family="Times Roman,serif" font-size="14.00">edit</text>
<text text-anchor="start" x="309" y="-564.9" font-family="Times Roman,serif" font-size="14.00">index</text>
<text text-anchor="start" x="309" y="-546.9" font-family="Times Roman,serif" font-size="14.00">move_down</text>
<text text-anchor="start" x="309" y="-528.9" font-family="Times Roman,serif" font-size="14.00">move_up</text>
<text text-anchor="start" x="309" y="-510.9" font-family="Times Roman,serif" font-size="14.00">update</text>
<polyline fill="none" stroke="black" points="301,-501.5 453,-501.5 "/>
<text text-anchor="start" x="309" y="-484.9" font-family="Times Roman,serif" font-size="14.00">collection_path</text>
<text text-anchor="start" x="309" y="-466.9" font-family="Times Roman,serif" font-size="14.00">collection_url</text>
<text text-anchor="start" x="309" y="-448.9" font-family="Times Roman,serif" font-size="14.00">edit_parent_path</text>
<text text-anchor="start" x="309" y="-430.9" font-family="Times Roman,serif" font-size="14.00">edit_parent_url</text>
<text text-anchor="start" x="309" y="-412.9" font-family="Times Roman,serif" font-size="14.00">edit_resource_path</text>
<text text-anchor="start" x="309" y="-394.9" font-family="Times Roman,serif" font-size="14.00">edit_resource_url</text>
<text text-anchor="start" x="309" y="-376.9" font-family="Times Roman,serif" font-size="14.00">new_resource_path</text>
<text text-anchor="start" x="309" y="-358.9" font-family="Times Roman,serif" font-size="14.00">new_resource_url</text>
<text text-anchor="start" x="309" y="-340.9" font-family="Times Roman,serif" font-size="14.00">parent_path</text>
<text text-anchor="start" x="309" y="-322.9" font-family="Times Roman,serif" font-size="14.00">parent_url</text>
<text text-anchor="start" x="309" y="-304.9" font-family="Times Roman,serif" font-size="14.00">resource_path</text>
<text text-anchor="start" x="309" y="-286.9" font-family="Times Roman,serif" font-size="14.00">resource_url</text>
<polyline fill="none" stroke="black" points="301,-277.5 453,-277.5 "/>
<text text-anchor="start" x="309" y="-260.9" font-family="Times Roman,serif" font-size="14.00">_layout</text>
</g>
<!-- ServolosController -->
<g id="node4" class="node"><title>ServolosController</title>
<polyline fill="none" stroke="black" points="63,-151.5 191,-151.5 "/>
<path fill="none" stroke="black" d="M191,-151.5C197,-151.5 203,-157.5 203,-163.5"/>
<polyline fill="none" stroke="black" points="203,-163.5 203,-405.5 "/>
<path fill="none" stroke="black" d="M203,-405.5C203,-411.5 197,-417.5 191,-417.5"/>
<polyline fill="none" stroke="black" points="191,-417.5 63,-417.5 "/>
<path fill="none" stroke="black" d="M63,-417.5C57,-417.5 51,-411.5 51,-405.5"/>
<polyline fill="none" stroke="black" points="51,-405.5 51,-163.5 "/>
<path fill="none" stroke="black" d="M51,-163.5C51,-157.5 57,-151.5 63,-151.5"/>
<text text-anchor="middle" x="127" y="-400.9" font-family="Times Roman,serif" font-size="14.00">ServolosController</text>
<polyline fill="none" stroke="black" points="51,-391.5 203,-391.5 "/>
<text text-anchor="start" x="59" y="-374.9" font-family="Times Roman,serif" font-size="14.00">create</text>
<text text-anchor="start" x="59" y="-356.9" font-family="Times Roman,serif" font-size="14.00">destroy</text>
<text text-anchor="start" x="59" y="-338.9" font-family="Times Roman,serif" font-size="14.00">update</text>
<polyline fill="none" stroke="black" points="51,-329.5 203,-329.5 "/>
<text text-anchor="start" x="59" y="-312.9" font-family="Times Roman,serif" font-size="14.00">collection_path</text>
<text text-anchor="start" x="59" y="-294.9" font-family="Times Roman,serif" font-size="14.00">collection_url</text>
<text text-anchor="start" x="59" y="-276.9" font-family="Times Roman,serif" font-size="14.00">edit_resource_path</text>
<text text-anchor="start" x="59" y="-258.9" font-family="Times Roman,serif" font-size="14.00">edit_resource_url</text>
<text text-anchor="start" x="59" y="-240.9" font-family="Times Roman,serif" font-size="14.00">new_resource_path</text>
<text text-anchor="start" x="59" y="-222.9" font-family="Times Roman,serif" font-size="14.00">new_resource_url</text>
<text text-anchor="start" x="59" y="-204.9" font-family="Times Roman,serif" font-size="14.00">resource_path</text>
<text text-anchor="start" x="59" y="-186.9" font-family="Times Roman,serif" font-size="14.00">resource_url</text>
<polyline fill="none" stroke="black" points="51,-177.5 203,-177.5 "/>
<text text-anchor="start" x="59" y="-160.9" font-family="Times Roman,serif" font-size="14.00">_layout</text>
</g>
<!-- DisposersController -->
<g id="node5" class="node"><title>DisposersController</title>
<polyline fill="none" stroke="black" points="713,-426.5 841,-426.5 "/>
<path fill="none" stroke="black" d="M841,-426.5C847,-426.5 853,-432.5 853,-438.5"/>
<polyline fill="none" stroke="black" points="853,-438.5 853,-680.5 "/>
<path fill="none" stroke="black" d="M853,-680.5C853,-686.5 847,-692.5 841,-692.5"/>
<polyline fill="none" stroke="black" points="841,-692.5 713,-692.5 "/>
<path fill="none" stroke="black" d="M713,-692.5C707,-692.5 701,-686.5 701,-680.5"/>
<polyline fill="none" stroke="black" points="701,-680.5 701,-438.5 "/>
<path fill="none" stroke="black" d="M701,-438.5C701,-432.5 707,-426.5 713,-426.5"/>
<text text-anchor="middle" x="777" y="-675.9" font-family="Times Roman,serif" font-size="14.00">DisposersController</text>
<polyline fill="none" stroke="black" points="701,-666.5 853,-666.5 "/>
<text text-anchor="start" x="709" y="-649.9" font-family="Times Roman,serif" font-size="14.00">create</text>
<text text-anchor="start" x="709" y="-631.9" font-family="Times Roman,serif" font-size="14.00">destroy</text>
<text text-anchor="start" x="709" y="-613.9" font-family="Times Roman,serif" font-size="14.00">update</text>
<polyline fill="none" stroke="black" points="701,-604.5 853,-604.5 "/>
<text text-anchor="start" x="709" y="-587.9" font-family="Times Roman,serif" font-size="14.00">collection_path</text>
<text text-anchor="start" x="709" y="-569.9" font-family="Times Roman,serif" font-size="14.00">collection_url</text>
<text text-anchor="start" x="709" y="-551.9" font-family="Times Roman,serif" font-size="14.00">edit_resource_path</text>
<text text-anchor="start" x="709" y="-533.9" font-family="Times Roman,serif" font-size="14.00">edit_resource_url</text>
<text text-anchor="start" x="709" y="-515.9" font-family="Times Roman,serif" font-size="14.00">new_resource_path</text>
<text text-anchor="start" x="709" y="-497.9" font-family="Times Roman,serif" font-size="14.00">new_resource_url</text>
<text text-anchor="start" x="709" y="-479.9" font-family="Times Roman,serif" font-size="14.00">resource_path</text>
<text text-anchor="start" x="709" y="-461.9" font-family="Times Roman,serif" font-size="14.00">resource_url</text>
<polyline fill="none" stroke="black" points="701,-452.5 853,-452.5 "/>
<text text-anchor="start" x="709" y="-435.9" font-family="Times Roman,serif" font-size="14.00">_layout</text>
</g>
<!-- ApplicationController -->
<g id="node6" class="node"><title>ApplicationController</title>
<polyline fill="none" stroke="black" points="713,-1.5 918,-1.5 "/>
<path fill="none" stroke="black" d="M918,-1.5C924,-1.5 930,-7.5 930,-13.5"/>
<polyline fill="none" stroke="black" points="930,-13.5 930,-91.5 "/>
<path fill="none" stroke="black" d="M930,-91.5C930,-97.5 924,-103.5 918,-103.5"/>
<polyline fill="none" stroke="black" points="918,-103.5 713,-103.5 "/>
<path fill="none" stroke="black" d="M713,-103.5C707,-103.5 701,-97.5 701,-91.5"/>
<polyline fill="none" stroke="black" points="701,-91.5 701,-13.5 "/>
<path fill="none" stroke="black" d="M701,-13.5C701,-7.5 707,-1.5 713,-1.5"/>
<text text-anchor="middle" x="815.5" y="-86.9" font-family="Times Roman,serif" font-size="14.00">ApplicationController</text>
<polyline fill="none" stroke="black" points="701,-77.5 930,-77.5 "/>
<text text-anchor="start" x="709" y="-60.9" font-family="Times Roman,serif" font-size="14.00">_one_time_conditions_valid_8?</text>
<polyline fill="none" stroke="black" points="701,-51.5 930,-51.5 "/>
<polyline fill="none" stroke="black" points="701,-27.5 930,-27.5 "/>
<text text-anchor="start" x="709" y="-10.9" font-family="Times Roman,serif" font-size="14.00">_layout</text>
</g>
<!-- ServicesController -->
<g id="node7" class="node"><title>ServicesController</title>
<polyline fill="none" stroke="black" points="113,-476.5 241,-476.5 "/>
<path fill="none" stroke="black" d="M241,-476.5C247,-476.5 253,-482.5 253,-488.5"/>
<polyline fill="none" stroke="black" points="253,-488.5 253,-820.5 "/>
<path fill="none" stroke="black" d="M253,-820.5C253,-826.5 247,-832.5 241,-832.5"/>
<polyline fill="none" stroke="black" points="241,-832.5 113,-832.5 "/>
<path fill="none" stroke="black" d="M113,-832.5C107,-832.5 101,-826.5 101,-820.5"/>
<polyline fill="none" stroke="black" points="101,-820.5 101,-488.5 "/>
<path fill="none" stroke="black" d="M101,-488.5C101,-482.5 107,-476.5 113,-476.5"/>
<text text-anchor="middle" x="177" y="-815.9" font-family="Times Roman,serif" font-size="14.00">ServicesController</text>
<polyline fill="none" stroke="black" points="101,-806.5 253,-806.5 "/>
<text text-anchor="start" x="109" y="-789.9" font-family="Times Roman,serif" font-size="14.00">create</text>
<text text-anchor="start" x="109" y="-771.9" font-family="Times Roman,serif" font-size="14.00">destroy</text>
<text text-anchor="start" x="109" y="-753.9" font-family="Times Roman,serif" font-size="14.00">dispositifs</text>
<text text-anchor="start" x="109" y="-735.9" font-family="Times Roman,serif" font-size="14.00">volos</text>
<polyline fill="none" stroke="black" points="101,-726.5 253,-726.5 "/>
<text text-anchor="start" x="109" y="-709.9" font-family="Times Roman,serif" font-size="14.00">collection_path</text>
<text text-anchor="start" x="109" y="-691.9" font-family="Times Roman,serif" font-size="14.00">collection_url</text>
<text text-anchor="start" x="109" y="-673.9" font-family="Times Roman,serif" font-size="14.00">edit_parent_path</text>
<text text-anchor="start" x="109" y="-655.9" font-family="Times Roman,serif" font-size="14.00">edit_parent_url</text>
<text text-anchor="start" x="109" y="-637.9" font-family="Times Roman,serif" font-size="14.00">edit_resource_path</text>
<text text-anchor="start" x="109" y="-619.9" font-family="Times Roman,serif" font-size="14.00">edit_resource_url</text>
<text text-anchor="start" x="109" y="-601.9" font-family="Times Roman,serif" font-size="14.00">new_resource_path</text>
<text text-anchor="start" x="109" y="-583.9" font-family="Times Roman,serif" font-size="14.00">new_resource_url</text>
<text text-anchor="start" x="109" y="-565.9" font-family="Times Roman,serif" font-size="14.00">parent_path</text>
<text text-anchor="start" x="109" y="-547.9" font-family="Times Roman,serif" font-size="14.00">parent_url</text>
<text text-anchor="start" x="109" y="-529.9" font-family="Times Roman,serif" font-size="14.00">resource_path</text>
<text text-anchor="start" x="109" y="-511.9" font-family="Times Roman,serif" font-size="14.00">resource_url</text>
<polyline fill="none" stroke="black" points="101,-502.5 253,-502.5 "/>
<text text-anchor="start" x="109" y="-485.9" font-family="Times Roman,serif" font-size="14.00">_layout</text>
</g>
<!-- EventsController -->
<g id="node8" class="node"><title>EventsController</title>
<polyline fill="none" stroke="black" points="313,-701.5 452,-701.5 "/>
<path fill="none" stroke="black" d="M452,-701.5C458,-701.5 464,-707.5 464,-713.5"/>
<polyline fill="none" stroke="black" points="464,-713.5 464,-1027.5 "/>
<path fill="none" stroke="black" d="M464,-1027.5C464,-1033.5 458,-1039.5 452,-1039.5"/>
<polyline fill="none" stroke="black" points="452,-1039.5 313,-1039.5 "/>
<path fill="none" stroke="black" d="M313,-1039.5C307,-1039.5 301,-1033.5 301,-1027.5"/>
<polyline fill="none" stroke="black" points="301,-1027.5 301,-713.5 "/>
<path fill="none" stroke="black" d="M301,-713.5C301,-707.5 307,-701.5 313,-701.5"/>
<text text-anchor="middle" x="382.5" y="-1022.9" font-family="Times Roman,serif" font-size="14.00">EventsController</text>
<polyline fill="none" stroke="black" points="301,-1013.5 464,-1013.5 "/>
<text text-anchor="start" x="309" y="-996.9" font-family="Times Roman,serif" font-size="14.00">add_to_invoice</text>
<text text-anchor="start" x="309" y="-978.9" font-family="Times Roman,serif" font-size="14.00">create</text>
<text text-anchor="start" x="309" y="-960.9" font-family="Times Roman,serif" font-size="14.00">destroy</text>
<text text-anchor="start" x="309" y="-942.9" font-family="Times Roman,serif" font-size="14.00">fullitem</text>
<text text-anchor="start" x="309" y="-924.9" font-family="Times Roman,serif" font-size="14.00">overview</text>
<text text-anchor="start" x="309" y="-906.9" font-family="Times Roman,serif" font-size="14.00">remove_from_invoice</text>
<text text-anchor="start" x="309" y="-888.9" font-family="Times Roman,serif" font-size="14.00">show</text>
<polyline fill="none" stroke="black" points="301,-879.5 464,-879.5 "/>
<text text-anchor="start" x="309" y="-862.9" font-family="Times Roman,serif" font-size="14.00">collection_path</text>
<text text-anchor="start" x="309" y="-844.9" font-family="Times Roman,serif" font-size="14.00">collection_url</text>
<text text-anchor="start" x="309" y="-826.9" font-family="Times Roman,serif" font-size="14.00">edit_resource_path</text>
<text text-anchor="start" x="309" y="-808.9" font-family="Times Roman,serif" font-size="14.00">edit_resource_url</text>
<text text-anchor="start" x="309" y="-790.9" font-family="Times Roman,serif" font-size="14.00">new_resource_path</text>
<text text-anchor="start" x="309" y="-772.9" font-family="Times Roman,serif" font-size="14.00">new_resource_url</text>
<text text-anchor="start" x="309" y="-754.9" font-family="Times Roman,serif" font-size="14.00">resource_path</text>
<text text-anchor="start" x="309" y="-736.9" font-family="Times Roman,serif" font-size="14.00">resource_url</text>
<polyline fill="none" stroke="black" points="301,-727.5 464,-727.5 "/>
<text text-anchor="start" x="309" y="-710.9" font-family="Times Roman,serif" font-size="14.00">_layout</text>
</g>
<!-- EvitemsController -->
<g id="node9" class="node"><title>EvitemsController</title>
<polyline fill="none" stroke="black" points="513,-351.5 641,-351.5 "/>
<path fill="none" stroke="black" d="M641,-351.5C647,-351.5 653,-357.5 653,-363.5"/>
<polyline fill="none" stroke="black" points="653,-363.5 653,-749.5 "/>
<path fill="none" stroke="black" d="M653,-749.5C653,-755.5 647,-761.5 641,-761.5"/>
<polyline fill="none" stroke="black" points="641,-761.5 513,-761.5 "/>
<path fill="none" stroke="black" d="M513,-761.5C507,-761.5 501,-755.5 501,-749.5"/>
<polyline fill="none" stroke="black" points="501,-749.5 501,-363.5 "/>
<path fill="none" stroke="black" d="M501,-363.5C501,-357.5 507,-351.5 513,-351.5"/>
<text text-anchor="middle" x="577" y="-744.9" font-family="Times Roman,serif" font-size="14.00">EvitemsController</text>
<polyline fill="none" stroke="black" points="501,-735.5 653,-735.5 "/>
<text text-anchor="start" x="509" y="-718.9" font-family="Times Roman,serif" font-size="14.00">create</text>
<text text-anchor="start" x="509" y="-700.9" font-family="Times Roman,serif" font-size="14.00">destroy</text>
<text text-anchor="start" x="509" y="-682.9" font-family="Times Roman,serif" font-size="14.00">edit</text>
<text text-anchor="start" x="509" y="-664.9" font-family="Times Roman,serif" font-size="14.00">index</text>
<text text-anchor="start" x="509" y="-646.9" font-family="Times Roman,serif" font-size="14.00">move_down</text>
<text text-anchor="start" x="509" y="-628.9" font-family="Times Roman,serif" font-size="14.00">move_up</text>
<text text-anchor="start" x="509" y="-610.9" font-family="Times Roman,serif" font-size="14.00">update</text>
<polyline fill="none" stroke="black" points="501,-601.5 653,-601.5 "/>
<text text-anchor="start" x="509" y="-584.9" font-family="Times Roman,serif" font-size="14.00">collection_path</text>
<text text-anchor="start" x="509" y="-566.9" font-family="Times Roman,serif" font-size="14.00">collection_url</text>
<text text-anchor="start" x="509" y="-548.9" font-family="Times Roman,serif" font-size="14.00">edit_parent_path</text>
<text text-anchor="start" x="509" y="-530.9" font-family="Times Roman,serif" font-size="14.00">edit_parent_url</text>
<text text-anchor="start" x="509" y="-512.9" font-family="Times Roman,serif" font-size="14.00">edit_resource_path</text>
<text text-anchor="start" x="509" y="-494.9" font-family="Times Roman,serif" font-size="14.00">edit_resource_url</text>
<text text-anchor="start" x="509" y="-476.9" font-family="Times Roman,serif" font-size="14.00">new_resource_path</text>
<text text-anchor="start" x="509" y="-458.9" font-family="Times Roman,serif" font-size="14.00">new_resource_url</text>
<text text-anchor="start" x="509" y="-440.9" font-family="Times Roman,serif" font-size="14.00">parent_path</text>
<text text-anchor="start" x="509" y="-422.9" font-family="Times Roman,serif" font-size="14.00">parent_url</text>
<text text-anchor="start" x="509" y="-404.9" font-family="Times Roman,serif" font-size="14.00">resource_path</text>
<text text-anchor="start" x="509" y="-386.9" font-family="Times Roman,serif" font-size="14.00">resource_url</text>
<polyline fill="none" stroke="black" points="501,-377.5 653,-377.5 "/>
<text text-anchor="start" x="509" y="-360.9" font-family="Times Roman,serif" font-size="14.00">_layout</text>
</g>
<!-- InvoicesController -->
<g id="node10" class="node"><title>InvoicesController</title>
<polyline fill="none" stroke="black" points="713,-751.5 841,-751.5 "/>
<path fill="none" stroke="black" d="M841,-751.5C847,-751.5 853,-757.5 853,-763.5"/>
<polyline fill="none" stroke="black" points="853,-763.5 853,-987.5 "/>
<path fill="none" stroke="black" d="M853,-987.5C853,-993.5 847,-999.5 841,-999.5"/>
<polyline fill="none" stroke="black" points="841,-999.5 713,-999.5 "/>
<path fill="none" stroke="black" d="M713,-999.5C707,-999.5 701,-993.5 701,-987.5"/>
<polyline fill="none" stroke="black" points="701,-987.5 701,-763.5 "/>
<path fill="none" stroke="black" d="M701,-763.5C701,-757.5 707,-751.5 713,-751.5"/>
<text text-anchor="middle" x="777" y="-982.9" font-family="Times Roman,serif" font-size="14.00">InvoicesController</text>
<polyline fill="none" stroke="black" points="701,-973.5 853,-973.5 "/>
<text text-anchor="start" x="709" y="-956.9" font-family="Times Roman,serif" font-size="14.00">events</text>
<text text-anchor="start" x="709" y="-938.9" font-family="Times Roman,serif" font-size="14.00">overview</text>
<polyline fill="none" stroke="black" points="701,-929.5 853,-929.5 "/>
<text text-anchor="start" x="709" y="-912.9" font-family="Times Roman,serif" font-size="14.00">collection_path</text>
<text text-anchor="start" x="709" y="-894.9" font-family="Times Roman,serif" font-size="14.00">collection_url</text>
<text text-anchor="start" x="709" y="-876.9" font-family="Times Roman,serif" font-size="14.00">edit_resource_path</text>
<text text-anchor="start" x="709" y="-858.9" font-family="Times Roman,serif" font-size="14.00">edit_resource_url</text>
<text text-anchor="start" x="709" y="-840.9" font-family="Times Roman,serif" font-size="14.00">new_resource_path</text>
<text text-anchor="start" x="709" y="-822.9" font-family="Times Roman,serif" font-size="14.00">new_resource_url</text>
<text text-anchor="start" x="709" y="-804.9" font-family="Times Roman,serif" font-size="14.00">resource_path</text>
<text text-anchor="start" x="709" y="-786.9" font-family="Times Roman,serif" font-size="14.00">resource_url</text>
<polyline fill="none" stroke="black" points="701,-777.5 853,-777.5 "/>
<text text-anchor="start" x="709" y="-760.9" font-family="Times Roman,serif" font-size="14.00">_layout</text>
</g>
<!-- TemplateInvoicedItemsController -->
<g id="node11" class="node"><title>TemplateInvoicedItemsController</title>
<polyline fill="none" stroke="black" points="713,-151.5 932,-151.5 "/>
<path fill="none" stroke="black" d="M932,-151.5C938,-151.5 944,-157.5 944,-163.5"/>
<polyline fill="none" stroke="black" points="944,-163.5 944,-367.5 "/>
<path fill="none" stroke="black" d="M944,-367.5C944,-373.5 938,-379.5 932,-379.5"/>
<polyline fill="none" stroke="black" points="932,-379.5 713,-379.5 "/>
<path fill="none" stroke="black" d="M713,-379.5C707,-379.5 701,-373.5 701,-367.5"/>
<polyline fill="none" stroke="black" points="701,-367.5 701,-163.5 "/>
<path fill="none" stroke="black" d="M701,-163.5C701,-157.5 707,-151.5 713,-151.5"/>
<text text-anchor="middle" x="822.5" y="-362.9" font-family="Times Roman,serif" font-size="14.00">TemplateInvoicedItemsController</text>
<polyline fill="none" stroke="black" points="701,-353.5 944,-353.5 "/>
<polyline fill="none" stroke="black" points="701,-329.5 944,-329.5 "/>
<text text-anchor="start" x="709" y="-312.9" font-family="Times Roman,serif" font-size="14.00">collection_path</text>
<text text-anchor="start" x="709" y="-294.9" font-family="Times Roman,serif" font-size="14.00">collection_url</text>
<text text-anchor="start" x="709" y="-276.9" font-family="Times Roman,serif" font-size="14.00">edit_resource_path</text>
<text text-anchor="start" x="709" y="-258.9" font-family="Times Roman,serif" font-size="14.00">edit_resource_url</text>
<text text-anchor="start" x="709" y="-240.9" font-family="Times Roman,serif" font-size="14.00">new_resource_path</text>
<text text-anchor="start" x="709" y="-222.9" font-family="Times Roman,serif" font-size="14.00">new_resource_url</text>
<text text-anchor="start" x="709" y="-204.9" font-family="Times Roman,serif" font-size="14.00">resource_path</text>
<text text-anchor="start" x="709" y="-186.9" font-family="Times Roman,serif" font-size="14.00">resource_url</text>
<polyline fill="none" stroke="black" points="701,-177.5 944,-177.5 "/>
<text text-anchor="start" x="709" y="-160.9" font-family="Times Roman,serif" font-size="14.00">_layout</text>
</g>
<!-- DispositifsController -->
<g id="node12" class="node"><title>DispositifsController</title>
<polyline fill="none" stroke="black" points="513,-76.5 644,-76.5 "/>
<path fill="none" stroke="black" d="M644,-76.5C650,-76.5 656,-82.5 656,-88.5"/>
<polyline fill="none" stroke="black" points="656,-88.5 656,-294.5 "/>
<path fill="none" stroke="black" d="M656,-294.5C656,-300.5 650,-306.5 644,-306.5"/>
<polyline fill="none" stroke="black" points="644,-306.5 513,-306.5 "/>
<path fill="none" stroke="black" d="M513,-306.5C507,-306.5 501,-300.5 501,-294.5"/>
<polyline fill="none" stroke="black" points="501,-294.5 501,-88.5 "/>
<path fill="none" stroke="black" d="M501,-88.5C501,-82.5 507,-76.5 513,-76.5"/>
<text text-anchor="middle" x="578.5" y="-289.9" font-family="Times Roman,serif" font-size="14.00">DispositifsController</text>
<polyline fill="none" stroke="black" points="501,-280.5 656,-280.5 "/>
<text text-anchor="start" x="509" y="-263.9" font-family="Times Roman,serif" font-size="14.00">index</text>
<polyline fill="none" stroke="black" points="501,-254.5 656,-254.5 "/>
<text text-anchor="start" x="509" y="-237.9" font-family="Times Roman,serif" font-size="14.00">collection_path</text>
<text text-anchor="start" x="509" y="-219.9" font-family="Times Roman,serif" font-size="14.00">collection_url</text>
<text text-anchor="start" x="509" y="-201.9" font-family="Times Roman,serif" font-size="14.00">edit_resource_path</text>
<text text-anchor="start" x="509" y="-183.9" font-family="Times Roman,serif" font-size="14.00">edit_resource_url</text>
<text text-anchor="start" x="509" y="-165.9" font-family="Times Roman,serif" font-size="14.00">new_resource_path</text>
<text text-anchor="start" x="509" y="-147.9" font-family="Times Roman,serif" font-size="14.00">new_resource_url</text>
<text text-anchor="start" x="509" y="-129.9" font-family="Times Roman,serif" font-size="14.00">resource_path</text>
<text text-anchor="start" x="509" y="-111.9" font-family="Times Roman,serif" font-size="14.00">resource_url</text>
<polyline fill="none" stroke="black" points="501,-102.5 656,-102.5 "/>
<text text-anchor="start" x="509" y="-85.9" font-family="Times Roman,serif" font-size="14.00">_layout</text>
</g>
</g>
</svg>
