<?xml version="1.0" encoding="UTF-8" standalone="no"?>
<!DOCTYPE svg PUBLIC "-//W3C//DTD SVG 1.1//EN"
 "http://www.w3.org/Graphics/SVG/1.1/DTD/svg11.dtd">
<!-- Generated by graphviz version 2.26.3 (20100126.1600)
 -->
<!-- Title: controllers_diagram Pages: 1 -->
<svg width="1112pt" height="1214pt"
 viewBox="0.00 0.00 1112.00 1214.00" xmlns="http://www.w3.org/2000/svg" xmlns:xlink="http://www.w3.org/1999/xlink">
<g id="graph1" class="graph" transform="scale(1 1) rotate(0) translate(4 1210)">
<title>controllers_diagram</title>
<polygon fill="white" stroke="white" points="-4,5 -4,-1210 1109,-1210 1109,5 -4,5"/>
<!-- _diagram_info -->
<g id="node1" class="node"><title>_diagram_info</title>
<text text-anchor="start" x="809" y="-103.3" font-family="Times Roman,serif" font-size="13.00">Controllers diagram</text>
<text text-anchor="start" x="809" y="-86.3" font-family="Times Roman,serif" font-size="13.00">Date: Jun 25 2012 &#45; 11:13</text>
<text text-anchor="start" x="809" y="-69.3" font-family="Times Roman,serif" font-size="13.00">Migration version: 20120621124520</text>
<text text-anchor="start" x="809" y="-52.3" font-family="Times Roman,serif" font-size="13.00">Generated by RailRoady 1.0.7</text>
<text text-anchor="start" x="809" y="-35.3" font-family="Times Roman,serif" font-size="13.00">http://railroady.prestonlee.com</text>
</g>
<!-- VolosController -->
<g id="node2" class="node"><title>VolosController</title>
<polyline fill="none" stroke="black" points="13,-501.5 141,-501.5 "/>
<path fill="none" stroke="black" d="M141,-501.5C147,-501.5 153,-507.5 153,-513.5"/>
<polyline fill="none" stroke="black" points="153,-513.5 153,-719.5 "/>
<path fill="none" stroke="black" d="M153,-719.5C153,-725.5 147,-731.5 141,-731.5"/>
<polyline fill="none" stroke="black" points="141,-731.5 13,-731.5 "/>
<path fill="none" stroke="black" d="M13,-731.5C7,-731.5 1,-725.5 1,-719.5"/>
<polyline fill="none" stroke="black" points="1,-719.5 1,-513.5 "/>
<path fill="none" stroke="black" d="M1,-513.5C1,-507.5 7,-501.5 13,-501.5"/>
<text text-anchor="middle" x="77" y="-714.9" font-family="Times Roman,serif" font-size="14.00">VolosController</text>
<polyline fill="none" stroke="black" points="1,-705.5 153,-705.5 "/>
<text text-anchor="start" x="9" y="-688.9" font-family="Times Roman,serif" font-size="14.00">index</text>
<polyline fill="none" stroke="black" points="1,-679.5 153,-679.5 "/>
<text text-anchor="start" x="9" y="-662.9" font-family="Times Roman,serif" font-size="14.00">collection_path</text>
<text text-anchor="start" x="9" y="-644.9" font-family="Times Roman,serif" font-size="14.00">collection_url</text>
<text text-anchor="start" x="9" y="-626.9" font-family="Times Roman,serif" font-size="14.00">edit_resource_path</text>
<text text-anchor="start" x="9" y="-608.9" font-family="Times Roman,serif" font-size="14.00">edit_resource_url</text>
<text text-anchor="start" x="9" y="-590.9" font-family="Times Roman,serif" font-size="14.00">new_resource_path</text>
<text text-anchor="start" x="9" y="-572.9" font-family="Times Roman,serif" font-size="14.00">new_resource_url</text>
<text text-anchor="start" x="9" y="-554.9" font-family="Times Roman,serif" font-size="14.00">resource_path</text>
<text text-anchor="start" x="9" y="-536.9" font-family="Times Roman,serif" font-size="14.00">resource_url</text>
<polyline fill="none" stroke="black" points="1,-527.5 153,-527.5 "/>
<text text-anchor="start" x="9" y="-510.9" font-family="Times Roman,serif" font-size="14.00">_layout</text>
</g>
<!-- CrentitesController -->
<g id="node3" class="node"><title>CrentitesController</title>
<polyline fill="none" stroke="black" points="963,-976.5 1091,-976.5 "/>
<path fill="none" stroke="black" d="M1091,-976.5C1097,-976.5 1103,-982.5 1103,-988.5"/>
<polyline fill="none" stroke="black" points="1103,-988.5 1103,-1192.5 "/>
<path fill="none" stroke="black" d="M1103,-1192.5C1103,-1198.5 1097,-1204.5 1091,-1204.5"/>
<polyline fill="none" stroke="black" points="1091,-1204.5 963,-1204.5 "/>
<path fill="none" stroke="black" d="M963,-1204.5C957,-1204.5 951,-1198.5 951,-1192.5"/>
<polyline fill="none" stroke="black" points="951,-1192.5 951,-988.5 "/>
<path fill="none" stroke="black" d="M951,-988.5C951,-982.5 957,-976.5 963,-976.5"/>
<text text-anchor="middle" x="1027" y="-1187.9" font-family="Times Roman,serif" font-size="14.00">CrentitesController</text>
<polyline fill="none" stroke="black" points="951,-1178.5 1103,-1178.5 "/>
<polyline fill="none" stroke="black" points="951,-1154.5 1103,-1154.5 "/>
<text text-anchor="start" x="959" y="-1137.9" font-family="Times Roman,serif" font-size="14.00">collection_path</text>
<text text-anchor="start" x="959" y="-1119.9" font-family="Times Roman,serif" font-size="14.00">collection_url</text>
<text text-anchor="start" x="959" y="-1101.9" font-family="Times Roman,serif" font-size="14.00">edit_resource_path</text>
<text text-anchor="start" x="959" y="-1083.9" font-family="Times Roman,serif" font-size="14.00">edit_resource_url</text>
<text text-anchor="start" x="959" y="-1065.9" font-family="Times Roman,serif" font-size="14.00">new_resource_path</text>
<text text-anchor="start" x="959" y="-1047.9" font-family="Times Roman,serif" font-size="14.00">new_resource_url</text>
<text text-anchor="start" x="959" y="-1029.9" font-family="Times Roman,serif" font-size="14.00">resource_path</text>
<text text-anchor="start" x="959" y="-1011.9" font-family="Times Roman,serif" font-size="14.00">resource_url</text>
<polyline fill="none" stroke="black" points="951,-1002.5 1103,-1002.5 "/>
<text text-anchor="start" x="959" y="-985.9" font-family="Times Roman,serif" font-size="14.00">_layout</text>
</g>
<!-- SeritemsController -->
<g id="node4" class="node"><title>SeritemsController</title>
<polyline fill="none" stroke="black" points="413,-276.5 541,-276.5 "/>
<path fill="none" stroke="black" d="M541,-276.5C547,-276.5 553,-282.5 553,-288.5"/>
<polyline fill="none" stroke="black" points="553,-288.5 553,-674.5 "/>
<path fill="none" stroke="black" d="M553,-674.5C553,-680.5 547,-686.5 541,-686.5"/>
<polyline fill="none" stroke="black" points="541,-686.5 413,-686.5 "/>
<path fill="none" stroke="black" d="M413,-686.5C407,-686.5 401,-680.5 401,-674.5"/>
<polyline fill="none" stroke="black" points="401,-674.5 401,-288.5 "/>
<path fill="none" stroke="black" d="M401,-288.5C401,-282.5 407,-276.5 413,-276.5"/>
<text text-anchor="middle" x="477" y="-669.9" font-family="Times Roman,serif" font-size="14.00">SeritemsController</text>
<polyline fill="none" stroke="black" points="401,-660.5 553,-660.5 "/>
<text text-anchor="start" x="409" y="-643.9" font-family="Times Roman,serif" font-size="14.00">create</text>
<text text-anchor="start" x="409" y="-625.9" font-family="Times Roman,serif" font-size="14.00">destroy</text>
<text text-anchor="start" x="409" y="-607.9" font-family="Times Roman,serif" font-size="14.00">edit</text>
<text text-anchor="start" x="409" y="-589.9" font-family="Times Roman,serif" font-size="14.00">index</text>
<text text-anchor="start" x="409" y="-571.9" font-family="Times Roman,serif" font-size="14.00">move_down</text>
<text text-anchor="start" x="409" y="-553.9" font-family="Times Roman,serif" font-size="14.00">move_up</text>
<text text-anchor="start" x="409" y="-535.9" font-family="Times Roman,serif" font-size="14.00">update</text>
<polyline fill="none" stroke="black" points="401,-526.5 553,-526.5 "/>
<text text-anchor="start" x="409" y="-509.9" font-family="Times Roman,serif" font-size="14.00">collection_path</text>
<text text-anchor="start" x="409" y="-491.9" font-family="Times Roman,serif" font-size="14.00">collection_url</text>
<text text-anchor="start" x="409" y="-473.9" font-family="Times Roman,serif" font-size="14.00">edit_parent_path</text>
<text text-anchor="start" x="409" y="-455.9" font-family="Times Roman,serif" font-size="14.00">edit_parent_url</text>
<text text-anchor="start" x="409" y="-437.9" font-family="Times Roman,serif" font-size="14.00">edit_resource_path</text>
<text text-anchor="start" x="409" y="-419.9" font-family="Times Roman,serif" font-size="14.00">edit_resource_url</text>
<text text-anchor="start" x="409" y="-401.9" font-family="Times Roman,serif" font-size="14.00">new_resource_path</text>
<text text-anchor="start" x="409" y="-383.9" font-family="Times Roman,serif" font-size="14.00">new_resource_url</text>
<text text-anchor="start" x="409" y="-365.9" font-family="Times Roman,serif" font-size="14.00">parent_path</text>
<text text-anchor="start" x="409" y="-347.9" font-family="Times Roman,serif" font-size="14.00">parent_url</text>
<text text-anchor="start" x="409" y="-329.9" font-family="Times Roman,serif" font-size="14.00">resource_path</text>
<text text-anchor="start" x="409" y="-311.9" font-family="Times Roman,serif" font-size="14.00">resource_url</text>
<polyline fill="none" stroke="black" points="401,-302.5 553,-302.5 "/>
<text text-anchor="start" x="409" y="-285.9" font-family="Times Roman,serif" font-size="14.00">_layout</text>
</g>
<!-- ServolosController -->
<g id="node5" class="node"><title>ServolosController</title>
<polyline fill="none" stroke="black" points="813,-176.5 941,-176.5 "/>
<path fill="none" stroke="black" d="M941,-176.5C947,-176.5 953,-182.5 953,-188.5"/>
<polyline fill="none" stroke="black" points="953,-188.5 953,-520.5 "/>
<path fill="none" stroke="black" d="M953,-520.5C953,-526.5 947,-532.5 941,-532.5"/>
<polyline fill="none" stroke="black" points="941,-532.5 813,-532.5 "/>
<path fill="none" stroke="black" d="M813,-532.5C807,-532.5 801,-526.5 801,-520.5"/>
<polyline fill="none" stroke="black" points="801,-520.5 801,-188.5 "/>
<path fill="none" stroke="black" d="M801,-188.5C801,-182.5 807,-176.5 813,-176.5"/>
<text text-anchor="middle" x="877" y="-515.9" font-family="Times Roman,serif" font-size="14.00">ServolosController</text>
<polyline fill="none" stroke="black" points="801,-506.5 953,-506.5 "/>
<text text-anchor="start" x="809" y="-489.9" font-family="Times Roman,serif" font-size="14.00">create</text>
<text text-anchor="start" x="809" y="-471.9" font-family="Times Roman,serif" font-size="14.00">destroy</text>
<text text-anchor="start" x="809" y="-453.9" font-family="Times Roman,serif" font-size="14.00">index</text>
<text text-anchor="start" x="809" y="-435.9" font-family="Times Roman,serif" font-size="14.00">update</text>
<polyline fill="none" stroke="black" points="801,-426.5 953,-426.5 "/>
<text text-anchor="start" x="809" y="-409.9" font-family="Times Roman,serif" font-size="14.00">collection_path</text>
<text text-anchor="start" x="809" y="-391.9" font-family="Times Roman,serif" font-size="14.00">collection_url</text>
<text text-anchor="start" x="809" y="-373.9" font-family="Times Roman,serif" font-size="14.00">edit_parent_path</text>
<text text-anchor="start" x="809" y="-355.9" font-family="Times Roman,serif" font-size="14.00">edit_parent_url</text>
<text text-anchor="start" x="809" y="-337.9" font-family="Times Roman,serif" font-size="14.00">edit_resource_path</text>
<text text-anchor="start" x="809" y="-319.9" font-family="Times Roman,serif" font-size="14.00">edit_resource_url</text>
<text text-anchor="start" x="809" y="-301.9" font-family="Times Roman,serif" font-size="14.00">new_resource_path</text>
<text text-anchor="start" x="809" y="-283.9" font-family="Times Roman,serif" font-size="14.00">new_resource_url</text>
<text text-anchor="start" x="809" y="-265.9" font-family="Times Roman,serif" font-size="14.00">parent_path</text>
<text text-anchor="start" x="809" y="-247.9" font-family="Times Roman,serif" font-size="14.00">parent_url</text>
<text text-anchor="start" x="809" y="-229.9" font-family="Times Roman,serif" font-size="14.00">resource_path</text>
<text text-anchor="start" x="809" y="-211.9" font-family="Times Roman,serif" font-size="14.00">resource_url</text>
<polyline fill="none" stroke="black" points="801,-202.5 953,-202.5 "/>
<text text-anchor="start" x="809" y="-185.9" font-family="Times Roman,serif" font-size="14.00">_layout</text>
</g>
<!-- DisposersController -->
<g id="node6" class="node"><title>DisposersController</title>
<polyline fill="none" stroke="black" points="813,-576.5 941,-576.5 "/>
<path fill="none" stroke="black" d="M941,-576.5C947,-576.5 953,-582.5 953,-588.5"/>
<polyline fill="none" stroke="black" points="953,-588.5 953,-920.5 "/>
<path fill="none" stroke="black" d="M953,-920.5C953,-926.5 947,-932.5 941,-932.5"/>
<polyline fill="none" stroke="black" points="941,-932.5 813,-932.5 "/>
<path fill="none" stroke="black" d="M813,-932.5C807,-932.5 801,-926.5 801,-920.5"/>
<polyline fill="none" stroke="black" points="801,-920.5 801,-588.5 "/>
<path fill="none" stroke="black" d="M801,-588.5C801,-582.5 807,-576.5 813,-576.5"/>
<text text-anchor="middle" x="877" y="-915.9" font-family="Times Roman,serif" font-size="14.00">DisposersController</text>
<polyline fill="none" stroke="black" points="801,-906.5 953,-906.5 "/>
<text text-anchor="start" x="809" y="-889.9" font-family="Times Roman,serif" font-size="14.00">create</text>
<text text-anchor="start" x="809" y="-871.9" font-family="Times Roman,serif" font-size="14.00">destroy</text>
<text text-anchor="start" x="809" y="-853.9" font-family="Times Roman,serif" font-size="14.00">index</text>
<text text-anchor="start" x="809" y="-835.9" font-family="Times Roman,serif" font-size="14.00">update</text>
<polyline fill="none" stroke="black" points="801,-826.5 953,-826.5 "/>
<text text-anchor="start" x="809" y="-809.9" font-family="Times Roman,serif" font-size="14.00">collection_path</text>
<text text-anchor="start" x="809" y="-791.9" font-family="Times Roman,serif" font-size="14.00">collection_url</text>
<text text-anchor="start" x="809" y="-773.9" font-family="Times Roman,serif" font-size="14.00">edit_parent_path</text>
<text text-anchor="start" x="809" y="-755.9" font-family="Times Roman,serif" font-size="14.00">edit_parent_url</text>
<text text-anchor="start" x="809" y="-737.9" font-family="Times Roman,serif" font-size="14.00">edit_resource_path</text>
<text text-anchor="start" x="809" y="-719.9" font-family="Times Roman,serif" font-size="14.00">edit_resource_url</text>
<text text-anchor="start" x="809" y="-701.9" font-family="Times Roman,serif" font-size="14.00">new_resource_path</text>
<text text-anchor="start" x="809" y="-683.9" font-family="Times Roman,serif" font-size="14.00">new_resource_url</text>
<text text-anchor="start" x="809" y="-665.9" font-family="Times Roman,serif" font-size="14.00">parent_path</text>
<text text-anchor="start" x="809" y="-647.9" font-family="Times Roman,serif" font-size="14.00">parent_url</text>
<text text-anchor="start" x="809" y="-629.9" font-family="Times Roman,serif" font-size="14.00">resource_path</text>
<text text-anchor="start" x="809" y="-611.9" font-family="Times Roman,serif" font-size="14.00">resource_url</text>
<polyline fill="none" stroke="black" points="801,-602.5 953,-602.5 "/>
<text text-anchor="start" x="809" y="-585.9" font-family="Times Roman,serif" font-size="14.00">_layout</text>
</g>
<!-- ApplicationController -->
<g id="node7" class="node"><title>ApplicationController</title>
<polyline fill="none" stroke="black" points="13,-26.5 218,-26.5 "/>
<path fill="none" stroke="black" d="M218,-26.5C224,-26.5 230,-32.5 230,-38.5"/>
<polyline fill="none" stroke="black" points="230,-38.5 230,-116.5 "/>
<path fill="none" stroke="black" d="M230,-116.5C230,-122.5 224,-128.5 218,-128.5"/>
<polyline fill="none" stroke="black" points="218,-128.5 13,-128.5 "/>
<path fill="none" stroke="black" d="M13,-128.5C7,-128.5 1,-122.5 1,-116.5"/>
<polyline fill="none" stroke="black" points="1,-116.5 1,-38.5 "/>
<path fill="none" stroke="black" d="M1,-38.5C1,-32.5 7,-26.5 13,-26.5"/>
<text text-anchor="middle" x="115.5" y="-111.9" font-family="Times Roman,serif" font-size="14.00">ApplicationController</text>
<polyline fill="none" stroke="black" points="1,-102.5 230,-102.5 "/>
<text text-anchor="start" x="9" y="-85.9" font-family="Times Roman,serif" font-size="14.00">_one_time_conditions_valid_8?</text>
<polyline fill="none" stroke="black" points="1,-76.5 230,-76.5 "/>
<polyline fill="none" stroke="black" points="1,-52.5 230,-52.5 "/>
<text text-anchor="start" x="9" y="-35.9" font-family="Times Roman,serif" font-size="14.00">_layout</text>
</g>
<!-- RefacsController -->
<g id="node8" class="node"><title>RefacsController</title>
<polyline fill="none" stroke="black" points="613,-826.5 741,-826.5 "/>
<path fill="none" stroke="black" d="M741,-826.5C747,-826.5 753,-832.5 753,-838.5"/>
<polyline fill="none" stroke="black" points="753,-838.5 753,-1170.5 "/>
<path fill="none" stroke="black" d="M753,-1170.5C753,-1176.5 747,-1182.5 741,-1182.5"/>
<polyline fill="none" stroke="black" points="741,-1182.5 613,-1182.5 "/>
<path fill="none" stroke="black" d="M613,-1182.5C607,-1182.5 601,-1176.5 601,-1170.5"/>
<polyline fill="none" stroke="black" points="601,-1170.5 601,-838.5 "/>
<path fill="none" stroke="black" d="M601,-838.5C601,-832.5 607,-826.5 613,-826.5"/>
<text text-anchor="middle" x="677" y="-1165.9" font-family="Times Roman,serif" font-size="14.00">RefacsController</text>
<polyline fill="none" stroke="black" points="601,-1156.5 753,-1156.5 "/>
<text text-anchor="start" x="609" y="-1139.9" font-family="Times Roman,serif" font-size="14.00">create</text>
<text text-anchor="start" x="609" y="-1121.9" font-family="Times Roman,serif" font-size="14.00">destroy</text>
<text text-anchor="start" x="609" y="-1103.9" font-family="Times Roman,serif" font-size="14.00">index</text>
<text text-anchor="start" x="609" y="-1085.9" font-family="Times Roman,serif" font-size="14.00">update</text>
<polyline fill="none" stroke="black" points="601,-1076.5 753,-1076.5 "/>
<text text-anchor="start" x="609" y="-1059.9" font-family="Times Roman,serif" font-size="14.00">collection_path</text>
<text text-anchor="start" x="609" y="-1041.9" font-family="Times Roman,serif" font-size="14.00">collection_url</text>
<text text-anchor="start" x="609" y="-1023.9" font-family="Times Roman,serif" font-size="14.00">edit_parent_path</text>
<text text-anchor="start" x="609" y="-1005.9" font-family="Times Roman,serif" font-size="14.00">edit_parent_url</text>
<text text-anchor="start" x="609" y="-987.9" font-family="Times Roman,serif" font-size="14.00">edit_resource_path</text>
<text text-anchor="start" x="609" y="-969.9" font-family="Times Roman,serif" font-size="14.00">edit_resource_url</text>
<text text-anchor="start" x="609" y="-951.9" font-family="Times Roman,serif" font-size="14.00">new_resource_path</text>
<text text-anchor="start" x="609" y="-933.9" font-family="Times Roman,serif" font-size="14.00">new_resource_url</text>
<text text-anchor="start" x="609" y="-915.9" font-family="Times Roman,serif" font-size="14.00">parent_path</text>
<text text-anchor="start" x="609" y="-897.9" font-family="Times Roman,serif" font-size="14.00">parent_url</text>
<text text-anchor="start" x="609" y="-879.9" font-family="Times Roman,serif" font-size="14.00">resource_path</text>
<text text-anchor="start" x="609" y="-861.9" font-family="Times Roman,serif" font-size="14.00">resource_url</text>
<polyline fill="none" stroke="black" points="601,-852.5 753,-852.5 "/>
<text text-anchor="start" x="609" y="-835.9" font-family="Times Roman,serif" font-size="14.00">_layout</text>
</g>
<!-- ServicesController -->
<g id="node9" class="node"><title>ServicesController</title>
<polyline fill="none" stroke="black" points="413,-726.5 541,-726.5 "/>
<path fill="none" stroke="black" d="M541,-726.5C547,-726.5 553,-732.5 553,-738.5"/>
<polyline fill="none" stroke="black" points="553,-738.5 553,-1106.5 "/>
<path fill="none" stroke="black" d="M553,-1106.5C553,-1112.5 547,-1118.5 541,-1118.5"/>
<polyline fill="none" stroke="black" points="541,-1118.5 413,-1118.5 "/>
<path fill="none" stroke="black" d="M413,-1118.5C407,-1118.5 401,-1112.5 401,-1106.5"/>
<polyline fill="none" stroke="black" points="401,-1106.5 401,-738.5 "/>
<path fill="none" stroke="black" d="M401,-738.5C401,-732.5 407,-726.5 413,-726.5"/>
<text text-anchor="middle" x="477" y="-1101.9" font-family="Times Roman,serif" font-size="14.00">ServicesController</text>
<polyline fill="none" stroke="black" points="401,-1092.5 553,-1092.5 "/>
<text text-anchor="start" x="409" y="-1075.9" font-family="Times Roman,serif" font-size="14.00">create</text>
<text text-anchor="start" x="409" y="-1057.9" font-family="Times Roman,serif" font-size="14.00">destroy</text>
<text text-anchor="start" x="409" y="-1039.9" font-family="Times Roman,serif" font-size="14.00">overview</text>
<text text-anchor="start" x="409" y="-1021.9" font-family="Times Roman,serif" font-size="14.00">update</text>
<polyline fill="none" stroke="black" points="401,-1012.5 553,-1012.5 "/>
<text text-anchor="start" x="409" y="-995.9" font-family="Times Roman,serif" font-size="14.00">collection_path</text>
<text text-anchor="start" x="409" y="-977.9" font-family="Times Roman,serif" font-size="14.00">collection_url</text>
<text text-anchor="start" x="409" y="-959.9" font-family="Times Roman,serif" font-size="14.00">edit_parent_path</text>
<text text-anchor="start" x="409" y="-941.9" font-family="Times Roman,serif" font-size="14.00">edit_parent_url</text>
<text text-anchor="start" x="409" y="-923.9" font-family="Times Roman,serif" font-size="14.00">edit_resource_path</text>
<text text-anchor="start" x="409" y="-905.9" font-family="Times Roman,serif" font-size="14.00">edit_resource_url</text>
<text text-anchor="start" x="409" y="-887.9" font-family="Times Roman,serif" font-size="14.00">new_resource_path</text>
<text text-anchor="start" x="409" y="-869.9" font-family="Times Roman,serif" font-size="14.00">new_resource_url</text>
<text text-anchor="start" x="409" y="-851.9" font-family="Times Roman,serif" font-size="14.00">parent_path</text>
<text text-anchor="start" x="409" y="-833.9" font-family="Times Roman,serif" font-size="14.00">parent_url</text>
<text text-anchor="start" x="409" y="-815.9" font-family="Times Roman,serif" font-size="14.00">resource_path</text>
<text text-anchor="start" x="409" y="-797.9" font-family="Times Roman,serif" font-size="14.00">resource_url</text>
<polyline fill="none" stroke="black" points="401,-788.5 553,-788.5 "/>
<text text-anchor="start" x="409" y="-771.9" font-family="Times Roman,serif" font-size="14.00">_layout</text>
<text text-anchor="start" x="409" y="-753.9" font-family="Times Roman,serif" font-size="14.00">datizer</text>
<text text-anchor="start" x="409" y="-735.9" font-family="Times Roman,serif" font-size="14.00">datizer_2</text>
</g>
<!-- CustomersController -->
<g id="node10" class="node"><title>CustomersController</title>
<polyline fill="none" stroke="black" points="613,-101.5 748,-101.5 "/>
<path fill="none" stroke="black" d="M748,-101.5C754,-101.5 760,-107.5 760,-113.5"/>
<polyline fill="none" stroke="black" points="760,-113.5 760,-317.5 "/>
<path fill="none" stroke="black" d="M760,-317.5C760,-323.5 754,-329.5 748,-329.5"/>
<polyline fill="none" stroke="black" points="748,-329.5 613,-329.5 "/>
<path fill="none" stroke="black" d="M613,-329.5C607,-329.5 601,-323.5 601,-317.5"/>
<polyline fill="none" stroke="black" points="601,-317.5 601,-113.5 "/>
<path fill="none" stroke="black" d="M601,-113.5C601,-107.5 607,-101.5 613,-101.5"/>
<text text-anchor="middle" x="680.5" y="-312.9" font-family="Times Roman,serif" font-size="14.00">CustomersController</text>
<polyline fill="none" stroke="black" points="601,-303.5 760,-303.5 "/>
<polyline fill="none" stroke="black" points="601,-279.5 760,-279.5 "/>
<text text-anchor="start" x="609" y="-262.9" font-family="Times Roman,serif" font-size="14.00">collection_path</text>
<text text-anchor="start" x="609" y="-244.9" font-family="Times Roman,serif" font-size="14.00">collection_url</text>
<text text-anchor="start" x="609" y="-226.9" font-family="Times Roman,serif" font-size="14.00">edit_resource_path</text>
<text text-anchor="start" x="609" y="-208.9" font-family="Times Roman,serif" font-size="14.00">edit_resource_url</text>
<text text-anchor="start" x="609" y="-190.9" font-family="Times Roman,serif" font-size="14.00">new_resource_path</text>
<text text-anchor="start" x="609" y="-172.9" font-family="Times Roman,serif" font-size="14.00">new_resource_url</text>
<text text-anchor="start" x="609" y="-154.9" font-family="Times Roman,serif" font-size="14.00">resource_path</text>
<text text-anchor="start" x="609" y="-136.9" font-family="Times Roman,serif" font-size="14.00">resource_url</text>
<polyline fill="none" stroke="black" points="601,-127.5 760,-127.5 "/>
<text text-anchor="start" x="609" y="-110.9" font-family="Times Roman,serif" font-size="14.00">_layout</text>
</g>
<!-- EventsController -->
<g id="node11" class="node"><title>EventsController</title>
<polyline fill="none" stroke="black" points="213,-501.5 352,-501.5 "/>
<path fill="none" stroke="black" d="M352,-501.5C358,-501.5 364,-507.5 364,-513.5"/>
<polyline fill="none" stroke="black" points="364,-513.5 364,-827.5 "/>
<path fill="none" stroke="black" d="M364,-827.5C364,-833.5 358,-839.5 352,-839.5"/>
<polyline fill="none" stroke="black" points="352,-839.5 213,-839.5 "/>
<path fill="none" stroke="black" d="M213,-839.5C207,-839.5 201,-833.5 201,-827.5"/>
<polyline fill="none" stroke="black" points="201,-827.5 201,-513.5 "/>
<path fill="none" stroke="black" d="M201,-513.5C201,-507.5 207,-501.5 213,-501.5"/>
<text text-anchor="middle" x="282.5" y="-822.9" font-family="Times Roman,serif" font-size="14.00">EventsController</text>
<polyline fill="none" stroke="black" points="201,-813.5 364,-813.5 "/>
<text text-anchor="start" x="209" y="-796.9" font-family="Times Roman,serif" font-size="14.00">add_to_invoice</text>
<text text-anchor="start" x="209" y="-778.9" font-family="Times Roman,serif" font-size="14.00">create</text>
<text text-anchor="start" x="209" y="-760.9" font-family="Times Roman,serif" font-size="14.00">destroy</text>
<text text-anchor="start" x="209" y="-742.9" font-family="Times Roman,serif" font-size="14.00">fullitem</text>
<text text-anchor="start" x="209" y="-724.9" font-family="Times Roman,serif" font-size="14.00">overview</text>
<text text-anchor="start" x="209" y="-706.9" font-family="Times Roman,serif" font-size="14.00">remove_from_invoice</text>
<text text-anchor="start" x="209" y="-688.9" font-family="Times Roman,serif" font-size="14.00">show</text>
<polyline fill="none" stroke="black" points="201,-679.5 364,-679.5 "/>
<text text-anchor="start" x="209" y="-662.9" font-family="Times Roman,serif" font-size="14.00">collection_path</text>
<text text-anchor="start" x="209" y="-644.9" font-family="Times Roman,serif" font-size="14.00">collection_url</text>
<text text-anchor="start" x="209" y="-626.9" font-family="Times Roman,serif" font-size="14.00">edit_resource_path</text>
<text text-anchor="start" x="209" y="-608.9" font-family="Times Roman,serif" font-size="14.00">edit_resource_url</text>
<text text-anchor="start" x="209" y="-590.9" font-family="Times Roman,serif" font-size="14.00">new_resource_path</text>
<text text-anchor="start" x="209" y="-572.9" font-family="Times Roman,serif" font-size="14.00">new_resource_url</text>
<text text-anchor="start" x="209" y="-554.9" font-family="Times Roman,serif" font-size="14.00">resource_path</text>
<text text-anchor="start" x="209" y="-536.9" font-family="Times Roman,serif" font-size="14.00">resource_url</text>
<polyline fill="none" stroke="black" points="201,-527.5 364,-527.5 "/>
<text text-anchor="start" x="209" y="-510.9" font-family="Times Roman,serif" font-size="14.00">_layout</text>
</g>
<!-- EvitemsController -->
<g id="node12" class="node"><title>EvitemsController</title>
<polyline fill="none" stroke="black" points="613,-376.5 741,-376.5 "/>
<path fill="none" stroke="black" d="M741,-376.5C747,-376.5 753,-382.5 753,-388.5"/>
<polyline fill="none" stroke="black" points="753,-388.5 753,-774.5 "/>
<path fill="none" stroke="black" d="M753,-774.5C753,-780.5 747,-786.5 741,-786.5"/>
<polyline fill="none" stroke="black" points="741,-786.5 613,-786.5 "/>
<path fill="none" stroke="black" d="M613,-786.5C607,-786.5 601,-780.5 601,-774.5"/>
<polyline fill="none" stroke="black" points="601,-774.5 601,-388.5 "/>
<path fill="none" stroke="black" d="M601,-388.5C601,-382.5 607,-376.5 613,-376.5"/>
<text text-anchor="middle" x="677" y="-769.9" font-family="Times Roman,serif" font-size="14.00">EvitemsController</text>
<polyline fill="none" stroke="black" points="601,-760.5 753,-760.5 "/>
<text text-anchor="start" x="609" y="-743.9" font-family="Times Roman,serif" font-size="14.00">create</text>
<text text-anchor="start" x="609" y="-725.9" font-family="Times Roman,serif" font-size="14.00">destroy</text>
<text text-anchor="start" x="609" y="-707.9" font-family="Times Roman,serif" font-size="14.00">edit</text>
<text text-anchor="start" x="609" y="-689.9" font-family="Times Roman,serif" font-size="14.00">index</text>
<text text-anchor="start" x="609" y="-671.9" font-family="Times Roman,serif" font-size="14.00">move_down</text>
<text text-anchor="start" x="609" y="-653.9" font-family="Times Roman,serif" font-size="14.00">move_up</text>
<text text-anchor="start" x="609" y="-635.9" font-family="Times Roman,serif" font-size="14.00">update</text>
<polyline fill="none" stroke="black" points="601,-626.5 753,-626.5 "/>
<text text-anchor="start" x="609" y="-609.9" font-family="Times Roman,serif" font-size="14.00">collection_path</text>
<text text-anchor="start" x="609" y="-591.9" font-family="Times Roman,serif" font-size="14.00">collection_url</text>
<text text-anchor="start" x="609" y="-573.9" font-family="Times Roman,serif" font-size="14.00">edit_parent_path</text>
<text text-anchor="start" x="609" y="-555.9" font-family="Times Roman,serif" font-size="14.00">edit_parent_url</text>
<text text-anchor="start" x="609" y="-537.9" font-family="Times Roman,serif" font-size="14.00">edit_resource_path</text>
<text text-anchor="start" x="609" y="-519.9" font-family="Times Roman,serif" font-size="14.00">edit_resource_url</text>
<text text-anchor="start" x="609" y="-501.9" font-family="Times Roman,serif" font-size="14.00">new_resource_path</text>
<text text-anchor="start" x="609" y="-483.9" font-family="Times Roman,serif" font-size="14.00">new_resource_url</text>
<text text-anchor="start" x="609" y="-465.9" font-family="Times Roman,serif" font-size="14.00">parent_path</text>
<text text-anchor="start" x="609" y="-447.9" font-family="Times Roman,serif" font-size="14.00">parent_url</text>
<text text-anchor="start" x="609" y="-429.9" font-family="Times Roman,serif" font-size="14.00">resource_path</text>
<text text-anchor="start" x="609" y="-411.9" font-family="Times Roman,serif" font-size="14.00">resource_url</text>
<polyline fill="none" stroke="black" points="601,-402.5 753,-402.5 "/>
<text text-anchor="start" x="609" y="-385.9" font-family="Times Roman,serif" font-size="14.00">_layout</text>
</g>
<!-- InvoicesController -->
<g id="node13" class="node"><title>InvoicesController</title>
<polyline fill="none" stroke="black" points="163,-176.5 291,-176.5 "/>
<path fill="none" stroke="black" d="M291,-176.5C297,-176.5 303,-182.5 303,-188.5"/>
<polyline fill="none" stroke="black" points="303,-188.5 303,-448.5 "/>
<path fill="none" stroke="black" d="M303,-448.5C303,-454.5 297,-460.5 291,-460.5"/>
<polyline fill="none" stroke="black" points="291,-460.5 163,-460.5 "/>
<path fill="none" stroke="black" d="M163,-460.5C157,-460.5 151,-454.5 151,-448.5"/>
<polyline fill="none" stroke="black" points="151,-448.5 151,-188.5 "/>
<path fill="none" stroke="black" d="M151,-188.5C151,-182.5 157,-176.5 163,-176.5"/>
<text text-anchor="middle" x="227" y="-443.9" font-family="Times Roman,serif" font-size="14.00">InvoicesController</text>
<polyline fill="none" stroke="black" points="151,-434.5 303,-434.5 "/>
<text text-anchor="start" x="159" y="-417.9" font-family="Times Roman,serif" font-size="14.00">events</text>
<text text-anchor="start" x="159" y="-399.9" font-family="Times Roman,serif" font-size="14.00">generate_pdf</text>
<text text-anchor="start" x="159" y="-381.9" font-family="Times Roman,serif" font-size="14.00">new</text>
<text text-anchor="start" x="159" y="-363.9" font-family="Times Roman,serif" font-size="14.00">overview</text>
<polyline fill="none" stroke="black" points="151,-354.5 303,-354.5 "/>
<text text-anchor="start" x="159" y="-337.9" font-family="Times Roman,serif" font-size="14.00">collection_path</text>
<text text-anchor="start" x="159" y="-319.9" font-family="Times Roman,serif" font-size="14.00">collection_url</text>
<text text-anchor="start" x="159" y="-301.9" font-family="Times Roman,serif" font-size="14.00">edit_resource_path</text>
<text text-anchor="start" x="159" y="-283.9" font-family="Times Roman,serif" font-size="14.00">edit_resource_url</text>
<text text-anchor="start" x="159" y="-265.9" font-family="Times Roman,serif" font-size="14.00">new_resource_path</text>
<text text-anchor="start" x="159" y="-247.9" font-family="Times Roman,serif" font-size="14.00">new_resource_url</text>
<text text-anchor="start" x="159" y="-229.9" font-family="Times Roman,serif" font-size="14.00">resource_path</text>
<text text-anchor="start" x="159" y="-211.9" font-family="Times Roman,serif" font-size="14.00">resource_url</text>
<polyline fill="none" stroke="black" points="151,-202.5 303,-202.5 "/>
<text text-anchor="start" x="159" y="-185.9" font-family="Times Roman,serif" font-size="14.00">_layout</text>
</g>
<!-- TemplateInvoicedItemsController -->
<g id="node14" class="node"><title>TemplateInvoicedItemsController</title>
<polyline fill="none" stroke="black" points="113,-876.5 332,-876.5 "/>
<path fill="none" stroke="black" d="M332,-876.5C338,-876.5 344,-882.5 344,-888.5"/>
<polyline fill="none" stroke="black" points="344,-888.5 344,-1092.5 "/>
<path fill="none" stroke="black" d="M344,-1092.5C344,-1098.5 338,-1104.5 332,-1104.5"/>
<polyline fill="none" stroke="black" points="332,-1104.5 113,-1104.5 "/>
<path fill="none" stroke="black" d="M113,-1104.5C107,-1104.5 101,-1098.5 101,-1092.5"/>
<polyline fill="none" stroke="black" points="101,-1092.5 101,-888.5 "/>
<path fill="none" stroke="black" d="M101,-888.5C101,-882.5 107,-876.5 113,-876.5"/>
<text text-anchor="middle" x="222.5" y="-1087.9" font-family="Times Roman,serif" font-size="14.00">TemplateInvoicedItemsController</text>
<polyline fill="none" stroke="black" points="101,-1078.5 344,-1078.5 "/>
<polyline fill="none" stroke="black" points="101,-1054.5 344,-1054.5 "/>
<text text-anchor="start" x="109" y="-1037.9" font-family="Times Roman,serif" font-size="14.00">collection_path</text>
<text text-anchor="start" x="109" y="-1019.9" font-family="Times Roman,serif" font-size="14.00">collection_url</text>
<text text-anchor="start" x="109" y="-1001.9" font-family="Times Roman,serif" font-size="14.00">edit_resource_path</text>
<text text-anchor="start" x="109" y="-983.9" font-family="Times Roman,serif" font-size="14.00">edit_resource_url</text>
<text text-anchor="start" x="109" y="-965.9" font-family="Times Roman,serif" font-size="14.00">new_resource_path</text>
<text text-anchor="start" x="109" y="-947.9" font-family="Times Roman,serif" font-size="14.00">new_resource_url</text>
<text text-anchor="start" x="109" y="-929.9" font-family="Times Roman,serif" font-size="14.00">resource_path</text>
<text text-anchor="start" x="109" y="-911.9" font-family="Times Roman,serif" font-size="14.00">resource_url</text>
<polyline fill="none" stroke="black" points="101,-902.5 344,-902.5 "/>
<text text-anchor="start" x="109" y="-885.9" font-family="Times Roman,serif" font-size="14.00">_layout</text>
</g>
<!-- DispositifsController -->
<g id="node15" class="node"><title>DispositifsController</title>
<polyline fill="none" stroke="black" points="363,-1.5 494,-1.5 "/>
<path fill="none" stroke="black" d="M494,-1.5C500,-1.5 506,-7.5 506,-13.5"/>
<polyline fill="none" stroke="black" points="506,-13.5 506,-219.5 "/>
<path fill="none" stroke="black" d="M506,-219.5C506,-225.5 500,-231.5 494,-231.5"/>
<polyline fill="none" stroke="black" points="494,-231.5 363,-231.5 "/>
<path fill="none" stroke="black" d="M363,-231.5C357,-231.5 351,-225.5 351,-219.5"/>
<polyline fill="none" stroke="black" points="351,-219.5 351,-13.5 "/>
<path fill="none" stroke="black" d="M351,-13.5C351,-7.5 357,-1.5 363,-1.5"/>
<text text-anchor="middle" x="428.5" y="-214.9" font-family="Times Roman,serif" font-size="14.00">DispositifsController</text>
<polyline fill="none" stroke="black" points="351,-205.5 506,-205.5 "/>
<text text-anchor="start" x="359" y="-188.9" font-family="Times Roman,serif" font-size="14.00">index</text>
<polyline fill="none" stroke="black" points="351,-179.5 506,-179.5 "/>
<text text-anchor="start" x="359" y="-162.9" font-family="Times Roman,serif" font-size="14.00">collection_path</text>
<text text-anchor="start" x="359" y="-144.9" font-family="Times Roman,serif" font-size="14.00">collection_url</text>
<text text-anchor="start" x="359" y="-126.9" font-family="Times Roman,serif" font-size="14.00">edit_resource_path</text>
<text text-anchor="start" x="359" y="-108.9" font-family="Times Roman,serif" font-size="14.00">edit_resource_url</text>
<text text-anchor="start" x="359" y="-90.9" font-family="Times Roman,serif" font-size="14.00">new_resource_path</text>
<text text-anchor="start" x="359" y="-72.9" font-family="Times Roman,serif" font-size="14.00">new_resource_url</text>
<text text-anchor="start" x="359" y="-54.9" font-family="Times Roman,serif" font-size="14.00">resource_path</text>
<text text-anchor="start" x="359" y="-36.9" font-family="Times Roman,serif" font-size="14.00">resource_url</text>
<polyline fill="none" stroke="black" points="351,-27.5 506,-27.5 "/>
<text text-anchor="start" x="359" y="-10.9" font-family="Times Roman,serif" font-size="14.00">_layout</text>
</g>
</g>
</svg>
