<?xml version="1.0" encoding="UTF-8" standalone="no"?>
<!DOCTYPE svg PUBLIC "-//W3C//DTD SVG 1.1//EN"
 "http://www.w3.org/Graphics/SVG/1.1/DTD/svg11.dtd">
<!-- Generated by graphviz version 2.26.3 (20100126.1600)
 -->
<!-- Title: models_diagram Pages: 1 -->
<svg width="1008pt" height="398pt"
 viewBox="0.00 0.00 1008.00 398.00" xmlns="http://www.w3.org/2000/svg" xmlns:xlink="http://www.w3.org/1999/xlink">
<g id="graph1" class="graph" transform="scale(1 1) rotate(0) translate(4 394)">
<title>models_diagram</title>
<polygon fill="white" stroke="white" points="-4,5 -4,-394 1005,-394 1005,5 -4,5"/>
<!-- _diagram_info -->
<g id="node1" class="node"><title>_diagram_info</title>
<text text-anchor="start" x="8" y="-373.8" font-family="Times Roman,serif" font-size="13.00">Models diagram</text>
<text text-anchor="start" x="8" y="-356.8" font-family="Times Roman,serif" font-size="13.00">Date: Jun 28 2012 &#45; 01:48</text>
<text text-anchor="start" x="8" y="-339.8" font-family="Times Roman,serif" font-size="13.00">Migration version: 20120627130539</text>
<text text-anchor="start" x="8" y="-322.8" font-family="Times Roman,serif" font-size="13.00">Generated by RailRoady 1.0.7</text>
<text text-anchor="start" x="8" y="-305.8" font-family="Times Roman,serif" font-size="13.00">http://railroady.prestonlee.com</text>
</g>
<!-- Servolo -->
<g id="node2" class="node"><title>Servolo</title>
<ellipse fill="none" stroke="black" cx="631" cy="-19" rx="48.0833" ry="18.3848"/>
<text text-anchor="middle" x="631" y="-15.4" font-family="Times Roman,serif" font-size="14.00">Servolo</text>
</g>
<!-- Refac -->
<g id="node3" class="node"><title>Refac</title>
<ellipse fill="none" stroke="black" cx="366" cy="-167" rx="36.977" ry="18.3848"/>
<text text-anchor="middle" x="366" y="-163.4" font-family="Times Roman,serif" font-size="14.00">Refac</text>
</g>
<!-- Evitem -->
<g id="node4" class="node"><title>Evitem</title>
<ellipse fill="none" stroke="black" cx="467" cy="-167" rx="45.9619" ry="18.3848"/>
<text text-anchor="middle" x="467" y="-163.4" font-family="Times Roman,serif" font-size="14.00">Evitem</text>
</g>
<!-- Customer -->
<g id="node5" class="node"><title>Customer</title>
<ellipse fill="none" stroke="black" cx="448" cy="-343" rx="58.1882" ry="18.3848"/>
<text text-anchor="middle" x="448" y="-339.4" font-family="Times Roman,serif" font-size="14.00">Customer</text>
</g>
<!-- Event -->
<g id="node14" class="node"><title>Event</title>
<ellipse fill="none" stroke="black" cx="467" cy="-241" rx="39.8075" ry="18.3848"/>
<text text-anchor="middle" x="467" y="-237.4" font-family="Times Roman,serif" font-size="14.00">Event</text>
</g>
<!-- Customer&#45;&gt;Event -->
<g id="edge2" class="edge"><title>Customer&#45;&gt;Event</title>
<path fill="none" stroke="#4b29f6" d="M453.027,-316.015C455.694,-301.696 458.971,-284.103 461.681,-269.555"/>
<ellipse fill="none" stroke="#4b29f6" cx="452.217" cy="-320.359" rx="4.00001" ry="4.00001"/>
<polygon fill="#4b29f6" stroke="#4b29f6" points="461.706,-269.421 467.961,-260.414 462.622,-264.505 463.537,-259.59 463.537,-259.59 463.537,-259.59 462.622,-264.505 459.113,-258.766 461.706,-269.421 461.706,-269.421"/>
</g>
<!-- Service -->
<g id="node6" class="node"><title>Service</title>
<ellipse fill="none" stroke="black" cx="578" cy="-167" rx="46.8775" ry="18.3848"/>
<text text-anchor="middle" x="578" y="-163.4" font-family="Times Roman,serif" font-size="14.00">Service</text>
</g>
<!-- Service&#45;&gt;Servolo -->
<g id="edge8" class="edge"><title>Service&#45;&gt;Servolo</title>
<path fill="none" stroke="#fca4c6" d="M565.033,-141.081C557.271,-121.752 550.721,-95.1484 561,-74 567.862,-59.8824 580.296,-48.3099 592.802,-39.485"/>
<ellipse fill="none" stroke="#fca4c6" cx="566.692" cy="-144.948" rx="4.00002" ry="4.00002"/>
<polygon fill="#fca4c6" stroke="#fca4c6" points="593.054,-39.3193 603.88,-37.5745 597.229,-36.5681 601.404,-33.817 601.404,-33.817 601.404,-33.817 597.229,-36.5681 598.928,-30.0594 593.054,-39.3193 593.054,-39.3193"/>
</g>
<!-- Disposer -->
<g id="node7" class="node"><title>Disposer</title>
<ellipse fill="none" stroke="black" cx="420" cy="-19" rx="53.2379" ry="18.3848"/>
<text text-anchor="middle" x="420" y="-15.4" font-family="Times Roman,serif" font-size="14.00">Disposer</text>
</g>
<!-- Service&#45;&gt;Disposer -->
<g id="edge12" class="edge"><title>Service&#45;&gt;Disposer</title>
<path fill="none" stroke="#9787bd" d="M555.582,-143.521C537.06,-124.384 509.866,-96.8797 485,-74 473.533,-63.4487 460.488,-52.2613 449.11,-42.7506"/>
<ellipse fill="none" stroke="#9787bd" cx="558.5" cy="-146.545" rx="4.00002" ry="4.00002"/>
<polygon fill="#9787bd" stroke="#9787bd" points="448.859,-42.5425 444.039,-32.6925 445.012,-39.3487 441.165,-36.1548 441.165,-36.1548 441.165,-36.1548 445.012,-39.3487 438.29,-39.6171 448.859,-42.5425 448.859,-42.5425"/>
</g>
<!-- Dispositif -->
<g id="node9" class="node"><title>Dispositif</title>
<ellipse fill="none" stroke="black" cx="420" cy="-93" rx="56.0679" ry="18.3848"/>
<text text-anchor="middle" x="420" y="-89.4" font-family="Times Roman,serif" font-size="14.00">Dispositif</text>
</g>
<!-- Service&#45;&gt;Dispositif -->
<g id="edge10" class="edge"><title>Service&#45;&gt;Dispositif</title>
<path fill="none" stroke="#7f4fc6" d="M538.171,-148.346C514.803,-137.401 485.313,-123.59 461.639,-112.502"/>
<polygon fill="#7f4fc6" stroke="#7f4fc6" points="538.48,-148.491 545.627,-156.807 543.008,-150.611 547.536,-152.732 547.536,-152.732 547.536,-152.732 543.008,-150.611 549.445,-148.657 538.48,-148.491 538.48,-148.491"/>
<polygon fill="#7f4fc6" stroke="#7f4fc6" points="461.602,-112.485 454.455,-104.168 457.074,-110.364 452.546,-108.243 452.546,-108.243 452.546,-108.243 457.074,-110.364 450.637,-112.318 461.602,-112.485 461.602,-112.485"/>
</g>
<!-- Volo -->
<g id="node15" class="node"><title>Volo</title>
<ellipse fill="none" stroke="black" cx="720" cy="-93" rx="32.0265" ry="18.3848"/>
<text text-anchor="middle" x="720" y="-89.4" font-family="Times Roman,serif" font-size="14.00">Volo</text>
</g>
<!-- Service&#45;&gt;Volo -->
<g id="edge6" class="edge"><title>Service&#45;&gt;Volo</title>
<path fill="none" stroke="#9fba63" d="M615.407,-147.506C637.597,-135.942 665.478,-121.413 686.872,-110.264"/>
<polygon fill="#9fba63" stroke="#9fba63" points="615.263,-147.581 604.315,-148.212 610.829,-149.892 606.395,-152.203 606.395,-152.203 606.395,-152.203 610.829,-149.892 608.474,-156.193 615.263,-147.581 615.263,-147.581"/>
<polygon fill="#9fba63" stroke="#9fba63" points="687.036,-110.178 697.984,-109.548 691.47,-107.868 695.904,-105.557 695.904,-105.557 695.904,-105.557 691.47,-107.868 693.824,-101.566 687.036,-110.178 687.036,-110.178"/>
</g>
<!-- Seritem -->
<g id="node16" class="node"><title>Seritem</title>
<ellipse fill="none" stroke="black" cx="620" cy="-93" rx="50.2046" ry="18.3848"/>
<text text-anchor="middle" x="620" y="-89.4" font-family="Times Roman,serif" font-size="14.00">Seritem</text>
</g>
<!-- Service&#45;&gt;Seritem -->
<g id="edge4" class="edge"><title>Service&#45;&gt;Seritem</title>
<path fill="none" stroke="#0be9f5" d="M592.349,-141.718C596.241,-134.862 600.472,-127.407 604.427,-120.438"/>
<ellipse fill="none" stroke="#0be9f5" cx="590.356" cy="-145.229" rx="4.00002" ry="4.00002"/>
<polygon fill="#0be9f5" stroke="#0be9f5" points="604.656,-120.035 613.505,-113.559 607.124,-115.687 609.592,-111.338 609.592,-111.338 609.592,-111.338 607.124,-115.687 605.678,-109.117 604.656,-120.035 604.656,-120.035"/>
</g>
<!-- Category -->
<g id="node8" class="node"><title>Category</title>
<ellipse fill="none" stroke="black" cx="580" cy="-343" rx="56.0679" ry="18.3848"/>
<text text-anchor="middle" x="580" y="-339.4" font-family="Times Roman,serif" font-size="14.00">Category</text>
</g>
<!-- Category&#45;&gt;Event -->
<g id="edge14" class="edge"><title>Category&#45;&gt;Event</title>
<path fill="none" stroke="#c532cb" d="M554.614,-320.085C536.226,-303.488 511.451,-281.124 492.938,-264.413"/>
<ellipse fill="none" stroke="#c532cb" cx="557.605" cy="-322.785" rx="4.00002" ry="4.00002"/>
<polygon fill="#c532cb" stroke="#c532cb" points="492.847,-264.331 488.439,-254.29 489.135,-260.98 485.424,-257.63 485.424,-257.63 485.424,-257.63 489.135,-260.98 482.408,-260.971 492.847,-264.331 492.847,-264.331"/>
</g>
<!-- Dispositif&#45;&gt;Disposer -->
<g id="edge16" class="edge"><title>Dispositif&#45;&gt;Disposer</title>
<path fill="none" stroke="#97063b" d="M420,-66.309C420,-60.3769 420,-54.0606 420,-48.0396"/>
<ellipse fill="none" stroke="#97063b" cx="420" cy="-70.3267" rx="4" ry="4"/>
<polygon fill="#97063b" stroke="#97063b" points="420,-47.6674 424.5,-37.6673 420,-42.6674 420,-37.6674 420,-37.6674 420,-37.6674 420,-42.6674 415.5,-37.6674 420,-47.6674 420,-47.6674"/>
</g>
<!-- TemplateInvoicedItem -->
<g id="node10" class="node"><title>TemplateInvoicedItem</title>
<ellipse fill="none" stroke="black" cx="882" cy="-343" rx="118.087" ry="18.3848"/>
<text text-anchor="middle" x="882" y="-339.4" font-family="Times Roman,serif" font-size="14.00">TemplateInvoicedItem</text>
</g>
<!-- Crentite -->
<g id="node11" class="node"><title>Crentite</title>
<ellipse fill="none" stroke="black" cx="320" cy="-343" rx="51.8276" ry="18.3848"/>
<text text-anchor="middle" x="320" y="-339.4" font-family="Times Roman,serif" font-size="14.00">Crentite</text>
</g>
<!-- Crentite&#45;&gt;Refac -->
<g id="edge22" class="edge"><title>Crentite&#45;&gt;Refac</title>
<path fill="none" stroke="#7def77" d="M326.957,-316.381C335.464,-283.832 349.806,-228.961 358.537,-195.555"/>
<ellipse fill="none" stroke="#7def77" cx="325.847" cy="-320.628" rx="4.00001" ry="4.00001"/>
<polygon fill="#7def77" stroke="#7def77" points="358.631,-195.194 365.514,-186.657 359.896,-190.356 361.16,-185.519 361.16,-185.519 361.16,-185.519 359.896,-190.356 356.806,-184.381 358.631,-195.194 358.631,-195.194"/>
</g>
<!-- Crentite&#45;&gt;Disposer -->
<g id="edge18" class="edge"><title>Crentite&#45;&gt;Disposer</title>
<path fill="none" stroke="#913d9f" d="M316.36,-316.418C311.983,-278.504 306.76,-206.961 320,-148 327.971,-112.502 332.833,-102.849 355,-74 364.205,-62.021 376.419,-50.8412 387.773,-41.7315"/>
<ellipse fill="none" stroke="#913d9f" cx="316.848" cy="-320.452" rx="4.00001" ry="4.00001"/>
<polygon fill="#913d9f" stroke="#913d9f" points="387.93,-41.6096 398.59,-39.0385 391.881,-38.5459 395.833,-35.4822 395.833,-35.4822 395.833,-35.4822 391.881,-38.5459 393.075,-31.9259 387.93,-41.6096 387.93,-41.6096"/>
</g>
<!-- Crentite&#45;&gt;Event -->
<g id="edge20" class="edge"><title>Crentite&#45;&gt;Event</title>
<path fill="none" stroke="#a77b65" d="M349.125,-319.731C359.093,-311.99 370.405,-303.448 381,-296 398.127,-283.96 417.758,-271.321 433.937,-261.199"/>
<polygon fill="#a77b65" stroke="#a77b65" points="348.986,-319.839 338.338,-322.46 345.049,-322.921 341.112,-326.003 341.112,-326.003 341.112,-326.003 345.049,-322.921 343.886,-329.547 348.986,-319.839 348.986,-319.839"/>
<polygon fill="#a77b65" stroke="#a77b65" points="434.04,-261.135 444.908,-259.676 438.286,-258.495 442.532,-255.855 442.532,-255.855 442.532,-255.855 438.286,-258.495 440.156,-252.033 434.04,-261.135 434.04,-261.135"/>
</g>
<!-- Nositem -->
<g id="node12" class="node"><title>Nositem</title>
<ellipse fill="none" stroke="black" cx="700" cy="-241" rx="51.1176" ry="18.3848"/>
<text text-anchor="middle" x="700" y="-237.4" font-family="Times Roman,serif" font-size="14.00">Nositem</text>
</g>
<!-- Invoice -->
<g id="node13" class="node"><title>Invoice</title>
<ellipse fill="none" stroke="black" cx="700" cy="-343" rx="45.9619" ry="18.3848"/>
<text text-anchor="middle" x="700" y="-339.4" font-family="Times Roman,serif" font-size="14.00">Invoice</text>
</g>
<!-- Invoice&#45;&gt;Nositem -->
<g id="edge26" class="edge"><title>Invoice&#45;&gt;Nositem</title>
<path fill="none" stroke="#b3901c" d="M700,-316.015C700,-301.835 700,-284.445 700,-269.98"/>
<ellipse fill="none" stroke="#b3901c" cx="700" cy="-320.292" rx="4" ry="4"/>
<polygon fill="#b3901c" stroke="#b3901c" points="700,-269.59 704.5,-259.59 700,-264.59 700,-259.59 700,-259.59 700,-259.59 700,-264.59 695.5,-259.59 700,-269.59 700,-269.59"/>
</g>
<!-- Invoice&#45;&gt;Event -->
<g id="edge24" class="edge"><title>Invoice&#45;&gt;Event</title>
<path fill="none" stroke="#2d081f" d="M676.958,-319.633C667.665,-311.24 656.442,-302.302 645,-296 603.565,-273.18 551.378,-258.483 514.248,-250.076"/>
<ellipse fill="none" stroke="#2d081f" cx="680.135" cy="-322.591" rx="4.00002" ry="4.00002"/>
<polygon fill="#2d081f" stroke="#2d081f" points="513.964,-250.014 505.161,-243.475 509.08,-248.942 504.196,-247.87 504.196,-247.87 504.196,-247.87 509.08,-248.942 503.232,-252.266 513.964,-250.014 513.964,-250.014"/>
</g>
<!-- Event&#45;&gt;Refac -->
<g id="edge32" class="edge"><title>Event&#45;&gt;Refac</title>
<path fill="none" stroke="#e424d6" d="M438.814,-220.349C425.223,-210.391 408.931,-198.455 395.208,-188.4"/>
<ellipse fill="none" stroke="#e424d6" cx="442.354" cy="-222.942" rx="4.00002" ry="4.00002"/>
<polygon fill="#e424d6" stroke="#e424d6" points="395.109,-188.327 389.702,-178.787 391.076,-185.372 387.042,-182.417 387.042,-182.417 387.042,-182.417 391.076,-185.372 384.383,-186.047 395.109,-188.327 395.109,-188.327"/>
</g>
<!-- Event&#45;&gt;Evitem -->
<g id="edge30" class="edge"><title>Event&#45;&gt;Evitem</title>
<path fill="none" stroke="#7152fc" d="M467,-214.309C467,-208.377 467,-202.061 467,-196.04"/>
<ellipse fill="none" stroke="#7152fc" cx="467" cy="-218.327" rx="4" ry="4"/>
<polygon fill="#7152fc" stroke="#7152fc" points="467,-195.667 471.5,-185.667 467,-190.667 467,-185.667 467,-185.667 467,-185.667 467,-190.667 462.5,-185.667 467,-195.667 467,-195.667"/>
</g>
<!-- Event&#45;&gt;Service -->
<g id="edge28" class="edge"><title>Event&#45;&gt;Service</title>
<path fill="none" stroke="#aaa3de" d="M496.851,-221.099C511.788,-211.141 529.903,-199.065 545.225,-188.85"/>
<ellipse fill="none" stroke="#aaa3de" cx="493.327" cy="-223.448" rx="4.00002" ry="4.00002"/>
<polygon fill="#aaa3de" stroke="#aaa3de" points="545.558,-188.628 556.374,-186.825 549.718,-185.855 553.878,-183.081 553.878,-183.081 553.878,-183.081 549.718,-185.855 551.382,-179.337 545.558,-188.628 545.558,-188.628"/>
</g>
<!-- Volo&#45;&gt;Servolo -->
<g id="edge34" class="edge"><title>Volo&#45;&gt;Servolo</title>
<path fill="none" stroke="#4319c9" d="M695.058,-72.2619C683.937,-63.0154 670.782,-52.0773 659.295,-42.5265"/>
<ellipse fill="none" stroke="#4319c9" cx="698.483" cy="-75.1098" rx="4.00002" ry="4.00002"/>
<polygon fill="#4319c9" stroke="#4319c9" points="658.968,-42.2546 654.156,-32.401 655.124,-39.0579 651.279,-35.8612 651.279,-35.8612 651.279,-35.8612 655.124,-39.0579 648.402,-39.3214 658.968,-42.2546 658.968,-42.2546"/>
</g>
</g>
</svg>
