<?xml version="1.0" encoding="UTF-8" standalone="no"?>
<!DOCTYPE svg PUBLIC "-//W3C//DTD SVG 1.1//EN"
 "http://www.w3.org/Graphics/SVG/1.1/DTD/svg11.dtd">
<!-- Generated by graphviz version 2.26.3 (20100126.1600)
 -->
<!-- Title: models_diagram Pages: 1 -->
<svg width="1170pt" height="890pt"
 viewBox="0.00 0.00 1170.00 890.00" xmlns="http://www.w3.org/2000/svg" xmlns:xlink="http://www.w3.org/1999/xlink">
<g id="graph1" class="graph" transform="scale(1 1) rotate(0) translate(4 886)">
<title>models_diagram</title>
<polygon fill="white" stroke="white" points="-4,5 -4,-886 1167,-886 1167,5 -4,5"/>
<!-- _diagram_info -->
<g id="node1" class="node"><title>_diagram_info</title>
<text text-anchor="start" x="8" y="-840.8" font-family="Times Roman,serif" font-size="13.00">Models diagram</text>
<text text-anchor="start" x="8" y="-823.8" font-family="Times Roman,serif" font-size="13.00">Date: Jun 28 2012 &#45; 01:48</text>
<text text-anchor="start" x="8" y="-806.8" font-family="Times Roman,serif" font-size="13.00">Migration version: 20120627130539</text>
<text text-anchor="start" x="8" y="-789.8" font-family="Times Roman,serif" font-size="13.00">Generated by RailRoady 1.0.7</text>
<text text-anchor="start" x="8" y="-772.8" font-family="Times Roman,serif" font-size="13.00">http://railroady.prestonlee.com</text>
</g>
<!-- Servolo -->
<g id="node2" class="node"><title>Servolo</title>
<polyline fill="none" stroke="black" points="825.5,-1 966.5,-1 "/>
<path fill="none" stroke="black" d="M966.5,-1C972.5,-1 978.5,-7 978.5,-13"/>
<polyline fill="none" stroke="black" points="978.5,-13 978.5,-95 "/>
<path fill="none" stroke="black" d="M978.5,-95C978.5,-101 972.5,-107 966.5,-107"/>
<polyline fill="none" stroke="black" points="966.5,-107 825.5,-107 "/>
<path fill="none" stroke="black" d="M825.5,-107C819.5,-107 813.5,-101 813.5,-95"/>
<polyline fill="none" stroke="black" points="813.5,-95 813.5,-13 "/>
<path fill="none" stroke="black" d="M813.5,-13C813.5,-7 819.5,-1 825.5,-1"/>
<text text-anchor="middle" x="896" y="-90.4" font-family="Times Roman,serif" font-size="14.00">Servolo</text>
<polyline fill="none" stroke="black" points="813.5,-81 978.5,-81 "/>
<text text-anchor="start" x="821.5" y="-64.4" font-family="Times Roman,serif" font-size="14.00">created_at :datetime</text>
<text text-anchor="start" x="821.5" y="-46.4" font-family="Times Roman,serif" font-size="14.00">updated_at :datetime</text>
<text text-anchor="start" x="821.5" y="-28.4" font-family="Times Roman,serif" font-size="14.00">starts_at :timestamp</text>
<text text-anchor="start" x="821.5" y="-10.4" font-family="Times Roman,serif" font-size="14.00">ends_at :timestamp</text>
</g>
<!-- Refac -->
<g id="node3" class="node"><title>Refac</title>
<polyline fill="none" stroke="black" points="352.5,-370 493.5,-370 "/>
<path fill="none" stroke="black" d="M493.5,-370C499.5,-370 505.5,-376 505.5,-382"/>
<polyline fill="none" stroke="black" points="505.5,-382 505.5,-464 "/>
<path fill="none" stroke="black" d="M505.5,-464C505.5,-470 499.5,-476 493.5,-476"/>
<polyline fill="none" stroke="black" points="493.5,-476 352.5,-476 "/>
<path fill="none" stroke="black" d="M352.5,-476C346.5,-476 340.5,-470 340.5,-464"/>
<polyline fill="none" stroke="black" points="340.5,-464 340.5,-382 "/>
<path fill="none" stroke="black" d="M340.5,-382C340.5,-376 346.5,-370 352.5,-370"/>
<text text-anchor="middle" x="423" y="-459.4" font-family="Times Roman,serif" font-size="14.00">Refac</text>
<polyline fill="none" stroke="black" points="340.5,-450 505.5,-450 "/>
<text text-anchor="start" x="348.5" y="-433.4" font-family="Times Roman,serif" font-size="14.00">kind :integer</text>
<text text-anchor="start" x="348.5" y="-415.4" font-family="Times Roman,serif" font-size="14.00">price :decimal</text>
<text text-anchor="start" x="348.5" y="-397.4" font-family="Times Roman,serif" font-size="14.00">created_at :datetime</text>
<text text-anchor="start" x="348.5" y="-379.4" font-family="Times Roman,serif" font-size="14.00">updated_at :datetime</text>
</g>
<!-- Evitem -->
<g id="node4" class="node"><title>Evitem</title>
<polyline fill="none" stroke="black" points="534.5,-343 675.5,-343 "/>
<path fill="none" stroke="black" d="M675.5,-343C681.5,-343 687.5,-349 687.5,-355"/>
<polyline fill="none" stroke="black" points="687.5,-355 687.5,-491 "/>
<path fill="none" stroke="black" d="M687.5,-491C687.5,-497 681.5,-503 675.5,-503"/>
<polyline fill="none" stroke="black" points="675.5,-503 534.5,-503 "/>
<path fill="none" stroke="black" d="M534.5,-503C528.5,-503 522.5,-497 522.5,-491"/>
<polyline fill="none" stroke="black" points="522.5,-491 522.5,-355 "/>
<path fill="none" stroke="black" d="M522.5,-355C522.5,-349 528.5,-343 534.5,-343"/>
<text text-anchor="middle" x="605" y="-486.4" font-family="Times Roman,serif" font-size="14.00">Evitem</text>
<polyline fill="none" stroke="black" points="522.5,-477 687.5,-477 "/>
<text text-anchor="start" x="530.5" y="-460.4" font-family="Times Roman,serif" font-size="14.00">pos :integer</text>
<text text-anchor="start" x="530.5" y="-442.4" font-family="Times Roman,serif" font-size="14.00">name :string</text>
<text text-anchor="start" x="530.5" y="-424.4" font-family="Times Roman,serif" font-size="14.00">qty :decimal</text>
<text text-anchor="start" x="530.5" y="-406.4" font-family="Times Roman,serif" font-size="14.00">price :decimal</text>
<text text-anchor="start" x="530.5" y="-388.4" font-family="Times Roman,serif" font-size="14.00">kind :integer</text>
<text text-anchor="start" x="530.5" y="-370.4" font-family="Times Roman,serif" font-size="14.00">created_at :datetime</text>
<text text-anchor="start" x="530.5" y="-352.4" font-family="Times Roman,serif" font-size="14.00">updated_at :datetime</text>
</g>
<!-- Customer -->
<g id="node5" class="node"><title>Customer</title>
<polyline fill="none" stroke="black" points="461.5,-766 602.5,-766 "/>
<path fill="none" stroke="black" d="M602.5,-766C608.5,-766 614.5,-772 614.5,-778"/>
<polyline fill="none" stroke="black" points="614.5,-778 614.5,-842 "/>
<path fill="none" stroke="black" d="M614.5,-842C614.5,-848 608.5,-854 602.5,-854"/>
<polyline fill="none" stroke="black" points="602.5,-854 461.5,-854 "/>
<path fill="none" stroke="black" d="M461.5,-854C455.5,-854 449.5,-848 449.5,-842"/>
<polyline fill="none" stroke="black" points="449.5,-842 449.5,-778 "/>
<path fill="none" stroke="black" d="M449.5,-778C449.5,-772 455.5,-766 461.5,-766"/>
<text text-anchor="middle" x="532" y="-837.4" font-family="Times Roman,serif" font-size="14.00">Customer</text>
<polyline fill="none" stroke="black" points="449.5,-828 614.5,-828 "/>
<text text-anchor="start" x="457.5" y="-811.4" font-family="Times Roman,serif" font-size="14.00">data :text</text>
<text text-anchor="start" x="457.5" y="-793.4" font-family="Times Roman,serif" font-size="14.00">created_at :datetime</text>
<text text-anchor="start" x="457.5" y="-775.4" font-family="Times Roman,serif" font-size="14.00">updated_at :datetime</text>
</g>
<!-- Event -->
<g id="node14" class="node"><title>Event</title>
<polyline fill="none" stroke="black" points="534.5,-577 675.5,-577 "/>
<path fill="none" stroke="black" d="M675.5,-577C681.5,-577 687.5,-583 687.5,-589"/>
<polyline fill="none" stroke="black" points="687.5,-589 687.5,-653 "/>
<path fill="none" stroke="black" d="M687.5,-653C687.5,-659 681.5,-665 675.5,-665"/>
<polyline fill="none" stroke="black" points="675.5,-665 534.5,-665 "/>
<path fill="none" stroke="black" d="M534.5,-665C528.5,-665 522.5,-659 522.5,-653"/>
<polyline fill="none" stroke="black" points="522.5,-653 522.5,-589 "/>
<path fill="none" stroke="black" d="M522.5,-589C522.5,-583 528.5,-577 534.5,-577"/>
<text text-anchor="middle" x="605" y="-648.4" font-family="Times Roman,serif" font-size="14.00">Event</text>
<polyline fill="none" stroke="black" points="522.5,-639 687.5,-639 "/>
<text text-anchor="start" x="530.5" y="-622.4" font-family="Times Roman,serif" font-size="14.00">name :string</text>
<text text-anchor="start" x="530.5" y="-604.4" font-family="Times Roman,serif" font-size="14.00">created_at :datetime</text>
<text text-anchor="start" x="530.5" y="-586.4" font-family="Times Roman,serif" font-size="14.00">updated_at :datetime</text>
</g>
<!-- Customer&#45;&gt;Event -->
<g id="edge2" class="edge"><title>Customer&#45;&gt;Event</title>
<path fill="none" stroke="#aadfcc" d="M552.07,-758.038C562.11,-732.044 574.246,-700.623 584.364,-674.429"/>
<ellipse fill="none" stroke="#aadfcc" cx="550.556" cy="-761.957" rx="4.00001" ry="4.00001"/>
<polygon fill="#aadfcc" stroke="#aadfcc" points="584.389,-674.363 592.19,-666.656 586.19,-669.699 587.992,-665.034 587.992,-665.034 587.992,-665.034 586.19,-669.699 583.794,-663.413 584.389,-674.363 584.389,-674.363"/>
</g>
<!-- Service -->
<g id="node6" class="node"><title>Service</title>
<polyline fill="none" stroke="black" points="717,-343 859,-343 "/>
<path fill="none" stroke="black" d="M859,-343C865,-343 871,-349 871,-355"/>
<polyline fill="none" stroke="black" points="871,-355 871,-491 "/>
<path fill="none" stroke="black" d="M871,-491C871,-497 865,-503 859,-503"/>
<polyline fill="none" stroke="black" points="859,-503 717,-503 "/>
<path fill="none" stroke="black" d="M717,-503C711,-503 705,-497 705,-491"/>
<polyline fill="none" stroke="black" points="705,-491 705,-355 "/>
<path fill="none" stroke="black" d="M705,-355C705,-349 711,-343 717,-343"/>
<text text-anchor="middle" x="788" y="-486.4" font-family="Times Roman,serif" font-size="14.00">Service</text>
<polyline fill="none" stroke="black" points="705,-477 871,-477 "/>
<text text-anchor="start" x="713" y="-460.4" font-family="Times Roman,serif" font-size="14.00">starts_at :datetime</text>
<text text-anchor="start" x="713" y="-442.4" font-family="Times Roman,serif" font-size="14.00">ends_at :datetime</text>
<text text-anchor="start" x="713" y="-424.4" font-family="Times Roman,serif" font-size="14.00">created_at :datetime</text>
<text text-anchor="start" x="713" y="-406.4" font-family="Times Roman,serif" font-size="14.00">updated_at :datetime</text>
<text text-anchor="start" x="713" y="-388.4" font-family="Times Roman,serif" font-size="14.00">rendezvous :string</text>
<text text-anchor="start" x="713" y="-370.4" font-family="Times Roman,serif" font-size="14.00">surplace_at :datetime</text>
<text text-anchor="start" x="713" y="-352.4" font-family="Times Roman,serif" font-size="14.00">depart_at :datetime</text>
</g>
<!-- Service&#45;&gt;Servolo -->
<g id="edge8" class="edge"><title>Service&#45;&gt;Servolo</title>
<path fill="none" stroke="#0e98a4" d="M750.614,-335.335C732.042,-277.622 719.712,-202.256 752,-144 763.996,-122.357 783.605,-105.231 804.547,-91.9869"/>
<ellipse fill="none" stroke="#0e98a4" cx="751.894" cy="-339.201" rx="4.00001" ry="4.00001"/>
<polygon fill="#0e98a4" stroke="#0e98a4" points="804.698,-91.8957 815.585,-90.5858 808.98,-89.3139 813.262,-86.7321 813.262,-86.7321 813.262,-86.7321 808.98,-89.3139 810.938,-82.8784 804.698,-91.8957 804.698,-91.8957"/>
</g>
<!-- Disposer -->
<g id="node7" class="node"><title>Disposer</title>
<polyline fill="none" stroke="black" points="514.5,-10 655.5,-10 "/>
<path fill="none" stroke="black" d="M655.5,-10C661.5,-10 667.5,-16 667.5,-22"/>
<polyline fill="none" stroke="black" points="667.5,-22 667.5,-86 "/>
<path fill="none" stroke="black" d="M667.5,-86C667.5,-92 661.5,-98 655.5,-98"/>
<polyline fill="none" stroke="black" points="655.5,-98 514.5,-98 "/>
<path fill="none" stroke="black" d="M514.5,-98C508.5,-98 502.5,-92 502.5,-86"/>
<polyline fill="none" stroke="black" points="502.5,-86 502.5,-22 "/>
<path fill="none" stroke="black" d="M502.5,-22C502.5,-16 508.5,-10 514.5,-10"/>
<text text-anchor="middle" x="585" y="-81.4" font-family="Times Roman,serif" font-size="14.00">Disposer</text>
<polyline fill="none" stroke="black" points="502.5,-72 667.5,-72 "/>
<text text-anchor="start" x="510.5" y="-55.4" font-family="Times Roman,serif" font-size="14.00">quantity :integer</text>
<text text-anchor="start" x="510.5" y="-37.4" font-family="Times Roman,serif" font-size="14.00">created_at :datetime</text>
<text text-anchor="start" x="510.5" y="-19.4" font-family="Times Roman,serif" font-size="14.00">updated_at :datetime</text>
</g>
<!-- Service&#45;&gt;Disposer -->
<g id="edge12" class="edge"><title>Service&#45;&gt;Disposer</title>
<path fill="none" stroke="#6756c1" d="M741.163,-335.448C736.487,-325.619 731.998,-315.665 728,-306 699.095,-236.124 715.574,-208.436 676,-144 667.622,-130.358 656.752,-117.267 645.456,-105.496"/>
<ellipse fill="none" stroke="#6756c1" cx="743.034" cy="-339.33" rx="4.00002" ry="4.00002"/>
<polygon fill="#6756c1" stroke="#6756c1" points="645.417,-105.456 641.587,-95.181 641.902,-101.9 638.387,-98.3446 638.387,-98.3446 638.387,-98.3446 641.902,-101.9 635.186,-101.508 645.417,-105.456 645.417,-105.456"/>
</g>
<!-- Dispositif -->
<g id="node9" class="node"><title>Dispositif</title>
<polyline fill="none" stroke="black" points="514.5,-172 655.5,-172 "/>
<path fill="none" stroke="black" d="M655.5,-172C661.5,-172 667.5,-178 667.5,-184"/>
<polyline fill="none" stroke="black" points="667.5,-184 667.5,-266 "/>
<path fill="none" stroke="black" d="M667.5,-266C667.5,-272 661.5,-278 655.5,-278"/>
<polyline fill="none" stroke="black" points="655.5,-278 514.5,-278 "/>
<path fill="none" stroke="black" d="M514.5,-278C508.5,-278 502.5,-272 502.5,-266"/>
<polyline fill="none" stroke="black" points="502.5,-266 502.5,-184 "/>
<path fill="none" stroke="black" d="M502.5,-184C502.5,-178 508.5,-172 514.5,-172"/>
<text text-anchor="middle" x="585" y="-261.4" font-family="Times Roman,serif" font-size="14.00">Dispositif</text>
<polyline fill="none" stroke="black" points="502.5,-252 667.5,-252 "/>
<text text-anchor="start" x="510.5" y="-235.4" font-family="Times Roman,serif" font-size="14.00">pos :integer</text>
<text text-anchor="start" x="510.5" y="-217.4" font-family="Times Roman,serif" font-size="14.00">name :string</text>
<text text-anchor="start" x="510.5" y="-199.4" font-family="Times Roman,serif" font-size="14.00">created_at :datetime</text>
<text text-anchor="start" x="510.5" y="-181.4" font-family="Times Roman,serif" font-size="14.00">updated_at :datetime</text>
</g>
<!-- Service&#45;&gt;Dispositif -->
<g id="edge10" class="edge"><title>Service&#45;&gt;Dispositif</title>
<path fill="none" stroke="#852768" d="M698.364,-335.572C680.957,-318.594 663.078,-301.155 646.813,-285.291"/>
<polygon fill="#852768" stroke="#852768" points="698.566,-335.769 702.583,-345.973 702.145,-339.26 705.725,-342.751 705.725,-342.751 705.725,-342.751 702.145,-339.26 708.867,-339.53 698.566,-335.769 698.566,-335.769"/>
<polygon fill="#852768" stroke="#852768" points="646.62,-285.102 642.603,-274.898 643.041,-281.611 639.461,-278.12 639.461,-278.12 639.461,-278.12 643.041,-281.611 636.319,-281.341 646.62,-285.102 646.62,-285.102"/>
</g>
<!-- Volo -->
<g id="node15" class="node"><title>Volo</title>
<polyline fill="none" stroke="black" points="954.5,-172 1095.5,-172 "/>
<path fill="none" stroke="black" d="M1095.5,-172C1101.5,-172 1107.5,-178 1107.5,-184"/>
<polyline fill="none" stroke="black" points="1107.5,-184 1107.5,-266 "/>
<path fill="none" stroke="black" d="M1107.5,-266C1107.5,-272 1101.5,-278 1095.5,-278"/>
<polyline fill="none" stroke="black" points="1095.5,-278 954.5,-278 "/>
<path fill="none" stroke="black" d="M954.5,-278C948.5,-278 942.5,-272 942.5,-266"/>
<polyline fill="none" stroke="black" points="942.5,-266 942.5,-184 "/>
<path fill="none" stroke="black" d="M942.5,-184C942.5,-178 948.5,-172 954.5,-172"/>
<text text-anchor="middle" x="1025" y="-261.4" font-family="Times Roman,serif" font-size="14.00">Volo</text>
<polyline fill="none" stroke="black" points="942.5,-252 1107.5,-252 "/>
<text text-anchor="start" x="950.5" y="-235.4" font-family="Times Roman,serif" font-size="14.00">first_name :string</text>
<text text-anchor="start" x="950.5" y="-217.4" font-family="Times Roman,serif" font-size="14.00">last_name :string</text>
<text text-anchor="start" x="950.5" y="-199.4" font-family="Times Roman,serif" font-size="14.00">created_at :datetime</text>
<text text-anchor="start" x="950.5" y="-181.4" font-family="Times Roman,serif" font-size="14.00">updated_at :datetime</text>
</g>
<!-- Service&#45;&gt;Volo -->
<g id="edge6" class="edge"><title>Service&#45;&gt;Volo</title>
<path fill="none" stroke="#691984" d="M879.034,-351.245C897.374,-336.455 916.414,-320.856 934,-306 942.041,-299.207 950.394,-291.995 958.635,-284.782"/>
<polygon fill="#691984" stroke="#691984" points="879.015,-351.261 868.403,-354.024 875.119,-354.395 871.224,-357.53 871.224,-357.53 871.224,-357.53 875.119,-354.395 874.045,-361.036 879.015,-351.261 879.015,-351.261"/>
<polygon fill="#691984" stroke="#691984" points="958.647,-284.771 969.129,-281.55 962.403,-281.471 966.159,-278.17 966.159,-278.17 966.159,-278.17 962.403,-281.471 963.188,-274.79 958.647,-284.771 958.647,-284.771"/>
</g>
<!-- Seritem -->
<g id="node16" class="node"><title>Seritem</title>
<polyline fill="none" stroke="black" points="772.5,-145 913.5,-145 "/>
<path fill="none" stroke="black" d="M913.5,-145C919.5,-145 925.5,-151 925.5,-157"/>
<polyline fill="none" stroke="black" points="925.5,-157 925.5,-293 "/>
<path fill="none" stroke="black" d="M925.5,-293C925.5,-299 919.5,-305 913.5,-305"/>
<polyline fill="none" stroke="black" points="913.5,-305 772.5,-305 "/>
<path fill="none" stroke="black" d="M772.5,-305C766.5,-305 760.5,-299 760.5,-293"/>
<polyline fill="none" stroke="black" points="760.5,-293 760.5,-157 "/>
<path fill="none" stroke="black" d="M760.5,-157C760.5,-151 766.5,-145 772.5,-145"/>
<text text-anchor="middle" x="843" y="-288.4" font-family="Times Roman,serif" font-size="14.00">Seritem</text>
<polyline fill="none" stroke="black" points="760.5,-279 925.5,-279 "/>
<text text-anchor="start" x="768.5" y="-262.4" font-family="Times Roman,serif" font-size="14.00">pos :integer</text>
<text text-anchor="start" x="768.5" y="-244.4" font-family="Times Roman,serif" font-size="14.00">name :string</text>
<text text-anchor="start" x="768.5" y="-226.4" font-family="Times Roman,serif" font-size="14.00">qty :decimal</text>
<text text-anchor="start" x="768.5" y="-208.4" font-family="Times Roman,serif" font-size="14.00">price :decimal</text>
<text text-anchor="start" x="768.5" y="-190.4" font-family="Times Roman,serif" font-size="14.00">kind :integer</text>
<text text-anchor="start" x="768.5" y="-172.4" font-family="Times Roman,serif" font-size="14.00">created_at :datetime</text>
<text text-anchor="start" x="768.5" y="-154.4" font-family="Times Roman,serif" font-size="14.00">updated_at :datetime</text>
</g>
<!-- Service&#45;&gt;Seritem -->
<g id="edge4" class="edge"><title>Service&#45;&gt;Seritem</title>
<path fill="none" stroke="#82a098" d="M812.49,-334.835C814.341,-328.171 816.211,-321.44 818.065,-314.766"/>
<ellipse fill="none" stroke="#82a098" cx="811.362" cy="-338.897" rx="4.00001" ry="4.00001"/>
<polygon fill="#82a098" stroke="#82a098" points="818.09,-314.677 825.102,-306.246 819.428,-309.859 820.766,-305.041 820.766,-305.041 820.766,-305.041 819.428,-309.859 816.43,-303.837 818.09,-314.677 818.09,-314.677"/>
</g>
<!-- Category -->
<g id="node8" class="node"><title>Category</title>
<polyline fill="none" stroke="black" points="643.5,-757 784.5,-757 "/>
<path fill="none" stroke="black" d="M784.5,-757C790.5,-757 796.5,-763 796.5,-769"/>
<polyline fill="none" stroke="black" points="796.5,-769 796.5,-851 "/>
<path fill="none" stroke="black" d="M796.5,-851C796.5,-857 790.5,-863 784.5,-863"/>
<polyline fill="none" stroke="black" points="784.5,-863 643.5,-863 "/>
<path fill="none" stroke="black" d="M643.5,-863C637.5,-863 631.5,-857 631.5,-851"/>
<polyline fill="none" stroke="black" points="631.5,-851 631.5,-769 "/>
<path fill="none" stroke="black" d="M631.5,-769C631.5,-763 637.5,-757 643.5,-757"/>
<text text-anchor="middle" x="714" y="-846.4" font-family="Times Roman,serif" font-size="14.00">Category</text>
<polyline fill="none" stroke="black" points="631.5,-837 796.5,-837 "/>
<text text-anchor="start" x="639.5" y="-820.4" font-family="Times Roman,serif" font-size="14.00">name :string</text>
<text text-anchor="start" x="639.5" y="-802.4" font-family="Times Roman,serif" font-size="14.00">short_name :string</text>
<text text-anchor="start" x="639.5" y="-784.4" font-family="Times Roman,serif" font-size="14.00">created_at :datetime</text>
<text text-anchor="start" x="639.5" y="-766.4" font-family="Times Roman,serif" font-size="14.00">updated_at :datetime</text>
</g>
<!-- Category&#45;&gt;Event -->
<g id="edge14" class="edge"><title>Category&#45;&gt;Event</title>
<path fill="none" stroke="#6d016c" d="M679.171,-749.608C665.137,-725.275 649.095,-697.458 635.528,-673.933"/>
<ellipse fill="none" stroke="#6d016c" cx="681.349" cy="-753.385" rx="4.00002" ry="4.00002"/>
<polygon fill="#6d016c" stroke="#6d016c" points="635.454,-673.806 634.357,-662.895 632.956,-669.475 630.458,-665.143 630.458,-665.143 630.458,-665.143 632.956,-669.475 626.56,-667.392 635.454,-673.806 635.454,-673.806"/>
</g>
<!-- Dispositif&#45;&gt;Disposer -->
<g id="edge16" class="edge"><title>Dispositif&#45;&gt;Disposer</title>
<path fill="none" stroke="#2b6d27" d="M585,-163.666C585,-145.588 585,-125.939 585,-108.332"/>
<ellipse fill="none" stroke="#2b6d27" cx="585" cy="-167.832" rx="4" ry="4"/>
<polygon fill="#2b6d27" stroke="#2b6d27" points="585,-108.23 589.5,-98.2295 585,-103.23 585,-98.2296 585,-98.2296 585,-98.2296 585,-103.23 580.5,-98.2296 585,-108.23 585,-108.23"/>
</g>
<!-- TemplateInvoicedItem -->
<g id="node10" class="node"><title>TemplateInvoicedItem</title>
<polyline fill="none" stroke="black" points="1007.5,-739 1150.5,-739 "/>
<path fill="none" stroke="black" d="M1150.5,-739C1156.5,-739 1162.5,-745 1162.5,-751"/>
<polyline fill="none" stroke="black" points="1162.5,-751 1162.5,-869 "/>
<path fill="none" stroke="black" d="M1162.5,-869C1162.5,-875 1156.5,-881 1150.5,-881"/>
<polyline fill="none" stroke="black" points="1150.5,-881 1007.5,-881 "/>
<path fill="none" stroke="black" d="M1007.5,-881C1001.5,-881 995.5,-875 995.5,-869"/>
<polyline fill="none" stroke="black" points="995.5,-869 995.5,-751 "/>
<path fill="none" stroke="black" d="M995.5,-751C995.5,-745 1001.5,-739 1007.5,-739"/>
<text text-anchor="middle" x="1079" y="-864.4" font-family="Times Roman,serif" font-size="14.00">TemplateInvoicedItem</text>
<polyline fill="none" stroke="black" points="995.5,-855 1162.5,-855 "/>
<text text-anchor="start" x="1003.5" y="-838.4" font-family="Times Roman,serif" font-size="14.00">pos :integer</text>
<text text-anchor="start" x="1003.5" y="-820.4" font-family="Times Roman,serif" font-size="14.00">name :string</text>
<text text-anchor="start" x="1003.5" y="-802.4" font-family="Times Roman,serif" font-size="14.00">kind :integer</text>
<text text-anchor="start" x="1003.5" y="-784.4" font-family="Times Roman,serif" font-size="14.00">price :decimal</text>
<text text-anchor="start" x="1003.5" y="-766.4" font-family="Times Roman,serif" font-size="14.00">created_at :datetime</text>
<text text-anchor="start" x="1003.5" y="-748.4" font-family="Times Roman,serif" font-size="14.00">updated_at :datetime</text>
</g>
<!-- Crentite -->
<g id="node11" class="node"><title>Crentite</title>
<polyline fill="none" stroke="black" points="279.5,-766 420.5,-766 "/>
<path fill="none" stroke="black" d="M420.5,-766C426.5,-766 432.5,-772 432.5,-778"/>
<polyline fill="none" stroke="black" points="432.5,-778 432.5,-842 "/>
<path fill="none" stroke="black" d="M432.5,-842C432.5,-848 426.5,-854 420.5,-854"/>
<polyline fill="none" stroke="black" points="420.5,-854 279.5,-854 "/>
<path fill="none" stroke="black" d="M279.5,-854C273.5,-854 267.5,-848 267.5,-842"/>
<polyline fill="none" stroke="black" points="267.5,-842 267.5,-778 "/>
<path fill="none" stroke="black" d="M267.5,-778C267.5,-772 273.5,-766 279.5,-766"/>
<text text-anchor="middle" x="350" y="-837.4" font-family="Times Roman,serif" font-size="14.00">Crentite</text>
<polyline fill="none" stroke="black" points="267.5,-828 432.5,-828 "/>
<text text-anchor="start" x="275.5" y="-811.4" font-family="Times Roman,serif" font-size="14.00">name :string</text>
<text text-anchor="start" x="275.5" y="-793.4" font-family="Times Roman,serif" font-size="14.00">created_at :datetime</text>
<text text-anchor="start" x="275.5" y="-775.4" font-family="Times Roman,serif" font-size="14.00">updated_at :datetime</text>
</g>
<!-- Crentite&#45;&gt;Refac -->
<g id="edge22" class="edge"><title>Crentite&#45;&gt;Refac</title>
<path fill="none" stroke="#9da03f" d="M359.858,-757.74C373.156,-687.241 396.817,-561.805 411.093,-486.122"/>
<ellipse fill="none" stroke="#9da03f" cx="359.044" cy="-762.052" rx="4.00001" ry="4.00001"/>
<polygon fill="#9da03f" stroke="#9da03f" points="411.104,-486.066 417.38,-477.073 412.031,-481.152 412.958,-476.239 412.958,-476.239 412.958,-476.239 412.031,-481.152 408.536,-475.405 411.104,-486.066 411.104,-486.066"/>
</g>
<!-- Crentite&#45;&gt;Disposer -->
<g id="edge18" class="edge"><title>Crentite&#45;&gt;Disposer</title>
<path fill="none" stroke="#11fd65" d="M335.696,-757.763C314.105,-669.22 280.84,-485.32 332,-342 367.403,-242.821 455.698,-156.218 517.975,-104.535"/>
<ellipse fill="none" stroke="#11fd65" cx="336.719" cy="-761.891" rx="4.00001" ry="4.00001"/>
<polygon fill="#11fd65" stroke="#11fd65" points="518.087,-104.443 528.672,-101.575 521.952,-101.27 525.816,-98.0974 525.816,-98.0974 525.816,-98.0974 521.952,-101.27 522.961,-94.6194 518.087,-104.443 518.087,-104.443"/>
</g>
<!-- Crentite&#45;&gt;Event -->
<g id="edge20" class="edge"><title>Crentite&#45;&gt;Event</title>
<path fill="none" stroke="#6a37f2" d="M413.101,-759.418C422.399,-752.156 431.907,-744.834 441,-738 470.9,-715.527 504.439,-691.413 533.358,-670.949"/>
<polygon fill="#6a37f2" stroke="#6a37f2" points="412.868,-759.6 402.222,-762.229 408.934,-762.685 404.999,-765.77 404.999,-765.77 404.999,-765.77 408.934,-762.685 407.776,-769.311 412.868,-759.6 412.868,-759.6"/>
<polygon fill="#6a37f2" stroke="#6a37f2" points="533.612,-670.771 544.376,-668.677 537.696,-667.886 541.78,-665.001 541.78,-665.001 541.78,-665.001 537.696,-667.886 539.183,-661.326 533.612,-670.771 533.612,-670.771"/>
</g>
<!-- Nositem -->
<g id="node12" class="node"><title>Nositem</title>
<polyline fill="none" stroke="black" points="825.5,-541 966.5,-541 "/>
<path fill="none" stroke="black" d="M966.5,-541C972.5,-541 978.5,-547 978.5,-553"/>
<polyline fill="none" stroke="black" points="978.5,-553 978.5,-689 "/>
<path fill="none" stroke="black" d="M978.5,-689C978.5,-695 972.5,-701 966.5,-701"/>
<polyline fill="none" stroke="black" points="966.5,-701 825.5,-701 "/>
<path fill="none" stroke="black" d="M825.5,-701C819.5,-701 813.5,-695 813.5,-689"/>
<polyline fill="none" stroke="black" points="813.5,-689 813.5,-553 "/>
<path fill="none" stroke="black" d="M813.5,-553C813.5,-547 819.5,-541 825.5,-541"/>
<text text-anchor="middle" x="896" y="-684.4" font-family="Times Roman,serif" font-size="14.00">Nositem</text>
<polyline fill="none" stroke="black" points="813.5,-675 978.5,-675 "/>
<text text-anchor="start" x="821.5" y="-658.4" font-family="Times Roman,serif" font-size="14.00">pos :integer</text>
<text text-anchor="start" x="821.5" y="-640.4" font-family="Times Roman,serif" font-size="14.00">name :string</text>
<text text-anchor="start" x="821.5" y="-622.4" font-family="Times Roman,serif" font-size="14.00">qty :decimal</text>
<text text-anchor="start" x="821.5" y="-604.4" font-family="Times Roman,serif" font-size="14.00">price :decimal</text>
<text text-anchor="start" x="821.5" y="-586.4" font-family="Times Roman,serif" font-size="14.00">kind :integer</text>
<text text-anchor="start" x="821.5" y="-568.4" font-family="Times Roman,serif" font-size="14.00">created_at :datetime</text>
<text text-anchor="start" x="821.5" y="-550.4" font-family="Times Roman,serif" font-size="14.00">updated_at :datetime</text>
</g>
<!-- Invoice -->
<g id="node13" class="node"><title>Invoice</title>
<polyline fill="none" stroke="black" points="825.5,-748 966.5,-748 "/>
<path fill="none" stroke="black" d="M966.5,-748C972.5,-748 978.5,-754 978.5,-760"/>
<polyline fill="none" stroke="black" points="978.5,-760 978.5,-860 "/>
<path fill="none" stroke="black" d="M978.5,-860C978.5,-866 972.5,-872 966.5,-872"/>
<polyline fill="none" stroke="black" points="966.5,-872 825.5,-872 "/>
<path fill="none" stroke="black" d="M825.5,-872C819.5,-872 813.5,-866 813.5,-860"/>
<polyline fill="none" stroke="black" points="813.5,-860 813.5,-760 "/>
<path fill="none" stroke="black" d="M813.5,-760C813.5,-754 819.5,-748 825.5,-748"/>
<text text-anchor="middle" x="896" y="-855.4" font-family="Times Roman,serif" font-size="14.00">Invoice</text>
<polyline fill="none" stroke="black" points="813.5,-846 978.5,-846 "/>
<text text-anchor="start" x="821.5" y="-829.4" font-family="Times Roman,serif" font-size="14.00">number :string</text>
<text text-anchor="start" x="821.5" y="-811.4" font-family="Times Roman,serif" font-size="14.00">customer_data :text</text>
<text text-anchor="start" x="821.5" y="-793.4" font-family="Times Roman,serif" font-size="14.00">sent_at :date</text>
<text text-anchor="start" x="821.5" y="-775.4" font-family="Times Roman,serif" font-size="14.00">created_at :datetime</text>
<text text-anchor="start" x="821.5" y="-757.4" font-family="Times Roman,serif" font-size="14.00">updated_at :datetime</text>
</g>
<!-- Invoice&#45;&gt;Nositem -->
<g id="edge26" class="edge"><title>Invoice&#45;&gt;Nositem</title>
<path fill="none" stroke="#529992" d="M896,-739.682C896,-730.441 896,-720.869 896,-711.354"/>
<ellipse fill="none" stroke="#529992" cx="896" cy="-743.853" rx="4" ry="4"/>
<polygon fill="#529992" stroke="#529992" points="896,-711.069 900.5,-701.069 896,-706.069 896,-701.069 896,-701.069 896,-701.069 896,-706.069 891.5,-701.069 896,-711.069 896,-711.069"/>
</g>
<!-- Invoice&#45;&gt;Event -->
<g id="edge24" class="edge"><title>Invoice&#45;&gt;Event</title>
<path fill="none" stroke="#9824d6" d="M812.472,-743.2C809.968,-741.427 807.474,-739.69 805,-738 770.092,-714.152 730.139,-690.167 695.167,-670.175"/>
<ellipse fill="none" stroke="#9824d6" cx="815.862" cy="-745.634" rx="4.00002" ry="4.00002"/>
<polygon fill="#9824d6" stroke="#9824d6" points="695.081,-670.127 688.614,-661.27 690.735,-667.654 686.389,-665.182 686.389,-665.182 686.389,-665.182 690.735,-667.654 684.164,-669.093 695.081,-670.127 695.081,-670.127"/>
</g>
<!-- Event&#45;&gt;Refac -->
<g id="edge32" class="edge"><title>Event&#45;&gt;Refac</title>
<path fill="none" stroke="#138185" d="M558.595,-570.515C534.316,-544.102 504.411,-511.568 478.869,-483.78"/>
<ellipse fill="none" stroke="#138185" cx="561.449" cy="-573.62" rx="4.00002" ry="4.00002"/>
<polygon fill="#138185" stroke="#138185" points="478.556,-483.44 475.102,-473.032 475.172,-479.759 471.789,-476.078 471.789,-476.078 471.789,-476.078 475.172,-479.759 468.476,-479.123 478.556,-483.44 478.556,-483.44"/>
</g>
<!-- Event&#45;&gt;Evitem -->
<g id="edge30" class="edge"><title>Event&#45;&gt;Evitem</title>
<path fill="none" stroke="#88e9ea" d="M605,-568.484C605,-551.504 605,-532.163 605,-513.252"/>
<ellipse fill="none" stroke="#88e9ea" cx="605" cy="-572.565" rx="4" ry="4"/>
<polygon fill="#88e9ea" stroke="#88e9ea" points="605,-513.113 609.5,-503.113 605,-508.113 605,-503.113 605,-503.113 605,-503.113 605,-508.113 600.5,-503.113 605,-513.113 605,-513.113"/>
</g>
<!-- Event&#45;&gt;Service -->
<g id="edge28" class="edge"><title>Event&#45;&gt;Service</title>
<path fill="none" stroke="#465862" d="M651.574,-570.608C668.446,-552.353 688.028,-531.166 707,-510.639"/>
<ellipse fill="none" stroke="#465862" cx="648.784" cy="-573.627" rx="4.00002" ry="4.00002"/>
<polygon fill="#465862" stroke="#465862" points="707.169,-510.457 717.261,-506.167 710.563,-506.785 713.956,-503.113 713.956,-503.113 713.956,-503.113 710.563,-506.785 710.652,-500.058 707.169,-510.457 707.169,-510.457"/>
</g>
<!-- Volo&#45;&gt;Servolo -->
<g id="edge34" class="edge"><title>Volo&#45;&gt;Servolo</title>
<path fill="none" stroke="#d48881" d="M979.721,-164.979C967.614,-148.93 954.513,-131.564 942.35,-115.44"/>
<ellipse fill="none" stroke="#d48881" cx="982.482" cy="-168.639" rx="4.00002" ry="4.00002"/>
<polygon fill="#d48881" stroke="#d48881" points="942.107,-115.118 939.677,-104.425 939.096,-111.127 936.084,-107.135 936.084,-107.135 936.084,-107.135 939.096,-111.127 932.492,-109.845 942.107,-115.118 942.107,-115.118"/>
</g>
</g>
</svg>
