<?xml version="1.0" encoding="UTF-8" standalone="no"?>
<!DOCTYPE svg PUBLIC "-//W3C//DTD SVG 1.1//EN"
 "http://www.w3.org/Graphics/SVG/1.1/DTD/svg11.dtd">
<!-- Generated by graphviz version 2.26.3 (20100126.1600)
 -->
<!-- Title: models_diagram Pages: 1 -->
<svg width="1170pt" height="818pt"
 viewBox="0.00 0.00 1170.00 818.00" xmlns="http://www.w3.org/2000/svg" xmlns:xlink="http://www.w3.org/1999/xlink">
<g id="graph1" class="graph" transform="scale(1 1) rotate(0) translate(4 814)">
<title>models_diagram</title>
<polygon fill="white" stroke="white" points="-4,5 -4,-814 1167,-814 1167,5 -4,5"/>
<!-- _diagram_info -->
<g id="node1" class="node"><title>_diagram_info</title>
<text text-anchor="start" x="8" y="-768.8" font-family="Times Roman,serif" font-size="13.00">Models diagram</text>
<text text-anchor="start" x="8" y="-751.8" font-family="Times Roman,serif" font-size="13.00">Date: Jun 17 2012 &#45; 03:26</text>
<text text-anchor="start" x="8" y="-734.8" font-family="Times Roman,serif" font-size="13.00">Migration version: 20120617002314</text>
<text text-anchor="start" x="8" y="-717.8" font-family="Times Roman,serif" font-size="13.00">Generated by RailRoady 1.0.7</text>
<text text-anchor="start" x="8" y="-700.8" font-family="Times Roman,serif" font-size="13.00">http://railroady.prestonlee.com</text>
</g>
<!-- Servolo -->
<g id="node2" class="node"><title>Servolo</title>
<polyline fill="none" stroke="black" points="787.5,-1 928.5,-1 "/>
<path fill="none" stroke="black" d="M928.5,-1C934.5,-1 940.5,-7 940.5,-13"/>
<polyline fill="none" stroke="black" points="940.5,-13 940.5,-95 "/>
<path fill="none" stroke="black" d="M940.5,-95C940.5,-101 934.5,-107 928.5,-107"/>
<polyline fill="none" stroke="black" points="928.5,-107 787.5,-107 "/>
<path fill="none" stroke="black" d="M787.5,-107C781.5,-107 775.5,-101 775.5,-95"/>
<polyline fill="none" stroke="black" points="775.5,-95 775.5,-13 "/>
<path fill="none" stroke="black" d="M775.5,-13C775.5,-7 781.5,-1 787.5,-1"/>
<text text-anchor="middle" x="858" y="-90.4" font-family="Times Roman,serif" font-size="14.00">Servolo</text>
<polyline fill="none" stroke="black" points="775.5,-81 940.5,-81 "/>
<text text-anchor="start" x="783.5" y="-64.4" font-family="Times Roman,serif" font-size="14.00">created_at :datetime</text>
<text text-anchor="start" x="783.5" y="-46.4" font-family="Times Roman,serif" font-size="14.00">updated_at :datetime</text>
<text text-anchor="start" x="783.5" y="-28.4" font-family="Times Roman,serif" font-size="14.00">starts_at :timestamp</text>
<text text-anchor="start" x="783.5" y="-10.4" font-family="Times Roman,serif" font-size="14.00">ends_at :timestamp</text>
</g>
<!-- Refac -->
<g id="node3" class="node"><title>Refac</title>
<polyline fill="none" stroke="black" points="315.5,-370 456.5,-370 "/>
<path fill="none" stroke="black" d="M456.5,-370C462.5,-370 468.5,-376 468.5,-382"/>
<polyline fill="none" stroke="black" points="468.5,-382 468.5,-464 "/>
<path fill="none" stroke="black" d="M468.5,-464C468.5,-470 462.5,-476 456.5,-476"/>
<polyline fill="none" stroke="black" points="456.5,-476 315.5,-476 "/>
<path fill="none" stroke="black" d="M315.5,-476C309.5,-476 303.5,-470 303.5,-464"/>
<polyline fill="none" stroke="black" points="303.5,-464 303.5,-382 "/>
<path fill="none" stroke="black" d="M303.5,-382C303.5,-376 309.5,-370 315.5,-370"/>
<text text-anchor="middle" x="386" y="-459.4" font-family="Times Roman,serif" font-size="14.00">Refac</text>
<polyline fill="none" stroke="black" points="303.5,-450 468.5,-450 "/>
<text text-anchor="start" x="311.5" y="-433.4" font-family="Times Roman,serif" font-size="14.00">kind :integer</text>
<text text-anchor="start" x="311.5" y="-415.4" font-family="Times Roman,serif" font-size="14.00">price :decimal</text>
<text text-anchor="start" x="311.5" y="-397.4" font-family="Times Roman,serif" font-size="14.00">created_at :datetime</text>
<text text-anchor="start" x="311.5" y="-379.4" font-family="Times Roman,serif" font-size="14.00">updated_at :datetime</text>
</g>
<!-- Evitem -->
<g id="node4" class="node"><title>Evitem</title>
<polyline fill="none" stroke="black" points="497.5,-343 638.5,-343 "/>
<path fill="none" stroke="black" d="M638.5,-343C644.5,-343 650.5,-349 650.5,-355"/>
<polyline fill="none" stroke="black" points="650.5,-355 650.5,-491 "/>
<path fill="none" stroke="black" d="M650.5,-491C650.5,-497 644.5,-503 638.5,-503"/>
<polyline fill="none" stroke="black" points="638.5,-503 497.5,-503 "/>
<path fill="none" stroke="black" d="M497.5,-503C491.5,-503 485.5,-497 485.5,-491"/>
<polyline fill="none" stroke="black" points="485.5,-491 485.5,-355 "/>
<path fill="none" stroke="black" d="M485.5,-355C485.5,-349 491.5,-343 497.5,-343"/>
<text text-anchor="middle" x="568" y="-486.4" font-family="Times Roman,serif" font-size="14.00">Evitem</text>
<polyline fill="none" stroke="black" points="485.5,-477 650.5,-477 "/>
<text text-anchor="start" x="493.5" y="-460.4" font-family="Times Roman,serif" font-size="14.00">pos :integer</text>
<text text-anchor="start" x="493.5" y="-442.4" font-family="Times Roman,serif" font-size="14.00">name :string</text>
<text text-anchor="start" x="493.5" y="-424.4" font-family="Times Roman,serif" font-size="14.00">qty :decimal</text>
<text text-anchor="start" x="493.5" y="-406.4" font-family="Times Roman,serif" font-size="14.00">price :decimal</text>
<text text-anchor="start" x="493.5" y="-388.4" font-family="Times Roman,serif" font-size="14.00">kind :integer</text>
<text text-anchor="start" x="493.5" y="-370.4" font-family="Times Roman,serif" font-size="14.00">created_at :datetime</text>
<text text-anchor="start" x="493.5" y="-352.4" font-family="Times Roman,serif" font-size="14.00">updated_at :datetime</text>
</g>
<!-- Customer -->
<g id="node5" class="node"><title>Customer</title>
<polyline fill="none" stroke="black" points="825.5,-694 966.5,-694 "/>
<path fill="none" stroke="black" d="M966.5,-694C972.5,-694 978.5,-700 978.5,-706"/>
<polyline fill="none" stroke="black" points="978.5,-706 978.5,-770 "/>
<path fill="none" stroke="black" d="M978.5,-770C978.5,-776 972.5,-782 966.5,-782"/>
<polyline fill="none" stroke="black" points="966.5,-782 825.5,-782 "/>
<path fill="none" stroke="black" d="M825.5,-782C819.5,-782 813.5,-776 813.5,-770"/>
<polyline fill="none" stroke="black" points="813.5,-770 813.5,-706 "/>
<path fill="none" stroke="black" d="M813.5,-706C813.5,-700 819.5,-694 825.5,-694"/>
<text text-anchor="middle" x="896" y="-765.4" font-family="Times Roman,serif" font-size="14.00">Customer</text>
<polyline fill="none" stroke="black" points="813.5,-756 978.5,-756 "/>
<text text-anchor="start" x="821.5" y="-739.4" font-family="Times Roman,serif" font-size="14.00">data :text</text>
<text text-anchor="start" x="821.5" y="-721.4" font-family="Times Roman,serif" font-size="14.00">created_at :datetime</text>
<text text-anchor="start" x="821.5" y="-703.4" font-family="Times Roman,serif" font-size="14.00">updated_at :datetime</text>
</g>
<!-- Event -->
<g id="node13" class="node"><title>Event</title>
<polyline fill="none" stroke="black" points="497.5,-541 638.5,-541 "/>
<path fill="none" stroke="black" d="M638.5,-541C644.5,-541 650.5,-547 650.5,-553"/>
<polyline fill="none" stroke="black" points="650.5,-553 650.5,-617 "/>
<path fill="none" stroke="black" d="M650.5,-617C650.5,-623 644.5,-629 638.5,-629"/>
<polyline fill="none" stroke="black" points="638.5,-629 497.5,-629 "/>
<path fill="none" stroke="black" d="M497.5,-629C491.5,-629 485.5,-623 485.5,-617"/>
<polyline fill="none" stroke="black" points="485.5,-617 485.5,-553 "/>
<path fill="none" stroke="black" d="M485.5,-553C485.5,-547 491.5,-541 497.5,-541"/>
<text text-anchor="middle" x="568" y="-612.4" font-family="Times Roman,serif" font-size="14.00">Event</text>
<polyline fill="none" stroke="black" points="485.5,-603 650.5,-603 "/>
<text text-anchor="start" x="493.5" y="-586.4" font-family="Times Roman,serif" font-size="14.00">name :string</text>
<text text-anchor="start" x="493.5" y="-568.4" font-family="Times Roman,serif" font-size="14.00">created_at :datetime</text>
<text text-anchor="start" x="493.5" y="-550.4" font-family="Times Roman,serif" font-size="14.00">updated_at :datetime</text>
</g>
<!-- Customer&#45;&gt;Event -->
<g id="edge2" class="edge"><title>Customer&#45;&gt;Event</title>
<path fill="none" stroke="#54cd6b" d="M839.751,-688.736C828.685,-680.445 816.827,-672.451 805,-666 759.745,-641.316 705.579,-622.123 660.46,-608.629"/>
<ellipse fill="none" stroke="#54cd6b" cx="842.991" cy="-691.213" rx="4.00002" ry="4.00002"/>
<polygon fill="#54cd6b" stroke="#54cd6b" points="660.275,-608.575 651.952,-601.434 655.478,-607.163 650.682,-605.751 650.682,-605.751 650.682,-605.751 655.478,-607.163 649.411,-610.068 660.275,-608.575 660.275,-608.575"/>
</g>
<!-- Service -->
<g id="node6" class="node"><title>Service</title>
<polyline fill="none" stroke="black" points="679.5,-370 820.5,-370 "/>
<path fill="none" stroke="black" d="M820.5,-370C826.5,-370 832.5,-376 832.5,-382"/>
<polyline fill="none" stroke="black" points="832.5,-382 832.5,-464 "/>
<path fill="none" stroke="black" d="M832.5,-464C832.5,-470 826.5,-476 820.5,-476"/>
<polyline fill="none" stroke="black" points="820.5,-476 679.5,-476 "/>
<path fill="none" stroke="black" d="M679.5,-476C673.5,-476 667.5,-470 667.5,-464"/>
<polyline fill="none" stroke="black" points="667.5,-464 667.5,-382 "/>
<path fill="none" stroke="black" d="M667.5,-382C667.5,-376 673.5,-370 679.5,-370"/>
<text text-anchor="middle" x="750" y="-459.4" font-family="Times Roman,serif" font-size="14.00">Service</text>
<polyline fill="none" stroke="black" points="667.5,-450 832.5,-450 "/>
<text text-anchor="start" x="675.5" y="-433.4" font-family="Times Roman,serif" font-size="14.00">starts_at :datetime</text>
<text text-anchor="start" x="675.5" y="-415.4" font-family="Times Roman,serif" font-size="14.00">ends_at :datetime</text>
<text text-anchor="start" x="675.5" y="-397.4" font-family="Times Roman,serif" font-size="14.00">created_at :datetime</text>
<text text-anchor="start" x="675.5" y="-379.4" font-family="Times Roman,serif" font-size="14.00">updated_at :datetime</text>
</g>
<!-- Service&#45;&gt;Servolo -->
<g id="edge8" class="edge"><title>Service&#45;&gt;Servolo</title>
<path fill="none" stroke="#e82965" d="M722.037,-362.023C699.253,-302.67 676.444,-211.761 714,-144 725.996,-122.357 745.605,-105.231 766.547,-91.9869"/>
<ellipse fill="none" stroke="#e82965" cx="723.638" cy="-366.099" rx="4.00001" ry="4.00001"/>
<polygon fill="#e82965" stroke="#e82965" points="766.698,-91.8957 777.585,-90.5858 770.98,-89.3139 775.262,-86.7321 775.262,-86.7321 775.262,-86.7321 770.98,-89.3139 772.938,-82.8784 766.698,-91.8957 766.698,-91.8957"/>
</g>
<!-- Disposer -->
<g id="node7" class="node"><title>Disposer</title>
<polyline fill="none" stroke="black" points="476.5,-10 617.5,-10 "/>
<path fill="none" stroke="black" d="M617.5,-10C623.5,-10 629.5,-16 629.5,-22"/>
<polyline fill="none" stroke="black" points="629.5,-22 629.5,-86 "/>
<path fill="none" stroke="black" d="M629.5,-86C629.5,-92 623.5,-98 617.5,-98"/>
<polyline fill="none" stroke="black" points="617.5,-98 476.5,-98 "/>
<path fill="none" stroke="black" d="M476.5,-98C470.5,-98 464.5,-92 464.5,-86"/>
<polyline fill="none" stroke="black" points="464.5,-86 464.5,-22 "/>
<path fill="none" stroke="black" d="M464.5,-22C464.5,-16 470.5,-10 476.5,-10"/>
<text text-anchor="middle" x="547" y="-81.4" font-family="Times Roman,serif" font-size="14.00">Disposer</text>
<polyline fill="none" stroke="black" points="464.5,-72 629.5,-72 "/>
<text text-anchor="start" x="472.5" y="-55.4" font-family="Times Roman,serif" font-size="14.00">quantity :integer</text>
<text text-anchor="start" x="472.5" y="-37.4" font-family="Times Roman,serif" font-size="14.00">created_at :datetime</text>
<text text-anchor="start" x="472.5" y="-19.4" font-family="Times Roman,serif" font-size="14.00">updated_at :datetime</text>
</g>
<!-- Service&#45;&gt;Disposer -->
<g id="edge12" class="edge"><title>Service&#45;&gt;Disposer</title>
<path fill="none" stroke="#c2dd83" d="M716.569,-362.445C707.344,-344.551 697.75,-324.734 690,-306 661.095,-236.124 677.574,-208.436 638,-144 629.622,-130.358 618.752,-117.267 607.456,-105.496"/>
<ellipse fill="none" stroke="#c2dd83" cx="718.648" cy="-366.439" rx="4.00002" ry="4.00002"/>
<polygon fill="#c2dd83" stroke="#c2dd83" points="607.417,-105.456 603.587,-95.181 603.902,-101.9 600.387,-98.3446 600.387,-98.3446 600.387,-98.3446 603.902,-101.9 597.186,-101.508 607.417,-105.456 607.417,-105.456"/>
</g>
<!-- Dispositif -->
<g id="node9" class="node"><title>Dispositif</title>
<polyline fill="none" stroke="black" points="476.5,-172 617.5,-172 "/>
<path fill="none" stroke="black" d="M617.5,-172C623.5,-172 629.5,-178 629.5,-184"/>
<polyline fill="none" stroke="black" points="629.5,-184 629.5,-266 "/>
<path fill="none" stroke="black" d="M629.5,-266C629.5,-272 623.5,-278 617.5,-278"/>
<polyline fill="none" stroke="black" points="617.5,-278 476.5,-278 "/>
<path fill="none" stroke="black" d="M476.5,-278C470.5,-278 464.5,-272 464.5,-266"/>
<polyline fill="none" stroke="black" points="464.5,-266 464.5,-184 "/>
<path fill="none" stroke="black" d="M464.5,-184C464.5,-178 470.5,-172 476.5,-172"/>
<text text-anchor="middle" x="547" y="-261.4" font-family="Times Roman,serif" font-size="14.00">Dispositif</text>
<polyline fill="none" stroke="black" points="464.5,-252 629.5,-252 "/>
<text text-anchor="start" x="472.5" y="-235.4" font-family="Times Roman,serif" font-size="14.00">pos :integer</text>
<text text-anchor="start" x="472.5" y="-217.4" font-family="Times Roman,serif" font-size="14.00">name :string</text>
<text text-anchor="start" x="472.5" y="-199.4" font-family="Times Roman,serif" font-size="14.00">created_at :datetime</text>
<text text-anchor="start" x="472.5" y="-181.4" font-family="Times Roman,serif" font-size="14.00">updated_at :datetime</text>
</g>
<!-- Service&#45;&gt;Dispositif -->
<g id="edge10" class="edge"><title>Service&#45;&gt;Dispositif</title>
<path fill="none" stroke="#e2d99a" d="M688.305,-362.825C663.134,-338.273 634.082,-309.937 608.89,-285.366"/>
<polygon fill="#e2d99a" stroke="#e2d99a" points="688.441,-362.957 692.458,-373.161 692.02,-366.448 695.6,-369.94 695.6,-369.94 695.6,-369.94 692.02,-366.448 698.742,-366.718 688.441,-362.957 688.441,-362.957"/>
<polygon fill="#e2d99a" stroke="#e2d99a" points="608.709,-285.189 604.693,-274.985 605.13,-281.698 601.55,-278.207 601.55,-278.207 601.55,-278.207 605.13,-281.698 598.408,-281.428 608.709,-285.189 608.709,-285.189"/>
</g>
<!-- Volo -->
<g id="node14" class="node"><title>Volo</title>
<polyline fill="none" stroke="black" points="916.5,-172 1057.5,-172 "/>
<path fill="none" stroke="black" d="M1057.5,-172C1063.5,-172 1069.5,-178 1069.5,-184"/>
<polyline fill="none" stroke="black" points="1069.5,-184 1069.5,-266 "/>
<path fill="none" stroke="black" d="M1069.5,-266C1069.5,-272 1063.5,-278 1057.5,-278"/>
<polyline fill="none" stroke="black" points="1057.5,-278 916.5,-278 "/>
<path fill="none" stroke="black" d="M916.5,-278C910.5,-278 904.5,-272 904.5,-266"/>
<polyline fill="none" stroke="black" points="904.5,-266 904.5,-184 "/>
<path fill="none" stroke="black" d="M904.5,-184C904.5,-178 910.5,-172 916.5,-172"/>
<text text-anchor="middle" x="987" y="-261.4" font-family="Times Roman,serif" font-size="14.00">Volo</text>
<polyline fill="none" stroke="black" points="904.5,-252 1069.5,-252 "/>
<text text-anchor="start" x="912.5" y="-235.4" font-family="Times Roman,serif" font-size="14.00">first_name :string</text>
<text text-anchor="start" x="912.5" y="-217.4" font-family="Times Roman,serif" font-size="14.00">last_name :string</text>
<text text-anchor="start" x="912.5" y="-199.4" font-family="Times Roman,serif" font-size="14.00">created_at :datetime</text>
<text text-anchor="start" x="912.5" y="-181.4" font-family="Times Roman,serif" font-size="14.00">updated_at :datetime</text>
</g>
<!-- Service&#45;&gt;Volo -->
<g id="edge6" class="edge"><title>Service&#45;&gt;Volo</title>
<path fill="none" stroke="#2787e5" d="M825.784,-363.49C848.557,-345.281 873.471,-325.032 896,-306 904.041,-299.207 912.394,-291.995 920.635,-284.782"/>
<polygon fill="#2787e5" stroke="#2787e5" points="825.643,-363.603 815.019,-366.323 821.734,-366.722 817.826,-369.841 817.826,-369.841 817.826,-369.841 821.734,-366.722 820.633,-373.358 825.643,-363.603 825.643,-363.603"/>
<polygon fill="#2787e5" stroke="#2787e5" points="920.647,-284.771 931.129,-281.55 924.403,-281.471 928.159,-278.17 928.159,-278.17 928.159,-278.17 924.403,-281.471 925.188,-274.79 920.647,-284.771 920.647,-284.771"/>
</g>
<!-- Seritem -->
<g id="node15" class="node"><title>Seritem</title>
<polyline fill="none" stroke="black" points="734.5,-145 875.5,-145 "/>
<path fill="none" stroke="black" d="M875.5,-145C881.5,-145 887.5,-151 887.5,-157"/>
<polyline fill="none" stroke="black" points="887.5,-157 887.5,-293 "/>
<path fill="none" stroke="black" d="M887.5,-293C887.5,-299 881.5,-305 875.5,-305"/>
<polyline fill="none" stroke="black" points="875.5,-305 734.5,-305 "/>
<path fill="none" stroke="black" d="M734.5,-305C728.5,-305 722.5,-299 722.5,-293"/>
<polyline fill="none" stroke="black" points="722.5,-293 722.5,-157 "/>
<path fill="none" stroke="black" d="M722.5,-157C722.5,-151 728.5,-145 734.5,-145"/>
<text text-anchor="middle" x="805" y="-288.4" font-family="Times Roman,serif" font-size="14.00">Seritem</text>
<polyline fill="none" stroke="black" points="722.5,-279 887.5,-279 "/>
<text text-anchor="start" x="730.5" y="-262.4" font-family="Times Roman,serif" font-size="14.00">pos :integer</text>
<text text-anchor="start" x="730.5" y="-244.4" font-family="Times Roman,serif" font-size="14.00">name :string</text>
<text text-anchor="start" x="730.5" y="-226.4" font-family="Times Roman,serif" font-size="14.00">qty :decimal</text>
<text text-anchor="start" x="730.5" y="-208.4" font-family="Times Roman,serif" font-size="14.00">price :decimal</text>
<text text-anchor="start" x="730.5" y="-190.4" font-family="Times Roman,serif" font-size="14.00">kind :integer</text>
<text text-anchor="start" x="730.5" y="-172.4" font-family="Times Roman,serif" font-size="14.00">created_at :datetime</text>
<text text-anchor="start" x="730.5" y="-154.4" font-family="Times Roman,serif" font-size="14.00">updated_at :datetime</text>
</g>
<!-- Service&#45;&gt;Seritem -->
<g id="edge4" class="edge"><title>Service&#45;&gt;Seritem</title>
<path fill="none" stroke="#5a0017" d="M766.989,-361.84C771.118,-346.973 775.62,-330.767 780.034,-314.877"/>
<ellipse fill="none" stroke="#5a0017" cx="765.81" cy="-366.086" rx="4.00001" ry="4.00001"/>
<polygon fill="#5a0017" stroke="#5a0017" points="780.09,-314.674 787.103,-306.244 781.429,-309.857 782.767,-305.039 782.767,-305.039 782.767,-305.039 781.429,-309.857 778.431,-303.835 780.09,-314.674 780.09,-314.674"/>
</g>
<!-- Category -->
<g id="node8" class="node"><title>Category</title>
<polyline fill="none" stroke="black" points="461.5,-685 602.5,-685 "/>
<path fill="none" stroke="black" d="M602.5,-685C608.5,-685 614.5,-691 614.5,-697"/>
<polyline fill="none" stroke="black" points="614.5,-697 614.5,-779 "/>
<path fill="none" stroke="black" d="M614.5,-779C614.5,-785 608.5,-791 602.5,-791"/>
<polyline fill="none" stroke="black" points="602.5,-791 461.5,-791 "/>
<path fill="none" stroke="black" d="M461.5,-791C455.5,-791 449.5,-785 449.5,-779"/>
<polyline fill="none" stroke="black" points="449.5,-779 449.5,-697 "/>
<path fill="none" stroke="black" d="M449.5,-697C449.5,-691 455.5,-685 461.5,-685"/>
<text text-anchor="middle" x="532" y="-774.4" font-family="Times Roman,serif" font-size="14.00">Category</text>
<polyline fill="none" stroke="black" points="449.5,-765 614.5,-765 "/>
<text text-anchor="start" x="457.5" y="-748.4" font-family="Times Roman,serif" font-size="14.00">name :string</text>
<text text-anchor="start" x="457.5" y="-730.4" font-family="Times Roman,serif" font-size="14.00">short_name :string</text>
<text text-anchor="start" x="457.5" y="-712.4" font-family="Times Roman,serif" font-size="14.00">created_at :datetime</text>
<text text-anchor="start" x="457.5" y="-694.4" font-family="Times Roman,serif" font-size="14.00">updated_at :datetime</text>
</g>
<!-- Category&#45;&gt;Event -->
<g id="edge14" class="edge"><title>Category&#45;&gt;Event</title>
<path fill="none" stroke="#30efc2" d="M546.416,-676.733C549.327,-664.36 552.369,-651.432 555.22,-639.317"/>
<ellipse fill="none" stroke="#30efc2" cx="545.406" cy="-681.024" rx="4.00001" ry="4.00001"/>
<polygon fill="#30efc2" stroke="#30efc2" points="555.272,-639.096 561.942,-630.392 556.417,-634.229 557.562,-629.361 557.562,-629.361 557.562,-629.361 556.417,-634.229 553.182,-628.331 555.272,-639.096 555.272,-639.096"/>
</g>
<!-- Dispositif&#45;&gt;Disposer -->
<g id="edge16" class="edge"><title>Dispositif&#45;&gt;Disposer</title>
<path fill="none" stroke="#918df7" d="M547,-163.666C547,-145.588 547,-125.939 547,-108.332"/>
<ellipse fill="none" stroke="#918df7" cx="547" cy="-167.832" rx="4" ry="4"/>
<polygon fill="#918df7" stroke="#918df7" points="547,-108.23 551.5,-98.2295 547,-103.23 547,-98.2296 547,-98.2296 547,-98.2296 547,-103.23 542.5,-98.2296 547,-108.23 547,-108.23"/>
</g>
<!-- TemplateInvoicedItem -->
<g id="node10" class="node"><title>TemplateInvoicedItem</title>
<polyline fill="none" stroke="black" points="1007.5,-667 1150.5,-667 "/>
<path fill="none" stroke="black" d="M1150.5,-667C1156.5,-667 1162.5,-673 1162.5,-679"/>
<polyline fill="none" stroke="black" points="1162.5,-679 1162.5,-797 "/>
<path fill="none" stroke="black" d="M1162.5,-797C1162.5,-803 1156.5,-809 1150.5,-809"/>
<polyline fill="none" stroke="black" points="1150.5,-809 1007.5,-809 "/>
<path fill="none" stroke="black" d="M1007.5,-809C1001.5,-809 995.5,-803 995.5,-797"/>
<polyline fill="none" stroke="black" points="995.5,-797 995.5,-679 "/>
<path fill="none" stroke="black" d="M995.5,-679C995.5,-673 1001.5,-667 1007.5,-667"/>
<text text-anchor="middle" x="1079" y="-792.4" font-family="Times Roman,serif" font-size="14.00">TemplateInvoicedItem</text>
<polyline fill="none" stroke="black" points="995.5,-783 1162.5,-783 "/>
<text text-anchor="start" x="1003.5" y="-766.4" font-family="Times Roman,serif" font-size="14.00">pos :integer</text>
<text text-anchor="start" x="1003.5" y="-748.4" font-family="Times Roman,serif" font-size="14.00">name :string</text>
<text text-anchor="start" x="1003.5" y="-730.4" font-family="Times Roman,serif" font-size="14.00">kind :integer</text>
<text text-anchor="start" x="1003.5" y="-712.4" font-family="Times Roman,serif" font-size="14.00">price :decimal</text>
<text text-anchor="start" x="1003.5" y="-694.4" font-family="Times Roman,serif" font-size="14.00">created_at :datetime</text>
<text text-anchor="start" x="1003.5" y="-676.4" font-family="Times Roman,serif" font-size="14.00">updated_at :datetime</text>
</g>
<!-- Crentite -->
<g id="node11" class="node"><title>Crentite</title>
<polyline fill="none" stroke="black" points="279.5,-694 420.5,-694 "/>
<path fill="none" stroke="black" d="M420.5,-694C426.5,-694 432.5,-700 432.5,-706"/>
<polyline fill="none" stroke="black" points="432.5,-706 432.5,-770 "/>
<path fill="none" stroke="black" d="M432.5,-770C432.5,-776 426.5,-782 420.5,-782"/>
<polyline fill="none" stroke="black" points="420.5,-782 279.5,-782 "/>
<path fill="none" stroke="black" d="M279.5,-782C273.5,-782 267.5,-776 267.5,-770"/>
<polyline fill="none" stroke="black" points="267.5,-770 267.5,-706 "/>
<path fill="none" stroke="black" d="M267.5,-706C267.5,-700 273.5,-694 279.5,-694"/>
<text text-anchor="middle" x="350" y="-765.4" font-family="Times Roman,serif" font-size="14.00">Crentite</text>
<polyline fill="none" stroke="black" points="267.5,-756 432.5,-756 "/>
<text text-anchor="start" x="275.5" y="-739.4" font-family="Times Roman,serif" font-size="14.00">name :string</text>
<text text-anchor="start" x="275.5" y="-721.4" font-family="Times Roman,serif" font-size="14.00">created_at :datetime</text>
<text text-anchor="start" x="275.5" y="-703.4" font-family="Times Roman,serif" font-size="14.00">updated_at :datetime</text>
</g>
<!-- Crentite&#45;&gt;Refac -->
<g id="edge22" class="edge"><title>Crentite&#45;&gt;Refac</title>
<path fill="none" stroke="#758a23" d="M355.952,-685.918C362.212,-631.149 372.064,-544.936 378.768,-486.284"/>
<ellipse fill="none" stroke="#758a23" cx="355.498" cy="-689.895" rx="4.00001" ry="4.00001"/>
<polygon fill="#758a23" stroke="#758a23" points="378.804,-485.966 384.41,-476.541 379.372,-480.998 379.939,-476.03 379.939,-476.03 379.939,-476.03 379.372,-480.998 375.468,-475.519 378.804,-485.966 378.804,-485.966"/>
</g>
<!-- Crentite&#45;&gt;Disposer -->
<g id="edge18" class="edge"><title>Crentite&#45;&gt;Disposer</title>
<path fill="none" stroke="#2503cf" d="M327.671,-686.164C297.748,-608.979 252.992,-460.247 295,-342 330.192,-242.938 418.155,-156.308 480.208,-104.587"/>
<ellipse fill="none" stroke="#2503cf" cx="329.233" cy="-690.137" rx="4.00001" ry="4.00001"/>
<polygon fill="#2503cf" stroke="#2503cf" points="480.307,-104.506 490.885,-101.616 484.164,-101.325 488.022,-98.1437 488.022,-98.1437 488.022,-98.1437 484.164,-101.325 485.159,-94.6718 480.307,-104.506 480.307,-104.506"/>
</g>
<!-- Crentite&#45;&gt;Event -->
<g id="edge20" class="edge"><title>Crentite&#45;&gt;Event</title>
<path fill="none" stroke="#53c8f1" d="M412.112,-687.5C421.667,-680.129 431.511,-672.753 441,-666 455.741,-655.508 471.791,-644.771 487.365,-634.688"/>
<polygon fill="#53c8f1" stroke="#53c8f1" points="412.062,-687.539 401.406,-690.125 408.115,-690.608 404.168,-693.678 404.168,-693.678 404.168,-693.678 408.115,-690.608 406.931,-697.23 412.062,-687.539 412.062,-687.539"/>
<polygon fill="#53c8f1" stroke="#53c8f1" points="487.547,-634.57 498.392,-632.943 491.752,-631.865 495.957,-629.159 495.957,-629.159 495.957,-629.159 491.752,-631.865 493.521,-625.375 487.547,-634.57 487.547,-634.57"/>
</g>
<!-- Invoice -->
<g id="node12" class="node"><title>Invoice</title>
<polyline fill="none" stroke="black" points="643.5,-676 784.5,-676 "/>
<path fill="none" stroke="black" d="M784.5,-676C790.5,-676 796.5,-682 796.5,-688"/>
<polyline fill="none" stroke="black" points="796.5,-688 796.5,-788 "/>
<path fill="none" stroke="black" d="M796.5,-788C796.5,-794 790.5,-800 784.5,-800"/>
<polyline fill="none" stroke="black" points="784.5,-800 643.5,-800 "/>
<path fill="none" stroke="black" d="M643.5,-800C637.5,-800 631.5,-794 631.5,-788"/>
<polyline fill="none" stroke="black" points="631.5,-788 631.5,-688 "/>
<path fill="none" stroke="black" d="M631.5,-688C631.5,-682 637.5,-676 643.5,-676"/>
<text text-anchor="middle" x="714" y="-783.4" font-family="Times Roman,serif" font-size="14.00">Invoice</text>
<polyline fill="none" stroke="black" points="631.5,-774 796.5,-774 "/>
<text text-anchor="start" x="639.5" y="-757.4" font-family="Times Roman,serif" font-size="14.00">number :string</text>
<text text-anchor="start" x="639.5" y="-739.4" font-family="Times Roman,serif" font-size="14.00">customer_data :text</text>
<text text-anchor="start" x="639.5" y="-721.4" font-family="Times Roman,serif" font-size="14.00">sent_at :date</text>
<text text-anchor="start" x="639.5" y="-703.4" font-family="Times Roman,serif" font-size="14.00">created_at :datetime</text>
<text text-anchor="start" x="639.5" y="-685.4" font-family="Times Roman,serif" font-size="14.00">updated_at :datetime</text>
</g>
<!-- Invoice&#45;&gt;Event -->
<g id="edge24" class="edge"><title>Invoice&#45;&gt;Event</title>
<path fill="none" stroke="#06f916" d="M649.019,-669.903C638.357,-658.731 627.465,-647.316 617.266,-636.628"/>
<ellipse fill="none" stroke="#06f916" cx="651.855" cy="-672.875" rx="4.00002" ry="4.00002"/>
<polygon fill="#06f916" stroke="#06f916" points="617.231,-636.591 613.583,-626.25 613.779,-632.974 610.327,-629.357 610.327,-629.357 610.327,-629.357 613.779,-632.974 607.072,-632.463 617.231,-636.591 617.231,-636.591"/>
</g>
<!-- Event&#45;&gt;Refac -->
<g id="edge30" class="edge"><title>Event&#45;&gt;Refac</title>
<path fill="none" stroke="#ee5b44" d="M512.128,-535.268C493.552,-518.733 472.668,-500.144 453.319,-482.921"/>
<ellipse fill="none" stroke="#ee5b44" cx="515.28" cy="-538.073" rx="4.00002" ry="4.00002"/>
<polygon fill="#ee5b44" stroke="#ee5b44" points="453.173,-482.792 448.696,-472.782 449.439,-479.467 445.704,-476.143 445.704,-476.143 445.704,-476.143 449.439,-479.467 442.712,-479.504 453.173,-482.792 453.173,-482.792"/>
</g>
<!-- Event&#45;&gt;Evitem -->
<g id="edge28" class="edge"><title>Event&#45;&gt;Evitem</title>
<path fill="none" stroke="#682124" d="M568,-532.589C568,-526.381 568,-519.916 568,-513.368"/>
<ellipse fill="none" stroke="#682124" cx="568" cy="-536.733" rx="4" ry="4"/>
<polygon fill="#682124" stroke="#682124" points="568,-513.036 572.5,-503.036 568,-508.036 568,-503.036 568,-503.036 568,-503.036 568,-508.036 563.5,-503.036 568,-513.036 568,-513.036"/>
</g>
<!-- Event&#45;&gt;Service -->
<g id="edge26" class="edge"><title>Event&#45;&gt;Service</title>
<path fill="none" stroke="#61549b" d="M623.872,-535.268C642.448,-518.733 663.332,-500.144 682.681,-482.921"/>
<ellipse fill="none" stroke="#61549b" cx="620.72" cy="-538.073" rx="4.00002" ry="4.00002"/>
<polygon fill="#61549b" stroke="#61549b" points="682.827,-482.792 693.288,-479.504 686.561,-479.467 690.296,-476.143 690.296,-476.143 690.296,-476.143 686.561,-479.467 687.304,-472.782 682.827,-482.792 682.827,-482.792"/>
</g>
<!-- Volo&#45;&gt;Servolo -->
<g id="edge32" class="edge"><title>Volo&#45;&gt;Servolo</title>
<path fill="none" stroke="#06d572" d="M941.721,-164.979C929.614,-148.93 916.513,-131.564 904.35,-115.44"/>
<ellipse fill="none" stroke="#06d572" cx="944.482" cy="-168.639" rx="4.00002" ry="4.00002"/>
<polygon fill="#06d572" stroke="#06d572" points="904.107,-115.118 901.677,-104.425 901.096,-111.127 898.084,-107.135 898.084,-107.135 898.084,-107.135 901.096,-111.127 894.492,-109.845 904.107,-115.118 904.107,-115.118"/>
</g>
</g>
</svg>
