<?xml version="1.0" encoding="UTF-8" standalone="no"?>
<!DOCTYPE svg PUBLIC "-//W3C//DTD SVG 1.1//EN"
 "http://www.w3.org/Graphics/SVG/1.1/DTD/svg11.dtd">
<!-- Generated by graphviz version 2.26.3 (20100126.1600)
 -->
<!-- Title: models_diagram Pages: 1 -->
<svg width="1744pt" height="1340pt"
 viewBox="0.00 0.00 1744.00 1340.00" xmlns="http://www.w3.org/2000/svg" xmlns:xlink="http://www.w3.org/1999/xlink">
<g id="graph1" class="graph" transform="scale(1 1) rotate(0) translate(4 1336)">
<title>models_diagram</title>
<polygon fill="white" stroke="white" points="-4,5 -4,-1336 1741,-1336 1741,5 -4,5"/>
<!-- _diagram_info -->
<g id="node1" class="node"><title>_diagram_info</title>
<text text-anchor="start" x="8" y="-1218.8" font-family="Times Roman,serif" font-size="13.00">Models diagram</text>
<text text-anchor="start" x="8" y="-1201.8" font-family="Times Roman,serif" font-size="13.00">Date: Sep 23 2012 &#45; 02:02</text>
<text text-anchor="start" x="8" y="-1184.8" font-family="Times Roman,serif" font-size="13.00">Migration version: 20120922153246</text>
<text text-anchor="start" x="8" y="-1167.8" font-family="Times Roman,serif" font-size="13.00">Generated by RailRoady 1.0.7</text>
<text text-anchor="start" x="8" y="-1150.8" font-family="Times Roman,serif" font-size="13.00">http://railroady.prestonlee.com</text>
</g>
<!-- User -->
<g id="node2" class="node"><title>User</title>
<polyline fill="none" stroke="black" points="279.5,-1045 458.5,-1045 "/>
<path fill="none" stroke="black" d="M458.5,-1045C464.5,-1045 470.5,-1051 470.5,-1057"/>
<polyline fill="none" stroke="black" points="470.5,-1057 470.5,-1319 "/>
<path fill="none" stroke="black" d="M470.5,-1319C470.5,-1325 464.5,-1331 458.5,-1331"/>
<polyline fill="none" stroke="black" points="458.5,-1331 279.5,-1331 "/>
<path fill="none" stroke="black" d="M279.5,-1331C273.5,-1331 267.5,-1325 267.5,-1319"/>
<polyline fill="none" stroke="black" points="267.5,-1319 267.5,-1057 "/>
<path fill="none" stroke="black" d="M267.5,-1057C267.5,-1051 273.5,-1045 279.5,-1045"/>
<text text-anchor="middle" x="369" y="-1314.4" font-family="Times Roman,serif" font-size="14.00">User</text>
<polyline fill="none" stroke="black" points="267.5,-1305 470.5,-1305 "/>
<text text-anchor="start" x="275.5" y="-1288.4" font-family="Times Roman,serif" font-size="14.00">login :string</text>
<text text-anchor="start" x="275.5" y="-1270.4" font-family="Times Roman,serif" font-size="14.00">email :string</text>
<text text-anchor="start" x="275.5" y="-1252.4" font-family="Times Roman,serif" font-size="14.00">crypted_password :string</text>
<text text-anchor="start" x="275.5" y="-1234.4" font-family="Times Roman,serif" font-size="14.00">password_salt :string</text>
<text text-anchor="start" x="275.5" y="-1216.4" font-family="Times Roman,serif" font-size="14.00">persistence_token :string</text>
<text text-anchor="start" x="275.5" y="-1198.4" font-family="Times Roman,serif" font-size="14.00">single_access_token :string</text>
<text text-anchor="start" x="275.5" y="-1180.4" font-family="Times Roman,serif" font-size="14.00">perishable_token :string</text>
<text text-anchor="start" x="275.5" y="-1162.4" font-family="Times Roman,serif" font-size="14.00">last_request_at :datetime</text>
<text text-anchor="start" x="275.5" y="-1144.4" font-family="Times Roman,serif" font-size="14.00">current_login_at :datetime</text>
<text text-anchor="start" x="275.5" y="-1126.4" font-family="Times Roman,serif" font-size="14.00">last_login_at :datetime</text>
<text text-anchor="start" x="275.5" y="-1108.4" font-family="Times Roman,serif" font-size="14.00">current_login_ip :string</text>
<text text-anchor="start" x="275.5" y="-1090.4" font-family="Times Roman,serif" font-size="14.00">last_login_ip :string</text>
<text text-anchor="start" x="275.5" y="-1072.4" font-family="Times Roman,serif" font-size="14.00">created_at :datetime</text>
<text text-anchor="start" x="275.5" y="-1054.4" font-family="Times Roman,serif" font-size="14.00">updated_at :datetime</text>
</g>
<!-- UserSession -->
<g id="node3" class="node"><title>UserSession</title>
<polygon fill="none" stroke="black" points="568,-901 568,-953 668,-953 668,-901 568,-901"/>
<text text-anchor="middle" x="618" y="-936.4" font-family="Times Roman,serif" font-size="14.00">UserSession</text>
<polyline fill="none" stroke="black" points="568,-927 668,-927 "/>
<text text-anchor="middle" x="618" y="-910.4" font-family="Times Roman,serif" font-size="14.00"> </text>
</g>
<!-- Servolo -->
<g id="node4" class="node"><title>Servolo</title>
<polyline fill="none" stroke="black" points="762.5,-1 903.5,-1 "/>
<path fill="none" stroke="black" d="M903.5,-1C909.5,-1 915.5,-7 915.5,-13"/>
<polyline fill="none" stroke="black" points="915.5,-13 915.5,-113 "/>
<path fill="none" stroke="black" d="M915.5,-113C915.5,-119 909.5,-125 903.5,-125"/>
<polyline fill="none" stroke="black" points="903.5,-125 762.5,-125 "/>
<path fill="none" stroke="black" d="M762.5,-125C756.5,-125 750.5,-119 750.5,-113"/>
<polyline fill="none" stroke="black" points="750.5,-113 750.5,-13 "/>
<path fill="none" stroke="black" d="M750.5,-13C750.5,-7 756.5,-1 762.5,-1"/>
<text text-anchor="middle" x="833" y="-108.4" font-family="Times Roman,serif" font-size="14.00">Servolo</text>
<polyline fill="none" stroke="black" points="750.5,-99 915.5,-99 "/>
<text text-anchor="start" x="758.5" y="-82.4" font-family="Times Roman,serif" font-size="14.00">created_at :datetime</text>
<text text-anchor="start" x="758.5" y="-64.4" font-family="Times Roman,serif" font-size="14.00">updated_at :datetime</text>
<text text-anchor="start" x="758.5" y="-46.4" font-family="Times Roman,serif" font-size="14.00">starts_at :timestamp</text>
<text text-anchor="start" x="758.5" y="-28.4" font-family="Times Roman,serif" font-size="14.00">ends_at :timestamp</text>
<text text-anchor="start" x="758.5" y="-10.4" font-family="Times Roman,serif" font-size="14.00">rendezvous :string</text>
</g>
<!-- Refac -->
<g id="node5" class="node"><title>Refac</title>
<polyline fill="none" stroke="black" points="887.5,-586 1028.5,-586 "/>
<path fill="none" stroke="black" d="M1028.5,-586C1034.5,-586 1040.5,-592 1040.5,-598"/>
<polyline fill="none" stroke="black" points="1040.5,-598 1040.5,-680 "/>
<path fill="none" stroke="black" d="M1040.5,-680C1040.5,-686 1034.5,-692 1028.5,-692"/>
<polyline fill="none" stroke="black" points="1028.5,-692 887.5,-692 "/>
<path fill="none" stroke="black" d="M887.5,-692C881.5,-692 875.5,-686 875.5,-680"/>
<polyline fill="none" stroke="black" points="875.5,-680 875.5,-598 "/>
<path fill="none" stroke="black" d="M875.5,-598C875.5,-592 881.5,-586 887.5,-586"/>
<text text-anchor="middle" x="958" y="-675.4" font-family="Times Roman,serif" font-size="14.00">Refac</text>
<polyline fill="none" stroke="black" points="875.5,-666 1040.5,-666 "/>
<text text-anchor="start" x="883.5" y="-649.4" font-family="Times Roman,serif" font-size="14.00">kind :integer</text>
<text text-anchor="start" x="883.5" y="-631.4" font-family="Times Roman,serif" font-size="14.00">price :decimal</text>
<text text-anchor="start" x="883.5" y="-613.4" font-family="Times Roman,serif" font-size="14.00">created_at :datetime</text>
<text text-anchor="start" x="883.5" y="-595.4" font-family="Times Roman,serif" font-size="14.00">updated_at :datetime</text>
</g>
<!-- Evitem -->
<g id="node6" class="node"><title>Evitem</title>
<polyline fill="none" stroke="black" points="1069.5,-559 1210.5,-559 "/>
<path fill="none" stroke="black" d="M1210.5,-559C1216.5,-559 1222.5,-565 1222.5,-571"/>
<polyline fill="none" stroke="black" points="1222.5,-571 1222.5,-707 "/>
<path fill="none" stroke="black" d="M1222.5,-707C1222.5,-713 1216.5,-719 1210.5,-719"/>
<polyline fill="none" stroke="black" points="1210.5,-719 1069.5,-719 "/>
<path fill="none" stroke="black" d="M1069.5,-719C1063.5,-719 1057.5,-713 1057.5,-707"/>
<polyline fill="none" stroke="black" points="1057.5,-707 1057.5,-571 "/>
<path fill="none" stroke="black" d="M1057.5,-571C1057.5,-565 1063.5,-559 1069.5,-559"/>
<text text-anchor="middle" x="1140" y="-702.4" font-family="Times Roman,serif" font-size="14.00">Evitem</text>
<polyline fill="none" stroke="black" points="1057.5,-693 1222.5,-693 "/>
<text text-anchor="start" x="1065.5" y="-676.4" font-family="Times Roman,serif" font-size="14.00">pos :integer</text>
<text text-anchor="start" x="1065.5" y="-658.4" font-family="Times Roman,serif" font-size="14.00">name :string</text>
<text text-anchor="start" x="1065.5" y="-640.4" font-family="Times Roman,serif" font-size="14.00">qty :decimal</text>
<text text-anchor="start" x="1065.5" y="-622.4" font-family="Times Roman,serif" font-size="14.00">price :decimal</text>
<text text-anchor="start" x="1065.5" y="-604.4" font-family="Times Roman,serif" font-size="14.00">kind :integer</text>
<text text-anchor="start" x="1065.5" y="-586.4" font-family="Times Roman,serif" font-size="14.00">created_at :datetime</text>
<text text-anchor="start" x="1065.5" y="-568.4" font-family="Times Roman,serif" font-size="14.00">updated_at :datetime</text>
</g>
<!-- Customer -->
<g id="node7" class="node"><title>Customer</title>
<polyline fill="none" stroke="black" points="959.5,-1144 1100.5,-1144 "/>
<path fill="none" stroke="black" d="M1100.5,-1144C1106.5,-1144 1112.5,-1150 1112.5,-1156"/>
<polyline fill="none" stroke="black" points="1112.5,-1156 1112.5,-1220 "/>
<path fill="none" stroke="black" d="M1112.5,-1220C1112.5,-1226 1106.5,-1232 1100.5,-1232"/>
<polyline fill="none" stroke="black" points="1100.5,-1232 959.5,-1232 "/>
<path fill="none" stroke="black" d="M959.5,-1232C953.5,-1232 947.5,-1226 947.5,-1220"/>
<polyline fill="none" stroke="black" points="947.5,-1220 947.5,-1156 "/>
<path fill="none" stroke="black" d="M947.5,-1156C947.5,-1150 953.5,-1144 959.5,-1144"/>
<text text-anchor="middle" x="1030" y="-1215.4" font-family="Times Roman,serif" font-size="14.00">Customer</text>
<polyline fill="none" stroke="black" points="947.5,-1206 1112.5,-1206 "/>
<text text-anchor="start" x="955.5" y="-1189.4" font-family="Times Roman,serif" font-size="14.00">data :text</text>
<text text-anchor="start" x="955.5" y="-1171.4" font-family="Times Roman,serif" font-size="14.00">created_at :datetime</text>
<text text-anchor="start" x="955.5" y="-1153.4" font-family="Times Roman,serif" font-size="14.00">updated_at :datetime</text>
</g>
<!-- Event -->
<g id="node17" class="node"><title>Event</title>
<polyline fill="none" stroke="black" points="1069.5,-847 1210.5,-847 "/>
<path fill="none" stroke="black" d="M1210.5,-847C1216.5,-847 1222.5,-853 1222.5,-859"/>
<polyline fill="none" stroke="black" points="1222.5,-859 1222.5,-995 "/>
<path fill="none" stroke="black" d="M1222.5,-995C1222.5,-1001 1216.5,-1007 1210.5,-1007"/>
<polyline fill="none" stroke="black" points="1210.5,-1007 1069.5,-1007 "/>
<path fill="none" stroke="black" d="M1069.5,-1007C1063.5,-1007 1057.5,-1001 1057.5,-995"/>
<polyline fill="none" stroke="black" points="1057.5,-995 1057.5,-859 "/>
<path fill="none" stroke="black" d="M1057.5,-859C1057.5,-853 1063.5,-847 1069.5,-847"/>
<text text-anchor="middle" x="1140" y="-990.4" font-family="Times Roman,serif" font-size="14.00">Event</text>
<polyline fill="none" stroke="black" points="1057.5,-981 1222.5,-981 "/>
<text text-anchor="start" x="1065.5" y="-964.4" font-family="Times Roman,serif" font-size="14.00">name :string</text>
<text text-anchor="start" x="1065.5" y="-946.4" font-family="Times Roman,serif" font-size="14.00">created_at :datetime</text>
<text text-anchor="start" x="1065.5" y="-928.4" font-family="Times Roman,serif" font-size="14.00">updated_at :datetime</text>
<text text-anchor="start" x="1065.5" y="-910.4" font-family="Times Roman,serif" font-size="14.00">place :string</text>
<text text-anchor="start" x="1065.5" y="-892.4" font-family="Times Roman,serif" font-size="14.00">address :text</text>
<text text-anchor="start" x="1065.5" y="-874.4" font-family="Times Roman,serif" font-size="14.00">ref :string</text>
<text text-anchor="start" x="1065.5" y="-856.4" font-family="Times Roman,serif" font-size="14.00">is_free :boolean</text>
</g>
<!-- Customer&#45;&gt;Event -->
<g id="edge4" class="edge"><title>Customer&#45;&gt;Event</title>
<path fill="none" stroke="#be5859" d="M1051.88,-1136.08C1066.25,-1101.98 1085.43,-1056.48 1102.22,-1016.64"/>
<ellipse fill="none" stroke="#be5859" cx="1050.21" cy="-1140.04" rx="4.00001" ry="4.00001"/>
<polygon fill="#be5859" stroke="#be5859" points="1102.33,-1016.39 1110.36,-1008.92 1104.27,-1011.78 1106.21,-1007.18 1106.21,-1007.18 1106.21,-1007.18 1104.27,-1011.78 1102.06,-1005.43 1102.33,-1016.39 1102.33,-1016.39"/>
</g>
<!-- Service -->
<g id="node8" class="node"><title>Service</title>
<polyline fill="none" stroke="black" points="1252,-469 1394,-469 "/>
<path fill="none" stroke="black" d="M1394,-469C1400,-469 1406,-475 1406,-481"/>
<polyline fill="none" stroke="black" points="1406,-481 1406,-797 "/>
<path fill="none" stroke="black" d="M1406,-797C1406,-803 1400,-809 1394,-809"/>
<polyline fill="none" stroke="black" points="1394,-809 1252,-809 "/>
<path fill="none" stroke="black" d="M1252,-809C1246,-809 1240,-803 1240,-797"/>
<polyline fill="none" stroke="black" points="1240,-797 1240,-481 "/>
<path fill="none" stroke="black" d="M1240,-481C1240,-475 1246,-469 1252,-469"/>
<text text-anchor="middle" x="1323" y="-792.4" font-family="Times Roman,serif" font-size="14.00">Service</text>
<polyline fill="none" stroke="black" points="1240,-783 1406,-783 "/>
<text text-anchor="start" x="1248" y="-766.4" font-family="Times Roman,serif" font-size="14.00">starts_at :datetime</text>
<text text-anchor="start" x="1248" y="-748.4" font-family="Times Roman,serif" font-size="14.00">ends_at :datetime</text>
<text text-anchor="start" x="1248" y="-730.4" font-family="Times Roman,serif" font-size="14.00">created_at :datetime</text>
<text text-anchor="start" x="1248" y="-712.4" font-family="Times Roman,serif" font-size="14.00">updated_at :datetime</text>
<text text-anchor="start" x="1248" y="-694.4" font-family="Times Roman,serif" font-size="14.00">rendezvous :string</text>
<text text-anchor="start" x="1248" y="-676.4" font-family="Times Roman,serif" font-size="14.00">surplace_at :datetime</text>
<text text-anchor="start" x="1248" y="-658.4" font-family="Times Roman,serif" font-size="14.00">depart_at :datetime</text>
<text text-anchor="start" x="1248" y="-640.4" font-family="Times Roman,serif" font-size="14.00">volness :integer</text>
<text text-anchor="start" x="1248" y="-622.4" font-family="Times Roman,serif" font-size="14.00">stats_t1 :integer</text>
<text text-anchor="start" x="1248" y="-604.4" font-family="Times Roman,serif" font-size="14.00">stats_t2 :integer</text>
<text text-anchor="start" x="1248" y="-586.4" font-family="Times Roman,serif" font-size="14.00">stats_t3 :integer</text>
<text text-anchor="start" x="1248" y="-568.4" font-family="Times Roman,serif" font-size="14.00">stats_t4 :integer</text>
<text text-anchor="start" x="1248" y="-550.4" font-family="Times Roman,serif" font-size="14.00">stats_ambu :integer</text>
<text text-anchor="start" x="1248" y="-532.4" font-family="Times Roman,serif" font-size="14.00">stats_pit :integer</text>
<text text-anchor="start" x="1248" y="-514.4" font-family="Times Roman,serif" font-size="14.00">stats_smur :integer</text>
<text text-anchor="start" x="1248" y="-496.4" font-family="Times Roman,serif" font-size="14.00">stats_dcd :integer</text>
<text text-anchor="start" x="1248" y="-478.4" font-family="Times Roman,serif" font-size="14.00">subs :integer</text>
</g>
<!-- Service&#45;&gt;Servolo -->
<g id="edge10" class="edge"><title>Service&#45;&gt;Servolo</title>
<path fill="none" stroke="#c6075c" d="M1233.55,-469.813C1232.71,-469.198 1231.86,-468.594 1231,-468 1132.93,-400.062 1057.7,-507.097 965,-432 941.089,-412.629 885.051,-236.351 854.235,-134.612"/>
<ellipse fill="none" stroke="#c6075c" cx="1236.71" cy="-472.269" rx="4.00002" ry="4.00002"/>
<polygon fill="#c6075c" stroke="#c6075c" points="854.225,-134.579 855.641,-123.705 852.779,-129.793 851.333,-125.006 851.333,-125.006 851.333,-125.006 852.779,-129.793 847.025,-126.308 854.225,-134.579 854.225,-134.579"/>
</g>
<!-- Disposer -->
<g id="node9" class="node"><title>Disposer</title>
<polyline fill="none" stroke="black" points="1017.5,-19 1158.5,-19 "/>
<path fill="none" stroke="black" d="M1158.5,-19C1164.5,-19 1170.5,-25 1170.5,-31"/>
<polyline fill="none" stroke="black" points="1170.5,-31 1170.5,-95 "/>
<path fill="none" stroke="black" d="M1170.5,-95C1170.5,-101 1164.5,-107 1158.5,-107"/>
<polyline fill="none" stroke="black" points="1158.5,-107 1017.5,-107 "/>
<path fill="none" stroke="black" d="M1017.5,-107C1011.5,-107 1005.5,-101 1005.5,-95"/>
<polyline fill="none" stroke="black" points="1005.5,-95 1005.5,-31 "/>
<path fill="none" stroke="black" d="M1005.5,-31C1005.5,-25 1011.5,-19 1017.5,-19"/>
<text text-anchor="middle" x="1088" y="-90.4" font-family="Times Roman,serif" font-size="14.00">Disposer</text>
<polyline fill="none" stroke="black" points="1005.5,-81 1170.5,-81 "/>
<text text-anchor="start" x="1013.5" y="-64.4" font-family="Times Roman,serif" font-size="14.00">quantity :integer</text>
<text text-anchor="start" x="1013.5" y="-46.4" font-family="Times Roman,serif" font-size="14.00">created_at :datetime</text>
<text text-anchor="start" x="1013.5" y="-28.4" font-family="Times Roman,serif" font-size="14.00">updated_at :datetime</text>
</g>
<!-- Service&#45;&gt;Disposer -->
<g id="edge14" class="edge"><title>Service&#45;&gt;Disposer</title>
<path fill="none" stroke="#641fdb" d="M1256.83,-461.123C1254,-451.328 1251.36,-441.576 1249,-432 1220.01,-314.336 1270.84,-267.377 1211,-162 1200.59,-143.666 1185.33,-127.413 1169.08,-113.644"/>
<ellipse fill="none" stroke="#641fdb" cx="1258.02" cy="-465.148" rx="4.00001" ry="4.00001"/>
<polygon fill="#641fdb" stroke="#641fdb" points="1168.79,-113.406 1163.88,-103.599 1164.91,-110.246 1161.04,-107.086 1161.04,-107.086 1161.04,-107.086 1164.91,-110.246 1158.19,-110.574 1168.79,-113.406 1168.79,-113.406"/>
</g>
<!-- Dispositif -->
<g id="node12" class="node"><title>Dispositif</title>
<polyline fill="none" stroke="black" points="985.5,-163 1190.5,-163 "/>
<path fill="none" stroke="black" d="M1190.5,-163C1196.5,-163 1202.5,-169 1202.5,-175"/>
<polyline fill="none" stroke="black" points="1202.5,-175 1202.5,-419 "/>
<path fill="none" stroke="black" d="M1202.5,-419C1202.5,-425 1196.5,-431 1190.5,-431"/>
<polyline fill="none" stroke="black" points="1190.5,-431 985.5,-431 "/>
<path fill="none" stroke="black" d="M985.5,-431C979.5,-431 973.5,-425 973.5,-419"/>
<polyline fill="none" stroke="black" points="973.5,-419 973.5,-175 "/>
<path fill="none" stroke="black" d="M973.5,-175C973.5,-169 979.5,-163 985.5,-163"/>
<text text-anchor="middle" x="1088" y="-414.4" font-family="Times Roman,serif" font-size="14.00">Dispositif</text>
<polyline fill="none" stroke="black" points="973.5,-405 1202.5,-405 "/>
<text text-anchor="start" x="981.5" y="-388.4" font-family="Times Roman,serif" font-size="14.00">pos :integer</text>
<text text-anchor="start" x="981.5" y="-370.4" font-family="Times Roman,serif" font-size="14.00">name :string</text>
<text text-anchor="start" x="981.5" y="-352.4" font-family="Times Roman,serif" font-size="14.00">created_at :datetime</text>
<text text-anchor="start" x="981.5" y="-334.4" font-family="Times Roman,serif" font-size="14.00">updated_at :datetime</text>
<text text-anchor="start" x="981.5" y="-316.4" font-family="Times Roman,serif" font-size="14.00">image_s1_binary_data :binary</text>
<text text-anchor="start" x="981.5" y="-298.4" font-family="Times Roman,serif" font-size="14.00">image_s2_binary_data :binary</text>
<text text-anchor="start" x="981.5" y="-280.4" font-family="Times Roman,serif" font-size="14.00">image_s1_content_type :string</text>
<text text-anchor="start" x="981.5" y="-262.4" font-family="Times Roman,serif" font-size="14.00">image_s1_filename :string</text>
<text text-anchor="start" x="981.5" y="-244.4" font-family="Times Roman,serif" font-size="14.00">image_s4_binary_data :binary</text>
<text text-anchor="start" x="981.5" y="-226.4" font-family="Times Roman,serif" font-size="14.00">image_s4_content_type :string</text>
<text text-anchor="start" x="981.5" y="-208.4" font-family="Times Roman,serif" font-size="14.00">image_s4_filename :string</text>
<text text-anchor="start" x="981.5" y="-190.4" font-family="Times Roman,serif" font-size="14.00">image_s2_content_type :string</text>
<text text-anchor="start" x="981.5" y="-172.4" font-family="Times Roman,serif" font-size="14.00">image_s2_filename :string</text>
</g>
<!-- Service&#45;&gt;Dispositif -->
<g id="edge12" class="edge"><title>Service&#45;&gt;Dispositif</title>
<path fill="none" stroke="#b23b88" d="M1234.01,-472.498C1233.01,-470.987 1232.01,-469.487 1231,-468 1224.07,-457.758 1216.64,-447.409 1208.94,-437.138"/>
<polygon fill="#b23b88" stroke="#b23b88" points="1234.27,-472.884 1235.96,-483.719 1237,-477.073 1239.73,-481.262 1239.73,-481.262 1239.73,-481.262 1237,-477.073 1243.5,-478.805 1234.27,-472.884 1234.27,-472.884"/>
<polygon fill="#b23b88" stroke="#b23b88" points="1208.76,-436.893 1206.31,-426.204 1205.74,-432.907 1202.72,-428.921 1202.72,-428.921 1202.72,-428.921 1205.74,-432.907 1199.13,-431.639 1208.76,-436.893 1208.76,-436.893"/>
</g>
<!-- Volo -->
<g id="node18" class="node"><title>Volo</title>
<polyline fill="none" stroke="black" points="681.5,-199 836.5,-199 "/>
<path fill="none" stroke="black" d="M836.5,-199C842.5,-199 848.5,-205 848.5,-211"/>
<polyline fill="none" stroke="black" points="848.5,-211 848.5,-383 "/>
<path fill="none" stroke="black" d="M848.5,-383C848.5,-389 842.5,-395 836.5,-395"/>
<polyline fill="none" stroke="black" points="836.5,-395 681.5,-395 "/>
<path fill="none" stroke="black" d="M681.5,-395C675.5,-395 669.5,-389 669.5,-383"/>
<polyline fill="none" stroke="black" points="669.5,-383 669.5,-211 "/>
<path fill="none" stroke="black" d="M669.5,-211C669.5,-205 675.5,-199 681.5,-199"/>
<text text-anchor="middle" x="759" y="-378.4" font-family="Times Roman,serif" font-size="14.00">Volo</text>
<polyline fill="none" stroke="black" points="669.5,-369 848.5,-369 "/>
<text text-anchor="start" x="677.5" y="-352.4" font-family="Times Roman,serif" font-size="14.00">first_name :string</text>
<text text-anchor="start" x="677.5" y="-334.4" font-family="Times Roman,serif" font-size="14.00">last_name :string</text>
<text text-anchor="start" x="677.5" y="-316.4" font-family="Times Roman,serif" font-size="14.00">created_at :datetime</text>
<text text-anchor="start" x="677.5" y="-298.4" font-family="Times Roman,serif" font-size="14.00">updated_at :datetime</text>
<text text-anchor="start" x="677.5" y="-280.4" font-family="Times Roman,serif" font-size="14.00">short_last_name :string</text>
<text text-anchor="start" x="677.5" y="-262.4" font-family="Times Roman,serif" font-size="14.00">actif :boolean</text>
<text text-anchor="start" x="677.5" y="-244.4" font-family="Times Roman,serif" font-size="14.00">birth_date :date</text>
<text text-anchor="start" x="677.5" y="-226.4" font-family="Times Roman,serif" font-size="14.00">local_date :date</text>
<text text-anchor="start" x="677.5" y="-208.4" font-family="Times Roman,serif" font-size="14.00">comment :text</text>
</g>
<!-- Service&#45;&gt;Volo -->
<g id="edge8" class="edge"><title>Service&#45;&gt;Volo</title>
<path fill="none" stroke="#911d0c" d="M1231.86,-468.589C1231.57,-468.392 1231.29,-468.195 1231,-468 1116.24,-390.094 1048.47,-486.674 921,-432 898.525,-422.36 876.75,-408.56 856.839,-393.427"/>
<polygon fill="#911d0c" stroke="#911d0c" points="1231.93,-468.64 1237.22,-478.242 1235.93,-471.641 1239.93,-474.643 1239.93,-474.643 1239.93,-474.643 1235.93,-471.641 1242.63,-471.044 1231.93,-468.64 1231.93,-468.64"/>
<polygon fill="#911d0c" stroke="#911d0c" points="856.608,-393.247 851.483,-383.553 852.663,-390.175 848.718,-387.103 848.718,-387.103 848.718,-387.103 852.663,-390.175 845.953,-390.654 856.608,-393.247 856.608,-393.247"/>
</g>
<!-- Seritem -->
<g id="node19" class="node"><title>Seritem</title>
<polyline fill="none" stroke="black" points="1269.5,-217 1410.5,-217 "/>
<path fill="none" stroke="black" d="M1410.5,-217C1416.5,-217 1422.5,-223 1422.5,-229"/>
<polyline fill="none" stroke="black" points="1422.5,-229 1422.5,-365 "/>
<path fill="none" stroke="black" d="M1422.5,-365C1422.5,-371 1416.5,-377 1410.5,-377"/>
<polyline fill="none" stroke="black" points="1410.5,-377 1269.5,-377 "/>
<path fill="none" stroke="black" d="M1269.5,-377C1263.5,-377 1257.5,-371 1257.5,-365"/>
<polyline fill="none" stroke="black" points="1257.5,-365 1257.5,-229 "/>
<path fill="none" stroke="black" d="M1257.5,-229C1257.5,-223 1263.5,-217 1269.5,-217"/>
<text text-anchor="middle" x="1340" y="-360.4" font-family="Times Roman,serif" font-size="14.00">Seritem</text>
<polyline fill="none" stroke="black" points="1257.5,-351 1422.5,-351 "/>
<text text-anchor="start" x="1265.5" y="-334.4" font-family="Times Roman,serif" font-size="14.00">pos :integer</text>
<text text-anchor="start" x="1265.5" y="-316.4" font-family="Times Roman,serif" font-size="14.00">name :string</text>
<text text-anchor="start" x="1265.5" y="-298.4" font-family="Times Roman,serif" font-size="14.00">qty :decimal</text>
<text text-anchor="start" x="1265.5" y="-280.4" font-family="Times Roman,serif" font-size="14.00">price :decimal</text>
<text text-anchor="start" x="1265.5" y="-262.4" font-family="Times Roman,serif" font-size="14.00">kind :integer</text>
<text text-anchor="start" x="1265.5" y="-244.4" font-family="Times Roman,serif" font-size="14.00">created_at :datetime</text>
<text text-anchor="start" x="1265.5" y="-226.4" font-family="Times Roman,serif" font-size="14.00">updated_at :datetime</text>
</g>
<!-- Service&#45;&gt;Seritem -->
<g id="edge6" class="edge"><title>Service&#45;&gt;Seritem</title>
<path fill="none" stroke="#f854ac" d="M1331.87,-460.506C1333.13,-435.172 1334.38,-410.057 1335.51,-387.391"/>
<ellipse fill="none" stroke="#f854ac" cx="1331.66" cy="-464.756" rx="4" ry="4"/>
<polygon fill="#f854ac" stroke="#f854ac" points="1335.52,-387.146 1340.51,-377.382 1335.77,-382.152 1336.02,-377.158 1336.02,-377.158 1336.02,-377.158 1335.77,-382.152 1331.52,-376.935 1335.52,-387.146 1335.52,-387.146"/>
</g>
<!-- Category -->
<g id="node10" class="node"><title>Category</title>
<polyline fill="none" stroke="black" points="1141.5,-1135 1282.5,-1135 "/>
<path fill="none" stroke="black" d="M1282.5,-1135C1288.5,-1135 1294.5,-1141 1294.5,-1147"/>
<polyline fill="none" stroke="black" points="1294.5,-1147 1294.5,-1229 "/>
<path fill="none" stroke="black" d="M1294.5,-1229C1294.5,-1235 1288.5,-1241 1282.5,-1241"/>
<polyline fill="none" stroke="black" points="1282.5,-1241 1141.5,-1241 "/>
<path fill="none" stroke="black" d="M1141.5,-1241C1135.5,-1241 1129.5,-1235 1129.5,-1229"/>
<polyline fill="none" stroke="black" points="1129.5,-1229 1129.5,-1147 "/>
<path fill="none" stroke="black" d="M1129.5,-1147C1129.5,-1141 1135.5,-1135 1141.5,-1135"/>
<text text-anchor="middle" x="1212" y="-1224.4" font-family="Times Roman,serif" font-size="14.00">Category</text>
<polyline fill="none" stroke="black" points="1129.5,-1215 1294.5,-1215 "/>
<text text-anchor="start" x="1137.5" y="-1198.4" font-family="Times Roman,serif" font-size="14.00">name :string</text>
<text text-anchor="start" x="1137.5" y="-1180.4" font-family="Times Roman,serif" font-size="14.00">short_name :string</text>
<text text-anchor="start" x="1137.5" y="-1162.4" font-family="Times Roman,serif" font-size="14.00">created_at :datetime</text>
<text text-anchor="start" x="1137.5" y="-1144.4" font-family="Times Roman,serif" font-size="14.00">updated_at :datetime</text>
</g>
<!-- Category&#45;&gt;Event -->
<g id="edge16" class="edge"><title>Category&#45;&gt;Event</title>
<path fill="none" stroke="#370cf5" d="M1195.15,-1126.94C1186.14,-1094.27 1174.87,-1053.42 1164.87,-1017.17"/>
<ellipse fill="none" stroke="#370cf5" cx="1196.28" cy="-1131.01" rx="4.00001" ry="4.00001"/>
<polygon fill="#370cf5" stroke="#370cf5" points="1164.75,-1016.72 1166.43,-1005.88 1163.42,-1011.9 1162.09,-1007.08 1162.09,-1007.08 1162.09,-1007.08 1163.42,-1011.9 1157.75,-1008.28 1164.75,-1016.72 1164.75,-1016.72"/>
</g>
<!-- Ability -->
<g id="node11" class="node"><title>Ability</title>
<polygon fill="none" stroke="black" points="1494,-1162 1494,-1214 1554,-1214 1554,-1162 1494,-1162"/>
<text text-anchor="middle" x="1524" y="-1197.4" font-family="Times Roman,serif" font-size="14.00">Ability</text>
<polyline fill="none" stroke="black" points="1494,-1188 1554,-1188 "/>
<text text-anchor="middle" x="1524" y="-1171.4" font-family="Times Roman,serif" font-size="14.00"> </text>
</g>
<!-- Dispositif&#45;&gt;Disposer -->
<g id="edge18" class="edge"><title>Dispositif&#45;&gt;Disposer</title>
<path fill="none" stroke="#6520cb" d="M1088,-154.519C1088,-141.508 1088,-128.938 1088,-117.497"/>
<ellipse fill="none" stroke="#6520cb" cx="1088" cy="-158.916" rx="4" ry="4"/>
<polygon fill="#6520cb" stroke="#6520cb" points="1088,-117.327 1092.5,-107.327 1088,-112.327 1088,-107.327 1088,-107.327 1088,-107.327 1088,-112.327 1083.5,-107.327 1088,-117.327 1088,-117.327"/>
</g>
<!-- Templitem -->
<g id="node13" class="node"><title>Templitem</title>
<polyline fill="none" stroke="black" points="1583.5,-1117 1724.5,-1117 "/>
<path fill="none" stroke="black" d="M1724.5,-1117C1730.5,-1117 1736.5,-1123 1736.5,-1129"/>
<polyline fill="none" stroke="black" points="1736.5,-1129 1736.5,-1247 "/>
<path fill="none" stroke="black" d="M1736.5,-1247C1736.5,-1253 1730.5,-1259 1724.5,-1259"/>
<polyline fill="none" stroke="black" points="1724.5,-1259 1583.5,-1259 "/>
<path fill="none" stroke="black" d="M1583.5,-1259C1577.5,-1259 1571.5,-1253 1571.5,-1247"/>
<polyline fill="none" stroke="black" points="1571.5,-1247 1571.5,-1129 "/>
<path fill="none" stroke="black" d="M1571.5,-1129C1571.5,-1123 1577.5,-1117 1583.5,-1117"/>
<text text-anchor="middle" x="1654" y="-1242.4" font-family="Times Roman,serif" font-size="14.00">Templitem</text>
<polyline fill="none" stroke="black" points="1571.5,-1233 1736.5,-1233 "/>
<text text-anchor="start" x="1579.5" y="-1216.4" font-family="Times Roman,serif" font-size="14.00">pos :integer</text>
<text text-anchor="start" x="1579.5" y="-1198.4" font-family="Times Roman,serif" font-size="14.00">name :string</text>
<text text-anchor="start" x="1579.5" y="-1180.4" font-family="Times Roman,serif" font-size="14.00">kind :integer</text>
<text text-anchor="start" x="1579.5" y="-1162.4" font-family="Times Roman,serif" font-size="14.00">price :decimal</text>
<text text-anchor="start" x="1579.5" y="-1144.4" font-family="Times Roman,serif" font-size="14.00">created_at :datetime</text>
<text text-anchor="start" x="1579.5" y="-1126.4" font-family="Times Roman,serif" font-size="14.00">updated_at :datetime</text>
</g>
<!-- Crentite -->
<g id="node14" class="node"><title>Crentite</title>
<polyline fill="none" stroke="black" points="777.5,-1135 918.5,-1135 "/>
<path fill="none" stroke="black" d="M918.5,-1135C924.5,-1135 930.5,-1141 930.5,-1147"/>
<polyline fill="none" stroke="black" points="930.5,-1147 930.5,-1229 "/>
<path fill="none" stroke="black" d="M930.5,-1229C930.5,-1235 924.5,-1241 918.5,-1241"/>
<polyline fill="none" stroke="black" points="918.5,-1241 777.5,-1241 "/>
<path fill="none" stroke="black" d="M777.5,-1241C771.5,-1241 765.5,-1235 765.5,-1229"/>
<polyline fill="none" stroke="black" points="765.5,-1229 765.5,-1147 "/>
<path fill="none" stroke="black" d="M765.5,-1147C765.5,-1141 771.5,-1135 777.5,-1135"/>
<text text-anchor="middle" x="848" y="-1224.4" font-family="Times Roman,serif" font-size="14.00">Crentite</text>
<polyline fill="none" stroke="black" points="765.5,-1215 930.5,-1215 "/>
<text text-anchor="start" x="773.5" y="-1198.4" font-family="Times Roman,serif" font-size="14.00">name :string</text>
<text text-anchor="start" x="773.5" y="-1180.4" font-family="Times Roman,serif" font-size="14.00">created_at :datetime</text>
<text text-anchor="start" x="773.5" y="-1162.4" font-family="Times Roman,serif" font-size="14.00">updated_at :datetime</text>
<text text-anchor="start" x="773.5" y="-1144.4" font-family="Times Roman,serif" font-size="14.00">number :string</text>
</g>
<!-- Crentite&#45;&gt;Refac -->
<g id="edge24" class="edge"><title>Crentite&#45;&gt;Refac</title>
<path fill="none" stroke="#c18e1e" d="M860.232,-1126.95C881.259,-1022.01 924.045,-808.467 945.353,-702.119"/>
<ellipse fill="none" stroke="#c18e1e" cx="859.433" cy="-1130.94" rx="4.00001" ry="4.00001"/>
<polygon fill="#c18e1e" stroke="#c18e1e" points="945.382,-701.974 951.759,-693.053 946.365,-697.071 947.347,-692.169 947.347,-692.169 947.347,-692.169 946.365,-697.071 942.935,-691.284 945.382,-701.974 945.382,-701.974"/>
</g>
<!-- Crentite&#45;&gt;Disposer -->
<g id="edge20" class="edge"><title>Crentite&#45;&gt;Disposer</title>
<path fill="none" stroke="#e5ec61" d="M843.822,-1126.67C836.576,-1001.69 826.093,-708.961 867,-468 890.901,-327.21 884.188,-279.739 965,-162 977.376,-143.969 993.984,-127.561 1010.98,-113.517"/>
<ellipse fill="none" stroke="#e5ec61" cx="844.058" cy="-1130.67" rx="4" ry="4"/>
<polygon fill="#e5ec61" stroke="#e5ec61" points="1011.01,-113.494 1021.63,-110.741 1014.91,-110.363 1018.81,-107.232 1018.81,-107.232 1018.81,-107.232 1014.91,-110.363 1015.99,-103.724 1011.01,-113.494 1011.01,-113.494"/>
</g>
<!-- Crentite&#45;&gt;Event -->
<g id="edge22" class="edge"><title>Crentite&#45;&gt;Event</title>
<path fill="none" stroke="#02cd6c" d="M878.675,-1125.58C894.157,-1098.33 914.804,-1067.33 939,-1044 970.485,-1013.64 1011.31,-988.027 1047.94,-968.577"/>
<polygon fill="#02cd6c" stroke="#02cd6c" points="878.484,-1125.93 869.692,-1132.48 876.055,-1130.3 873.626,-1134.67 873.626,-1134.67 873.626,-1134.67 876.055,-1130.3 877.559,-1136.86 878.484,-1125.93 878.484,-1125.93"/>
<polygon fill="#02cd6c" stroke="#02cd6c" points="1048.29,-968.395 1059.23,-967.755 1052.72,-966.08 1057.15,-963.766 1057.15,-963.766 1057.15,-963.766 1052.72,-966.08 1055.07,-959.777 1048.29,-968.395 1048.29,-968.395"/>
</g>
<!-- Crentite&#45;&gt;Volo -->
<g id="edge26" class="edge"><title>Crentite&#45;&gt;Volo</title>
<path fill="none" stroke="#a229e7" d="M841.864,-1126.57C826.955,-977.317 788.667,-594.007 769.816,-405.278"/>
<ellipse fill="none" stroke="#a229e7" cx="842.302" cy="-1130.95" rx="4" ry="4"/>
<polygon fill="#a229e7" stroke="#a229e7" points="769.789,-405.012 773.273,-394.614 769.292,-400.037 768.795,-395.062 768.795,-395.062 768.795,-395.062 769.292,-400.037 764.317,-395.509 769.789,-405.012 769.789,-405.012"/>
</g>
<!-- Nositem -->
<g id="node15" class="node"><title>Nositem</title>
<polyline fill="none" stroke="black" points="1323.5,-847 1464.5,-847 "/>
<path fill="none" stroke="black" d="M1464.5,-847C1470.5,-847 1476.5,-853 1476.5,-859"/>
<polyline fill="none" stroke="black" points="1476.5,-859 1476.5,-995 "/>
<path fill="none" stroke="black" d="M1476.5,-995C1476.5,-1001 1470.5,-1007 1464.5,-1007"/>
<polyline fill="none" stroke="black" points="1464.5,-1007 1323.5,-1007 "/>
<path fill="none" stroke="black" d="M1323.5,-1007C1317.5,-1007 1311.5,-1001 1311.5,-995"/>
<polyline fill="none" stroke="black" points="1311.5,-995 1311.5,-859 "/>
<path fill="none" stroke="black" d="M1311.5,-859C1311.5,-853 1317.5,-847 1323.5,-847"/>
<text text-anchor="middle" x="1394" y="-990.4" font-family="Times Roman,serif" font-size="14.00">Nositem</text>
<polyline fill="none" stroke="black" points="1311.5,-981 1476.5,-981 "/>
<text text-anchor="start" x="1319.5" y="-964.4" font-family="Times Roman,serif" font-size="14.00">pos :integer</text>
<text text-anchor="start" x="1319.5" y="-946.4" font-family="Times Roman,serif" font-size="14.00">name :string</text>
<text text-anchor="start" x="1319.5" y="-928.4" font-family="Times Roman,serif" font-size="14.00">qty :decimal</text>
<text text-anchor="start" x="1319.5" y="-910.4" font-family="Times Roman,serif" font-size="14.00">price :decimal</text>
<text text-anchor="start" x="1319.5" y="-892.4" font-family="Times Roman,serif" font-size="14.00">kind :integer</text>
<text text-anchor="start" x="1319.5" y="-874.4" font-family="Times Roman,serif" font-size="14.00">created_at :datetime</text>
<text text-anchor="start" x="1319.5" y="-856.4" font-family="Times Roman,serif" font-size="14.00">updated_at :datetime</text>
</g>
<!-- Invoice -->
<g id="node16" class="node"><title>Invoice</title>
<polyline fill="none" stroke="black" points="1323.5,-1117 1464.5,-1117 "/>
<path fill="none" stroke="black" d="M1464.5,-1117C1470.5,-1117 1476.5,-1123 1476.5,-1129"/>
<polyline fill="none" stroke="black" points="1476.5,-1129 1476.5,-1247 "/>
<path fill="none" stroke="black" d="M1476.5,-1247C1476.5,-1253 1470.5,-1259 1464.5,-1259"/>
<polyline fill="none" stroke="black" points="1464.5,-1259 1323.5,-1259 "/>
<path fill="none" stroke="black" d="M1323.5,-1259C1317.5,-1259 1311.5,-1253 1311.5,-1247"/>
<polyline fill="none" stroke="black" points="1311.5,-1247 1311.5,-1129 "/>
<path fill="none" stroke="black" d="M1311.5,-1129C1311.5,-1123 1317.5,-1117 1323.5,-1117"/>
<text text-anchor="middle" x="1394" y="-1242.4" font-family="Times Roman,serif" font-size="14.00">Invoice</text>
<polyline fill="none" stroke="black" points="1311.5,-1233 1476.5,-1233 "/>
<text text-anchor="start" x="1319.5" y="-1216.4" font-family="Times Roman,serif" font-size="14.00">number :string</text>
<text text-anchor="start" x="1319.5" y="-1198.4" font-family="Times Roman,serif" font-size="14.00">customer_data :text</text>
<text text-anchor="start" x="1319.5" y="-1180.4" font-family="Times Roman,serif" font-size="14.00">sent_at :date</text>
<text text-anchor="start" x="1319.5" y="-1162.4" font-family="Times Roman,serif" font-size="14.00">created_at :datetime</text>
<text text-anchor="start" x="1319.5" y="-1144.4" font-family="Times Roman,serif" font-size="14.00">updated_at :datetime</text>
<text text-anchor="start" x="1319.5" y="-1126.4" font-family="Times Roman,serif" font-size="14.00">paid_at :date</text>
</g>
<!-- Invoice&#45;&gt;Nositem -->
<g id="edge30" class="edge"><title>Invoice&#45;&gt;Nositem</title>
<path fill="none" stroke="#d230f4" d="M1394,-1108.64C1394,-1079.96 1394,-1047.35 1394,-1017.77"/>
<ellipse fill="none" stroke="#d230f4" cx="1394" cy="-1112.68" rx="4" ry="4"/>
<polygon fill="#d230f4" stroke="#d230f4" points="1394,-1017.44 1398.5,-1007.44 1394,-1012.44 1394,-1007.44 1394,-1007.44 1394,-1007.44 1394,-1012.44 1389.5,-1007.44 1394,-1017.44 1394,-1017.44"/>
</g>
<!-- Invoice&#45;&gt;Event -->
<g id="edge28" class="edge"><title>Invoice&#45;&gt;Event</title>
<path fill="none" stroke="#4a0ec8" d="M1352.15,-1109.78C1338.16,-1087.24 1321.38,-1063.5 1303,-1044 1281.96,-1021.68 1256.11,-1000.88 1231.25,-983.183"/>
<ellipse fill="none" stroke="#4a0ec8" cx="1354.32" cy="-1113.31" rx="4.00002" ry="4.00002"/>
<polygon fill="#4a0ec8" stroke="#4a0ec8" points="1231.06,-983.045 1225.45,-973.619 1226.96,-980.174 1222.87,-977.304 1222.87,-977.304 1222.87,-977.304 1226.96,-980.174 1220.28,-980.988 1231.06,-983.045 1231.06,-983.045"/>
</g>
<!-- Event&#45;&gt;Refac -->
<g id="edge36" class="edge"><title>Event&#45;&gt;Refac</title>
<path fill="none" stroke="#d075d3" d="M1069.92,-840.254C1062.61,-830.228 1055.49,-820.009 1049,-810 1026.51,-775.305 1004.64,-734.496 987.972,-701.447"/>
<ellipse fill="none" stroke="#d075d3" cx="1072.38" cy="-843.59" rx="4.00002" ry="4.00002"/>
<polygon fill="#d075d3" stroke="#d075d3" points="987.891,-701.285 987.437,-690.328 985.652,-696.814 983.413,-692.343 983.413,-692.343 983.413,-692.343 985.652,-696.814 979.389,-694.358 987.891,-701.285 987.891,-701.285"/>
</g>
<!-- Event&#45;&gt;Evitem -->
<g id="edge34" class="edge"><title>Event&#45;&gt;Evitem</title>
<path fill="none" stroke="#bf94de" d="M1140,-838.748C1140,-804.09 1140,-764.337 1140,-729.467"/>
<ellipse fill="none" stroke="#bf94de" cx="1140" cy="-842.776" rx="4" ry="4"/>
<polygon fill="#bf94de" stroke="#bf94de" points="1140,-729.293 1144.5,-719.293 1140,-724.293 1140,-719.293 1140,-719.293 1140,-719.293 1140,-724.293 1135.5,-719.293 1140,-729.293 1140,-729.293"/>
</g>
<!-- Event&#45;&gt;Service -->
<g id="edge32" class="edge"><title>Event&#45;&gt;Service</title>
<path fill="none" stroke="#81d79f" d="M1210.03,-840.224C1217.36,-830.204 1224.49,-819.994 1231,-810 1232.1,-808.305 1233.21,-806.596 1234.31,-804.874"/>
<ellipse fill="none" stroke="#81d79f" cx="1207.58" cy="-843.558" rx="4.00002" ry="4.00002"/>
<polygon fill="#81d79f" stroke="#81d79f" points="1234.47,-804.624 1243.6,-798.561 1237.13,-800.393 1239.8,-796.163 1239.8,-796.163 1239.8,-796.163 1237.13,-800.393 1235.99,-793.764 1234.47,-804.624 1234.47,-804.624"/>
</g>
<!-- Volo&#45;&gt;Servolo -->
<g id="edge38" class="edge"><title>Volo&#45;&gt;Servolo</title>
<path fill="none" stroke="#a6dabc" d="M792.562,-190.872C798.549,-171.94 804.657,-152.625 810.252,-134.934"/>
<ellipse fill="none" stroke="#a6dabc" cx="791.267" cy="-194.966" rx="4.00001" ry="4.00001"/>
<polygon fill="#a6dabc" stroke="#a6dabc" points="810.288,-134.819 817.594,-126.641 811.796,-130.052 813.303,-125.285 813.303,-125.285 813.303,-125.285 811.796,-130.052 809.013,-123.928 810.288,-134.819 810.288,-134.819"/>
</g>
<!-- Authlogic::Session::Base -->
<g id="node20" class="node"><title>Authlogic::Session::Base</title>
<ellipse fill="none" stroke="black" cx="618" cy="-1188" rx="130.108" ry="18.3848"/>
<text text-anchor="middle" x="618" y="-1184.4" font-family="Times Roman,serif" font-size="14.00">Authlogic::Session::Base</text>
</g>
<!-- Authlogic::Session::Base&#45;&gt;UserSession -->
<g id="edge2" class="edge"><title>Authlogic::Session::Base&#45;&gt;UserSession</title>
<path fill="none" stroke="black" d="M618,-1169.23C618,-1123.41 618,-1005.76 618,-953.13"/>
</g>
</g>
</svg>
