<?xml version="1.0" encoding="UTF-8" standalone="no"?>
<!DOCTYPE svg PUBLIC "-//W3C//DTD SVG 1.1//EN"
 "http://www.w3.org/Graphics/SVG/1.1/DTD/svg11.dtd">
<!-- Generated by graphviz version 2.26.3 (20100126.1600)
 -->
<!-- Title: models_diagram Pages: 1 -->
<svg width="1336pt" height="398pt"
 viewBox="0.00 0.00 1336.00 398.00" xmlns="http://www.w3.org/2000/svg" xmlns:xlink="http://www.w3.org/1999/xlink">
<g id="graph1" class="graph" transform="scale(1 1) rotate(0) translate(4 394)">
<title>models_diagram</title>
<polygon fill="white" stroke="white" points="-4,5 -4,-394 1333,-394 1333,5 -4,5"/>
<!-- _diagram_info -->
<g id="node1" class="node"><title>_diagram_info</title>
<text text-anchor="start" x="8" y="-373.8" font-family="Times Roman,serif" font-size="13.00">Models diagram</text>
<text text-anchor="start" x="8" y="-356.8" font-family="Times Roman,serif" font-size="13.00">Date: Sep 23 2012 &#45; 02:02</text>
<text text-anchor="start" x="8" y="-339.8" font-family="Times Roman,serif" font-size="13.00">Migration version: 20120922153246</text>
<text text-anchor="start" x="8" y="-322.8" font-family="Times Roman,serif" font-size="13.00">Generated by RailRoady 1.0.7</text>
<text text-anchor="start" x="8" y="-305.8" font-family="Times Roman,serif" font-size="13.00">http://railroady.prestonlee.com</text>
</g>
<!-- User -->
<g id="node2" class="node"><title>User</title>
<ellipse fill="none" stroke="black" cx="302" cy="-343" rx="33.9411" ry="18.3848"/>
<text text-anchor="middle" x="302" y="-339.4" font-family="Times Roman,serif" font-size="14.00">User</text>
</g>
<!-- UserSession -->
<g id="node3" class="node"><title>UserSession</title>
<polygon fill="none" stroke="black" points="534,-259 434,-259 434,-223 534,-223 534,-259"/>
<text text-anchor="middle" x="484" y="-237.4" font-family="Times Roman,serif" font-size="14.00">UserSession</text>
</g>
<!-- Servolo -->
<g id="node4" class="node"><title>Servolo</title>
<ellipse fill="none" stroke="black" cx="687" cy="-19" rx="48.0833" ry="18.3848"/>
<text text-anchor="middle" x="687" y="-15.4" font-family="Times Roman,serif" font-size="14.00">Servolo</text>
</g>
<!-- Refac -->
<g id="node5" class="node"><title>Refac</title>
<ellipse fill="none" stroke="black" cx="749" cy="-167" rx="36.977" ry="18.3848"/>
<text text-anchor="middle" x="749" y="-163.4" font-family="Times Roman,serif" font-size="14.00">Refac</text>
</g>
<!-- Evitem -->
<g id="node6" class="node"><title>Evitem</title>
<ellipse fill="none" stroke="black" cx="850" cy="-167" rx="45.9619" ry="18.3848"/>
<text text-anchor="middle" x="850" y="-163.4" font-family="Times Roman,serif" font-size="14.00">Evitem</text>
</g>
<!-- Customer -->
<g id="node7" class="node"><title>Customer</title>
<ellipse fill="none" stroke="black" cx="812" cy="-343" rx="58.1882" ry="18.3848"/>
<text text-anchor="middle" x="812" y="-339.4" font-family="Times Roman,serif" font-size="14.00">Customer</text>
</g>
<!-- Event -->
<g id="node17" class="node"><title>Event</title>
<ellipse fill="none" stroke="black" cx="850" cy="-241" rx="39.8075" ry="18.3848"/>
<text text-anchor="middle" x="850" y="-237.4" font-family="Times Roman,serif" font-size="14.00">Event</text>
</g>
<!-- Customer&#45;&gt;Event -->
<g id="edge4" class="edge"><title>Customer&#45;&gt;Event</title>
<path fill="none" stroke="#1624e5" d="M821.892,-316.448C827.336,-301.835 834.087,-283.715 839.608,-268.895"/>
<ellipse fill="none" stroke="#1624e5" cx="820.366" cy="-320.543" rx="4.00001" ry="4.00001"/>
<polygon fill="#1624e5" stroke="#1624e5" points="839.711,-268.617 847.419,-260.818 841.457,-263.932 843.202,-259.247 843.202,-259.247 843.202,-259.247 841.457,-263.932 838.985,-257.676 839.711,-268.617 839.711,-268.617"/>
</g>
<!-- Service -->
<g id="node8" class="node"><title>Service</title>
<ellipse fill="none" stroke="black" cx="961" cy="-167" rx="46.8775" ry="18.3848"/>
<text text-anchor="middle" x="961" y="-163.4" font-family="Times Roman,serif" font-size="14.00">Service</text>
</g>
<!-- Service&#45;&gt;Servolo -->
<g id="edge10" class="edge"><title>Service&#45;&gt;Servolo</title>
<path fill="none" stroke="#726cf7" d="M917.553,-152.247C913.312,-150.81 909.073,-149.376 905,-148 857.465,-131.939 841.766,-136.537 798,-112 764.993,-93.495 732.428,-64.6012 711.195,-43.9317"/>
<ellipse fill="none" stroke="#726cf7" cx="921.367" cy="-153.54" rx="4.00001" ry="4.00001"/>
<polygon fill="#726cf7" stroke="#726cf7" points="711.016,-43.7546 707.069,-33.5235 707.46,-40.2389 703.905,-36.7233 703.905,-36.7233 703.905,-36.7233 707.46,-40.2389 700.741,-39.923 711.016,-43.7546 711.016,-43.7546"/>
</g>
<!-- Disposer -->
<g id="node9" class="node"><title>Disposer</title>
<ellipse fill="none" stroke="black" cx="863" cy="-19" rx="53.2379" ry="18.3848"/>
<text text-anchor="middle" x="863" y="-15.4" font-family="Times Roman,serif" font-size="14.00">Disposer</text>
</g>
<!-- Service&#45;&gt;Disposer -->
<g id="edge14" class="edge"><title>Service&#45;&gt;Disposer</title>
<path fill="none" stroke="#3fd947" d="M955.49,-140.262C950.548,-120.671 941.893,-94.101 928,-74 919.546,-61.7681 907.701,-50.6574 896.434,-41.6752"/>
<ellipse fill="none" stroke="#3fd947" cx="956.455" cy="-144.302" rx="4.00001" ry="4.00001"/>
<polygon fill="#3fd947" stroke="#3fd947" points="896.334,-41.5986 891.122,-31.9503 892.362,-38.562 888.389,-35.5254 888.389,-35.5254 888.389,-35.5254 892.362,-38.562 885.656,-39.1004 896.334,-41.5986 896.334,-41.5986"/>
</g>
<!-- Dispositif -->
<g id="node12" class="node"><title>Dispositif</title>
<ellipse fill="none" stroke="black" cx="863" cy="-93" rx="56.0679" ry="18.3848"/>
<text text-anchor="middle" x="863" y="-89.4" font-family="Times Roman,serif" font-size="14.00">Dispositif</text>
</g>
<!-- Service&#45;&gt;Dispositif -->
<g id="edge12" class="edge"><title>Service&#45;&gt;Dispositif</title>
<path fill="none" stroke="#2d63af" d="M931.019,-144.361C919.283,-135.499 905.823,-125.336 893.99,-116.401"/>
<polygon fill="#2d63af" stroke="#2d63af" points="931.27,-144.551 936.539,-154.168 935.26,-147.564 939.251,-150.577 939.251,-150.577 939.251,-150.577 935.26,-147.564 941.962,-146.986 931.27,-144.551 931.27,-144.551"/>
<polygon fill="#2d63af" stroke="#2d63af" points="893.691,-116.175 888.422,-106.557 889.7,-113.162 885.71,-110.149 885.71,-110.149 885.71,-110.149 889.7,-113.162 882.998,-113.74 893.691,-116.175 893.691,-116.175"/>
</g>
<!-- Volo -->
<g id="node18" class="node"><title>Volo</title>
<ellipse fill="none" stroke="black" cx="629" cy="-93" rx="32.0265" ry="18.3848"/>
<text text-anchor="middle" x="629" y="-89.4" font-family="Times Roman,serif" font-size="14.00">Volo</text>
</g>
<!-- Service&#45;&gt;Volo -->
<g id="edge8" class="edge"><title>Service&#45;&gt;Volo</title>
<path fill="none" stroke="#831af1" d="M916.619,-151.356C912.709,-150.156 908.796,-149.018 905,-148 822.536,-125.895 724.058,-108.342 669.847,-99.4254"/>
<polygon fill="#831af1" stroke="#831af1" points="916.737,-151.393 924.897,-158.719 921.501,-152.912 926.264,-154.432 926.264,-154.432 926.264,-154.432 921.501,-152.912 927.632,-150.144 916.737,-151.393 916.737,-151.393"/>
<polygon fill="#831af1" stroke="#831af1" points="669.803,-99.4183 660.657,-93.3687 664.868,-98.6142 659.934,-97.8101 659.934,-97.8101 659.934,-97.8101 664.868,-98.6142 659.21,-102.252 669.803,-99.4183 669.803,-99.4183"/>
</g>
<!-- Seritem -->
<g id="node19" class="node"><title>Seritem</title>
<ellipse fill="none" stroke="black" cx="1025" cy="-93" rx="50.2046" ry="18.3848"/>
<text text-anchor="middle" x="1025" y="-89.4" font-family="Times Roman,serif" font-size="14.00">Seritem</text>
</g>
<!-- Service&#45;&gt;Seritem -->
<g id="edge6" class="edge"><title>Service&#45;&gt;Seritem</title>
<path fill="none" stroke="#418e85" d="M981.636,-143.139C988.483,-135.222 996.128,-126.383 1003.07,-118.358"/>
<ellipse fill="none" stroke="#418e85" cx="978.784" cy="-146.438" rx="4.00002" ry="4.00002"/>
<polygon fill="#418e85" stroke="#418e85" points="1003.18,-118.231 1013.12,-113.611 1006.45,-114.449 1009.72,-110.668 1009.72,-110.668 1009.72,-110.668 1006.45,-114.449 1006.32,-107.724 1003.18,-118.231 1003.18,-118.231"/>
</g>
<!-- Category -->
<g id="node10" class="node"><title>Category</title>
<ellipse fill="none" stroke="black" cx="944" cy="-343" rx="56.0679" ry="18.3848"/>
<text text-anchor="middle" x="944" y="-339.4" font-family="Times Roman,serif" font-size="14.00">Category</text>
</g>
<!-- Category&#45;&gt;Event -->
<g id="edge16" class="edge"><title>Category&#45;&gt;Event</title>
<path fill="none" stroke="#7d20e4" d="M922.053,-319.185C907.261,-303.135 887.792,-282.008 872.821,-265.763"/>
<ellipse fill="none" stroke="#7d20e4" cx="924.916" cy="-322.292" rx="4.00002" ry="4.00002"/>
<polygon fill="#7d20e4" stroke="#7d20e4" points="872.65,-265.577 869.182,-255.174 869.261,-261.9 865.873,-258.224 865.873,-258.224 865.873,-258.224 869.261,-261.9 862.564,-261.273 872.65,-265.577 872.65,-265.577"/>
</g>
<!-- Ability -->
<g id="node11" class="node"><title>Ability</title>
<polygon fill="none" stroke="black" points="1188,-361 1128,-361 1128,-325 1188,-325 1188,-361"/>
<text text-anchor="middle" x="1158" y="-339.4" font-family="Times Roman,serif" font-size="14.00">Ability</text>
</g>
<!-- Dispositif&#45;&gt;Disposer -->
<g id="edge18" class="edge"><title>Dispositif&#45;&gt;Disposer</title>
<path fill="none" stroke="#1af08e" d="M863,-66.309C863,-60.3769 863,-54.0606 863,-48.0396"/>
<ellipse fill="none" stroke="#1af08e" cx="863" cy="-70.3267" rx="4" ry="4"/>
<polygon fill="#1af08e" stroke="#1af08e" points="863,-47.6674 867.5,-37.6673 863,-42.6674 863,-37.6674 863,-37.6674 863,-37.6674 863,-42.6674 858.5,-37.6674 863,-47.6674 863,-47.6674"/>
</g>
<!-- Templitem -->
<g id="node13" class="node"><title>Templitem</title>
<ellipse fill="none" stroke="black" cx="1267" cy="-343" rx="61.0181" ry="18.3848"/>
<text text-anchor="middle" x="1267" y="-339.4" font-family="Times Roman,serif" font-size="14.00">Templitem</text>
</g>
<!-- Crentite -->
<g id="node14" class="node"><title>Crentite</title>
<ellipse fill="none" stroke="black" cx="684" cy="-343" rx="51.8276" ry="18.3848"/>
<text text-anchor="middle" x="684" y="-339.4" font-family="Times Roman,serif" font-size="14.00">Crentite</text>
</g>
<!-- Crentite&#45;&gt;Refac -->
<g id="edge24" class="edge"><title>Crentite&#45;&gt;Refac</title>
<path fill="none" stroke="#313946" d="M693.671,-316.815C705.752,-284.103 726.336,-228.368 738.703,-194.882"/>
<ellipse fill="none" stroke="#313946" cx="692.219" cy="-320.745" rx="4.00001" ry="4.00001"/>
<polygon fill="#313946" stroke="#313946" points="738.794,-194.635 746.48,-186.814 740.526,-189.945 742.258,-185.255 742.258,-185.255 742.258,-185.255 740.526,-189.945 738.037,-183.695 738.794,-194.635 738.794,-194.635"/>
</g>
<!-- Crentite&#45;&gt;Disposer -->
<g id="edge20" class="edge"><title>Crentite&#45;&gt;Disposer</title>
<path fill="none" stroke="#b4adef" d="M680.368,-316.129C676.357,-276.697 673.874,-201.994 703,-148 729.975,-97.9942 785.296,-60.287 823.263,-38.9258"/>
<ellipse fill="none" stroke="#b4adef" cx="680.85" cy="-320.471" rx="4" ry="4"/>
<polygon fill="#b4adef" stroke="#b4adef" points="823.272,-38.9209 834.203,-38.0494 827.654,-36.5132 832.037,-34.1055 832.037,-34.1055 832.037,-34.1055 827.654,-36.5132 829.87,-30.1616 823.272,-38.9209 823.272,-38.9209"/>
</g>
<!-- Crentite&#45;&gt;Event -->
<g id="edge22" class="edge"><title>Crentite&#45;&gt;Event</title>
<path fill="none" stroke="#7e1286" d="M712.523,-319.38C722.522,-311.548 734.005,-303.04 745,-296 766.642,-282.144 792.154,-268.719 812.611,-258.601"/>
<polygon fill="#7e1286" stroke="#7e1286" points="712.34,-319.525 701.714,-322.232 708.428,-322.639 704.516,-325.753 704.516,-325.753 704.516,-325.753 708.428,-322.639 707.318,-329.274 712.34,-319.525 712.34,-319.525"/>
<polygon fill="#7e1286" stroke="#7e1286" points="812.639,-258.587 823.599,-258.238 817.131,-256.391 821.623,-254.195 821.623,-254.195 821.623,-254.195 817.131,-256.391 819.646,-250.153 812.639,-258.587 812.639,-258.587"/>
</g>
<!-- Crentite&#45;&gt;Volo -->
<g id="edge26" class="edge"><title>Crentite&#45;&gt;Volo</title>
<path fill="none" stroke="#fed525" d="M678.12,-316.271C667.68,-268.818 646.001,-170.276 635.281,-121.549"/>
<ellipse fill="none" stroke="#fed525" cx="679.007" cy="-320.303" rx="4.00001" ry="4.00001"/>
<polygon fill="#fed525" stroke="#fed525" points="635.256,-121.434 637.502,-110.701 634.181,-116.551 633.107,-111.668 633.107,-111.668 633.107,-111.668 634.181,-116.551 628.712,-112.635 635.256,-121.434 635.256,-121.434"/>
</g>
<!-- Nositem -->
<g id="node15" class="node"><title>Nositem</title>
<ellipse fill="none" stroke="black" cx="1064" cy="-241" rx="51.1176" ry="18.3848"/>
<text text-anchor="middle" x="1064" y="-237.4" font-family="Times Roman,serif" font-size="14.00">Nositem</text>
</g>
<!-- Invoice -->
<g id="node16" class="node"><title>Invoice</title>
<ellipse fill="none" stroke="black" cx="1064" cy="-343" rx="45.9619" ry="18.3848"/>
<text text-anchor="middle" x="1064" y="-339.4" font-family="Times Roman,serif" font-size="14.00">Invoice</text>
</g>
<!-- Invoice&#45;&gt;Nositem -->
<g id="edge30" class="edge"><title>Invoice&#45;&gt;Nositem</title>
<path fill="none" stroke="#affd9e" d="M1064,-316.015C1064,-301.835 1064,-284.445 1064,-269.98"/>
<ellipse fill="none" stroke="#affd9e" cx="1064" cy="-320.292" rx="4" ry="4"/>
<polygon fill="#affd9e" stroke="#affd9e" points="1064,-269.59 1068.5,-259.59 1064,-264.59 1064,-259.59 1064,-259.59 1064,-259.59 1064,-264.59 1059.5,-259.59 1064,-269.59 1064,-269.59"/>
</g>
<!-- Invoice&#45;&gt;Event -->
<g id="edge28" class="edge"><title>Invoice&#45;&gt;Event</title>
<path fill="none" stroke="#9758bc" d="M1040.84,-319.833C1031.54,-311.465 1020.34,-302.491 1009,-296 973.281,-275.545 928.706,-260.943 895.849,-251.95"/>
<ellipse fill="none" stroke="#9758bc" cx="1044.03" cy="-322.776" rx="4.00002" ry="4.00002"/>
<polygon fill="#9758bc" stroke="#9758bc" points="895.713,-251.914 887.21,-244.99 890.882,-250.626 886.051,-249.338 886.051,-249.338 886.051,-249.338 890.882,-250.626 884.892,-253.686 895.713,-251.914 895.713,-251.914"/>
</g>
<!-- Event&#45;&gt;Refac -->
<g id="edge36" class="edge"><title>Event&#45;&gt;Refac</title>
<path fill="none" stroke="#64de8b" d="M821.814,-220.349C808.223,-210.391 791.931,-198.455 778.208,-188.4"/>
<ellipse fill="none" stroke="#64de8b" cx="825.354" cy="-222.942" rx="4.00002" ry="4.00002"/>
<polygon fill="#64de8b" stroke="#64de8b" points="778.109,-188.327 772.702,-178.787 774.076,-185.372 770.042,-182.417 770.042,-182.417 770.042,-182.417 774.076,-185.372 767.383,-186.047 778.109,-188.327 778.109,-188.327"/>
</g>
<!-- Event&#45;&gt;Evitem -->
<g id="edge34" class="edge"><title>Event&#45;&gt;Evitem</title>
<path fill="none" stroke="#b81616" d="M850,-214.309C850,-208.377 850,-202.061 850,-196.04"/>
<ellipse fill="none" stroke="#b81616" cx="850" cy="-218.327" rx="4" ry="4"/>
<polygon fill="#b81616" stroke="#b81616" points="850,-195.667 854.5,-185.667 850,-190.667 850,-185.667 850,-185.667 850,-185.667 850,-190.667 845.5,-185.667 850,-195.667 850,-195.667"/>
</g>
<!-- Event&#45;&gt;Service -->
<g id="edge32" class="edge"><title>Event&#45;&gt;Service</title>
<path fill="none" stroke="#c6d419" d="M879.851,-221.099C894.788,-211.141 912.903,-199.065 928.225,-188.85"/>
<ellipse fill="none" stroke="#c6d419" cx="876.327" cy="-223.448" rx="4.00002" ry="4.00002"/>
<polygon fill="#c6d419" stroke="#c6d419" points="928.558,-188.628 939.374,-186.825 932.718,-185.855 936.878,-183.081 936.878,-183.081 936.878,-183.081 932.718,-185.855 934.382,-179.337 928.558,-188.628 928.558,-188.628"/>
</g>
<!-- Volo&#45;&gt;Servolo -->
<g id="edge38" class="edge"><title>Volo&#45;&gt;Servolo</title>
<path fill="none" stroke="#9ffa22" d="M647.412,-69.5093C653.564,-61.6592 660.454,-52.8686 666.74,-44.849"/>
<ellipse fill="none" stroke="#9ffa22" cx="644.92" cy="-72.6887" rx="4.00002" ry="4.00002"/>
<polygon fill="#9ffa22" stroke="#9ffa22" points="666.846,-44.7132 676.557,-39.6186 669.931,-40.7779 673.015,-36.8426 673.015,-36.8426 673.015,-36.8426 669.931,-40.7779 669.474,-34.0666 666.846,-44.7132 666.846,-44.7132"/>
</g>
<!-- Authlogic::Session::Base -->
<g id="node20" class="node"><title>Authlogic::Session::Base</title>
<ellipse fill="none" stroke="black" cx="484" cy="-343" rx="130.108" ry="18.3848"/>
<text text-anchor="middle" x="484" y="-339.4" font-family="Times Roman,serif" font-size="14.00">Authlogic::Session::Base</text>
</g>
<!-- Authlogic::Session::Base&#45;&gt;UserSession -->
<g id="edge2" class="edge"><title>Authlogic::Session::Base&#45;&gt;UserSession</title>
<path fill="none" stroke="black" d="M484,-324.292C484,-305.773 484,-277.603 484,-259.247"/>
</g>
</g>
</svg>
