<?xml version="1.0" encoding="UTF-8" standalone="no"?>
<!DOCTYPE svg PUBLIC "-//W3C//DTD SVG 1.1//EN"
 "http://www.w3.org/Graphics/SVG/1.1/DTD/svg11.dtd">
<!-- Generated by graphviz version 2.26.3 (20100126.1600)
 -->
<!-- Title: models_diagram Pages: 1 -->
<svg width="1170pt" height="818pt"
 viewBox="0.00 0.00 1170.00 818.00" xmlns="http://www.w3.org/2000/svg" xmlns:xlink="http://www.w3.org/1999/xlink">
<g id="graph1" class="graph" transform="scale(1 1) rotate(0) translate(4 814)">
<title>models_diagram</title>
<polygon fill="white" stroke="white" points="-4,5 -4,-814 1167,-814 1167,5 -4,5"/>
<!-- _diagram_info -->
<g id="node1" class="node"><title>_diagram_info</title>
<text text-anchor="start" x="8" y="-768.8" font-family="Times Roman,serif" font-size="13.00">Models diagram</text>
<text text-anchor="start" x="8" y="-751.8" font-family="Times Roman,serif" font-size="13.00">Date: Jun 21 2012 &#45; 14:07</text>
<text text-anchor="start" x="8" y="-734.8" font-family="Times Roman,serif" font-size="13.00">Migration version: 20120619173612</text>
<text text-anchor="start" x="8" y="-717.8" font-family="Times Roman,serif" font-size="13.00">Generated by RailRoady 1.0.7</text>
<text text-anchor="start" x="8" y="-700.8" font-family="Times Roman,serif" font-size="13.00">http://railroady.prestonlee.com</text>
</g>
<!-- Servolo -->
<g id="node2" class="node"><title>Servolo</title>
<polyline fill="none" stroke="black" points="788.5,-1 929.5,-1 "/>
<path fill="none" stroke="black" d="M929.5,-1C935.5,-1 941.5,-7 941.5,-13"/>
<polyline fill="none" stroke="black" points="941.5,-13 941.5,-95 "/>
<path fill="none" stroke="black" d="M941.5,-95C941.5,-101 935.5,-107 929.5,-107"/>
<polyline fill="none" stroke="black" points="929.5,-107 788.5,-107 "/>
<path fill="none" stroke="black" d="M788.5,-107C782.5,-107 776.5,-101 776.5,-95"/>
<polyline fill="none" stroke="black" points="776.5,-95 776.5,-13 "/>
<path fill="none" stroke="black" d="M776.5,-13C776.5,-7 782.5,-1 788.5,-1"/>
<text text-anchor="middle" x="859" y="-90.4" font-family="Times Roman,serif" font-size="14.00">Servolo</text>
<polyline fill="none" stroke="black" points="776.5,-81 941.5,-81 "/>
<text text-anchor="start" x="784.5" y="-64.4" font-family="Times Roman,serif" font-size="14.00">created_at :datetime</text>
<text text-anchor="start" x="784.5" y="-46.4" font-family="Times Roman,serif" font-size="14.00">updated_at :datetime</text>
<text text-anchor="start" x="784.5" y="-28.4" font-family="Times Roman,serif" font-size="14.00">starts_at :timestamp</text>
<text text-anchor="start" x="784.5" y="-10.4" font-family="Times Roman,serif" font-size="14.00">ends_at :timestamp</text>
</g>
<!-- Refac -->
<g id="node3" class="node"><title>Refac</title>
<polyline fill="none" stroke="black" points="315.5,-370 456.5,-370 "/>
<path fill="none" stroke="black" d="M456.5,-370C462.5,-370 468.5,-376 468.5,-382"/>
<polyline fill="none" stroke="black" points="468.5,-382 468.5,-464 "/>
<path fill="none" stroke="black" d="M468.5,-464C468.5,-470 462.5,-476 456.5,-476"/>
<polyline fill="none" stroke="black" points="456.5,-476 315.5,-476 "/>
<path fill="none" stroke="black" d="M315.5,-476C309.5,-476 303.5,-470 303.5,-464"/>
<polyline fill="none" stroke="black" points="303.5,-464 303.5,-382 "/>
<path fill="none" stroke="black" d="M303.5,-382C303.5,-376 309.5,-370 315.5,-370"/>
<text text-anchor="middle" x="386" y="-459.4" font-family="Times Roman,serif" font-size="14.00">Refac</text>
<polyline fill="none" stroke="black" points="303.5,-450 468.5,-450 "/>
<text text-anchor="start" x="311.5" y="-433.4" font-family="Times Roman,serif" font-size="14.00">kind :integer</text>
<text text-anchor="start" x="311.5" y="-415.4" font-family="Times Roman,serif" font-size="14.00">price :decimal</text>
<text text-anchor="start" x="311.5" y="-397.4" font-family="Times Roman,serif" font-size="14.00">created_at :datetime</text>
<text text-anchor="start" x="311.5" y="-379.4" font-family="Times Roman,serif" font-size="14.00">updated_at :datetime</text>
</g>
<!-- Evitem -->
<g id="node4" class="node"><title>Evitem</title>
<polyline fill="none" stroke="black" points="497.5,-343 638.5,-343 "/>
<path fill="none" stroke="black" d="M638.5,-343C644.5,-343 650.5,-349 650.5,-355"/>
<polyline fill="none" stroke="black" points="650.5,-355 650.5,-491 "/>
<path fill="none" stroke="black" d="M650.5,-491C650.5,-497 644.5,-503 638.5,-503"/>
<polyline fill="none" stroke="black" points="638.5,-503 497.5,-503 "/>
<path fill="none" stroke="black" d="M497.5,-503C491.5,-503 485.5,-497 485.5,-491"/>
<polyline fill="none" stroke="black" points="485.5,-491 485.5,-355 "/>
<path fill="none" stroke="black" d="M485.5,-355C485.5,-349 491.5,-343 497.5,-343"/>
<text text-anchor="middle" x="568" y="-486.4" font-family="Times Roman,serif" font-size="14.00">Evitem</text>
<polyline fill="none" stroke="black" points="485.5,-477 650.5,-477 "/>
<text text-anchor="start" x="493.5" y="-460.4" font-family="Times Roman,serif" font-size="14.00">pos :integer</text>
<text text-anchor="start" x="493.5" y="-442.4" font-family="Times Roman,serif" font-size="14.00">name :string</text>
<text text-anchor="start" x="493.5" y="-424.4" font-family="Times Roman,serif" font-size="14.00">qty :decimal</text>
<text text-anchor="start" x="493.5" y="-406.4" font-family="Times Roman,serif" font-size="14.00">price :decimal</text>
<text text-anchor="start" x="493.5" y="-388.4" font-family="Times Roman,serif" font-size="14.00">kind :integer</text>
<text text-anchor="start" x="493.5" y="-370.4" font-family="Times Roman,serif" font-size="14.00">created_at :datetime</text>
<text text-anchor="start" x="493.5" y="-352.4" font-family="Times Roman,serif" font-size="14.00">updated_at :datetime</text>
</g>
<!-- Customer -->
<g id="node5" class="node"><title>Customer</title>
<polyline fill="none" stroke="black" points="825.5,-694 966.5,-694 "/>
<path fill="none" stroke="black" d="M966.5,-694C972.5,-694 978.5,-700 978.5,-706"/>
<polyline fill="none" stroke="black" points="978.5,-706 978.5,-770 "/>
<path fill="none" stroke="black" d="M978.5,-770C978.5,-776 972.5,-782 966.5,-782"/>
<polyline fill="none" stroke="black" points="966.5,-782 825.5,-782 "/>
<path fill="none" stroke="black" d="M825.5,-782C819.5,-782 813.5,-776 813.5,-770"/>
<polyline fill="none" stroke="black" points="813.5,-770 813.5,-706 "/>
<path fill="none" stroke="black" d="M813.5,-706C813.5,-700 819.5,-694 825.5,-694"/>
<text text-anchor="middle" x="896" y="-765.4" font-family="Times Roman,serif" font-size="14.00">Customer</text>
<polyline fill="none" stroke="black" points="813.5,-756 978.5,-756 "/>
<text text-anchor="start" x="821.5" y="-739.4" font-family="Times Roman,serif" font-size="14.00">data :text</text>
<text text-anchor="start" x="821.5" y="-721.4" font-family="Times Roman,serif" font-size="14.00">created_at :datetime</text>
<text text-anchor="start" x="821.5" y="-703.4" font-family="Times Roman,serif" font-size="14.00">updated_at :datetime</text>
</g>
<!-- Event -->
<g id="node13" class="node"><title>Event</title>
<polyline fill="none" stroke="black" points="497.5,-541 638.5,-541 "/>
<path fill="none" stroke="black" d="M638.5,-541C644.5,-541 650.5,-547 650.5,-553"/>
<polyline fill="none" stroke="black" points="650.5,-553 650.5,-617 "/>
<path fill="none" stroke="black" d="M650.5,-617C650.5,-623 644.5,-629 638.5,-629"/>
<polyline fill="none" stroke="black" points="638.5,-629 497.5,-629 "/>
<path fill="none" stroke="black" d="M497.5,-629C491.5,-629 485.5,-623 485.5,-617"/>
<polyline fill="none" stroke="black" points="485.5,-617 485.5,-553 "/>
<path fill="none" stroke="black" d="M485.5,-553C485.5,-547 491.5,-541 497.5,-541"/>
<text text-anchor="middle" x="568" y="-612.4" font-family="Times Roman,serif" font-size="14.00">Event</text>
<polyline fill="none" stroke="black" points="485.5,-603 650.5,-603 "/>
<text text-anchor="start" x="493.5" y="-586.4" font-family="Times Roman,serif" font-size="14.00">name :string</text>
<text text-anchor="start" x="493.5" y="-568.4" font-family="Times Roman,serif" font-size="14.00">created_at :datetime</text>
<text text-anchor="start" x="493.5" y="-550.4" font-family="Times Roman,serif" font-size="14.00">updated_at :datetime</text>
</g>
<!-- Customer&#45;&gt;Event -->
<g id="edge2" class="edge"><title>Customer&#45;&gt;Event</title>
<path fill="none" stroke="#6aa54d" d="M839.751,-688.736C828.685,-680.445 816.827,-672.451 805,-666 759.745,-641.316 705.579,-622.123 660.46,-608.629"/>
<ellipse fill="none" stroke="#6aa54d" cx="842.991" cy="-691.213" rx="4.00002" ry="4.00002"/>
<polygon fill="#6aa54d" stroke="#6aa54d" points="660.275,-608.575 651.952,-601.434 655.478,-607.163 650.682,-605.751 650.682,-605.751 650.682,-605.751 655.478,-607.163 649.411,-610.068 660.275,-608.575 660.275,-608.575"/>
</g>
<!-- Service -->
<g id="node6" class="node"><title>Service</title>
<polyline fill="none" stroke="black" points="680,-343 822,-343 "/>
<path fill="none" stroke="black" d="M822,-343C828,-343 834,-349 834,-355"/>
<polyline fill="none" stroke="black" points="834,-355 834,-491 "/>
<path fill="none" stroke="black" d="M834,-491C834,-497 828,-503 822,-503"/>
<polyline fill="none" stroke="black" points="822,-503 680,-503 "/>
<path fill="none" stroke="black" d="M680,-503C674,-503 668,-497 668,-491"/>
<polyline fill="none" stroke="black" points="668,-491 668,-355 "/>
<path fill="none" stroke="black" d="M668,-355C668,-349 674,-343 680,-343"/>
<text text-anchor="middle" x="751" y="-486.4" font-family="Times Roman,serif" font-size="14.00">Service</text>
<polyline fill="none" stroke="black" points="668,-477 834,-477 "/>
<text text-anchor="start" x="676" y="-460.4" font-family="Times Roman,serif" font-size="14.00">starts_at :datetime</text>
<text text-anchor="start" x="676" y="-442.4" font-family="Times Roman,serif" font-size="14.00">ends_at :datetime</text>
<text text-anchor="start" x="676" y="-424.4" font-family="Times Roman,serif" font-size="14.00">created_at :datetime</text>
<text text-anchor="start" x="676" y="-406.4" font-family="Times Roman,serif" font-size="14.00">updated_at :datetime</text>
<text text-anchor="start" x="676" y="-388.4" font-family="Times Roman,serif" font-size="14.00">rendezvous :string</text>
<text text-anchor="start" x="676" y="-370.4" font-family="Times Roman,serif" font-size="14.00">surplace_at :datetime</text>
<text text-anchor="start" x="676" y="-352.4" font-family="Times Roman,serif" font-size="14.00">depart_at :datetime</text>
</g>
<!-- Service&#45;&gt;Servolo -->
<g id="edge8" class="edge"><title>Service&#45;&gt;Servolo</title>
<path fill="none" stroke="#b1b8b6" d="M713.614,-335.335C695.042,-277.622 682.712,-202.256 715,-144 726.996,-122.357 746.605,-105.231 767.547,-91.9869"/>
<ellipse fill="none" stroke="#b1b8b6" cx="714.894" cy="-339.201" rx="4.00001" ry="4.00001"/>
<polygon fill="#b1b8b6" stroke="#b1b8b6" points="767.698,-91.8957 778.585,-90.5858 771.98,-89.3139 776.262,-86.7321 776.262,-86.7321 776.262,-86.7321 771.98,-89.3139 773.938,-82.8784 767.698,-91.8957 767.698,-91.8957"/>
</g>
<!-- Disposer -->
<g id="node7" class="node"><title>Disposer</title>
<polyline fill="none" stroke="black" points="477.5,-10 618.5,-10 "/>
<path fill="none" stroke="black" d="M618.5,-10C624.5,-10 630.5,-16 630.5,-22"/>
<polyline fill="none" stroke="black" points="630.5,-22 630.5,-86 "/>
<path fill="none" stroke="black" d="M630.5,-86C630.5,-92 624.5,-98 618.5,-98"/>
<polyline fill="none" stroke="black" points="618.5,-98 477.5,-98 "/>
<path fill="none" stroke="black" d="M477.5,-98C471.5,-98 465.5,-92 465.5,-86"/>
<polyline fill="none" stroke="black" points="465.5,-86 465.5,-22 "/>
<path fill="none" stroke="black" d="M465.5,-22C465.5,-16 471.5,-10 477.5,-10"/>
<text text-anchor="middle" x="548" y="-81.4" font-family="Times Roman,serif" font-size="14.00">Disposer</text>
<polyline fill="none" stroke="black" points="465.5,-72 630.5,-72 "/>
<text text-anchor="start" x="473.5" y="-55.4" font-family="Times Roman,serif" font-size="14.00">quantity :integer</text>
<text text-anchor="start" x="473.5" y="-37.4" font-family="Times Roman,serif" font-size="14.00">created_at :datetime</text>
<text text-anchor="start" x="473.5" y="-19.4" font-family="Times Roman,serif" font-size="14.00">updated_at :datetime</text>
</g>
<!-- Service&#45;&gt;Disposer -->
<g id="edge12" class="edge"><title>Service&#45;&gt;Disposer</title>
<path fill="none" stroke="#d34338" d="M704.163,-335.448C699.487,-325.619 694.998,-315.665 691,-306 662.095,-236.124 678.574,-208.436 639,-144 630.622,-130.358 619.752,-117.267 608.456,-105.496"/>
<ellipse fill="none" stroke="#d34338" cx="706.034" cy="-339.33" rx="4.00002" ry="4.00002"/>
<polygon fill="#d34338" stroke="#d34338" points="608.417,-105.456 604.587,-95.181 604.902,-101.9 601.387,-98.3446 601.387,-98.3446 601.387,-98.3446 604.902,-101.9 598.186,-101.508 608.417,-105.456 608.417,-105.456"/>
</g>
<!-- Dispositif -->
<g id="node9" class="node"><title>Dispositif</title>
<polyline fill="none" stroke="black" points="477.5,-172 618.5,-172 "/>
<path fill="none" stroke="black" d="M618.5,-172C624.5,-172 630.5,-178 630.5,-184"/>
<polyline fill="none" stroke="black" points="630.5,-184 630.5,-266 "/>
<path fill="none" stroke="black" d="M630.5,-266C630.5,-272 624.5,-278 618.5,-278"/>
<polyline fill="none" stroke="black" points="618.5,-278 477.5,-278 "/>
<path fill="none" stroke="black" d="M477.5,-278C471.5,-278 465.5,-272 465.5,-266"/>
<polyline fill="none" stroke="black" points="465.5,-266 465.5,-184 "/>
<path fill="none" stroke="black" d="M465.5,-184C465.5,-178 471.5,-172 477.5,-172"/>
<text text-anchor="middle" x="548" y="-261.4" font-family="Times Roman,serif" font-size="14.00">Dispositif</text>
<polyline fill="none" stroke="black" points="465.5,-252 630.5,-252 "/>
<text text-anchor="start" x="473.5" y="-235.4" font-family="Times Roman,serif" font-size="14.00">pos :integer</text>
<text text-anchor="start" x="473.5" y="-217.4" font-family="Times Roman,serif" font-size="14.00">name :string</text>
<text text-anchor="start" x="473.5" y="-199.4" font-family="Times Roman,serif" font-size="14.00">created_at :datetime</text>
<text text-anchor="start" x="473.5" y="-181.4" font-family="Times Roman,serif" font-size="14.00">updated_at :datetime</text>
</g>
<!-- Service&#45;&gt;Dispositif -->
<g id="edge10" class="edge"><title>Service&#45;&gt;Dispositif</title>
<path fill="none" stroke="#8343fa" d="M661.364,-335.572C643.957,-318.594 626.078,-301.155 609.813,-285.291"/>
<polygon fill="#8343fa" stroke="#8343fa" points="661.566,-335.769 665.583,-345.973 665.145,-339.26 668.725,-342.751 668.725,-342.751 668.725,-342.751 665.145,-339.26 671.867,-339.53 661.566,-335.769 661.566,-335.769"/>
<polygon fill="#8343fa" stroke="#8343fa" points="609.62,-285.102 605.603,-274.898 606.041,-281.611 602.461,-278.12 602.461,-278.12 602.461,-278.12 606.041,-281.611 599.319,-281.341 609.62,-285.102 609.62,-285.102"/>
</g>
<!-- Volo -->
<g id="node14" class="node"><title>Volo</title>
<polyline fill="none" stroke="black" points="917.5,-172 1058.5,-172 "/>
<path fill="none" stroke="black" d="M1058.5,-172C1064.5,-172 1070.5,-178 1070.5,-184"/>
<polyline fill="none" stroke="black" points="1070.5,-184 1070.5,-266 "/>
<path fill="none" stroke="black" d="M1070.5,-266C1070.5,-272 1064.5,-278 1058.5,-278"/>
<polyline fill="none" stroke="black" points="1058.5,-278 917.5,-278 "/>
<path fill="none" stroke="black" d="M917.5,-278C911.5,-278 905.5,-272 905.5,-266"/>
<polyline fill="none" stroke="black" points="905.5,-266 905.5,-184 "/>
<path fill="none" stroke="black" d="M905.5,-184C905.5,-178 911.5,-172 917.5,-172"/>
<text text-anchor="middle" x="988" y="-261.4" font-family="Times Roman,serif" font-size="14.00">Volo</text>
<polyline fill="none" stroke="black" points="905.5,-252 1070.5,-252 "/>
<text text-anchor="start" x="913.5" y="-235.4" font-family="Times Roman,serif" font-size="14.00">first_name :string</text>
<text text-anchor="start" x="913.5" y="-217.4" font-family="Times Roman,serif" font-size="14.00">last_name :string</text>
<text text-anchor="start" x="913.5" y="-199.4" font-family="Times Roman,serif" font-size="14.00">created_at :datetime</text>
<text text-anchor="start" x="913.5" y="-181.4" font-family="Times Roman,serif" font-size="14.00">updated_at :datetime</text>
</g>
<!-- Service&#45;&gt;Volo -->
<g id="edge6" class="edge"><title>Service&#45;&gt;Volo</title>
<path fill="none" stroke="#55802d" d="M842.034,-351.245C860.374,-336.455 879.414,-320.856 897,-306 905.041,-299.207 913.394,-291.995 921.635,-284.782"/>
<polygon fill="#55802d" stroke="#55802d" points="842.015,-351.261 831.403,-354.024 838.119,-354.395 834.224,-357.53 834.224,-357.53 834.224,-357.53 838.119,-354.395 837.045,-361.036 842.015,-351.261 842.015,-351.261"/>
<polygon fill="#55802d" stroke="#55802d" points="921.647,-284.771 932.129,-281.55 925.403,-281.471 929.159,-278.17 929.159,-278.17 929.159,-278.17 925.403,-281.471 926.188,-274.79 921.647,-284.771 921.647,-284.771"/>
</g>
<!-- Seritem -->
<g id="node15" class="node"><title>Seritem</title>
<polyline fill="none" stroke="black" points="735.5,-145 876.5,-145 "/>
<path fill="none" stroke="black" d="M876.5,-145C882.5,-145 888.5,-151 888.5,-157"/>
<polyline fill="none" stroke="black" points="888.5,-157 888.5,-293 "/>
<path fill="none" stroke="black" d="M888.5,-293C888.5,-299 882.5,-305 876.5,-305"/>
<polyline fill="none" stroke="black" points="876.5,-305 735.5,-305 "/>
<path fill="none" stroke="black" d="M735.5,-305C729.5,-305 723.5,-299 723.5,-293"/>
<polyline fill="none" stroke="black" points="723.5,-293 723.5,-157 "/>
<path fill="none" stroke="black" d="M723.5,-157C723.5,-151 729.5,-145 735.5,-145"/>
<text text-anchor="middle" x="806" y="-288.4" font-family="Times Roman,serif" font-size="14.00">Seritem</text>
<polyline fill="none" stroke="black" points="723.5,-279 888.5,-279 "/>
<text text-anchor="start" x="731.5" y="-262.4" font-family="Times Roman,serif" font-size="14.00">pos :integer</text>
<text text-anchor="start" x="731.5" y="-244.4" font-family="Times Roman,serif" font-size="14.00">name :string</text>
<text text-anchor="start" x="731.5" y="-226.4" font-family="Times Roman,serif" font-size="14.00">qty :decimal</text>
<text text-anchor="start" x="731.5" y="-208.4" font-family="Times Roman,serif" font-size="14.00">price :decimal</text>
<text text-anchor="start" x="731.5" y="-190.4" font-family="Times Roman,serif" font-size="14.00">kind :integer</text>
<text text-anchor="start" x="731.5" y="-172.4" font-family="Times Roman,serif" font-size="14.00">created_at :datetime</text>
<text text-anchor="start" x="731.5" y="-154.4" font-family="Times Roman,serif" font-size="14.00">updated_at :datetime</text>
</g>
<!-- Service&#45;&gt;Seritem -->
<g id="edge4" class="edge"><title>Service&#45;&gt;Seritem</title>
<path fill="none" stroke="#7c7bf0" d="M775.49,-334.835C777.341,-328.171 779.211,-321.44 781.065,-314.766"/>
<ellipse fill="none" stroke="#7c7bf0" cx="774.362" cy="-338.897" rx="4.00001" ry="4.00001"/>
<polygon fill="#7c7bf0" stroke="#7c7bf0" points="781.09,-314.677 788.102,-306.246 782.428,-309.859 783.766,-305.041 783.766,-305.041 783.766,-305.041 782.428,-309.859 779.43,-303.837 781.09,-314.677 781.09,-314.677"/>
</g>
<!-- Category -->
<g id="node8" class="node"><title>Category</title>
<polyline fill="none" stroke="black" points="461.5,-685 602.5,-685 "/>
<path fill="none" stroke="black" d="M602.5,-685C608.5,-685 614.5,-691 614.5,-697"/>
<polyline fill="none" stroke="black" points="614.5,-697 614.5,-779 "/>
<path fill="none" stroke="black" d="M614.5,-779C614.5,-785 608.5,-791 602.5,-791"/>
<polyline fill="none" stroke="black" points="602.5,-791 461.5,-791 "/>
<path fill="none" stroke="black" d="M461.5,-791C455.5,-791 449.5,-785 449.5,-779"/>
<polyline fill="none" stroke="black" points="449.5,-779 449.5,-697 "/>
<path fill="none" stroke="black" d="M449.5,-697C449.5,-691 455.5,-685 461.5,-685"/>
<text text-anchor="middle" x="532" y="-774.4" font-family="Times Roman,serif" font-size="14.00">Category</text>
<polyline fill="none" stroke="black" points="449.5,-765 614.5,-765 "/>
<text text-anchor="start" x="457.5" y="-748.4" font-family="Times Roman,serif" font-size="14.00">name :string</text>
<text text-anchor="start" x="457.5" y="-730.4" font-family="Times Roman,serif" font-size="14.00">short_name :string</text>
<text text-anchor="start" x="457.5" y="-712.4" font-family="Times Roman,serif" font-size="14.00">created_at :datetime</text>
<text text-anchor="start" x="457.5" y="-694.4" font-family="Times Roman,serif" font-size="14.00">updated_at :datetime</text>
</g>
<!-- Category&#45;&gt;Event -->
<g id="edge14" class="edge"><title>Category&#45;&gt;Event</title>
<path fill="none" stroke="#216f1b" d="M546.416,-676.733C549.327,-664.36 552.369,-651.432 555.22,-639.317"/>
<ellipse fill="none" stroke="#216f1b" cx="545.406" cy="-681.024" rx="4.00001" ry="4.00001"/>
<polygon fill="#216f1b" stroke="#216f1b" points="555.272,-639.096 561.942,-630.392 556.417,-634.229 557.562,-629.361 557.562,-629.361 557.562,-629.361 556.417,-634.229 553.182,-628.331 555.272,-639.096 555.272,-639.096"/>
</g>
<!-- Dispositif&#45;&gt;Disposer -->
<g id="edge16" class="edge"><title>Dispositif&#45;&gt;Disposer</title>
<path fill="none" stroke="#08240f" d="M548,-163.666C548,-145.588 548,-125.939 548,-108.332"/>
<ellipse fill="none" stroke="#08240f" cx="548" cy="-167.832" rx="4" ry="4"/>
<polygon fill="#08240f" stroke="#08240f" points="548,-108.23 552.5,-98.2295 548,-103.23 548,-98.2296 548,-98.2296 548,-98.2296 548,-103.23 543.5,-98.2296 548,-108.23 548,-108.23"/>
</g>
<!-- TemplateInvoicedItem -->
<g id="node10" class="node"><title>TemplateInvoicedItem</title>
<polyline fill="none" stroke="black" points="1007.5,-667 1150.5,-667 "/>
<path fill="none" stroke="black" d="M1150.5,-667C1156.5,-667 1162.5,-673 1162.5,-679"/>
<polyline fill="none" stroke="black" points="1162.5,-679 1162.5,-797 "/>
<path fill="none" stroke="black" d="M1162.5,-797C1162.5,-803 1156.5,-809 1150.5,-809"/>
<polyline fill="none" stroke="black" points="1150.5,-809 1007.5,-809 "/>
<path fill="none" stroke="black" d="M1007.5,-809C1001.5,-809 995.5,-803 995.5,-797"/>
<polyline fill="none" stroke="black" points="995.5,-797 995.5,-679 "/>
<path fill="none" stroke="black" d="M995.5,-679C995.5,-673 1001.5,-667 1007.5,-667"/>
<text text-anchor="middle" x="1079" y="-792.4" font-family="Times Roman,serif" font-size="14.00">TemplateInvoicedItem</text>
<polyline fill="none" stroke="black" points="995.5,-783 1162.5,-783 "/>
<text text-anchor="start" x="1003.5" y="-766.4" font-family="Times Roman,serif" font-size="14.00">pos :integer</text>
<text text-anchor="start" x="1003.5" y="-748.4" font-family="Times Roman,serif" font-size="14.00">name :string</text>
<text text-anchor="start" x="1003.5" y="-730.4" font-family="Times Roman,serif" font-size="14.00">kind :integer</text>
<text text-anchor="start" x="1003.5" y="-712.4" font-family="Times Roman,serif" font-size="14.00">price :decimal</text>
<text text-anchor="start" x="1003.5" y="-694.4" font-family="Times Roman,serif" font-size="14.00">created_at :datetime</text>
<text text-anchor="start" x="1003.5" y="-676.4" font-family="Times Roman,serif" font-size="14.00">updated_at :datetime</text>
</g>
<!-- Crentite -->
<g id="node11" class="node"><title>Crentite</title>
<polyline fill="none" stroke="black" points="279.5,-694 420.5,-694 "/>
<path fill="none" stroke="black" d="M420.5,-694C426.5,-694 432.5,-700 432.5,-706"/>
<polyline fill="none" stroke="black" points="432.5,-706 432.5,-770 "/>
<path fill="none" stroke="black" d="M432.5,-770C432.5,-776 426.5,-782 420.5,-782"/>
<polyline fill="none" stroke="black" points="420.5,-782 279.5,-782 "/>
<path fill="none" stroke="black" d="M279.5,-782C273.5,-782 267.5,-776 267.5,-770"/>
<polyline fill="none" stroke="black" points="267.5,-770 267.5,-706 "/>
<path fill="none" stroke="black" d="M267.5,-706C267.5,-700 273.5,-694 279.5,-694"/>
<text text-anchor="middle" x="350" y="-765.4" font-family="Times Roman,serif" font-size="14.00">Crentite</text>
<polyline fill="none" stroke="black" points="267.5,-756 432.5,-756 "/>
<text text-anchor="start" x="275.5" y="-739.4" font-family="Times Roman,serif" font-size="14.00">name :string</text>
<text text-anchor="start" x="275.5" y="-721.4" font-family="Times Roman,serif" font-size="14.00">created_at :datetime</text>
<text text-anchor="start" x="275.5" y="-703.4" font-family="Times Roman,serif" font-size="14.00">updated_at :datetime</text>
</g>
<!-- Crentite&#45;&gt;Refac -->
<g id="edge22" class="edge"><title>Crentite&#45;&gt;Refac</title>
<path fill="none" stroke="#eb4f18" d="M355.952,-685.918C362.212,-631.149 372.064,-544.936 378.768,-486.284"/>
<ellipse fill="none" stroke="#eb4f18" cx="355.498" cy="-689.895" rx="4.00001" ry="4.00001"/>
<polygon fill="#eb4f18" stroke="#eb4f18" points="378.804,-485.966 384.41,-476.541 379.372,-480.998 379.939,-476.03 379.939,-476.03 379.939,-476.03 379.372,-480.998 375.468,-475.519 378.804,-485.966 378.804,-485.966"/>
</g>
<!-- Crentite&#45;&gt;Disposer -->
<g id="edge18" class="edge"><title>Crentite&#45;&gt;Disposer</title>
<path fill="none" stroke="#a70c96" d="M327.625,-686.147C297.643,-608.942 252.813,-460.183 295,-342 330.403,-242.821 418.698,-156.218 480.975,-104.535"/>
<ellipse fill="none" stroke="#a70c96" cx="329.191" cy="-690.123" rx="4.00001" ry="4.00001"/>
<polygon fill="#a70c96" stroke="#a70c96" points="481.087,-104.443 491.672,-101.575 484.952,-101.27 488.816,-98.0974 488.816,-98.0974 488.816,-98.0974 484.952,-101.27 485.961,-94.6194 481.087,-104.443 481.087,-104.443"/>
</g>
<!-- Crentite&#45;&gt;Event -->
<g id="edge20" class="edge"><title>Crentite&#45;&gt;Event</title>
<path fill="none" stroke="#0522bd" d="M412.112,-687.5C421.667,-680.129 431.511,-672.753 441,-666 455.741,-655.508 471.791,-644.771 487.365,-634.688"/>
<polygon fill="#0522bd" stroke="#0522bd" points="412.062,-687.539 401.406,-690.125 408.115,-690.608 404.168,-693.678 404.168,-693.678 404.168,-693.678 408.115,-690.608 406.931,-697.23 412.062,-687.539 412.062,-687.539"/>
<polygon fill="#0522bd" stroke="#0522bd" points="487.547,-634.57 498.392,-632.943 491.752,-631.865 495.957,-629.159 495.957,-629.159 495.957,-629.159 491.752,-631.865 493.521,-625.375 487.547,-634.57 487.547,-634.57"/>
</g>
<!-- Invoice -->
<g id="node12" class="node"><title>Invoice</title>
<polyline fill="none" stroke="black" points="643.5,-676 784.5,-676 "/>
<path fill="none" stroke="black" d="M784.5,-676C790.5,-676 796.5,-682 796.5,-688"/>
<polyline fill="none" stroke="black" points="796.5,-688 796.5,-788 "/>
<path fill="none" stroke="black" d="M796.5,-788C796.5,-794 790.5,-800 784.5,-800"/>
<polyline fill="none" stroke="black" points="784.5,-800 643.5,-800 "/>
<path fill="none" stroke="black" d="M643.5,-800C637.5,-800 631.5,-794 631.5,-788"/>
<polyline fill="none" stroke="black" points="631.5,-788 631.5,-688 "/>
<path fill="none" stroke="black" d="M631.5,-688C631.5,-682 637.5,-676 643.5,-676"/>
<text text-anchor="middle" x="714" y="-783.4" font-family="Times Roman,serif" font-size="14.00">Invoice</text>
<polyline fill="none" stroke="black" points="631.5,-774 796.5,-774 "/>
<text text-anchor="start" x="639.5" y="-757.4" font-family="Times Roman,serif" font-size="14.00">number :string</text>
<text text-anchor="start" x="639.5" y="-739.4" font-family="Times Roman,serif" font-size="14.00">customer_data :text</text>
<text text-anchor="start" x="639.5" y="-721.4" font-family="Times Roman,serif" font-size="14.00">sent_at :date</text>
<text text-anchor="start" x="639.5" y="-703.4" font-family="Times Roman,serif" font-size="14.00">created_at :datetime</text>
<text text-anchor="start" x="639.5" y="-685.4" font-family="Times Roman,serif" font-size="14.00">updated_at :datetime</text>
</g>
<!-- Invoice&#45;&gt;Event -->
<g id="edge24" class="edge"><title>Invoice&#45;&gt;Event</title>
<path fill="none" stroke="#d97e46" d="M649.019,-669.903C638.357,-658.731 627.465,-647.316 617.266,-636.628"/>
<ellipse fill="none" stroke="#d97e46" cx="651.855" cy="-672.875" rx="4.00002" ry="4.00002"/>
<polygon fill="#d97e46" stroke="#d97e46" points="617.231,-636.591 613.583,-626.25 613.779,-632.974 610.327,-629.357 610.327,-629.357 610.327,-629.357 613.779,-632.974 607.072,-632.463 617.231,-636.591 617.231,-636.591"/>
</g>
<!-- Event&#45;&gt;Refac -->
<g id="edge30" class="edge"><title>Event&#45;&gt;Refac</title>
<path fill="none" stroke="#7dc3fb" d="M512.128,-535.268C493.552,-518.733 472.668,-500.144 453.319,-482.921"/>
<ellipse fill="none" stroke="#7dc3fb" cx="515.28" cy="-538.073" rx="4.00002" ry="4.00002"/>
<polygon fill="#7dc3fb" stroke="#7dc3fb" points="453.173,-482.792 448.696,-472.782 449.439,-479.467 445.704,-476.143 445.704,-476.143 445.704,-476.143 449.439,-479.467 442.712,-479.504 453.173,-482.792 453.173,-482.792"/>
</g>
<!-- Event&#45;&gt;Evitem -->
<g id="edge28" class="edge"><title>Event&#45;&gt;Evitem</title>
<path fill="none" stroke="#431f02" d="M568,-532.589C568,-526.381 568,-519.916 568,-513.368"/>
<ellipse fill="none" stroke="#431f02" cx="568" cy="-536.733" rx="4" ry="4"/>
<polygon fill="#431f02" stroke="#431f02" points="568,-513.036 572.5,-503.036 568,-508.036 568,-503.036 568,-503.036 568,-503.036 568,-508.036 563.5,-503.036 568,-513.036 568,-513.036"/>
</g>
<!-- Event&#45;&gt;Service -->
<g id="edge26" class="edge"><title>Event&#45;&gt;Service</title>
<path fill="none" stroke="#6d4f34" d="M624.262,-535.194C635.709,-525.061 648.025,-514.158 660.321,-503.273"/>
<ellipse fill="none" stroke="#6d4f34" cx="621.001" cy="-538.081" rx="4.00002" ry="4.00002"/>
<polygon fill="#6d4f34" stroke="#6d4f34" points="660.479,-503.133 670.95,-499.874 664.223,-499.819 667.967,-496.505 667.967,-496.505 667.967,-496.505 664.223,-499.819 664.984,-493.135 660.479,-503.133 660.479,-503.133"/>
</g>
<!-- Volo&#45;&gt;Servolo -->
<g id="edge32" class="edge"><title>Volo&#45;&gt;Servolo</title>
<path fill="none" stroke="#b79306" d="M942.721,-164.979C930.614,-148.93 917.513,-131.564 905.35,-115.44"/>
<ellipse fill="none" stroke="#b79306" cx="945.482" cy="-168.639" rx="4.00002" ry="4.00002"/>
<polygon fill="#b79306" stroke="#b79306" points="905.107,-115.118 902.677,-104.425 902.096,-111.127 899.084,-107.135 899.084,-107.135 899.084,-107.135 902.096,-111.127 895.492,-109.845 905.107,-115.118 905.107,-115.118"/>
</g>
</g>
</svg>
