<?xml version="1.0" encoding="UTF-8" standalone="no"?>
<!DOCTYPE svg PUBLIC "-//W3C//DTD SVG 1.1//EN"
 "http://www.w3.org/Graphics/SVG/1.1/DTD/svg11.dtd">
<!-- Generated by graphviz version 2.26.3 (20100126.1600)
 -->
<!-- Title: models_diagram Pages: 1 -->
<svg width="914pt" height="818pt"
 viewBox="0.00 0.00 914.00 818.00" xmlns="http://www.w3.org/2000/svg" xmlns:xlink="http://www.w3.org/1999/xlink">
<g id="graph1" class="graph" transform="scale(1 1) rotate(0) translate(4 814)">
<title>models_diagram</title>
<polygon fill="white" stroke="white" points="-4,5 -4,-814 911,-814 911,5 -4,5"/>
<!-- _diagram_info -->
<g id="node1" class="node"><title>_diagram_info</title>
<text text-anchor="start" x="8" y="-768.8" font-family="Times Roman,serif" font-size="13.00">Models diagram</text>
<text text-anchor="start" x="8" y="-751.8" font-family="Times Roman,serif" font-size="13.00">Date: Jun 16 2012 &#45; 14:34</text>
<text text-anchor="start" x="8" y="-734.8" font-family="Times Roman,serif" font-size="13.00">Migration version: 20120616100848</text>
<text text-anchor="start" x="8" y="-717.8" font-family="Times Roman,serif" font-size="13.00">Generated by RailRoady 1.0.7</text>
<text text-anchor="start" x="8" y="-700.8" font-family="Times Roman,serif" font-size="13.00">http://railroady.prestonlee.com</text>
</g>
<!-- Servolo -->
<g id="node2" class="node"><title>Servolo</title>
<polyline fill="none" stroke="black" points="305.5,-1 446.5,-1 "/>
<path fill="none" stroke="black" d="M446.5,-1C452.5,-1 458.5,-7 458.5,-13"/>
<polyline fill="none" stroke="black" points="458.5,-13 458.5,-95 "/>
<path fill="none" stroke="black" d="M458.5,-95C458.5,-101 452.5,-107 446.5,-107"/>
<polyline fill="none" stroke="black" points="446.5,-107 305.5,-107 "/>
<path fill="none" stroke="black" d="M305.5,-107C299.5,-107 293.5,-101 293.5,-95"/>
<polyline fill="none" stroke="black" points="293.5,-95 293.5,-13 "/>
<path fill="none" stroke="black" d="M293.5,-13C293.5,-7 299.5,-1 305.5,-1"/>
<text text-anchor="middle" x="376" y="-90.4" font-family="Times Roman,serif" font-size="14.00">Servolo</text>
<polyline fill="none" stroke="black" points="293.5,-81 458.5,-81 "/>
<text text-anchor="start" x="301.5" y="-64.4" font-family="Times Roman,serif" font-size="14.00">created_at :datetime</text>
<text text-anchor="start" x="301.5" y="-46.4" font-family="Times Roman,serif" font-size="14.00">updated_at :datetime</text>
<text text-anchor="start" x="301.5" y="-28.4" font-family="Times Roman,serif" font-size="14.00">starts_at :timestamp</text>
<text text-anchor="start" x="301.5" y="-10.4" font-family="Times Roman,serif" font-size="14.00">ends_at :timestamp</text>
</g>
<!-- Evitem -->
<g id="node3" class="node"><title>Evitem</title>
<polyline fill="none" stroke="black" points="279.5,-343 420.5,-343 "/>
<path fill="none" stroke="black" d="M420.5,-343C426.5,-343 432.5,-349 432.5,-355"/>
<polyline fill="none" stroke="black" points="432.5,-355 432.5,-491 "/>
<path fill="none" stroke="black" d="M432.5,-491C432.5,-497 426.5,-503 420.5,-503"/>
<polyline fill="none" stroke="black" points="420.5,-503 279.5,-503 "/>
<path fill="none" stroke="black" d="M279.5,-503C273.5,-503 267.5,-497 267.5,-491"/>
<polyline fill="none" stroke="black" points="267.5,-491 267.5,-355 "/>
<path fill="none" stroke="black" d="M267.5,-355C267.5,-349 273.5,-343 279.5,-343"/>
<text text-anchor="middle" x="350" y="-486.4" font-family="Times Roman,serif" font-size="14.00">Evitem</text>
<polyline fill="none" stroke="black" points="267.5,-477 432.5,-477 "/>
<text text-anchor="start" x="275.5" y="-460.4" font-family="Times Roman,serif" font-size="14.00">pos :integer</text>
<text text-anchor="start" x="275.5" y="-442.4" font-family="Times Roman,serif" font-size="14.00">name :string</text>
<text text-anchor="start" x="275.5" y="-424.4" font-family="Times Roman,serif" font-size="14.00">qty :decimal</text>
<text text-anchor="start" x="275.5" y="-406.4" font-family="Times Roman,serif" font-size="14.00">price :decimal</text>
<text text-anchor="start" x="275.5" y="-388.4" font-family="Times Roman,serif" font-size="14.00">kind :integer</text>
<text text-anchor="start" x="275.5" y="-370.4" font-family="Times Roman,serif" font-size="14.00">created_at :datetime</text>
<text text-anchor="start" x="275.5" y="-352.4" font-family="Times Roman,serif" font-size="14.00">updated_at :datetime</text>
</g>
<!-- Service -->
<g id="node4" class="node"><title>Service</title>
<polyline fill="none" stroke="black" points="461.5,-370 602.5,-370 "/>
<path fill="none" stroke="black" d="M602.5,-370C608.5,-370 614.5,-376 614.5,-382"/>
<polyline fill="none" stroke="black" points="614.5,-382 614.5,-464 "/>
<path fill="none" stroke="black" d="M614.5,-464C614.5,-470 608.5,-476 602.5,-476"/>
<polyline fill="none" stroke="black" points="602.5,-476 461.5,-476 "/>
<path fill="none" stroke="black" d="M461.5,-476C455.5,-476 449.5,-470 449.5,-464"/>
<polyline fill="none" stroke="black" points="449.5,-464 449.5,-382 "/>
<path fill="none" stroke="black" d="M449.5,-382C449.5,-376 455.5,-370 461.5,-370"/>
<text text-anchor="middle" x="532" y="-459.4" font-family="Times Roman,serif" font-size="14.00">Service</text>
<polyline fill="none" stroke="black" points="449.5,-450 614.5,-450 "/>
<text text-anchor="start" x="457.5" y="-433.4" font-family="Times Roman,serif" font-size="14.00">starts_at :datetime</text>
<text text-anchor="start" x="457.5" y="-415.4" font-family="Times Roman,serif" font-size="14.00">ends_at :datetime</text>
<text text-anchor="start" x="457.5" y="-397.4" font-family="Times Roman,serif" font-size="14.00">created_at :datetime</text>
<text text-anchor="start" x="457.5" y="-379.4" font-family="Times Roman,serif" font-size="14.00">updated_at :datetime</text>
</g>
<!-- Service&#45;&gt;Servolo -->
<g id="edge6" class="edge"><title>Service&#45;&gt;Servolo</title>
<path fill="none" stroke="#2bc5c8" d="M473.23,-364.573C463.009,-356.253 452.085,-348.373 441,-342 396.405,-316.36 361.192,-347.648 331,-306 290.993,-250.812 315.078,-171.296 340.816,-116.414"/>
<ellipse fill="none" stroke="#2bc5c8" cx="476.426" cy="-367.239" rx="4.00002" ry="4.00002"/>
<polygon fill="#2bc5c8" stroke="#2bc5c8" points="340.943,-116.153 349.341,-109.102 343.115,-111.649 345.288,-107.146 345.288,-107.146 345.288,-107.146 343.115,-111.649 341.235,-105.191 340.943,-116.153 340.943,-116.153"/>
</g>
<!-- Disposer -->
<g id="node5" class="node"><title>Disposer</title>
<polyline fill="none" stroke="black" points="506.5,-10 647.5,-10 "/>
<path fill="none" stroke="black" d="M647.5,-10C653.5,-10 659.5,-16 659.5,-22"/>
<polyline fill="none" stroke="black" points="659.5,-22 659.5,-86 "/>
<path fill="none" stroke="black" d="M659.5,-86C659.5,-92 653.5,-98 647.5,-98"/>
<polyline fill="none" stroke="black" points="647.5,-98 506.5,-98 "/>
<path fill="none" stroke="black" d="M506.5,-98C500.5,-98 494.5,-92 494.5,-86"/>
<polyline fill="none" stroke="black" points="494.5,-86 494.5,-22 "/>
<path fill="none" stroke="black" d="M494.5,-22C494.5,-16 500.5,-10 506.5,-10"/>
<text text-anchor="middle" x="577" y="-81.4" font-family="Times Roman,serif" font-size="14.00">Disposer</text>
<polyline fill="none" stroke="black" points="494.5,-72 659.5,-72 "/>
<text text-anchor="start" x="502.5" y="-55.4" font-family="Times Roman,serif" font-size="14.00">quantity :integer</text>
<text text-anchor="start" x="502.5" y="-37.4" font-family="Times Roman,serif" font-size="14.00">created_at :datetime</text>
<text text-anchor="start" x="502.5" y="-19.4" font-family="Times Roman,serif" font-size="14.00">updated_at :datetime</text>
</g>
<!-- Service&#45;&gt;Disposer -->
<g id="edge10" class="edge"><title>Service&#45;&gt;Disposer</title>
<path fill="none" stroke="#0394cb" d="M532.431,-361.723C533.712,-304.89 537.916,-218.166 551,-144 553.075,-132.238 556.099,-119.818 559.357,-108.085"/>
<ellipse fill="none" stroke="#0394cb" cx="532.345" cy="-365.887" rx="4" ry="4"/>
<polygon fill="#0394cb" stroke="#0394cb" points="559.372,-108.032 566.458,-99.6632 560.752,-103.227 562.133,-98.4208 562.133,-98.4208 562.133,-98.4208 560.752,-103.227 557.808,-97.1785 559.372,-108.032 559.372,-108.032"/>
</g>
<!-- Dispositif -->
<g id="node7" class="node"><title>Dispositif</title>
<polyline fill="none" stroke="black" points="571.5,-172 712.5,-172 "/>
<path fill="none" stroke="black" d="M712.5,-172C718.5,-172 724.5,-178 724.5,-184"/>
<polyline fill="none" stroke="black" points="724.5,-184 724.5,-266 "/>
<path fill="none" stroke="black" d="M724.5,-266C724.5,-272 718.5,-278 712.5,-278"/>
<polyline fill="none" stroke="black" points="712.5,-278 571.5,-278 "/>
<path fill="none" stroke="black" d="M571.5,-278C565.5,-278 559.5,-272 559.5,-266"/>
<polyline fill="none" stroke="black" points="559.5,-266 559.5,-184 "/>
<path fill="none" stroke="black" d="M559.5,-184C559.5,-178 565.5,-172 571.5,-172"/>
<text text-anchor="middle" x="642" y="-261.4" font-family="Times Roman,serif" font-size="14.00">Dispositif</text>
<polyline fill="none" stroke="black" points="559.5,-252 724.5,-252 "/>
<text text-anchor="start" x="567.5" y="-235.4" font-family="Times Roman,serif" font-size="14.00">pos :integer</text>
<text text-anchor="start" x="567.5" y="-217.4" font-family="Times Roman,serif" font-size="14.00">name :string</text>
<text text-anchor="start" x="567.5" y="-199.4" font-family="Times Roman,serif" font-size="14.00">created_at :datetime</text>
<text text-anchor="start" x="567.5" y="-181.4" font-family="Times Roman,serif" font-size="14.00">updated_at :datetime</text>
</g>
<!-- Service&#45;&gt;Dispositif -->
<g id="edge8" class="edge"><title>Service&#45;&gt;Dispositif</title>
<path fill="none" stroke="#4ad8bb" d="M566.391,-361.097C579.488,-337.522 594.408,-310.666 607.514,-287.075"/>
<polygon fill="#4ad8bb" stroke="#4ad8bb" points="566.334,-361.198 557.544,-367.754 563.906,-365.569 561.478,-369.94 561.478,-369.94 561.478,-369.94 563.906,-365.569 565.412,-372.125 566.334,-361.198 566.334,-361.198"/>
<polygon fill="#4ad8bb" stroke="#4ad8bb" points="607.584,-286.948 616.374,-280.392 610.012,-282.578 612.441,-278.207 612.441,-278.207 612.441,-278.207 610.012,-282.578 608.507,-276.021 607.584,-286.948 607.584,-286.948"/>
</g>
<!-- Volo -->
<g id="node11" class="node"><title>Volo</title>
<polyline fill="none" stroke="black" points="351.5,-172 492.5,-172 "/>
<path fill="none" stroke="black" d="M492.5,-172C498.5,-172 504.5,-178 504.5,-184"/>
<polyline fill="none" stroke="black" points="504.5,-184 504.5,-266 "/>
<path fill="none" stroke="black" d="M504.5,-266C504.5,-272 498.5,-278 492.5,-278"/>
<polyline fill="none" stroke="black" points="492.5,-278 351.5,-278 "/>
<path fill="none" stroke="black" d="M351.5,-278C345.5,-278 339.5,-272 339.5,-266"/>
<polyline fill="none" stroke="black" points="339.5,-266 339.5,-184 "/>
<path fill="none" stroke="black" d="M339.5,-184C339.5,-178 345.5,-172 351.5,-172"/>
<text text-anchor="middle" x="422" y="-261.4" font-family="Times Roman,serif" font-size="14.00">Volo</text>
<polyline fill="none" stroke="black" points="339.5,-252 504.5,-252 "/>
<text text-anchor="start" x="347.5" y="-235.4" font-family="Times Roman,serif" font-size="14.00">first_name :string</text>
<text text-anchor="start" x="347.5" y="-217.4" font-family="Times Roman,serif" font-size="14.00">last_name :string</text>
<text text-anchor="start" x="347.5" y="-199.4" font-family="Times Roman,serif" font-size="14.00">created_at :datetime</text>
<text text-anchor="start" x="347.5" y="-181.4" font-family="Times Roman,serif" font-size="14.00">updated_at :datetime</text>
</g>
<!-- Service&#45;&gt;Volo -->
<g id="edge4" class="edge"><title>Service&#45;&gt;Volo</title>
<path fill="none" stroke="#e91fd3" d="M497.609,-361.097C484.512,-337.522 469.592,-310.666 456.486,-287.075"/>
<polygon fill="#e91fd3" stroke="#e91fd3" points="497.666,-361.198 498.588,-372.125 500.094,-365.569 502.522,-369.94 502.522,-369.94 502.522,-369.94 500.094,-365.569 506.456,-367.754 497.666,-361.198 497.666,-361.198"/>
<polygon fill="#e91fd3" stroke="#e91fd3" points="456.416,-286.948 455.493,-276.021 453.988,-282.578 451.559,-278.207 451.559,-278.207 451.559,-278.207 453.988,-282.578 447.626,-280.392 456.416,-286.948 456.416,-286.948"/>
</g>
<!-- Seritem -->
<g id="node12" class="node"><title>Seritem</title>
<polyline fill="none" stroke="black" points="753.5,-145 894.5,-145 "/>
<path fill="none" stroke="black" d="M894.5,-145C900.5,-145 906.5,-151 906.5,-157"/>
<polyline fill="none" stroke="black" points="906.5,-157 906.5,-293 "/>
<path fill="none" stroke="black" d="M906.5,-293C906.5,-299 900.5,-305 894.5,-305"/>
<polyline fill="none" stroke="black" points="894.5,-305 753.5,-305 "/>
<path fill="none" stroke="black" d="M753.5,-305C747.5,-305 741.5,-299 741.5,-293"/>
<polyline fill="none" stroke="black" points="741.5,-293 741.5,-157 "/>
<path fill="none" stroke="black" d="M741.5,-157C741.5,-151 747.5,-145 753.5,-145"/>
<text text-anchor="middle" x="824" y="-288.4" font-family="Times Roman,serif" font-size="14.00">Seritem</text>
<polyline fill="none" stroke="black" points="741.5,-279 906.5,-279 "/>
<text text-anchor="start" x="749.5" y="-262.4" font-family="Times Roman,serif" font-size="14.00">pos :integer</text>
<text text-anchor="start" x="749.5" y="-244.4" font-family="Times Roman,serif" font-size="14.00">name :string</text>
<text text-anchor="start" x="749.5" y="-226.4" font-family="Times Roman,serif" font-size="14.00">qty :decimal</text>
<text text-anchor="start" x="749.5" y="-208.4" font-family="Times Roman,serif" font-size="14.00">price :decimal</text>
<text text-anchor="start" x="749.5" y="-190.4" font-family="Times Roman,serif" font-size="14.00">kind :integer</text>
<text text-anchor="start" x="749.5" y="-172.4" font-family="Times Roman,serif" font-size="14.00">created_at :datetime</text>
<text text-anchor="start" x="749.5" y="-154.4" font-family="Times Roman,serif" font-size="14.00">updated_at :datetime</text>
</g>
<!-- Service&#45;&gt;Seritem -->
<g id="edge2" class="edge"><title>Service&#45;&gt;Seritem</title>
<path fill="none" stroke="#4cdfe3" d="M621.586,-375.932C657.262,-355.899 698.061,-331.327 733,-306 733.086,-305.938 733.171,-305.876 733.257,-305.814"/>
<ellipse fill="none" stroke="#4cdfe3" cx="618.015" cy="-377.926" rx="4.00002" ry="4.00002"/>
<polygon fill="#4cdfe3" stroke="#4cdfe3" points="733.231,-305.833 743.937,-303.46 737.239,-302.843 741.246,-299.853 741.246,-299.853 741.246,-299.853 737.239,-302.843 738.556,-296.246 733.231,-305.833 733.231,-305.833"/>
</g>
<!-- Category -->
<g id="node6" class="node"><title>Category</title>
<polyline fill="none" stroke="black" points="279.5,-685 420.5,-685 "/>
<path fill="none" stroke="black" d="M420.5,-685C426.5,-685 432.5,-691 432.5,-697"/>
<polyline fill="none" stroke="black" points="432.5,-697 432.5,-779 "/>
<path fill="none" stroke="black" d="M432.5,-779C432.5,-785 426.5,-791 420.5,-791"/>
<polyline fill="none" stroke="black" points="420.5,-791 279.5,-791 "/>
<path fill="none" stroke="black" d="M279.5,-791C273.5,-791 267.5,-785 267.5,-779"/>
<polyline fill="none" stroke="black" points="267.5,-779 267.5,-697 "/>
<path fill="none" stroke="black" d="M267.5,-697C267.5,-691 273.5,-685 279.5,-685"/>
<text text-anchor="middle" x="350" y="-774.4" font-family="Times Roman,serif" font-size="14.00">Category</text>
<polyline fill="none" stroke="black" points="267.5,-765 432.5,-765 "/>
<text text-anchor="start" x="275.5" y="-748.4" font-family="Times Roman,serif" font-size="14.00">name :string</text>
<text text-anchor="start" x="275.5" y="-730.4" font-family="Times Roman,serif" font-size="14.00">short_name :string</text>
<text text-anchor="start" x="275.5" y="-712.4" font-family="Times Roman,serif" font-size="14.00">created_at :datetime</text>
<text text-anchor="start" x="275.5" y="-694.4" font-family="Times Roman,serif" font-size="14.00">updated_at :datetime</text>
</g>
<!-- Event -->
<g id="node10" class="node"><title>Event</title>
<polyline fill="none" stroke="black" points="370.5,-541 511.5,-541 "/>
<path fill="none" stroke="black" d="M511.5,-541C517.5,-541 523.5,-547 523.5,-553"/>
<polyline fill="none" stroke="black" points="523.5,-553 523.5,-617 "/>
<path fill="none" stroke="black" d="M523.5,-617C523.5,-623 517.5,-629 511.5,-629"/>
<polyline fill="none" stroke="black" points="511.5,-629 370.5,-629 "/>
<path fill="none" stroke="black" d="M370.5,-629C364.5,-629 358.5,-623 358.5,-617"/>
<polyline fill="none" stroke="black" points="358.5,-617 358.5,-553 "/>
<path fill="none" stroke="black" d="M358.5,-553C358.5,-547 364.5,-541 370.5,-541"/>
<text text-anchor="middle" x="441" y="-612.4" font-family="Times Roman,serif" font-size="14.00">Event</text>
<polyline fill="none" stroke="black" points="358.5,-603 523.5,-603 "/>
<text text-anchor="start" x="366.5" y="-586.4" font-family="Times Roman,serif" font-size="14.00">name :string</text>
<text text-anchor="start" x="366.5" y="-568.4" font-family="Times Roman,serif" font-size="14.00">created_at :datetime</text>
<text text-anchor="start" x="366.5" y="-550.4" font-family="Times Roman,serif" font-size="14.00">updated_at :datetime</text>
</g>
<!-- Category&#45;&gt;Event -->
<g id="edge12" class="edge"><title>Category&#45;&gt;Event</title>
<path fill="none" stroke="#2f39d9" d="M385.663,-678.039C393.502,-664.86 401.749,-650.993 409.414,-638.106"/>
<ellipse fill="none" stroke="#2f39d9" cx="383.617" cy="-681.48" rx="4.00002" ry="4.00002"/>
<polygon fill="#2f39d9" stroke="#2f39d9" points="409.503,-637.956 418.483,-631.662 412.059,-633.659 414.615,-629.361 414.615,-629.361 414.615,-629.361 412.059,-633.659 410.747,-627.061 409.503,-637.956 409.503,-637.956"/>
</g>
<!-- Dispositif&#45;&gt;Disposer -->
<g id="edge14" class="edge"><title>Dispositif&#45;&gt;Disposer</title>
<path fill="none" stroke="#441e90" d="M618.903,-164.237C611.919,-145.863 604.3,-125.821 597.498,-107.926"/>
<ellipse fill="none" stroke="#441e90" cx="620.369" cy="-168.093" rx="4.00001" ry="4.00001"/>
<polygon fill="#441e90" stroke="#441e90" points="597.366,-107.577 598.019,-96.6306 595.589,-102.903 593.812,-98.2296 593.812,-98.2296 593.812,-98.2296 595.589,-102.903 589.606,-99.8285 597.366,-107.577 597.366,-107.577"/>
</g>
<!-- TemplateInvoicedItem -->
<g id="node8" class="node"><title>TemplateInvoicedItem</title>
<polyline fill="none" stroke="black" points="643.5,-667 786.5,-667 "/>
<path fill="none" stroke="black" d="M786.5,-667C792.5,-667 798.5,-673 798.5,-679"/>
<polyline fill="none" stroke="black" points="798.5,-679 798.5,-797 "/>
<path fill="none" stroke="black" d="M798.5,-797C798.5,-803 792.5,-809 786.5,-809"/>
<polyline fill="none" stroke="black" points="786.5,-809 643.5,-809 "/>
<path fill="none" stroke="black" d="M643.5,-809C637.5,-809 631.5,-803 631.5,-797"/>
<polyline fill="none" stroke="black" points="631.5,-797 631.5,-679 "/>
<path fill="none" stroke="black" d="M631.5,-679C631.5,-673 637.5,-667 643.5,-667"/>
<text text-anchor="middle" x="715" y="-792.4" font-family="Times Roman,serif" font-size="14.00">TemplateInvoicedItem</text>
<polyline fill="none" stroke="black" points="631.5,-783 798.5,-783 "/>
<text text-anchor="start" x="639.5" y="-766.4" font-family="Times Roman,serif" font-size="14.00">pos :integer</text>
<text text-anchor="start" x="639.5" y="-748.4" font-family="Times Roman,serif" font-size="14.00">name :string</text>
<text text-anchor="start" x="639.5" y="-730.4" font-family="Times Roman,serif" font-size="14.00">kind :integer</text>
<text text-anchor="start" x="639.5" y="-712.4" font-family="Times Roman,serif" font-size="14.00">price :decimal</text>
<text text-anchor="start" x="639.5" y="-694.4" font-family="Times Roman,serif" font-size="14.00">created_at :datetime</text>
<text text-anchor="start" x="639.5" y="-676.4" font-family="Times Roman,serif" font-size="14.00">updated_at :datetime</text>
</g>
<!-- Invoice -->
<g id="node9" class="node"><title>Invoice</title>
<polyline fill="none" stroke="black" points="461.5,-676 602.5,-676 "/>
<path fill="none" stroke="black" d="M602.5,-676C608.5,-676 614.5,-682 614.5,-688"/>
<polyline fill="none" stroke="black" points="614.5,-688 614.5,-788 "/>
<path fill="none" stroke="black" d="M614.5,-788C614.5,-794 608.5,-800 602.5,-800"/>
<polyline fill="none" stroke="black" points="602.5,-800 461.5,-800 "/>
<path fill="none" stroke="black" d="M461.5,-800C455.5,-800 449.5,-794 449.5,-788"/>
<polyline fill="none" stroke="black" points="449.5,-788 449.5,-688 "/>
<path fill="none" stroke="black" d="M449.5,-688C449.5,-682 455.5,-676 461.5,-676"/>
<text text-anchor="middle" x="532" y="-783.4" font-family="Times Roman,serif" font-size="14.00">Invoice</text>
<polyline fill="none" stroke="black" points="449.5,-774 614.5,-774 "/>
<text text-anchor="start" x="457.5" y="-757.4" font-family="Times Roman,serif" font-size="14.00">number :string</text>
<text text-anchor="start" x="457.5" y="-739.4" font-family="Times Roman,serif" font-size="14.00">customer_data :text</text>
<text text-anchor="start" x="457.5" y="-721.4" font-family="Times Roman,serif" font-size="14.00">sent_at :date</text>
<text text-anchor="start" x="457.5" y="-703.4" font-family="Times Roman,serif" font-size="14.00">created_at :datetime</text>
<text text-anchor="start" x="457.5" y="-685.4" font-family="Times Roman,serif" font-size="14.00">updated_at :datetime</text>
</g>
<!-- Invoice&#45;&gt;Event -->
<g id="edge16" class="edge"><title>Invoice&#45;&gt;Event</title>
<path fill="none" stroke="#e12065" d="M490.84,-668.798C484.738,-658.538 478.531,-648.101 472.663,-638.235"/>
<ellipse fill="none" stroke="#e12065" cx="492.942" cy="-672.331" rx="4.00002" ry="4.00002"/>
<polygon fill="#e12065" stroke="#e12065" points="472.494,-637.951 471.25,-627.056 469.938,-633.654 467.382,-629.357 467.382,-629.357 467.382,-629.357 469.938,-633.654 463.514,-631.657 472.494,-637.951 472.494,-637.951"/>
</g>
<!-- Event&#45;&gt;Evitem -->
<g id="edge20" class="edge"><title>Event&#45;&gt;Evitem</title>
<path fill="none" stroke="#27eaa4" d="M412.202,-533.733C408.249,-526.695 404.101,-519.311 399.902,-511.836"/>
<ellipse fill="none" stroke="#27eaa4" cx="414.175" cy="-537.245" rx="4.00002" ry="4.00002"/>
<polygon fill="#27eaa4" stroke="#27eaa4" points="399.856,-511.755 398.882,-500.832 397.407,-507.395 394.958,-503.036 394.958,-503.036 394.958,-503.036 397.407,-507.395 391.035,-505.24 399.856,-511.755 399.856,-511.755"/>
</g>
<!-- Event&#45;&gt;Service -->
<g id="edge18" class="edge"><title>Event&#45;&gt;Service</title>
<path fill="none" stroke="#393199" d="M469.888,-533.573C478.569,-518.118 488.186,-500.998 497.207,-484.939"/>
<ellipse fill="none" stroke="#393199" cx="467.825" cy="-537.245" rx="4.00002" ry="4.00002"/>
<polygon fill="#393199" stroke="#393199" points="497.251,-484.862 506.071,-478.347 499.699,-480.502 502.148,-476.143 502.148,-476.143 502.148,-476.143 499.699,-480.502 498.225,-473.939 497.251,-484.862 497.251,-484.862"/>
</g>
<!-- Volo&#45;&gt;Servolo -->
<g id="edge22" class="edge"><title>Volo&#45;&gt;Servolo</title>
<path fill="none" stroke="#66be36" d="M405.587,-163.985C401.487,-148.746 397.083,-132.375 392.958,-117.04"/>
<ellipse fill="none" stroke="#66be36" cx="406.658" cy="-167.969" rx="4.00001" ry="4.00001"/>
<polygon fill="#66be36" stroke="#66be36" points="392.891,-116.792 394.639,-105.966 391.593,-111.964 390.294,-107.135 390.294,-107.135 390.294,-107.135 391.593,-111.964 385.948,-108.304 392.891,-116.792 392.891,-116.792"/>
</g>
</g>
</svg>
