<?xml version="1.0" encoding="UTF-8" standalone="no"?>
<!DOCTYPE svg PUBLIC "-//W3C//DTD SVG 1.1//EN"
 "http://www.w3.org/Graphics/SVG/1.1/DTD/svg11.dtd">
<!-- Generated by graphviz version 2.26.3 (20100126.1600)
 -->
<!-- Title: models_diagram Pages: 1 -->
<svg width="1008pt" height="398pt"
 viewBox="0.00 0.00 1008.00 398.00" xmlns="http://www.w3.org/2000/svg" xmlns:xlink="http://www.w3.org/1999/xlink">
<g id="graph1" class="graph" transform="scale(1 1) rotate(0) translate(4 394)">
<title>models_diagram</title>
<polygon fill="white" stroke="white" points="-4,5 -4,-394 1005,-394 1005,5 -4,5"/>
<!-- _diagram_info -->
<g id="node1" class="node"><title>_diagram_info</title>
<text text-anchor="start" x="8" y="-373.8" font-family="Times Roman,serif" font-size="13.00">Models diagram</text>
<text text-anchor="start" x="8" y="-356.8" font-family="Times Roman,serif" font-size="13.00">Date: Jun 21 2012 &#45; 14:07</text>
<text text-anchor="start" x="8" y="-339.8" font-family="Times Roman,serif" font-size="13.00">Migration version: 20120619173612</text>
<text text-anchor="start" x="8" y="-322.8" font-family="Times Roman,serif" font-size="13.00">Generated by RailRoady 1.0.7</text>
<text text-anchor="start" x="8" y="-305.8" font-family="Times Roman,serif" font-size="13.00">http://railroady.prestonlee.com</text>
</g>
<!-- Servolo -->
<g id="node2" class="node"><title>Servolo</title>
<ellipse fill="none" stroke="black" cx="611" cy="-19" rx="48.0833" ry="18.3848"/>
<text text-anchor="middle" x="611" y="-15.4" font-family="Times Roman,serif" font-size="14.00">Servolo</text>
</g>
<!-- Refac -->
<g id="node3" class="node"><title>Refac</title>
<ellipse fill="none" stroke="black" cx="346" cy="-167" rx="36.977" ry="18.3848"/>
<text text-anchor="middle" x="346" y="-163.4" font-family="Times Roman,serif" font-size="14.00">Refac</text>
</g>
<!-- Evitem -->
<g id="node4" class="node"><title>Evitem</title>
<ellipse fill="none" stroke="black" cx="447" cy="-167" rx="45.9619" ry="18.3848"/>
<text text-anchor="middle" x="447" y="-163.4" font-family="Times Roman,serif" font-size="14.00">Evitem</text>
</g>
<!-- Customer -->
<g id="node5" class="node"><title>Customer</title>
<ellipse fill="none" stroke="black" cx="688" cy="-343" rx="58.1882" ry="18.3848"/>
<text text-anchor="middle" x="688" y="-339.4" font-family="Times Roman,serif" font-size="14.00">Customer</text>
</g>
<!-- Event -->
<g id="node13" class="node"><title>Event</title>
<ellipse fill="none" stroke="black" cx="447" cy="-241" rx="39.8075" ry="18.3848"/>
<text text-anchor="middle" x="447" y="-237.4" font-family="Times Roman,serif" font-size="14.00">Event</text>
</g>
<!-- Customer&#45;&gt;Event -->
<g id="edge2" class="edge"><title>Customer&#45;&gt;Event</title>
<path fill="none" stroke="#7e3cd5" d="M660.182,-320.613C648.571,-312.051 634.63,-302.735 621,-296 579.59,-275.538 528.912,-260.544 492.953,-251.426"/>
<ellipse fill="none" stroke="#7e3cd5" cx="663.533" cy="-323.137" rx="4.00002" ry="4.00002"/>
<polygon fill="#7e3cd5" stroke="#7e3cd5" points="492.927,-251.42 484.305,-244.644 488.074,-250.215 483.221,-249.011 483.221,-249.011 483.221,-249.011 488.074,-250.215 482.137,-253.378 492.927,-251.42 492.927,-251.42"/>
</g>
<!-- Service -->
<g id="node6" class="node"><title>Service</title>
<ellipse fill="none" stroke="black" cx="558" cy="-167" rx="46.8775" ry="18.3848"/>
<text text-anchor="middle" x="558" y="-163.4" font-family="Times Roman,serif" font-size="14.00">Service</text>
</g>
<!-- Service&#45;&gt;Servolo -->
<g id="edge8" class="edge"><title>Service&#45;&gt;Servolo</title>
<path fill="none" stroke="#3616b2" d="M545.033,-141.081C537.271,-121.752 530.721,-95.1484 541,-74 547.862,-59.8824 560.296,-48.3099 572.802,-39.485"/>
<ellipse fill="none" stroke="#3616b2" cx="546.692" cy="-144.948" rx="4.00002" ry="4.00002"/>
<polygon fill="#3616b2" stroke="#3616b2" points="573.054,-39.3193 583.88,-37.5745 577.229,-36.5681 581.404,-33.817 581.404,-33.817 581.404,-33.817 577.229,-36.5681 578.928,-30.0594 573.054,-39.3193 573.054,-39.3193"/>
</g>
<!-- Disposer -->
<g id="node7" class="node"><title>Disposer</title>
<ellipse fill="none" stroke="black" cx="400" cy="-19" rx="53.2379" ry="18.3848"/>
<text text-anchor="middle" x="400" y="-15.4" font-family="Times Roman,serif" font-size="14.00">Disposer</text>
</g>
<!-- Service&#45;&gt;Disposer -->
<g id="edge12" class="edge"><title>Service&#45;&gt;Disposer</title>
<path fill="none" stroke="#de07a4" d="M535.582,-143.521C517.06,-124.384 489.866,-96.8797 465,-74 453.533,-63.4487 440.488,-52.2613 429.11,-42.7506"/>
<ellipse fill="none" stroke="#de07a4" cx="538.5" cy="-146.545" rx="4.00002" ry="4.00002"/>
<polygon fill="#de07a4" stroke="#de07a4" points="428.859,-42.5425 424.039,-32.6925 425.012,-39.3487 421.165,-36.1548 421.165,-36.1548 421.165,-36.1548 425.012,-39.3487 418.29,-39.6171 428.859,-42.5425 428.859,-42.5425"/>
</g>
<!-- Dispositif -->
<g id="node9" class="node"><title>Dispositif</title>
<ellipse fill="none" stroke="black" cx="400" cy="-93" rx="56.0679" ry="18.3848"/>
<text text-anchor="middle" x="400" y="-89.4" font-family="Times Roman,serif" font-size="14.00">Dispositif</text>
</g>
<!-- Service&#45;&gt;Dispositif -->
<g id="edge10" class="edge"><title>Service&#45;&gt;Dispositif</title>
<path fill="none" stroke="#fb726c" d="M518.171,-148.346C494.803,-137.401 465.313,-123.59 441.639,-112.502"/>
<polygon fill="#fb726c" stroke="#fb726c" points="518.48,-148.491 525.627,-156.807 523.008,-150.611 527.536,-152.732 527.536,-152.732 527.536,-152.732 523.008,-150.611 529.445,-148.657 518.48,-148.491 518.48,-148.491"/>
<polygon fill="#fb726c" stroke="#fb726c" points="441.602,-112.485 434.455,-104.168 437.074,-110.364 432.546,-108.243 432.546,-108.243 432.546,-108.243 437.074,-110.364 430.637,-112.318 441.602,-112.485 441.602,-112.485"/>
</g>
<!-- Volo -->
<g id="node14" class="node"><title>Volo</title>
<ellipse fill="none" stroke="black" cx="700" cy="-93" rx="32.0265" ry="18.3848"/>
<text text-anchor="middle" x="700" y="-89.4" font-family="Times Roman,serif" font-size="14.00">Volo</text>
</g>
<!-- Service&#45;&gt;Volo -->
<g id="edge6" class="edge"><title>Service&#45;&gt;Volo</title>
<path fill="none" stroke="#228dba" d="M595.407,-147.506C617.597,-135.942 645.478,-121.413 666.872,-110.264"/>
<polygon fill="#228dba" stroke="#228dba" points="595.263,-147.581 584.315,-148.212 590.829,-149.892 586.395,-152.203 586.395,-152.203 586.395,-152.203 590.829,-149.892 588.474,-156.193 595.263,-147.581 595.263,-147.581"/>
<polygon fill="#228dba" stroke="#228dba" points="667.036,-110.178 677.984,-109.548 671.47,-107.868 675.904,-105.557 675.904,-105.557 675.904,-105.557 671.47,-107.868 673.824,-101.566 667.036,-110.178 667.036,-110.178"/>
</g>
<!-- Seritem -->
<g id="node15" class="node"><title>Seritem</title>
<ellipse fill="none" stroke="black" cx="600" cy="-93" rx="50.2046" ry="18.3848"/>
<text text-anchor="middle" x="600" y="-89.4" font-family="Times Roman,serif" font-size="14.00">Seritem</text>
</g>
<!-- Service&#45;&gt;Seritem -->
<g id="edge4" class="edge"><title>Service&#45;&gt;Seritem</title>
<path fill="none" stroke="#ba2c46" d="M572.349,-141.718C576.241,-134.862 580.472,-127.407 584.427,-120.438"/>
<ellipse fill="none" stroke="#ba2c46" cx="570.356" cy="-145.229" rx="4.00002" ry="4.00002"/>
<polygon fill="#ba2c46" stroke="#ba2c46" points="584.656,-120.035 593.505,-113.559 587.124,-115.687 589.592,-111.338 589.592,-111.338 589.592,-111.338 587.124,-115.687 585.678,-109.117 584.656,-120.035 584.656,-120.035"/>
</g>
<!-- Category -->
<g id="node8" class="node"><title>Category</title>
<ellipse fill="none" stroke="black" cx="446" cy="-343" rx="56.0679" ry="18.3848"/>
<text text-anchor="middle" x="446" y="-339.4" font-family="Times Roman,serif" font-size="14.00">Category</text>
</g>
<!-- Category&#45;&gt;Event -->
<g id="edge14" class="edge"><title>Category&#45;&gt;Event</title>
<path fill="none" stroke="#154a23" d="M446.265,-316.015C446.404,-301.835 446.574,-284.445 446.716,-269.98"/>
<ellipse fill="none" stroke="#154a23" cx="446.223" cy="-320.292" rx="4" ry="4"/>
<polygon fill="#154a23" stroke="#154a23" points="446.72,-269.589 451.318,-259.634 446.769,-264.59 446.818,-259.59 446.818,-259.59 446.818,-259.59 446.769,-264.59 442.318,-259.546 446.72,-269.589 446.72,-269.589"/>
</g>
<!-- Dispositif&#45;&gt;Disposer -->
<g id="edge16" class="edge"><title>Dispositif&#45;&gt;Disposer</title>
<path fill="none" stroke="#5eea4d" d="M400,-66.309C400,-60.3769 400,-54.0606 400,-48.0396"/>
<ellipse fill="none" stroke="#5eea4d" cx="400" cy="-70.3267" rx="4" ry="4"/>
<polygon fill="#5eea4d" stroke="#5eea4d" points="400,-47.6674 404.5,-37.6673 400,-42.6674 400,-37.6674 400,-37.6674 400,-37.6674 400,-42.6674 395.5,-37.6674 400,-47.6674 400,-47.6674"/>
</g>
<!-- TemplateInvoicedItem -->
<g id="node10" class="node"><title>TemplateInvoicedItem</title>
<ellipse fill="none" stroke="black" cx="882" cy="-343" rx="118.087" ry="18.3848"/>
<text text-anchor="middle" x="882" y="-339.4" font-family="Times Roman,serif" font-size="14.00">TemplateInvoicedItem</text>
</g>
<!-- Crentite -->
<g id="node11" class="node"><title>Crentite</title>
<ellipse fill="none" stroke="black" cx="320" cy="-343" rx="51.8276" ry="18.3848"/>
<text text-anchor="middle" x="320" y="-339.4" font-family="Times Roman,serif" font-size="14.00">Crentite</text>
</g>
<!-- Crentite&#45;&gt;Refac -->
<g id="edge22" class="edge"><title>Crentite&#45;&gt;Refac</title>
<path fill="none" stroke="#fce9e2" d="M323.932,-316.381C328.741,-283.832 336.847,-228.961 341.782,-195.555"/>
<ellipse fill="none" stroke="#fce9e2" cx="323.318" cy="-320.541" rx="4.00001" ry="4.00001"/>
<polygon fill="#fce9e2" stroke="#fce9e2" points="341.803,-195.411 347.716,-186.176 342.534,-190.465 343.264,-185.519 343.264,-185.519 343.264,-185.519 342.534,-190.465 338.813,-184.861 341.803,-195.411 341.803,-195.411"/>
</g>
<!-- Crentite&#45;&gt;Disposer -->
<g id="edge18" class="edge"><title>Crentite&#45;&gt;Disposer</title>
<path fill="none" stroke="#9f48a9" d="M311.951,-316.503C301.665,-278.691 286.69,-207.271 300,-148 307.971,-112.502 312.833,-102.849 335,-74 344.205,-62.021 356.419,-50.8412 367.773,-41.7315"/>
<ellipse fill="none" stroke="#9f48a9" cx="313.11" cy="-320.634" rx="4.00001" ry="4.00001"/>
<polygon fill="#9f48a9" stroke="#9f48a9" points="367.93,-41.6096 378.59,-39.0385 371.881,-38.5459 375.833,-35.4822 375.833,-35.4822 375.833,-35.4822 371.881,-38.5459 373.075,-31.9259 367.93,-41.6096 367.93,-41.6096"/>
</g>
<!-- Crentite&#45;&gt;Event -->
<g id="edge20" class="edge"><title>Crentite&#45;&gt;Event</title>
<path fill="none" stroke="#a818c8" d="M349.26,-319.5C370.275,-302.622 398.428,-280.011 419.12,-263.392"/>
<polygon fill="#a818c8" stroke="#a818c8" points="349.054,-319.666 338.439,-322.419 345.155,-322.797 341.257,-325.927 341.257,-325.927 341.257,-325.927 345.155,-322.797 344.075,-329.436 349.054,-319.666 349.054,-319.666"/>
<polygon fill="#a818c8" stroke="#a818c8" points="419.136,-263.379 429.75,-260.626 423.034,-260.248 426.932,-257.117 426.932,-257.117 426.932,-257.117 423.034,-260.248 424.114,-253.609 419.136,-263.379 419.136,-263.379"/>
</g>
<!-- Invoice -->
<g id="node12" class="node"><title>Invoice</title>
<ellipse fill="none" stroke="black" cx="566" cy="-343" rx="45.9619" ry="18.3848"/>
<text text-anchor="middle" x="566" y="-339.4" font-family="Times Roman,serif" font-size="14.00">Invoice</text>
</g>
<!-- Invoice&#45;&gt;Event -->
<g id="edge24" class="edge"><title>Invoice&#45;&gt;Event</title>
<path fill="none" stroke="#ad4e52" d="M540.06,-320.766C520.529,-304.025 493.828,-281.139 474.036,-264.173"/>
<ellipse fill="none" stroke="#ad4e52" cx="543.313" cy="-323.554" rx="4.00002" ry="4.00002"/>
<polygon fill="#ad4e52" stroke="#ad4e52" points="473.877,-264.038 469.213,-254.113 470.081,-260.784 466.285,-257.53 466.285,-257.53 466.285,-257.53 470.081,-260.784 463.356,-260.946 473.877,-264.038 473.877,-264.038"/>
</g>
<!-- Event&#45;&gt;Refac -->
<g id="edge30" class="edge"><title>Event&#45;&gt;Refac</title>
<path fill="none" stroke="#4d7940" d="M418.814,-220.349C405.223,-210.391 388.931,-198.455 375.208,-188.4"/>
<ellipse fill="none" stroke="#4d7940" cx="422.354" cy="-222.942" rx="4.00002" ry="4.00002"/>
<polygon fill="#4d7940" stroke="#4d7940" points="375.109,-188.327 369.702,-178.787 371.076,-185.372 367.042,-182.417 367.042,-182.417 367.042,-182.417 371.076,-185.372 364.383,-186.047 375.109,-188.327 375.109,-188.327"/>
</g>
<!-- Event&#45;&gt;Evitem -->
<g id="edge28" class="edge"><title>Event&#45;&gt;Evitem</title>
<path fill="none" stroke="#58bb36" d="M447,-214.309C447,-208.377 447,-202.061 447,-196.04"/>
<ellipse fill="none" stroke="#58bb36" cx="447" cy="-218.327" rx="4" ry="4"/>
<polygon fill="#58bb36" stroke="#58bb36" points="447,-195.667 451.5,-185.667 447,-190.667 447,-185.667 447,-185.667 447,-185.667 447,-190.667 442.5,-185.667 447,-195.667 447,-195.667"/>
</g>
<!-- Event&#45;&gt;Service -->
<g id="edge26" class="edge"><title>Event&#45;&gt;Service</title>
<path fill="none" stroke="#23321f" d="M476.851,-221.099C491.788,-211.141 509.903,-199.065 525.225,-188.85"/>
<ellipse fill="none" stroke="#23321f" cx="473.327" cy="-223.448" rx="4.00002" ry="4.00002"/>
<polygon fill="#23321f" stroke="#23321f" points="525.558,-188.628 536.374,-186.825 529.718,-185.855 533.878,-183.081 533.878,-183.081 533.878,-183.081 529.718,-185.855 531.382,-179.337 525.558,-188.628 525.558,-188.628"/>
</g>
<!-- Volo&#45;&gt;Servolo -->
<g id="edge32" class="edge"><title>Volo&#45;&gt;Servolo</title>
<path fill="none" stroke="#b27fd3" d="M675.058,-72.2619C663.937,-63.0154 650.782,-52.0773 639.295,-42.5265"/>
<ellipse fill="none" stroke="#b27fd3" cx="678.483" cy="-75.1098" rx="4.00002" ry="4.00002"/>
<polygon fill="#b27fd3" stroke="#b27fd3" points="638.968,-42.2546 634.156,-32.401 635.124,-39.0579 631.279,-35.8612 631.279,-35.8612 631.279,-35.8612 635.124,-39.0579 628.402,-39.3214 638.968,-42.2546 638.968,-42.2546"/>
</g>
</g>
</svg>
