<?xml version="1.0" encoding="UTF-8" standalone="no"?>
<!DOCTYPE svg PUBLIC "-//W3C//DTD SVG 1.1//EN"
 "http://www.w3.org/Graphics/SVG/1.1/DTD/svg11.dtd">
<!-- Generated by graphviz version 2.26.3 (20100126.1600)
 -->
<!-- Title: models_diagram Pages: 1 -->
<svg width="752pt" height="398pt"
 viewBox="0.00 0.00 752.00 398.00" xmlns="http://www.w3.org/2000/svg" xmlns:xlink="http://www.w3.org/1999/xlink">
<g id="graph1" class="graph" transform="scale(1 1) rotate(0) translate(4 394)">
<title>models_diagram</title>
<polygon fill="white" stroke="white" points="-4,5 -4,-394 749,-394 749,5 -4,5"/>
<!-- _diagram_info -->
<g id="node1" class="node"><title>_diagram_info</title>
<text text-anchor="start" x="8" y="-373.8" font-family="Times Roman,serif" font-size="13.00">Models diagram</text>
<text text-anchor="start" x="8" y="-356.8" font-family="Times Roman,serif" font-size="13.00">Date: Jun 16 2012 &#45; 14:34</text>
<text text-anchor="start" x="8" y="-339.8" font-family="Times Roman,serif" font-size="13.00">Migration version: 20120616100848</text>
<text text-anchor="start" x="8" y="-322.8" font-family="Times Roman,serif" font-size="13.00">Generated by RailRoady 1.0.7</text>
<text text-anchor="start" x="8" y="-305.8" font-family="Times Roman,serif" font-size="13.00">http://railroady.prestonlee.com</text>
</g>
<!-- Servolo -->
<g id="node2" class="node"><title>Servolo</title>
<ellipse fill="none" stroke="black" cx="350" cy="-19" rx="48.0833" ry="18.3848"/>
<text text-anchor="middle" x="350" y="-15.4" font-family="Times Roman,serif" font-size="14.00">Servolo</text>
</g>
<!-- Evitem -->
<g id="node3" class="node"><title>Evitem</title>
<ellipse fill="none" stroke="black" cx="329" cy="-167" rx="45.9619" ry="18.3848"/>
<text text-anchor="middle" x="329" y="-163.4" font-family="Times Roman,serif" font-size="14.00">Evitem</text>
</g>
<!-- Service -->
<g id="node4" class="node"><title>Service</title>
<ellipse fill="none" stroke="black" cx="440" cy="-167" rx="46.8775" ry="18.3848"/>
<text text-anchor="middle" x="440" y="-163.4" font-family="Times Roman,serif" font-size="14.00">Service</text>
</g>
<!-- Service&#45;&gt;Servolo -->
<g id="edge6" class="edge"><title>Service&#45;&gt;Servolo</title>
<path fill="none" stroke="#a8ccfa" d="M399.755,-150.204C374.732,-138.847 346.024,-123.823 339,-112 327.403,-92.4793 331.732,-66.5796 338.063,-47.0703"/>
<ellipse fill="none" stroke="#a8ccfa" cx="403.721" cy="-151.973" rx="4.00002" ry="4.00002"/>
<polygon fill="#a8ccfa" stroke="#a8ccfa" points="338.112,-46.9333 345.719,-39.035 339.797,-42.2259 341.482,-37.5184 341.482,-37.5184 341.482,-37.5184 339.797,-42.2259 337.246,-36.0017 338.112,-46.9333 338.112,-46.9333"/>
</g>
<!-- Disposer -->
<g id="node5" class="node"><title>Disposer</title>
<ellipse fill="none" stroke="black" cx="469" cy="-19" rx="53.2379" ry="18.3848"/>
<text text-anchor="middle" x="469" y="-15.4" font-family="Times Roman,serif" font-size="14.00">Disposer</text>
</g>
<!-- Service&#45;&gt;Disposer -->
<g id="edge10" class="edge"><title>Service&#45;&gt;Disposer</title>
<path fill="none" stroke="#184c16" d="M445.215,-140.387C450.346,-114.201 458.154,-74.3515 463.411,-47.5246"/>
<ellipse fill="none" stroke="#184c16" cx="444.442" cy="-144.33" rx="4.00001" ry="4.00001"/>
<polygon fill="#184c16" stroke="#184c16" points="463.434,-47.4055 469.773,-38.4574 464.395,-42.4988 465.357,-37.5921 465.357,-37.5921 465.357,-37.5921 464.395,-42.4988 460.941,-36.7268 463.434,-47.4055 463.434,-47.4055"/>
</g>
<!-- Dispositif -->
<g id="node7" class="node"><title>Dispositif</title>
<ellipse fill="none" stroke="black" cx="524" cy="-93" rx="56.0679" ry="18.3848"/>
<text text-anchor="middle" x="524" y="-89.4" font-family="Times Roman,serif" font-size="14.00">Dispositif</text>
</g>
<!-- Service&#45;&gt;Dispositif -->
<g id="edge8" class="edge"><title>Service&#45;&gt;Dispositif</title>
<path fill="none" stroke="#abb2a0" d="M467.12,-143.109C476.585,-134.771 487.207,-125.412 496.688,-117.061"/>
<polygon fill="#abb2a0" stroke="#abb2a0" points="466.986,-143.227 456.508,-146.46 463.234,-146.532 459.482,-149.837 459.482,-149.837 459.482,-149.837 463.234,-146.532 462.457,-153.214 466.986,-143.227 466.986,-143.227"/>
<polygon fill="#abb2a0" stroke="#abb2a0" points="496.829,-116.937 507.307,-113.703 500.58,-113.632 504.332,-110.326 504.332,-110.326 504.332,-110.326 500.58,-113.632 501.358,-106.95 496.829,-116.937 496.829,-116.937"/>
</g>
<!-- Volo -->
<g id="node11" class="node"><title>Volo</title>
<ellipse fill="none" stroke="black" cx="380" cy="-93" rx="32.0265" ry="18.3848"/>
<text text-anchor="middle" x="380" y="-89.4" font-family="Times Roman,serif" font-size="14.00">Volo</text>
</g>
<!-- Service&#45;&gt;Volo -->
<g id="edge4" class="edge"><title>Service&#45;&gt;Volo</title>
<path fill="none" stroke="#6b7435" d="M419.039,-141.148C412.89,-133.564 406.181,-125.29 400.088,-117.775"/>
<polygon fill="#6b7435" stroke="#6b7435" points="419.178,-141.319 421.98,-151.921 422.327,-145.203 425.476,-149.087 425.476,-149.087 425.476,-149.087 422.327,-145.203 428.971,-146.253 419.178,-141.319 419.178,-141.319"/>
<polygon fill="#6b7435" stroke="#6b7435" points="400.07,-117.753 397.268,-107.152 396.921,-113.87 393.772,-109.986 393.772,-109.986 393.772,-109.986 396.921,-113.87 390.277,-112.82 400.07,-117.753 400.07,-117.753"/>
</g>
<!-- Seritem -->
<g id="node12" class="node"><title>Seritem</title>
<ellipse fill="none" stroke="black" cx="648" cy="-93" rx="50.2046" ry="18.3848"/>
<text text-anchor="middle" x="648" y="-89.4" font-family="Times Roman,serif" font-size="14.00">Seritem</text>
</g>
<!-- Service&#45;&gt;Seritem -->
<g id="edge2" class="edge"><title>Service&#45;&gt;Seritem</title>
<path fill="none" stroke="#7a3a25" d="M483.138,-151.653C517.928,-139.276 566.737,-121.911 602.213,-109.289"/>
<ellipse fill="none" stroke="#7a3a25" cx="479.053" cy="-153.106" rx="4.00001" ry="4.00001"/>
<polygon fill="#7a3a25" stroke="#7a3a25" points="602.422,-109.215 613.352,-110.103 607.133,-107.539 611.843,-105.863 611.843,-105.863 611.843,-105.863 607.133,-107.539 610.335,-101.624 602.422,-109.215 602.422,-109.215"/>
</g>
<!-- Category -->
<g id="node6" class="node"><title>Category</title>
<ellipse fill="none" stroke="black" cx="324" cy="-343" rx="56.0679" ry="18.3848"/>
<text text-anchor="middle" x="324" y="-339.4" font-family="Times Roman,serif" font-size="14.00">Category</text>
</g>
<!-- Event -->
<g id="node10" class="node"><title>Event</title>
<ellipse fill="none" stroke="black" cx="384" cy="-241" rx="39.8075" ry="18.3848"/>
<text text-anchor="middle" x="384" y="-237.4" font-family="Times Roman,serif" font-size="14.00">Event</text>
</g>
<!-- Category&#45;&gt;Event -->
<g id="edge12" class="edge"><title>Category&#45;&gt;Event</title>
<path fill="none" stroke="#db1f3a" d="M338.791,-317.856C347.668,-302.764 358.962,-283.564 368.041,-268.13"/>
<ellipse fill="none" stroke="#db1f3a" cx="336.755" cy="-321.317" rx="4.00002" ry="4.00002"/>
<polygon fill="#db1f3a" stroke="#db1f3a" points="368.296,-267.697 377.245,-261.359 370.831,-263.387 373.366,-259.078 373.366,-259.078 373.366,-259.078 370.831,-263.387 369.487,-256.796 368.296,-267.697 368.296,-267.697"/>
</g>
<!-- Dispositif&#45;&gt;Disposer -->
<g id="edge14" class="edge"><title>Dispositif&#45;&gt;Disposer</title>
<path fill="none" stroke="#e03069" d="M505.603,-68.2473C500.156,-60.9194 494.173,-52.869 488.65,-45.4388"/>
<ellipse fill="none" stroke="#e03069" cx="508.018" cy="-71.4975" rx="4.00002" ry="4.00002"/>
<polygon fill="#e03069" stroke="#e03069" points="488.404,-45.1077 486.051,-34.3974 485.422,-41.0947 482.439,-37.0817 482.439,-37.0817 482.439,-37.0817 485.422,-41.0947 478.827,-39.7661 488.404,-45.1077 488.404,-45.1077"/>
</g>
<!-- TemplateInvoicedItem -->
<g id="node8" class="node"><title>TemplateInvoicedItem</title>
<ellipse fill="none" stroke="black" cx="626" cy="-343" rx="118.087" ry="18.3848"/>
<text text-anchor="middle" x="626" y="-339.4" font-family="Times Roman,serif" font-size="14.00">TemplateInvoicedItem</text>
</g>
<!-- Invoice -->
<g id="node9" class="node"><title>Invoice</title>
<ellipse fill="none" stroke="black" cx="444" cy="-343" rx="45.9619" ry="18.3848"/>
<text text-anchor="middle" x="444" y="-339.4" font-family="Times Roman,serif" font-size="14.00">Invoice</text>
</g>
<!-- Invoice&#45;&gt;Event -->
<g id="edge16" class="edge"><title>Invoice&#45;&gt;Event</title>
<path fill="none" stroke="#b2a86b" d="M429.209,-317.856C420.332,-302.764 409.038,-283.564 399.959,-268.13"/>
<ellipse fill="none" stroke="#b2a86b" cx="431.245" cy="-321.317" rx="4.00002" ry="4.00002"/>
<polygon fill="#b2a86b" stroke="#b2a86b" points="399.704,-267.697 398.513,-256.796 397.169,-263.387 394.634,-259.078 394.634,-259.078 394.634,-259.078 397.169,-263.387 390.755,-261.359 399.704,-267.697 399.704,-267.697"/>
</g>
<!-- Event&#45;&gt;Evitem -->
<g id="edge20" class="edge"><title>Event&#45;&gt;Evitem</title>
<path fill="none" stroke="#80e56f" d="M366.081,-216.89C360.401,-209.249 354.099,-200.77 348.326,-193.002"/>
<ellipse fill="none" stroke="#80e56f" cx="368.58" cy="-220.253" rx="4.00002" ry="4.00002"/>
<polygon fill="#80e56f" stroke="#80e56f" points="348.288,-192.951 345.934,-182.241 345.305,-188.938 342.323,-184.925 342.323,-184.925 342.323,-184.925 345.305,-188.938 338.711,-187.61 348.288,-192.951 348.288,-192.951"/>
</g>
<!-- Event&#45;&gt;Service -->
<g id="edge18" class="edge"><title>Event&#45;&gt;Service</title>
<path fill="none" stroke="#e89419" d="M402.245,-216.89C408.028,-209.249 414.445,-200.77 420.323,-193.002"/>
<ellipse fill="none" stroke="#e89419" cx="399.685" cy="-220.273" rx="4.00002" ry="4.00002"/>
<polygon fill="#e89419" stroke="#e89419" points="420.401,-192.899 430.023,-187.641 423.418,-188.912 426.435,-184.925 426.435,-184.925 426.435,-184.925 423.418,-188.912 422.847,-182.21 420.401,-192.899 420.401,-192.899"/>
</g>
<!-- Volo&#45;&gt;Servolo -->
<g id="edge22" class="edge"><title>Volo&#45;&gt;Servolo</title>
<path fill="none" stroke="#b77ba2" d="M369.514,-67.1355C366.838,-60.5337 363.95,-53.4104 361.238,-46.7198"/>
<ellipse fill="none" stroke="#b77ba2" cx="371.081" cy="-71.0009" rx="4.00001" ry="4.00001"/>
<polygon fill="#b77ba2" stroke="#b77ba2" points="361.192,-46.6056 361.605,-35.6475 359.313,-41.9719 357.434,-37.3382 357.434,-37.3382 357.434,-37.3382 359.313,-41.9719 353.264,-39.0289 361.192,-46.6056 361.192,-46.6056"/>
</g>
</g>
</svg>
